<svg width="19" height="19" viewBox="0 0 19 19" fill="none" xmlns="http://www.w3.org/2000/svg">
<circle cx="9.5" cy="9.5" r="9.5" fill="black" fill-opacity="0.2"/>
<path fill-rule="evenodd" clip-rule="evenodd" d="M10.193 5.34377C10.193 4.9612 9.8829 4.65106 9.50033 4.65106C9.11775 4.65106 8.80762 4.9612 8.80762 5.34377V8.80731L5.34408 8.80731C4.9615 8.80731 4.65137 9.11745 4.65137 9.50002C4.65137 9.88259 4.9615 10.1927 5.34408 10.1927H8.80762V13.6563C8.80762 14.0388 9.11775 14.349 9.50033 14.349C9.8829 14.349 10.193 14.0388 10.193 13.6563V10.1927H13.6566C14.0391 10.1927 14.3493 9.88259 14.3493 9.50002C14.3493 9.11745 14.0391 8.80731 13.6566 8.80731L10.193 8.80731V5.34377Z" fill="#1F1F1F"/>
</svg>
