<svg width="25" height="24" viewBox="0 0 25 24" fill="none" xmlns="http://www.w3.org/2000/svg">
<path fill-rule="evenodd" clip-rule="evenodd" d="M4.83333 11.6667C4.83333 10.9594 5.11428 10.2811 5.61438 9.78105C6.11448 9.28095 6.79276 9 7.5 9C8.20724 9 8.88552 9.28095 9.38562 9.78105C9.88572 10.2811 10.1667 10.9594 10.1667 11.6667C10.1667 12.3739 9.88572 13.0522 9.38562 13.5523C8.88552 14.0524 8.20724 14.3333 7.5 14.3333C6.79276 14.3333 6.11448 14.0524 5.61438 13.5523C5.11428 13.0522 4.83333 12.3739 4.83333 11.6667ZM4.83333 15.6667C3.94928 15.6667 3.10143 16.0179 2.47631 16.643C1.85119 17.2681 1.5 18.1159 1.5 19C1.5 19.5304 1.71071 20.0391 2.08579 20.4142C2.46086 20.7893 2.96957 21 3.5 21H11.5C12.0304 21 12.5391 20.7893 12.9142 20.4142C13.2893 20.0391 13.5 19.5304 13.5 19C13.5 18.1159 13.1488 17.2681 12.5237 16.643C11.8986 16.0179 11.0507 15.6667 10.1667 15.6667H4.83333Z" fill="#1F1F1F"/>
<path fill-rule="evenodd" clip-rule="evenodd" d="M14.8333 5.66667C14.8333 4.95942 15.1143 4.28115 15.6144 3.78105C16.1145 3.28095 16.7928 3 17.5 3C18.2072 3 18.8855 3.28095 19.3856 3.78105C19.8857 4.28115 20.1667 4.95942 20.1667 5.66667C20.1667 6.37391 19.8857 7.05219 19.3856 7.55229C18.8855 8.05238 18.2072 8.33333 17.5 8.33333C16.7928 8.33333 16.1145 8.05238 15.6144 7.55229C15.1143 7.05219 14.8333 6.37391 14.8333 5.66667ZM14.8333 9.66667C13.9493 9.66667 13.1014 10.0179 12.4763 10.643C11.8512 11.2681 11.5 12.1159 11.5 13C11.5 13.5304 11.7107 14.0391 12.0858 14.4142C12.4609 14.7893 12.9696 15 13.5 15H21.5C22.0304 15 22.5391 14.7893 22.9142 14.4142C23.2893 14.0391 23.5 13.5304 23.5 13C23.5 12.1159 23.1488 11.2681 22.5237 10.643C21.8986 10.0179 21.0507 9.66667 20.1667 9.66667H14.8333Z" fill="#1F1F1F"/>
</svg>
