<svg width="14" height="15" viewBox="0 0 14 15" fill="none" xmlns="http://www.w3.org/2000/svg">
<path fill-rule="evenodd" clip-rule="evenodd" d="M7.875 2.25C7.875 1.76675 7.48325 1.375 7 1.375C6.51675 1.375 6.125 1.76675 6.125 2.25V6.625L1.75 6.625C1.26675 6.625 0.875 7.01675 0.875 7.5C0.875 7.98325 1.26675 8.375 1.75 8.375L6.125 8.375V12.75C6.125 13.2332 6.51675 13.625 7 13.625C7.48325 13.625 7.875 13.2332 7.875 12.75V8.375L12.25 8.375C12.7332 8.375 13.125 7.98325 13.125 7.5C13.125 7.01675 12.7332 6.625 12.25 6.625L7.875 6.625V2.25Z" fill="#1F1F1F"/>
</svg>
