<svg width="24" height="24" viewBox="0 0 24 24" fill="none" xmlns="http://www.w3.org/2000/svg">
<g clip-path="url(#clip0_697_32476)">
<path fill-rule="evenodd" clip-rule="evenodd" d="M18.1619 7.25217C18.5525 6.86165 18.5525 6.22848 18.1619 5.83796C17.7714 5.44743 17.1382 5.44743 16.7477 5.83796L12 10.5857L7.25228 5.83796C6.86176 5.44743 6.22859 5.44743 5.83807 5.83796C5.44755 6.22848 5.44755 6.86165 5.83807 7.25217L10.5858 11.9999L5.83807 16.7476C5.44754 17.1381 5.44755 17.7713 5.83807 18.1618C6.22859 18.5523 6.86176 18.5523 7.25228 18.1618L12 13.4141L16.7477 18.1618C17.1382 18.5523 17.7714 18.5523 18.1619 18.1618C18.5525 17.7713 18.5525 17.1381 18.1619 16.7476L13.4142 11.9999L18.1619 7.25217Z" fill="white" fill-opacity="0.3"/>
</g>
<defs>
<clipPath id="clip0_697_32476">
<rect width="24" height="24" fill="white"/>
</clipPath>
</defs>
</svg>
