<svg width="24" height="24" viewBox="0 0 24 24" fill="none" xmlns="http://www.w3.org/2000/svg">
<path d="M15.6226 5.71241L15.6228 5.71261L17.1783 7.26812L17.2191 7.30884C18.326 8.41572 19.2179 9.30766 19.8249 10.1034C20.4544 10.9286 20.8575 11.7502 20.8575 12.7226C20.8575 13.6955 20.4544 14.5171 19.8248 15.3424C19.2183 16.1372 18.3274 17.0281 17.2219 18.1336L17.1775 18.178L17.1331 18.2224C16.028 19.3275 15.1373 20.2182 14.3426 20.8246C13.5174 21.4541 12.6958 21.8571 11.723 21.8571C10.7506 21.8571 9.92918 21.4543 9.10398 20.8248C8.3079 20.2174 7.41542 19.3246 6.30729 18.216L6.26844 18.1772L6.26833 18.1771L4.71293 16.6217L4.67918 16.5879C4.04943 15.9582 3.53404 15.4428 3.14989 14.9775C2.74722 14.4897 2.44637 14.0083 2.28069 13.4293C2.11522 12.8511 2.1151 12.284 2.19782 11.6569C2.27701 11.0566 2.44139 10.3435 2.64253 9.47102L2.65117 9.43354L2.65131 9.43294L2.89257 8.38977L2.89271 8.38913L2.90138 8.35153C3.06903 7.624 3.20944 7.01474 3.37732 6.52531C3.55462 6.00844 3.78422 5.55564 4.16929 5.16995L4.17027 5.16896C4.55597 4.7839 5.00876 4.55429 5.52563 4.377C6.01506 4.20911 6.62432 4.06871 7.35185 3.90106L7.39009 3.89224L7.3901 3.89224L8.4334 3.65181L8.43391 3.65169L8.47233 3.64281C9.34372 3.44142 10.0564 3.27671 10.6567 3.19732C11.2837 3.11439 11.8511 3.11439 12.4297 3.28037L15.6226 5.71241ZM15.6226 5.71241L15.5865 5.67634M15.6226 5.71241L15.5865 5.67634M15.5865 5.67634C14.9575 5.04769 14.4426 4.53312 13.9778 4.1495M15.5865 5.67634L13.9778 4.1495M13.9778 4.1495C13.4901 3.74695 13.0088 3.44614 12.4299 3.28044L13.9778 4.1495ZM9.50135 9.37553L10.2887 9.03678L9.50135 9.37553C9.54636 9.48015 9.57007 9.59269 9.57111 9.70658C9.57214 9.82047 9.55047 9.93342 9.50736 10.0388C9.46425 10.1443 9.40057 10.24 9.32004 10.3206C9.2395 10.4011 9.14373 10.4648 9.03831 10.5079C8.93289 10.551 8.81994 10.5727 8.70605 10.5716C8.59217 10.5706 8.47963 10.5469 8.375 10.5019C8.27038 10.4569 8.17578 10.3915 8.09672 10.3095C7.94075 10.1477 7.8545 9.93125 7.85654 9.70658C7.85858 9.48191 7.94873 9.26701 8.10761 9.10814C8.26648 8.94926 8.48138 8.85911 8.70605 8.85707C8.93073 8.85503 9.14722 8.94128 9.30895 9.09725C9.39093 9.17631 9.45634 9.27091 9.50135 9.37553ZM16.8867 11.9372L16.8867 11.9372C16.8867 11.9372 16.8867 11.9372 16.8867 11.9372Z" stroke="white" stroke-width="1.71429"/>
</svg>
