<svg width="24" height="24" viewBox="0 0 24 24" fill="none" xmlns="http://www.w3.org/2000/svg">
<path d="M7.44626 4.17781C7.5448 4.0803 7.62207 3.96342 7.6732 3.83455C7.72432 3.70568 7.74819 3.56762 7.7433 3.42907C7.73842 3.29052 7.70487 3.15448 7.64479 3.02954C7.58471 2.90459 7.4994 2.79345 7.39423 2.70312C6.86496 2.25143 6.19254 2.00226 5.49673 2L5.34344 2.00422H5.32094C3.73423 2.10078 2.49673 3.47891 2.50001 5.14062C2.50001 6.03125 2.87501 6.50281 3.17126 6.88016C3.25439 6.98565 3.3586 7.07265 3.47725 7.13561C3.59589 7.19856 3.72636 7.23608 3.86032 7.24578C3.87251 7.24578 3.89313 7.24813 3.95407 7.24813C4.07457 7.24795 4.19379 7.2234 4.30455 7.17595C4.41532 7.1285 4.51534 7.05914 4.5986 6.97203L7.44626 4.17781ZM19.1744 2.00516L19.0211 2.00047H18.9967C18.3003 2.00228 17.6271 2.25148 17.0974 2.70359C16.9923 2.79392 16.9071 2.905 16.8471 3.02986C16.7872 3.15472 16.7537 3.29065 16.7488 3.42908C16.7439 3.56752 16.7677 3.70546 16.8188 3.83424C16.8698 3.96302 16.9469 4.07984 17.0453 4.17734L19.8939 6.97344C19.9774 7.06086 20.0777 7.13044 20.1888 7.17798C20.2999 7.22551 20.4195 7.25002 20.5403 7.25C20.6003 7.25 20.6209 7.25 20.6341 7.24766C20.768 7.2379 20.8983 7.20034 21.0169 7.13739C21.1354 7.07444 21.2396 6.98747 21.3227 6.88203C21.6208 6.50469 21.992 6.03453 21.9939 5.1425C21.9967 3.47891 20.7592 2.10078 19.1744 2.00516Z" fill="white"/>
<path d="M12.2575 4.5C7.71064 4.5 4.00751 8.20078 4.00751 12.75C4.0059 14.6788 4.68312 16.5467 5.92048 18.0262L4.22736 19.7198C4.15606 19.7891 4.09924 19.8719 4.06021 19.9633C4.02118 20.0547 4.00072 20.153 4.00002 20.2524C3.99931 20.3518 4.01838 20.4504 4.05611 20.5424C4.09384 20.6344 4.14948 20.7179 4.21979 20.7882C4.2901 20.8585 4.37368 20.9141 4.46567 20.9518C4.55767 20.9895 4.65624 21.0085 4.75565 21.0077C4.85506 21.007 4.95333 20.9865 5.04474 20.9474C5.13616 20.9083 5.21889 20.8515 5.28814 20.7802L6.98126 19.087C8.46166 20.323 10.329 21 12.2575 21C14.186 21 16.0534 20.323 17.5338 19.087L19.2274 20.7802C19.2966 20.8515 19.3793 20.9083 19.4708 20.9474C19.5622 20.9865 19.6604 21.007 19.7599 21.0077C19.8593 21.0085 19.9578 20.9895 20.0498 20.9518C20.1418 20.9141 20.2254 20.8585 20.2957 20.7882C20.366 20.7179 20.4217 20.6344 20.4594 20.5424C20.4971 20.4504 20.5162 20.3518 20.5155 20.2524C20.5148 20.153 20.4943 20.0547 20.4553 19.9633C20.4163 19.8719 20.3594 19.7891 20.2881 19.7198L18.5945 18.0262C19.8321 16.5468 20.5094 14.6788 20.5075 12.75C20.5075 8.20312 16.8067 4.5 12.2575 4.5ZM13.0075 12.75C13.0075 12.9489 12.9285 13.1397 12.7878 13.2803C12.6472 13.421 12.4564 13.5 12.2575 13.5H8.50751C8.3086 13.5 8.11784 13.421 7.97718 13.2803C7.83653 13.1397 7.75751 12.9489 7.75751 12.75C7.75751 12.5511 7.83653 12.3603 7.97718 12.2197C8.11784 12.079 8.3086 12 8.50751 12H11.5075V7.5C11.5075 7.30109 11.5865 7.11032 11.7272 6.96967C11.8678 6.82902 12.0586 6.75 12.2575 6.75C12.4564 6.75 12.6472 6.82902 12.7878 6.96967C12.9285 7.11032 13.0075 7.30109 13.0075 7.5V12.75Z" fill="white"/>
</svg>
