<svg width="24" height="24" viewBox="0 0 24 24" fill="none" xmlns="http://www.w3.org/2000/svg">
<path d="M16 2C16.2449 2.00003 16.4813 2.08996 16.6644 2.25272C16.8474 2.41547 16.9643 2.63975 16.993 2.883L17 3V4H19C19.5046 3.99984 19.9906 4.19041 20.3605 4.5335C20.7305 4.87659 20.9572 5.34684 20.995 5.85L21 6V18C21.0002 18.5046 20.8096 18.9906 20.4665 19.3605C20.1234 19.7305 19.6532 19.9572 19.15 19.995L19 20H5C4.49542 20.0002 4.00943 19.8096 3.63945 19.4665C3.26947 19.1234 3.04284 18.6532 3.005 18.15L3 18V6C2.99984 5.49542 3.19041 5.00943 3.5335 4.63945C3.87659 4.26947 4.34684 4.04284 4.85 4.005L5 4H7V3C7.00028 2.74512 7.09788 2.49997 7.27285 2.31463C7.44782 2.1293 7.68695 2.01777 7.94139 2.00283C8.19584 1.98789 8.44638 2.07067 8.64183 2.23426C8.83729 2.39786 8.9629 2.6299 8.993 2.883L9 3V4H15V3C15 2.73478 15.1054 2.48043 15.2929 2.29289C15.4804 2.10536 15.7348 2 16 2ZM19 11H5V18H19V11ZM19 6H5V9H19V6Z" fill="white"/>
</svg>
