<svg width="360" height="770" viewBox="0 0 360 770" fill="none" xmlns="http://www.w3.org/2000/svg">
<g clip-path="url(#clip0_482_8376)">
<rect width="360" height="770" fill="#1F1F1F"/>
<path d="M269.928 66.355C270.576 66.355 271.106 65.8678 271.106 65.2724V-52.9174C271.106 -53.5128 270.576 -54 269.928 -54C269.28 -54 268.75 -53.5128 268.75 -52.9174V65.2724C268.75 65.8678 269.269 66.355 269.928 66.355Z" fill="white"/>
<path d="M342.616 98C343.264 98 343.794 97.5128 343.794 96.9174V-52.9174C343.794 -53.5128 343.264 -54 342.616 -54C341.968 -54 341.438 -53.5128 341.438 -52.9174V96.9174C341.438 97.5236 341.968 98 342.616 98Z" fill="white"/>
<path d="M305.047 66.355C305.695 66.355 306.225 65.8678 306.225 65.2724V-52.9174C306.225 -53.5128 305.695 -54 305.047 -54C304.399 -54 303.869 -53.5128 303.869 -52.9174V65.2724C303.869 65.8678 304.399 66.355 305.047 66.355Z" fill="white"/>
<path d="M227.19 5.97725H412.876C413.524 5.97725 414.054 5.49007 414.054 4.89463C414.054 4.29919 413.524 3.81201 412.876 3.81201H227.19C226.542 3.81201 226.011 4.29919 226.011 4.89463C226.011 5.49007 226.542 5.97725 227.19 5.97725Z" fill="white"/>
<path d="M227.19 44.4533H450.821C451.469 44.4533 452 43.9661 452 43.3707C452 42.7753 451.469 42.2881 450.821 42.2881H227.178C226.53 42.2881 226 42.7753 226 43.3707C226.012 43.9661 226.542 44.4533 227.19 44.4533Z" fill="white"/>
<path d="M322.082 83.8178H412.876C413.524 83.8178 414.054 83.3307 414.054 82.7352C414.054 82.1398 413.524 81.6526 412.876 81.6526H322.082C321.434 81.6526 320.904 82.1398 320.904 82.7352C320.904 83.3307 321.434 83.8178 322.082 83.8178Z" fill="white"/>
</g>
<defs>
<clipPath id="clip0_482_8376">
<rect width="360" height="770" fill="white"/>
</clipPath>
</defs>
</svg>
