<svg width="360" height="193" viewBox="0 0 360 193" fill="none" xmlns="http://www.w3.org/2000/svg">
<path d="M415.857 -228.659L-53.9996 -335L-26.2793 165.038L372.723 165.577L415.857 -228.659Z" fill="#FEF656"/>
<path d="M254.928 91.355C255.576 91.355 256.107 90.8678 256.107 90.2724V-27.9174C256.107 -28.5128 255.576 -29 254.928 -29C254.281 -29 253.75 -28.5128 253.75 -27.9174V90.2724C253.75 90.8678 254.269 91.355 254.928 91.355Z" fill="#1F1F1F"/>
<path d="M327.616 123C328.264 123 328.794 122.513 328.794 121.917V-27.9174C328.794 -28.5128 328.264 -29 327.616 -29C326.968 -29 326.438 -28.5128 326.438 -27.9174V121.917C326.438 122.524 326.968 123 327.616 123Z" fill="#1F1F1F"/>
<path d="M290.047 91.355C290.695 91.355 291.225 90.8678 291.225 90.2724V-27.9174C291.225 -28.5128 290.695 -29 290.047 -29C289.399 -29 288.869 -28.5128 288.869 -27.9174V90.2724C288.869 90.8678 289.399 91.355 290.047 91.355Z" fill="#1F1F1F"/>
<path d="M212.189 30.9773H397.875C398.523 30.9773 399.053 30.4901 399.053 29.8946C399.053 29.2992 398.523 28.812 397.875 28.812H212.189C211.541 28.812 211.011 29.2992 211.011 29.8946C211.011 30.4901 211.541 30.9773 212.189 30.9773Z" fill="#1F1F1F"/>
<path d="M212.19 69.4533H435.821C436.469 69.4533 436.999 68.9661 436.999 68.3707C436.999 67.7753 436.469 67.2881 435.821 67.2881H212.178C211.53 67.2881 211 67.7753 211 68.3707C211.012 68.9661 211.542 69.4533 212.19 69.4533Z" fill="#1F1F1F"/>
<path d="M307.082 108.818H397.875C398.523 108.818 399.053 108.331 399.053 107.735C399.053 107.14 398.523 106.653 397.875 106.653H307.082C306.434 106.653 305.904 107.14 305.904 107.735C305.904 108.331 306.434 108.818 307.082 108.818Z" fill="#1F1F1F"/>
<path d="M32.64 142.72C30.0533 142.72 27.7067 142.2 25.6 141.16C23.52 140.093 21.8667 138.52 20.64 136.44C19.4133 134.36 18.8 131.813 18.8 128.8C18.8 126.507 19.1733 124.493 19.92 122.76C20.6667 121.027 21.68 119.573 22.96 118.4C24.2667 117.227 25.76 116.347 27.44 115.76C29.1467 115.173 30.9467 114.88 32.84 114.88C34.36 114.88 35.76 115.053 37.04 115.4C38.32 115.747 39.52 116.227 40.64 116.84L40.8 121.76H40.4L38.4 118.56C38.1333 118.053 37.84 117.6 37.52 117.2C37.2 116.773 36.8 116.453 36.32 116.24C35.92 116.053 35.52 115.92 35.12 115.84C34.7467 115.733 34.2667 115.68 33.68 115.68C32.1333 115.68 30.72 116.093 29.44 116.92C28.1867 117.747 27.1733 119.12 26.4 121.04C25.6533 122.933 25.28 125.533 25.28 128.84C25.28 132.12 25.64 134.72 26.36 136.64C27.08 138.533 28.0533 139.893 29.28 140.72C30.5333 141.52 31.9333 141.92 33.48 141.92C34.3333 141.92 35.0133 141.867 35.52 141.76C36.0267 141.627 36.5333 141.44 37.04 141.2C37.5467 140.987 37.9333 140.68 38.2 140.28C38.4667 139.853 38.7067 139.4 38.92 138.92L40.68 135H41.08L40.96 140.72C39.84 141.307 38.5867 141.787 37.2 142.16C35.8133 142.533 34.2933 142.72 32.64 142.72ZM43.3016 142V141.6L43.9016 141.44C44.4349 141.28 44.7949 141.04 44.9816 140.72C45.1949 140.4 45.3016 139.987 45.3016 139.48V126.96C45.3016 126.373 45.1949 125.947 44.9816 125.68C44.7949 125.387 44.4349 125.187 43.9016 125.08L43.3016 124.92V124.52L50.1816 122.2L50.5816 122.6L50.9416 126.04V126.36C51.3149 125.613 51.7949 124.933 52.3816 124.32C52.9949 123.68 53.6616 123.16 54.3816 122.76C55.1282 122.36 55.8616 122.16 56.5816 122.16C57.5949 122.16 58.3682 122.44 58.9016 123C59.4349 123.56 59.7016 124.267 59.7016 125.12C59.7016 126.027 59.4349 126.733 58.9016 127.24C58.3949 127.72 57.7816 127.96 57.0616 127.96C55.9416 127.96 54.9549 127.4 54.1016 126.28L54.0216 126.2C53.7549 125.827 53.4482 125.627 53.1016 125.6C52.7549 125.547 52.4349 125.707 52.1416 126.08C51.8749 126.32 51.6482 126.613 51.4616 126.96C51.3016 127.28 51.1416 127.653 50.9816 128.08V139.24C50.9816 140.307 51.4482 140.973 52.3816 141.24L53.6616 141.6V142H43.3016ZM70.7728 122.16C72.5061 122.16 73.9861 122.52 75.2128 123.24C76.4395 123.933 77.3728 124.893 78.0128 126.12C78.6795 127.32 79.0128 128.693 79.0128 130.24C79.0128 130.533 78.9995 130.84 78.9728 131.16C78.9461 131.453 78.8928 131.72 78.8128 131.96H66.8928C66.9195 134.84 67.4261 136.92 68.4128 138.2C69.4261 139.453 70.9195 140.08 72.8928 140.08C74.2261 140.08 75.3061 139.867 76.1328 139.44C76.9595 139.013 77.7328 138.387 78.4528 137.56L78.8528 137.92C78.0261 139.387 76.9195 140.533 75.5328 141.36C74.1728 142.187 72.5328 142.6 70.6128 142.6C68.7195 142.6 67.0395 142.2 65.5728 141.4C64.1061 140.573 62.9595 139.4 62.1328 137.88C61.3061 136.36 60.8928 134.547 60.8928 132.44C60.8928 130.253 61.3728 128.4 62.3328 126.88C63.2928 125.333 64.5195 124.16 66.0128 123.36C67.5328 122.56 69.1195 122.16 70.7728 122.16ZM70.6528 122.96C69.8795 122.96 69.2128 123.2 68.6528 123.68C68.1195 124.133 67.6928 124.96 67.3728 126.16C67.0795 127.333 66.9195 129 66.8928 131.16H73.7328C73.9995 128.253 73.8928 126.16 73.4128 124.88C72.9328 123.6 72.0128 122.96 70.6528 122.96ZM87.09 142.6C85.5433 142.6 84.2367 142.16 83.17 141.28C82.13 140.4 81.61 139.133 81.61 137.48C81.61 136.227 82.25 135.08 83.53 134.04C84.81 132.973 86.8233 132.173 89.57 131.64C89.9967 131.56 90.4767 131.48 91.01 131.4C91.5433 131.293 92.1033 131.187 92.69 131.08V127.92C92.69 126.107 92.4633 124.84 92.01 124.12C91.5833 123.373 90.9033 123 89.97 123C89.33 123 88.8233 123.213 88.45 123.64C88.0767 124.04 87.8367 124.747 87.73 125.76L87.65 126.2C87.5967 127.347 87.3167 128.187 86.81 128.72C86.3033 129.253 85.6767 129.52 84.93 129.52C84.2367 129.52 83.6633 129.307 83.21 128.88C82.7567 128.453 82.53 127.88 82.53 127.16C82.53 126.067 82.9033 125.147 83.65 124.4C84.4233 123.653 85.4367 123.093 86.69 122.72C87.9433 122.347 89.3033 122.16 90.77 122.16C93.1433 122.16 94.97 122.747 96.25 123.92C97.5567 125.067 98.21 126.947 98.21 129.56V138.4C98.21 139.6 98.77 140.2 99.89 140.2H100.77L101.13 140.52C100.623 141.16 100.063 141.653 99.45 142C98.8633 142.347 98.0233 142.52 96.93 142.52C95.7567 142.52 94.8233 142.253 94.13 141.72C93.4633 141.16 93.0233 140.427 92.81 139.52C92.01 140.373 91.1833 141.107 90.33 141.72C89.5033 142.307 88.4233 142.6 87.09 142.6ZM89.53 140.16C90.0633 140.16 90.5567 140.04 91.01 139.8C91.49 139.533 92.05 139.133 92.69 138.6V131.88C92.4233 131.933 92.1567 131.987 91.89 132.04C91.6233 132.093 91.3167 132.147 90.97 132.2C89.7433 132.52 88.7567 133.067 88.01 133.84C87.29 134.587 86.93 135.6 86.93 136.88C86.93 137.973 87.1833 138.8 87.69 139.36C88.1967 139.893 88.81 140.16 89.53 140.16ZM109.953 142.6C108.246 142.6 106.913 142.173 105.953 141.32C105.02 140.467 104.553 139.107 104.553 137.24V123.56H101.793V123.16L102.753 123C103.58 122.813 104.286 122.547 104.873 122.2C105.486 121.853 106.086 121.387 106.673 120.8L109.953 117.16H110.353L110.233 122.76H114.713V123.56H110.193V137.96C110.193 138.893 110.393 139.6 110.793 140.08C111.22 140.56 111.753 140.8 112.393 140.8C112.953 140.8 113.446 140.667 113.873 140.4C114.3 140.107 114.726 139.72 115.153 139.24L115.553 139.64C115.02 140.547 114.286 141.267 113.353 141.8C112.42 142.333 111.286 142.6 109.953 142.6ZM127.129 122.16C128.862 122.16 130.342 122.52 131.569 123.24C132.796 123.933 133.729 124.893 134.369 126.12C135.036 127.32 135.369 128.693 135.369 130.24C135.369 130.533 135.356 130.84 135.329 131.16C135.302 131.453 135.249 131.72 135.169 131.96H123.249C123.276 134.84 123.782 136.92 124.769 138.2C125.782 139.453 127.276 140.08 129.249 140.08C130.582 140.08 131.662 139.867 132.489 139.44C133.316 139.013 134.089 138.387 134.809 137.56L135.209 137.92C134.382 139.387 133.276 140.533 131.889 141.36C130.529 142.187 128.889 142.6 126.969 142.6C125.076 142.6 123.396 142.2 121.929 141.4C120.462 140.573 119.316 139.4 118.489 137.88C117.662 136.36 117.249 134.547 117.249 132.44C117.249 130.253 117.729 128.4 118.689 126.88C119.649 125.333 120.876 124.16 122.369 123.36C123.889 122.56 125.476 122.16 127.129 122.16ZM127.009 122.96C126.236 122.96 125.569 123.2 125.009 123.68C124.476 124.133 124.049 124.96 123.729 126.16C123.436 127.333 123.276 129 123.249 131.16H130.089C130.356 128.253 130.249 126.16 129.769 124.88C129.289 123.6 128.369 122.96 127.009 122.96ZM146.393 142V141.6L147.393 141.24C147.927 141.027 148.34 140.773 148.633 140.48C148.927 140.16 149.167 139.72 149.353 139.16L157.593 115.52H160.993L169.113 139.32C169.327 139.907 169.567 140.36 169.833 140.68C170.1 140.973 170.513 141.227 171.073 141.44L171.553 141.6V142H161.393V141.6L161.993 141.4C162.553 141.187 162.887 140.893 162.993 140.52C163.127 140.12 163.113 139.653 162.953 139.12L161.073 133.36H152.193L150.273 139C150.087 139.587 150.02 140.053 150.073 140.4C150.153 140.747 150.473 141.027 151.033 141.24L151.913 141.6V142H146.393ZM152.473 132.56H160.833L156.793 120.12L152.473 132.56ZM182.428 142.6C180.614 142.6 178.961 142.213 177.468 141.44C176.001 140.64 174.828 139.493 173.948 138C173.094 136.48 172.668 134.627 172.668 132.44C172.668 130.28 173.134 128.44 174.068 126.92C175.028 125.373 176.294 124.2 177.868 123.4C179.468 122.573 181.214 122.16 183.108 122.16C184.654 122.16 185.961 122.413 187.028 122.92C188.094 123.427 188.908 124.093 189.468 124.92C190.028 125.72 190.308 126.56 190.308 127.44C190.308 128.187 190.081 128.773 189.628 129.2C189.174 129.6 188.588 129.8 187.868 129.8C187.094 129.8 186.468 129.52 185.988 128.96C185.508 128.4 185.228 127.667 185.148 126.76C185.121 126.173 185.134 125.68 185.188 125.28C185.241 124.853 185.241 124.427 185.188 124C185.081 123.547 184.908 123.253 184.668 123.12C184.454 122.96 184.148 122.88 183.748 122.88C182.121 122.88 180.854 123.587 179.948 125C179.068 126.413 178.628 128.667 178.628 131.76C178.628 134.453 179.121 136.52 180.108 137.96C181.121 139.373 182.668 140.08 184.748 140.08C186.001 140.08 187.014 139.853 187.788 139.4C188.561 138.947 189.308 138.267 190.028 137.36L190.428 137.68C189.761 139.253 188.734 140.467 187.348 141.32C185.961 142.173 184.321 142.6 182.428 142.6ZM202.359 142.6C200.546 142.6 198.892 142.213 197.399 141.44C195.932 140.64 194.759 139.493 193.879 138C193.026 136.48 192.599 134.627 192.599 132.44C192.599 130.28 193.066 128.44 193.999 126.92C194.959 125.373 196.226 124.2 197.799 123.4C199.399 122.573 201.146 122.16 203.039 122.16C204.586 122.16 205.892 122.413 206.959 122.92C208.026 123.427 208.839 124.093 209.399 124.92C209.959 125.72 210.239 126.56 210.239 127.44C210.239 128.187 210.012 128.773 209.559 129.2C209.106 129.6 208.519 129.8 207.799 129.8C207.026 129.8 206.399 129.52 205.919 128.96C205.439 128.4 205.159 127.667 205.079 126.76C205.052 126.173 205.066 125.68 205.119 125.28C205.172 124.853 205.172 124.427 205.119 124C205.012 123.547 204.839 123.253 204.599 123.12C204.386 122.96 204.079 122.88 203.679 122.88C202.052 122.88 200.786 123.587 199.879 125C198.999 126.413 198.559 128.667 198.559 131.76C198.559 134.453 199.052 136.52 200.039 137.96C201.052 139.373 202.599 140.08 204.679 140.08C205.932 140.08 206.946 139.853 207.719 139.4C208.492 138.947 209.239 138.267 209.959 137.36L210.359 137.68C209.692 139.253 208.666 140.467 207.279 141.32C205.892 142.173 204.252 142.6 202.359 142.6ZM222.49 142.6C220.464 142.6 218.704 142.187 217.21 141.36C215.717 140.507 214.557 139.307 213.73 137.76C212.93 136.213 212.53 134.4 212.53 132.32C212.53 130.24 212.957 128.44 213.81 126.92C214.69 125.4 215.877 124.227 217.37 123.4C218.89 122.573 220.597 122.16 222.49 122.16C224.384 122.16 226.077 122.573 227.57 123.4C229.064 124.2 230.237 125.36 231.09 126.88C231.97 128.4 232.41 130.213 232.41 132.32C232.41 134.427 231.997 136.253 231.17 137.8C230.37 139.32 229.224 140.507 227.73 141.36C226.264 142.187 224.517 142.6 222.49 142.6ZM222.49 141.8C223.424 141.8 224.17 141.533 224.73 141C225.29 140.467 225.69 139.52 225.93 138.16C226.197 136.8 226.33 134.88 226.33 132.4C226.33 129.893 226.197 127.96 225.93 126.6C225.69 125.24 225.29 124.293 224.73 123.76C224.17 123.227 223.424 122.96 222.49 122.96C221.557 122.96 220.797 123.227 220.21 123.76C219.65 124.293 219.237 125.24 218.97 126.6C218.73 127.96 218.61 129.893 218.61 132.4C218.61 134.88 218.73 136.8 218.97 138.16C219.237 139.52 219.65 140.467 220.21 141C220.797 141.533 221.557 141.8 222.49 141.8ZM241.651 142.6C240.611 142.6 239.651 142.4 238.771 142C237.918 141.6 237.238 140.96 236.731 140.08C236.251 139.173 236.024 137.987 236.051 136.52L236.171 126.24C236.171 125.627 236.064 125.187 235.851 124.92C235.638 124.653 235.304 124.467 234.851 124.36L234.371 124.2V123.8L241.531 122.4L241.931 122.8L241.731 128.48V138.12C241.731 138.973 241.971 139.6 242.451 140C242.958 140.4 243.584 140.6 244.331 140.6C245.078 140.6 245.744 140.493 246.331 140.28C246.918 140.067 247.504 139.747 248.091 139.32L248.251 126.28C248.251 125.667 248.158 125.24 247.971 125C247.784 124.733 247.438 124.547 246.931 124.44L246.531 124.32V123.92L253.531 122.4L253.931 122.8L253.811 128.48V139.32C253.811 139.907 253.891 140.36 254.051 140.68C254.211 141 254.558 141.267 255.091 141.48L255.491 141.6V142L248.491 142.4L248.131 140.04C247.251 140.76 246.291 141.373 245.251 141.88C244.238 142.36 243.038 142.6 241.651 142.6ZM257.506 142V141.6L258.066 141.44C259 141.173 259.466 140.52 259.466 139.48V126.96C259.466 126.373 259.373 125.947 259.186 125.68C259 125.387 258.64 125.187 258.106 125.08L257.506 124.92V124.52L264.346 122.2L264.746 122.6L265.066 125C266 124.173 267.053 123.493 268.226 122.96C269.4 122.427 270.56 122.16 271.706 122.16C273.466 122.16 274.813 122.64 275.746 123.6C276.706 124.56 277.186 126.027 277.186 128V139.52C277.186 140.56 277.693 141.213 278.706 141.48L279.066 141.6V142H269.626V141.6L270.146 141.44C271.08 141.147 271.546 140.493 271.546 139.48V126.72C271.546 125.013 270.693 124.16 268.986 124.16C267.813 124.16 266.533 124.747 265.146 125.92V139.52C265.146 140.56 265.613 141.213 266.546 141.48L266.906 141.6V142H257.506ZM288.436 142.6C286.729 142.6 285.396 142.173 284.436 141.32C283.503 140.467 283.036 139.107 283.036 137.24V123.56H280.276V123.16L281.236 123C282.063 122.813 282.769 122.547 283.356 122.2C283.969 121.853 284.569 121.387 285.156 120.8L288.436 117.16H288.836L288.716 122.76H293.196V123.56H288.676V137.96C288.676 138.893 288.876 139.6 289.276 140.08C289.703 140.56 290.236 140.8 290.876 140.8C291.436 140.8 291.929 140.667 292.356 140.4C292.783 140.107 293.209 139.72 293.636 139.24L294.036 139.64C293.503 140.547 292.769 141.267 291.836 141.8C290.903 142.333 289.769 142.6 288.436 142.6Z" fill="#1F1F1F"/>
</svg>
