<svg width="360" height="214" viewBox="0 0 360 214" fill="none" xmlns="http://www.w3.org/2000/svg">
<path d="M415.857 -228.659L-53.9996 -335L-26.2793 165.038L372.723 165.577L415.857 -228.659Z" fill="#FEF656"/>
<path d="M254.929 91.355C255.576 91.355 256.107 90.8678 256.107 90.2724V-27.9174C256.107 -28.5128 255.576 -29 254.929 -29C254.281 -29 253.75 -28.5128 253.75 -27.9174V90.2724C253.75 90.8678 254.269 91.355 254.929 91.355Z" fill="#1F1F1F"/>
<path d="M327.616 123C328.264 123 328.794 122.513 328.794 121.917V-27.9174C328.794 -28.5128 328.264 -29 327.616 -29C326.968 -29 326.438 -28.5128 326.438 -27.9174V121.917C326.438 122.524 326.968 123 327.616 123Z" fill="#1F1F1F"/>
<path d="M290.047 91.355C290.695 91.355 291.225 90.8678 291.225 90.2724V-27.9174C291.225 -28.5128 290.695 -29 290.047 -29C289.399 -29 288.869 -28.5128 288.869 -27.9174V90.2724C288.869 90.8678 289.399 91.355 290.047 91.355Z" fill="#1F1F1F"/>
<path d="M212.189 30.9773H397.875C398.523 30.9773 399.053 30.4901 399.053 29.8946C399.053 29.2992 398.523 28.812 397.875 28.812H212.189C211.541 28.812 211.011 29.2992 211.011 29.8946C211.011 30.4901 211.541 30.9773 212.189 30.9773Z" fill="#1F1F1F"/>
<path d="M212.19 69.4533H435.821C436.469 69.4533 436.999 68.9661 436.999 68.3707C436.999 67.7753 436.469 67.2881 435.821 67.2881H212.178C211.53 67.2881 211 67.7753 211 68.3707C211.012 68.9661 211.542 69.4533 212.19 69.4533Z" fill="#1F1F1F"/>
<path d="M307.082 108.818H397.875C398.523 108.818 399.053 108.331 399.053 107.735C399.053 107.14 398.523 106.653 397.875 106.653H307.082C306.434 106.653 305.904 107.14 305.904 107.735C305.904 108.331 306.434 108.818 307.082 108.818Z" fill="#1F1F1F"/>
<path d="M17.88 138V137.6L18.6 137.36C19.1333 137.173 19.4933 136.92 19.68 136.6C19.8667 136.28 19.96 135.853 19.96 135.32C19.9867 133.72 20 132.107 20 130.48C20 128.853 20 127.227 20 125.6V124C20 122.4 20 120.8 20 119.2C20 117.573 19.9867 115.96 19.96 114.36C19.96 113.827 19.88 113.4 19.72 113.08C19.5867 112.76 19.2667 112.507 18.76 112.32L17.88 112V111.6H37.24L37.52 118.24H37.12L34.84 114.04C34.5733 113.533 34.2667 113.133 33.92 112.84C33.5733 112.547 33.0933 112.4 32.48 112.4H26.04C26.0133 114.293 26 116.227 26 118.2C26 120.173 26 122.133 26 124.08H30.16C30.7733 124.08 31.2267 123.947 31.52 123.68C31.8133 123.413 32.0933 123.027 32.36 122.52L33.2 121H33.6V128H33.2L32.32 126.48C32.0533 126 31.7733 125.613 31.48 125.32C31.2133 125.027 30.7733 124.88 30.16 124.88H26C26 126.747 26 128.533 26 130.24C26 131.92 26.0133 133.573 26.04 135.2C26.04 136.24 26.5467 136.92 27.56 137.24L28.76 137.6V138H17.88ZM47.4122 138.6C45.3855 138.6 43.6255 138.187 42.1322 137.36C40.6389 136.507 39.4789 135.307 38.6522 133.76C37.8522 132.213 37.4522 130.4 37.4522 128.32C37.4522 126.24 37.8789 124.44 38.7322 122.92C39.6122 121.4 40.7989 120.227 42.2922 119.4C43.8122 118.573 45.5189 118.16 47.4122 118.16C49.3055 118.16 50.9989 118.573 52.4922 119.4C53.9855 120.2 55.1589 121.36 56.0122 122.88C56.8922 124.4 57.3322 126.213 57.3322 128.32C57.3322 130.427 56.9189 132.253 56.0922 133.8C55.2922 135.32 54.1455 136.507 52.6522 137.36C51.1855 138.187 49.4389 138.6 47.4122 138.6ZM47.4122 137.8C48.3455 137.8 49.0922 137.533 49.6522 137C50.2122 136.467 50.6122 135.52 50.8522 134.16C51.1189 132.8 51.2522 130.88 51.2522 128.4C51.2522 125.893 51.1189 123.96 50.8522 122.6C50.6122 121.24 50.2122 120.293 49.6522 119.76C49.0922 119.227 48.3455 118.96 47.4122 118.96C46.4789 118.96 45.7189 119.227 45.1322 119.76C44.5722 120.293 44.1589 121.24 43.8922 122.6C43.6522 123.96 43.5322 125.893 43.5322 128.4C43.5322 130.88 43.6522 132.8 43.8922 134.16C44.1589 135.52 44.5722 136.467 45.1322 137C45.7189 137.533 46.4789 137.8 47.4122 137.8ZM59.0891 138V137.6L59.6891 137.44C60.2224 137.28 60.5824 137.04 60.7691 136.72C60.9824 136.4 61.0891 135.987 61.0891 135.48V122.96C61.0891 122.373 60.9824 121.947 60.7691 121.68C60.5824 121.387 60.2224 121.187 59.6891 121.08L59.0891 120.92V120.52L65.9691 118.2L66.3691 118.6L66.7291 122.04V122.36C67.1024 121.613 67.5824 120.933 68.1691 120.32C68.7824 119.68 69.4491 119.16 70.1691 118.76C70.9157 118.36 71.6491 118.16 72.3691 118.16C73.3824 118.16 74.1557 118.44 74.6891 119C75.2224 119.56 75.4891 120.267 75.4891 121.12C75.4891 122.027 75.2224 122.733 74.6891 123.24C74.1824 123.72 73.5691 123.96 72.8491 123.96C71.7291 123.96 70.7424 123.4 69.8891 122.28L69.8091 122.2C69.5424 121.827 69.2357 121.627 68.8891 121.6C68.5424 121.547 68.2224 121.707 67.9291 122.08C67.6624 122.32 67.4357 122.613 67.2491 122.96C67.0891 123.28 66.9291 123.653 66.7691 124.08V135.24C66.7691 136.307 67.2357 136.973 68.1691 137.24L69.4491 137.6V138H59.0891ZM84.8403 131.08C83.0003 131.08 81.4403 130.773 80.1603 130.16V131.52C80.1603 132.347 80.5736 132.84 81.4003 133L88.9203 134.4C90.1736 134.64 91.307 134.96 92.3203 135.36C93.3336 135.733 94.147 136.28 94.7603 137C95.3736 137.693 95.6803 138.653 95.6803 139.88C95.6803 141.187 95.2536 142.387 94.4003 143.48C93.547 144.6 92.2803 145.493 90.6003 146.16C88.947 146.853 86.8803 147.2 84.4003 147.2C82.267 147.2 80.5736 146.973 79.3203 146.52C78.067 146.093 77.1736 145.533 76.6403 144.84C76.1336 144.147 75.8803 143.413 75.8803 142.64C75.8803 141.68 76.2003 140.707 76.8403 139.72C77.507 138.76 78.3203 137.987 79.2803 137.4C78.4536 137.08 77.8536 136.667 77.4803 136.16C77.107 135.653 76.9203 135.107 76.9203 134.52C76.9203 133.987 77.0536 133.493 77.3203 133.04C77.6136 132.56 77.9603 132.08 78.3603 131.6L79.6803 129.92C77.7336 128.8 76.7603 127.04 76.7603 124.64C76.7603 122.72 77.4403 121.16 78.8003 119.96C80.187 118.76 82.2136 118.16 84.8803 118.16C86.2403 118.16 87.427 118.32 88.4403 118.64C89.4803 118.96 90.3336 119.413 91.0003 120C91.8536 119.867 92.6536 119.653 93.4003 119.36C94.1736 119.04 94.867 118.613 95.4803 118.08L96.0403 118.48V120.52H91.5203C92.4803 121.587 92.9603 122.96 92.9603 124.64C92.9603 126.507 92.267 128.053 90.8803 129.28C89.5203 130.48 87.507 131.08 84.8403 131.08ZM84.8003 130.28C85.867 130.28 86.6403 129.84 87.1203 128.96C87.627 128.08 87.8803 126.613 87.8803 124.56C87.8803 122.507 87.627 121.067 87.1203 120.24C86.6403 119.387 85.8936 118.96 84.8803 118.96C83.8936 118.96 83.147 119.4 82.6403 120.28C82.1336 121.133 81.8803 122.587 81.8803 124.64C81.8803 126.693 82.107 128.147 82.5603 129C83.0403 129.853 83.787 130.28 84.8003 130.28ZM78.8403 141.36C78.8403 142.933 79.3203 144.12 80.2803 144.92C81.267 145.72 82.8136 146.12 84.9203 146.12C87.1336 146.12 88.8003 145.76 89.9203 145.04C91.0403 144.32 91.6003 143.307 91.6003 142C91.6003 141.253 91.3203 140.653 90.7603 140.2C90.227 139.747 89.307 139.4 88.0003 139.16L80.7603 137.8C80.547 137.747 80.3336 137.693 80.1203 137.64C79.747 138.173 79.4403 138.773 79.2003 139.44C78.9603 140.133 78.8403 140.773 78.8403 141.36ZM106.865 138.6C104.839 138.6 103.079 138.187 101.585 137.36C100.092 136.507 98.932 135.307 98.1053 133.76C97.3053 132.213 96.9053 130.4 96.9053 128.32C96.9053 126.24 97.332 124.44 98.1853 122.92C99.0653 121.4 100.252 120.227 101.745 119.4C103.265 118.573 104.972 118.16 106.865 118.16C108.759 118.16 110.452 118.573 111.945 119.4C113.439 120.2 114.612 121.36 115.465 122.88C116.345 124.4 116.785 126.213 116.785 128.32C116.785 130.427 116.372 132.253 115.545 133.8C114.745 135.32 113.599 136.507 112.105 137.36C110.639 138.187 108.892 138.6 106.865 138.6ZM106.865 137.8C107.799 137.8 108.545 137.533 109.105 137C109.665 136.467 110.065 135.52 110.305 134.16C110.572 132.8 110.705 130.88 110.705 128.4C110.705 125.893 110.572 123.96 110.305 122.6C110.065 121.24 109.665 120.293 109.105 119.76C108.545 119.227 107.799 118.96 106.865 118.96C105.932 118.96 105.172 119.227 104.585 119.76C104.025 120.293 103.612 121.24 103.345 122.6C103.105 123.96 102.985 125.893 102.985 128.4C102.985 130.88 103.105 132.8 103.345 134.16C103.612 135.52 104.025 136.467 104.585 137C105.172 137.533 105.932 137.8 106.865 137.8ZM125.986 138.6C124.279 138.6 122.946 138.173 121.986 137.32C121.053 136.467 120.586 135.107 120.586 133.24V119.56H117.826V119.16L118.786 119C119.613 118.813 120.319 118.547 120.906 118.2C121.519 117.853 122.119 117.387 122.706 116.8L125.986 113.16H126.386L126.266 118.76H130.746V119.56H126.226V133.96C126.226 134.893 126.426 135.6 126.826 136.08C127.253 136.56 127.786 136.8 128.426 136.8C128.986 136.8 129.479 136.667 129.906 136.4C130.333 136.107 130.759 135.72 131.186 135.24L131.586 135.64C131.053 136.547 130.319 137.267 129.386 137.8C128.453 138.333 127.319 138.6 125.986 138.6ZM141.55 147.2V146.8L142.03 146.64C143.017 146.373 143.51 145.733 143.51 144.72V122.96C143.51 122.373 143.403 121.933 143.19 121.64C143.003 121.347 142.643 121.147 142.11 121.04L141.55 120.92V120.52L148.35 118.2L148.75 118.6L149.11 119.84C149.99 119.307 150.963 118.893 152.03 118.6C153.123 118.307 154.243 118.16 155.39 118.16C157.683 118.16 159.497 119.04 160.83 120.8C162.19 122.533 162.87 125.027 162.87 128.28C162.87 131.48 162.123 134 160.63 135.84C159.163 137.68 157.083 138.6 154.39 138.6C152.283 138.6 150.51 138.293 149.07 137.68V144.6C149.07 145.667 149.55 146.333 150.51 146.6L151.27 146.8V147.2H141.55ZM152.47 137.44C153.803 137.44 154.857 136.747 155.63 135.36C156.43 133.973 156.83 131.667 156.83 128.44C156.83 125.213 156.457 122.96 155.71 121.68C154.963 120.373 153.883 119.72 152.47 119.72C151.483 119.72 150.39 120.04 149.19 120.68V136.8C150.203 137.227 151.297 137.44 152.47 137.44ZM170.281 138.6C168.734 138.6 167.427 138.16 166.361 137.28C165.321 136.4 164.801 135.133 164.801 133.48C164.801 132.227 165.441 131.08 166.721 130.04C168.001 128.973 170.014 128.173 172.761 127.64C173.187 127.56 173.667 127.48 174.201 127.4C174.734 127.293 175.294 127.187 175.881 127.08V123.92C175.881 122.107 175.654 120.84 175.201 120.12C174.774 119.373 174.094 119 173.161 119C172.521 119 172.014 119.213 171.641 119.64C171.267 120.04 171.027 120.747 170.921 121.76L170.841 122.2C170.787 123.347 170.507 124.187 170.001 124.72C169.494 125.253 168.867 125.52 168.121 125.52C167.427 125.52 166.854 125.307 166.401 124.88C165.947 124.453 165.721 123.88 165.721 123.16C165.721 122.067 166.094 121.147 166.841 120.4C167.614 119.653 168.627 119.093 169.881 118.72C171.134 118.347 172.494 118.16 173.961 118.16C176.334 118.16 178.161 118.747 179.441 119.92C180.747 121.067 181.401 122.947 181.401 125.56V134.4C181.401 135.6 181.961 136.2 183.081 136.2H183.961L184.321 136.52C183.814 137.16 183.254 137.653 182.641 138C182.054 138.347 181.214 138.52 180.121 138.52C178.947 138.52 178.014 138.253 177.321 137.72C176.654 137.16 176.214 136.427 176.001 135.52C175.201 136.373 174.374 137.107 173.521 137.72C172.694 138.307 171.614 138.6 170.281 138.6ZM172.721 136.16C173.254 136.16 173.747 136.04 174.201 135.8C174.681 135.533 175.241 135.133 175.881 134.6V127.88C175.614 127.933 175.347 127.987 175.081 128.04C174.814 128.093 174.507 128.147 174.161 128.2C172.934 128.52 171.947 129.067 171.201 129.84C170.481 130.587 170.121 131.6 170.121 132.88C170.121 133.973 170.374 134.8 170.881 135.36C171.387 135.893 172.001 136.16 172.721 136.16ZM192.064 138.6C190.757 138.6 189.584 138.44 188.544 138.12C187.504 137.827 186.544 137.453 185.664 137L185.704 132.24H186.104L187.464 134.64C188.05 135.707 188.69 136.507 189.384 137.04C190.104 137.547 191.01 137.8 192.104 137.8C193.384 137.8 194.41 137.52 195.184 136.96C195.984 136.373 196.384 135.6 196.384 134.64C196.384 133.76 196.104 133.04 195.544 132.48C194.984 131.92 193.944 131.413 192.424 130.96L190.744 130.44C189.117 129.96 187.837 129.213 186.904 128.2C185.97 127.187 185.504 125.947 185.504 124.48C185.504 122.72 186.197 121.227 187.584 120C188.97 118.773 190.957 118.16 193.544 118.16C194.584 118.16 195.557 118.28 196.464 118.52C197.397 118.733 198.29 119.067 199.144 119.52L198.904 123.84H198.504L197.104 121.36C196.597 120.48 196.09 119.867 195.584 119.52C195.104 119.147 194.37 118.96 193.384 118.96C192.477 118.96 191.624 119.213 190.824 119.72C190.024 120.227 189.624 120.947 189.624 121.88C189.624 122.787 189.957 123.507 190.624 124.04C191.317 124.573 192.33 125.067 193.664 125.52L195.464 126.04C197.384 126.627 198.757 127.44 199.584 128.48C200.41 129.493 200.824 130.72 200.824 132.16C200.824 134.107 200.05 135.667 198.504 136.84C196.984 138.013 194.837 138.6 192.064 138.6ZM209.486 138.6C208.179 138.6 207.006 138.44 205.966 138.12C204.926 137.827 203.966 137.453 203.086 137L203.126 132.24H203.526L204.886 134.64C205.472 135.707 206.112 136.507 206.806 137.04C207.526 137.547 208.432 137.8 209.526 137.8C210.806 137.8 211.832 137.52 212.606 136.96C213.406 136.373 213.806 135.6 213.806 134.64C213.806 133.76 213.526 133.04 212.966 132.48C212.406 131.92 211.366 131.413 209.846 130.96L208.166 130.44C206.539 129.96 205.259 129.213 204.326 128.2C203.392 127.187 202.926 125.947 202.926 124.48C202.926 122.72 203.619 121.227 205.006 120C206.392 118.773 208.379 118.16 210.966 118.16C212.006 118.16 212.979 118.28 213.886 118.52C214.819 118.733 215.712 119.067 216.566 119.52L216.326 123.84H215.926L214.526 121.36C214.019 120.48 213.512 119.867 213.006 119.52C212.526 119.147 211.792 118.96 210.806 118.96C209.899 118.96 209.046 119.213 208.246 119.72C207.446 120.227 207.046 120.947 207.046 121.88C207.046 122.787 207.379 123.507 208.046 124.04C208.739 124.573 209.752 125.067 211.086 125.52L212.886 126.04C214.806 126.627 216.179 127.44 217.006 128.48C217.832 129.493 218.246 130.72 218.246 132.16C218.246 134.107 217.472 135.667 215.926 136.84C214.406 138.013 212.259 138.6 209.486 138.6ZM227.953 138.12L221.793 121.2C221.5 120.347 220.913 119.747 220.033 119.4L219.353 119.16V118.76H229.153V119.16L228.553 119.32C227.513 119.64 227.166 120.28 227.513 121.24L231.233 132.56L234.553 123.76L233.793 121.48C233.606 120.893 233.406 120.453 233.193 120.16C233.006 119.84 232.753 119.613 232.433 119.48L231.753 119.16V118.76H240.033V119.16L239.473 119.4C239.073 119.56 238.833 119.773 238.753 120.04C238.673 120.307 238.726 120.707 238.913 121.24L242.593 132.36L246.393 121.32C246.766 120.307 246.566 119.667 245.793 119.4L244.913 119.16V118.76H249.713V119.16L248.753 119.44C248.3 119.573 247.966 119.787 247.753 120.08C247.566 120.347 247.393 120.72 247.233 121.2L241.473 138.12H239.433L234.993 125.04L230.273 138.12H227.953ZM260.068 138.6C258.042 138.6 256.282 138.187 254.788 137.36C253.295 136.507 252.135 135.307 251.308 133.76C250.508 132.213 250.108 130.4 250.108 128.32C250.108 126.24 250.535 124.44 251.388 122.92C252.268 121.4 253.455 120.227 254.948 119.4C256.468 118.573 258.175 118.16 260.068 118.16C261.962 118.16 263.655 118.573 265.148 119.4C266.642 120.2 267.815 121.36 268.668 122.88C269.548 124.4 269.988 126.213 269.988 128.32C269.988 130.427 269.575 132.253 268.748 133.8C267.948 135.32 266.802 136.507 265.308 137.36C263.842 138.187 262.095 138.6 260.068 138.6ZM260.068 137.8C261.002 137.8 261.748 137.533 262.308 137C262.868 136.467 263.268 135.52 263.508 134.16C263.775 132.8 263.908 130.88 263.908 128.4C263.908 125.893 263.775 123.96 263.508 122.6C263.268 121.24 262.868 120.293 262.308 119.76C261.748 119.227 261.002 118.96 260.068 118.96C259.135 118.96 258.375 119.227 257.788 119.76C257.228 120.293 256.815 121.24 256.548 122.6C256.308 123.96 256.188 125.893 256.188 128.4C256.188 130.88 256.308 132.8 256.548 134.16C256.815 135.52 257.228 136.467 257.788 137C258.375 137.533 259.135 137.8 260.068 137.8ZM271.745 138V137.6L272.345 137.44C272.879 137.28 273.239 137.04 273.425 136.72C273.639 136.4 273.745 135.987 273.745 135.48V122.96C273.745 122.373 273.639 121.947 273.425 121.68C273.239 121.387 272.879 121.187 272.345 121.08L271.745 120.92V120.52L278.625 118.2L279.025 118.6L279.385 122.04V122.36C279.759 121.613 280.239 120.933 280.825 120.32C281.439 119.68 282.105 119.16 282.825 118.76C283.572 118.36 284.305 118.16 285.025 118.16C286.039 118.16 286.812 118.44 287.345 119C287.879 119.56 288.145 120.267 288.145 121.12C288.145 122.027 287.879 122.733 287.345 123.24C286.839 123.72 286.225 123.96 285.505 123.96C284.385 123.96 283.399 123.4 282.545 122.28L282.465 122.2C282.199 121.827 281.892 121.627 281.545 121.6C281.199 121.547 280.879 121.707 280.585 122.08C280.319 122.32 280.092 122.613 279.905 122.96C279.745 123.28 279.585 123.653 279.425 124.08V135.24C279.425 136.307 279.892 136.973 280.825 137.24L282.105 137.6V138H271.745ZM297.257 138.6C295.683 138.6 294.27 138.253 293.017 137.56C291.763 136.84 290.763 135.747 290.017 134.28C289.297 132.787 288.937 130.88 288.937 128.56C288.937 126.213 289.35 124.28 290.177 122.76C291.003 121.213 292.097 120.067 293.457 119.32C294.817 118.547 296.297 118.16 297.897 118.16C298.83 118.16 299.723 118.253 300.577 118.44C301.43 118.627 302.19 118.907 302.857 119.28V114.08C302.857 113.52 302.763 113.107 302.577 112.84C302.417 112.573 302.057 112.387 301.497 112.28L300.737 112.12V111.72L308.017 109.96L308.457 110.32L308.297 115.92V135.48C308.297 136.013 308.39 136.453 308.577 136.8C308.763 137.12 309.11 137.347 309.617 137.48L309.977 137.6V138L303.137 138.44L302.777 137C302.057 137.48 301.23 137.867 300.297 138.16C299.39 138.453 298.377 138.6 297.257 138.6ZM299.577 137.12C300.697 137.12 301.723 136.787 302.657 136.12V120.24C301.67 119.6 300.657 119.28 299.617 119.28C298.337 119.28 297.243 120.027 296.337 121.52C295.43 122.987 294.977 125.307 294.977 128.48C294.977 131.653 295.403 133.893 296.257 135.2C297.11 136.48 298.217 137.12 299.577 137.12Z" fill="#1F1F1F"/>
</svg>
