<svg width="33" height="34" viewBox="0 0 33 34" fill="none" xmlns="http://www.w3.org/2000/svg">
<path d="M29.9826 14.3071H28.875V14.25H16.5V19.75H24.2708C23.1371 22.9517 20.0908 25.25 16.5 25.25C11.9439 25.25 8.25 21.5561 8.25 17C8.25 12.4439 11.9439 8.75 16.5 8.75C18.6031 8.75 20.5164 9.54337 21.9732 10.8393L25.8624 6.95012C23.4066 4.66144 20.1217 3.25 16.5 3.25C8.90656 3.25 2.75 9.40656 2.75 17C2.75 24.5934 8.90656 30.75 16.5 30.75C24.0934 30.75 30.25 24.5934 30.25 17C30.25 16.0781 30.1551 15.1781 29.9826 14.3071Z" fill="#FFC107"/>
<path d="M4.33539 10.6001L8.85295 13.9131C10.0753 10.8868 13.0357 8.75 16.5 8.75C18.6031 8.75 20.5164 9.54338 21.9732 10.8393L25.8624 6.95013C23.4066 4.66144 20.1218 3.25 16.5 3.25C11.2186 3.25 6.63851 6.23169 4.33539 10.6001Z" fill="#FF3D00"/>
<path d="M16.5 30.75C20.0516 30.75 23.2788 29.3908 25.7187 27.1805L21.4631 23.5794C20.0362 24.6645 18.2926 25.2514 16.5 25.25C12.9236 25.25 9.88694 22.9695 8.74294 19.7871L4.25906 23.2418C6.53469 27.6947 11.1561 30.75 16.5 30.75Z" fill="#4CAF50"/>
<path d="M29.9826 14.3071H28.875V14.25H16.5V19.75H24.2708C23.7285 21.2738 22.7517 22.6053 21.461 23.5801L21.4631 23.5787L25.7187 27.1798C25.4176 27.4534 30.25 23.875 30.25 17C30.25 16.0781 30.1551 15.1781 29.9826 14.3071Z" fill="#1976D2"/>
</svg>
