<svg width="360" height="193" viewBox="0 0 360 193" fill="none" xmlns="http://www.w3.org/2000/svg">
<path d="M415.857 -228.659L-53.9996 -335L-26.2793 165.038L372.723 165.577L415.857 -228.659Z" fill="#FEF656"/>
<path d="M254.928 91.355C255.576 91.355 256.107 90.8678 256.107 90.2724V-27.9174C256.107 -28.5128 255.576 -29 254.928 -29C254.281 -29 253.75 -28.5128 253.75 -27.9174V90.2724C253.75 90.8678 254.269 91.355 254.928 91.355Z" fill="#1F1F1F"/>
<path d="M327.616 123C328.264 123 328.794 122.513 328.794 121.917V-27.9174C328.794 -28.5128 328.264 -29 327.616 -29C326.968 -29 326.438 -28.5128 326.438 -27.9174V121.917C326.438 122.524 326.968 123 327.616 123Z" fill="#1F1F1F"/>
<path d="M290.047 91.355C290.695 91.355 291.225 90.8678 291.225 90.2724V-27.9174C291.225 -28.5128 290.695 -29 290.047 -29C289.399 -29 288.869 -28.5128 288.869 -27.9174V90.2724C288.869 90.8678 289.399 91.355 290.047 91.355Z" fill="#1F1F1F"/>
<path d="M212.189 30.9773H397.875C398.523 30.9773 399.053 30.4901 399.053 29.8946C399.053 29.2992 398.523 28.812 397.875 28.812H212.189C211.541 28.812 211.011 29.2992 211.011 29.8946C211.011 30.4901 211.541 30.9773 212.189 30.9773Z" fill="#1F1F1F"/>
<path d="M212.19 69.4533H435.821C436.469 69.4533 436.999 68.9661 436.999 68.3707C436.999 67.7753 436.469 67.2881 435.821 67.2881H212.178C211.53 67.2881 211 67.7753 211 68.3707C211.012 68.9661 211.542 69.4533 212.19 69.4533Z" fill="#1F1F1F"/>
<path d="M307.082 108.818H397.875C398.523 108.818 399.053 108.331 399.053 107.735C399.053 107.14 398.523 106.653 397.875 106.653H307.082C306.434 106.653 305.904 107.14 305.904 107.735C305.904 108.331 306.434 108.818 307.082 108.818Z" fill="#1F1F1F"/>
<path d="M18.88 142V141.6L19.72 141.28C20.28 141.067 20.6267 140.813 20.76 140.52C20.92 140.2 21 139.773 21 139.24V118.36C21 117.827 20.92 117.4 20.76 117.08C20.6 116.76 20.2533 116.507 19.72 116.32L18.88 116V115.6H29.08V116L28.36 116.32C27.8533 116.507 27.5067 116.773 27.32 117.12C27.1333 117.44 27.04 117.867 27.04 118.4V141.2H33.2C34.1867 141.2 34.9067 140.96 35.36 140.48C35.84 140 36.2933 139.307 36.72 138.4L38.28 135.04H38.68L38.32 142H18.88ZM50.9216 142.6C48.8949 142.6 47.1349 142.187 45.6416 141.36C44.1482 140.507 42.9882 139.307 42.1616 137.76C41.3616 136.213 40.9616 134.4 40.9616 132.32C40.9616 130.24 41.3882 128.44 42.2416 126.92C43.1216 125.4 44.3082 124.227 45.8016 123.4C47.3216 122.573 49.0282 122.16 50.9216 122.16C52.8149 122.16 54.5082 122.573 56.0016 123.4C57.4949 124.2 58.6682 125.36 59.5216 126.88C60.4016 128.4 60.8416 130.213 60.8416 132.32C60.8416 134.427 60.4282 136.253 59.6016 137.8C58.8016 139.32 57.6549 140.507 56.1616 141.36C54.6949 142.187 52.9482 142.6 50.9216 142.6ZM50.9216 141.8C51.8549 141.8 52.6016 141.533 53.1616 141C53.7216 140.467 54.1216 139.52 54.3616 138.16C54.6282 136.8 54.7616 134.88 54.7616 132.4C54.7616 129.893 54.6282 127.96 54.3616 126.6C54.1216 125.24 53.7216 124.293 53.1616 123.76C52.6016 123.227 51.8549 122.96 50.9216 122.96C49.9882 122.96 49.2282 123.227 48.6416 123.76C48.0816 124.293 47.6682 125.24 47.4016 126.6C47.1616 127.96 47.0416 129.893 47.0416 132.4C47.0416 134.88 47.1616 136.8 47.4016 138.16C47.6682 139.52 48.0816 140.467 48.6416 141C49.2282 141.533 49.9882 141.8 50.9216 141.8ZM71.7184 135.08C69.8784 135.08 68.3184 134.773 67.0384 134.16V135.52C67.0384 136.347 67.4518 136.84 68.2784 137L75.7984 138.4C77.0518 138.64 78.1851 138.96 79.1984 139.36C80.2118 139.733 81.0251 140.28 81.6384 141C82.2518 141.693 82.5584 142.653 82.5584 143.88C82.5584 145.187 82.1318 146.387 81.2784 147.48C80.4251 148.6 79.1584 149.493 77.4784 150.16C75.8251 150.853 73.7584 151.2 71.2784 151.2C69.1451 151.2 67.4518 150.973 66.1984 150.52C64.9451 150.093 64.0518 149.533 63.5184 148.84C63.0118 148.147 62.7584 147.413 62.7584 146.64C62.7584 145.68 63.0784 144.707 63.7184 143.72C64.3851 142.76 65.1984 141.987 66.1584 141.4C65.3318 141.08 64.7318 140.667 64.3584 140.16C63.9851 139.653 63.7984 139.107 63.7984 138.52C63.7984 137.987 63.9318 137.493 64.1984 137.04C64.4918 136.56 64.8384 136.08 65.2384 135.6L66.5584 133.92C64.6118 132.8 63.6384 131.04 63.6384 128.64C63.6384 126.72 64.3184 125.16 65.6784 123.96C67.0651 122.76 69.0918 122.16 71.7584 122.16C73.1184 122.16 74.3051 122.32 75.3184 122.64C76.3584 122.96 77.2118 123.413 77.8784 124C78.7318 123.867 79.5318 123.653 80.2784 123.36C81.0518 123.04 81.7451 122.613 82.3584 122.08L82.9184 122.48V124.52H78.3984C79.3584 125.587 79.8384 126.96 79.8384 128.64C79.8384 130.507 79.1451 132.053 77.7584 133.28C76.3984 134.48 74.3851 135.08 71.7184 135.08ZM71.6784 134.28C72.7451 134.28 73.5184 133.84 73.9984 132.96C74.5051 132.08 74.7584 130.613 74.7584 128.56C74.7584 126.507 74.5051 125.067 73.9984 124.24C73.5184 123.387 72.7718 122.96 71.7584 122.96C70.7718 122.96 70.0251 123.4 69.5184 124.28C69.0118 125.133 68.7584 126.587 68.7584 128.64C68.7584 130.693 68.9851 132.147 69.4384 133C69.9184 133.853 70.6651 134.28 71.6784 134.28ZM65.7184 145.36C65.7184 146.933 66.1984 148.12 67.1584 148.92C68.1451 149.72 69.6918 150.12 71.7984 150.12C74.0118 150.12 75.6784 149.76 76.7984 149.04C77.9184 148.32 78.4784 147.307 78.4784 146C78.4784 145.253 78.1984 144.653 77.6384 144.2C77.1051 143.747 76.1851 143.4 74.8784 143.16L67.6384 141.8C67.4251 141.747 67.2118 141.693 66.9984 141.64C66.6251 142.173 66.3184 142.773 66.0784 143.44C65.8384 144.133 65.7184 144.773 65.7184 145.36ZM93.8394 142V141.6L94.6394 141.28C95.1727 141.093 95.5194 140.84 95.6794 140.52C95.866 140.2 95.9594 139.773 95.9594 139.24V118.36C95.9594 117.827 95.8794 117.4 95.7194 117.08C95.5594 116.76 95.1994 116.507 94.6394 116.32L93.8394 116V115.6H104.119V116L103.319 116.32C102.786 116.507 102.426 116.76 102.239 117.08C102.079 117.4 101.999 117.827 101.999 118.36V139.24C101.999 139.773 102.079 140.2 102.239 140.52C102.426 140.813 102.786 141.067 103.319 141.28L104.119 141.6V142H93.8394ZM106.191 142V141.6L106.751 141.44C107.684 141.173 108.151 140.52 108.151 139.48V126.96C108.151 126.373 108.057 125.947 107.871 125.68C107.684 125.387 107.324 125.187 106.791 125.08L106.191 124.92V124.52L113.031 122.2L113.431 122.6L113.751 125C114.684 124.173 115.737 123.493 116.911 122.96C118.084 122.427 119.244 122.16 120.391 122.16C122.151 122.16 123.497 122.64 124.431 123.6C125.391 124.56 125.871 126.027 125.871 128V139.52C125.871 140.56 126.377 141.213 127.391 141.48L127.751 141.6V142H118.311V141.6L118.831 141.44C119.764 141.147 120.231 140.493 120.231 139.48V126.72C120.231 125.013 119.377 124.16 117.671 124.16C116.497 124.16 115.217 124.747 113.831 125.92V139.52C113.831 140.56 114.297 141.213 115.231 141.48L115.591 141.6V142H106.191Z" fill="#1F1F1F"/>
</svg>
