<svg width="50" height="42" viewBox="0 0 50 42" fill="none" xmlns="http://www.w3.org/2000/svg">
<path fill-rule="evenodd" clip-rule="evenodd" d="M23.55 17.03L25 18.35L26.45 17.03C31.6 12.36 35 9.27 35 5.5C35 2.41 32.58 0 29.5 0C27.76 0 26.09 0.81 25 2.08C23.91 0.81 22.24 0 20.5 0C17.42 0 15 2.41 15 5.5C15 9.27 18.4 12.36 23.55 17.03ZM12.5 19.5C13.6016 18.6719 15.1719 18.8984 16 20L20.5 26C21.7969 27.7344 22.5 29.8359 22.5 32V40.75C22.5 41.4375 21.9375 42 21.25 42H10.9609C10.3984 42 9.90625 41.6328 9.76562 41.0938C9.60938 40.4844 9.34375 39.9062 8.95312 39.3984L0.820312 28.9062C0.289062 28.2422 0 27.4141 0 26.5625V9.5C0 8.11719 1.11719 7 2.5 7C3.88281 7 5 8.11719 5 9.5V21.0938L12.0156 29.5156C12.4844 30.0859 13.3359 30.125 13.8594 29.6016L14.8594 28.6016C15.2969 28.1641 15.3516 27.4688 14.9766 26.9688L12 23C11.1719 21.8984 11.3984 20.3281 12.5 19.5ZM45 9.5C45 8.11719 46.1172 7 47.5 7C48.8828 7 50 8.11719 50 9.5V26.5625C50 27.4141 49.7109 28.2422 49.1797 28.9062L41.0469 39.3984C40.6562 39.9062 40.3906 40.4844 40.2344 41.0938C40.0938 41.6328 39.5938 42 39.0391 42H28.75C28.0625 42 27.5 41.4375 27.5 40.75V32C27.5 29.8359 28.2031 27.7344 29.5 26L34 20C34.8281 18.8984 36.3984 18.6719 37.5 19.5C38.6016 20.3281 38.8281 21.8984 38 23L35.0234 26.9688C34.6484 27.4688 34.7031 28.1641 35.1406 28.6016L36.1406 29.6016C36.6562 30.1172 37.5156 30.0781 37.9844 29.5156L45 21.0938V9.5Z" fill="#9D6BCE"/>
</svg>
