<svg width="50" height="50" viewBox="0 0 50 50" fill="none" xmlns="http://www.w3.org/2000/svg">
<g clip-path="url(#clip0_599_24511)">
<g filter="url(#filter0_d_599_24511)">
<path d="M16.4423 0H34.391C35.8786 0 37.3053 0.598618 38.3572 1.66417C39.4091 2.72971 40 4.17491 40 5.68182V44.3182C40 45.8251 39.4091 47.2703 38.3572 48.3358C37.3053 49.4014 35.8786 50 34.391 50H16.4423C14.9547 50 13.5281 49.4014 12.4762 48.3358C11.4243 47.2703 10.8333 45.8251 10.8333 44.3182V5.68182C10.8333 4.17491 11.4243 2.72971 12.4762 1.66417C13.5281 0.598618 14.9547 0 16.4423 0ZM25.4167 47.7273C27.2788 47.7273 28.7821 46.2045 28.7821 44.3182C28.7821 42.4318 27.2788 40.9091 25.4167 40.9091C23.5545 40.9091 22.0513 42.4318 22.0513 44.3182C22.0513 46.2045 23.5545 47.7273 25.4167 47.7273ZM15.3205 38.6364H35.5128V6.81818H15.3205V38.6364Z" fill="#9D6BCE"/>
</g>
<g filter="url(#filter1_d_599_24511)">
<path d="M25.5 32C26.8142 32 28.0492 31.7505 29.205 31.2514C30.3608 30.7523 31.3663 30.0756 32.2213 29.2212C33.0762 28.3662 33.753 27.3608 34.2514 26.205C34.7498 25.0492 34.9994 23.8142 35 22.5C35 21.1858 34.7505 19.9508 34.2514 18.795C33.7523 17.6392 33.0756 16.6337 32.2213 15.7787C31.3663 14.9238 30.3608 14.247 29.205 13.7486C28.0492 13.2502 26.8142 13.0006 25.5 13C24.1858 13 22.9508 13.2495 21.795 13.7486C20.6392 14.2477 19.6338 14.9244 18.7788 15.7787C17.9237 16.6337 17.2467 17.6392 16.7477 18.795C16.2486 19.9508 15.9994 21.1858 16 22.5C16 23.8142 16.2495 25.0492 16.7486 26.205C17.2477 27.3608 17.9244 28.3662 18.7788 29.2212C19.6338 30.0763 20.6392 30.7533 21.795 31.2523C22.9508 31.7514 24.1858 32.0006 25.5 32ZM25.5 30.1C23.3783 30.1 21.5813 29.3637 20.1088 27.8912C18.6363 26.4187 17.9 24.6217 17.9 22.5C17.9 21.645 18.0387 20.8217 18.3161 20.03C18.5935 19.2383 18.9931 18.51 19.515 17.845L30.155 28.485C29.49 29.0075 28.7617 29.4074 27.97 29.6848C27.1783 29.9622 26.355 30.1006 25.5 30.1ZM31.485 27.155L20.845 16.515C21.51 15.9925 22.2383 15.5929 23.03 15.3161C23.8217 15.0393 24.645 14.9006 25.5 14.9C27.6217 14.9 29.4188 15.6363 30.8913 17.1087C32.3637 18.5812 33.1 20.3783 33.1 22.5C33.1 23.355 32.9616 24.1783 32.6849 24.97C32.4081 25.7617 32.0081 26.49 31.485 27.155Z" fill="#9D6BCE"/>
<path d="M25.5 32C26.8142 32 28.0492 31.7505 29.205 31.2514C30.3608 30.7523 31.3663 30.0756 32.2213 29.2212C33.0762 28.3662 33.753 27.3608 34.2514 26.205C34.7498 25.0492 34.9994 23.8142 35 22.5C35 21.1858 34.7505 19.9508 34.2514 18.795C33.7523 17.6392 33.0756 16.6337 32.2213 15.7787C31.3663 14.9238 30.3608 14.247 29.205 13.7486C28.0492 13.2502 26.8142 13.0006 25.5 13C24.1858 13 22.9508 13.2495 21.795 13.7486C20.6392 14.2477 19.6338 14.9244 18.7788 15.7787C17.9237 16.6337 17.2467 17.6392 16.7477 18.795C16.2486 19.9508 15.9994 21.1858 16 22.5C16 23.8142 16.2495 25.0492 16.7486 26.205C17.2477 27.3608 17.9244 28.3662 18.7788 29.2212C19.6338 30.0763 20.6392 30.7533 21.795 31.2523C22.9508 31.7514 24.1858 32.0006 25.5 32ZM25.5 30.1C23.3783 30.1 21.5813 29.3637 20.1088 27.8912C18.6363 26.4187 17.9 24.6217 17.9 22.5C17.9 21.645 18.0387 20.8217 18.3161 20.03C18.5935 19.2383 18.9931 18.51 19.515 17.845L30.155 28.485C29.49 29.0075 28.7617 29.4074 27.97 29.6848C27.1783 29.9622 26.355 30.1006 25.5 30.1ZM31.485 27.155L20.845 16.515C21.51 15.9925 22.2383 15.5929 23.03 15.3161C23.8217 15.0393 24.645 14.9006 25.5 14.9C27.6217 14.9 29.4188 15.6363 30.8913 17.1087C32.3637 18.5812 33.1 20.3783 33.1 22.5C33.1 23.355 32.9616 24.1783 32.6849 24.97C32.4081 25.7617 32.0081 26.49 31.485 27.155Z" fill="#1F1F1F" fill-opacity="0.1"/>
</g>
</g>
<defs>
<filter id="filter0_d_599_24511" x="6.83301" y="0" width="37.167" height="58" filterUnits="userSpaceOnUse" color-interpolation-filters="sRGB">
<feFlood flood-opacity="0" result="BackgroundImageFix"/>
<feColorMatrix in="SourceAlpha" type="matrix" values="0 0 0 0 0 0 0 0 0 0 0 0 0 0 0 0 0 0 127 0" result="hardAlpha"/>
<feOffset dy="4"/>
<feGaussianBlur stdDeviation="2"/>
<feComposite in2="hardAlpha" operator="out"/>
<feColorMatrix type="matrix" values="0 0 0 0 0 0 0 0 0 0 0 0 0 0 0 0 0 0 0.25 0"/>
<feBlend mode="normal" in2="BackgroundImageFix" result="effect1_dropShadow_599_24511"/>
<feBlend mode="normal" in="SourceGraphic" in2="effect1_dropShadow_599_24511" result="shape"/>
</filter>
<filter id="filter1_d_599_24511" x="12" y="13" width="27" height="27" filterUnits="userSpaceOnUse" color-interpolation-filters="sRGB">
<feFlood flood-opacity="0" result="BackgroundImageFix"/>
<feColorMatrix in="SourceAlpha" type="matrix" values="0 0 0 0 0 0 0 0 0 0 0 0 0 0 0 0 0 0 127 0" result="hardAlpha"/>
<feOffset dy="4"/>
<feGaussianBlur stdDeviation="2"/>
<feComposite in2="hardAlpha" operator="out"/>
<feColorMatrix type="matrix" values="0 0 0 0 0 0 0 0 0 0 0 0 0 0 0 0 0 0 0.25 0"/>
<feBlend mode="normal" in2="BackgroundImageFix" result="effect1_dropShadow_599_24511"/>
<feBlend mode="normal" in="SourceGraphic" in2="effect1_dropShadow_599_24511" result="shape"/>
</filter>
<clipPath id="clip0_599_24511">
<rect width="50" height="50" fill="white"/>
</clipPath>
</defs>
</svg>
