<svg width="50" height="46" viewBox="0 0 50 46" fill="none" xmlns="http://www.w3.org/2000/svg">
<path d="M26.875 1.85076C26.875 1.35991 26.6775 0.889161 26.3258 0.542076C25.9742 0.19499 25.4973 0 25 0C24.5027 0 24.0258 0.19499 23.6742 0.542076C23.3225 0.889161 23.125 1.35991 23.125 1.85076V5.55229C23.125 6.04314 23.3225 6.51389 23.6742 6.86098C24.0258 7.20806 24.5027 7.40305 25 7.40306C25.4973 7.40305 25.9742 7.20806 26.3258 6.86098C26.6775 6.51389 26.875 6.04314 26.875 5.55229V1.85076ZM42.575 7.32902C42.9261 7.67604 43.1234 8.14644 43.1234 8.6369C43.1234 9.12735 42.9261 9.59775 42.575 9.94477L39.925 12.563C39.5715 12.9003 39.098 13.0871 38.6064 13.0831C38.1147 13.0791 37.6444 12.8847 37.2966 12.5417C36.9488 12.1987 36.7514 11.7346 36.7468 11.2493C36.7423 10.7641 36.9311 10.2965 37.2725 9.94724L39.9225 7.32902C40.0966 7.15704 40.3034 7.02061 40.5309 6.92752C40.7585 6.83444 41.0024 6.78653 41.2487 6.78653C41.4951 6.78653 41.739 6.83444 41.9666 6.92752C42.1941 7.02061 42.4009 7.15704 42.575 7.32902ZM11.475 27.1445C11.1108 25.1873 11.1871 23.1749 11.6984 21.2499C12.2098 19.325 13.1438 17.5346 14.4342 16.0056C15.7246 14.4766 17.3399 13.2464 19.1656 12.4021C20.9912 11.5579 22.9827 11.1203 24.9988 11.1203C27.0148 11.1203 29.0063 11.5579 30.8319 12.4021C32.6576 13.2464 34.2729 14.4766 35.5633 16.0056C36.8537 17.5346 37.7877 19.325 38.2991 21.2499C38.8104 23.1749 38.8867 25.1873 38.5225 27.1445H48.125C48.6223 27.1445 49.0992 27.3395 49.4508 27.6866C49.8025 28.0337 50 28.5044 50 28.9953C50 29.4862 49.8025 29.9569 49.4508 30.304C49.0992 30.6511 48.6223 30.8461 48.125 30.8461H1.875C1.37772 30.8461 0.900805 30.6511 0.549175 30.304C0.197544 29.9569 0 29.4862 0 28.9953C0 28.5044 0.197544 28.0337 0.549175 27.6866C0.900805 27.3395 1.37772 27.1445 1.875 27.1445H11.475ZM11.875 34.5476C11.3777 34.5476 10.9008 34.7426 10.5492 35.0897C10.1975 35.4367 10 35.9075 10 36.3984C10 36.8892 10.1975 37.36 10.5492 37.707C10.9008 38.0541 11.3777 38.2491 11.875 38.2491H38.125C38.6223 38.2491 39.0992 38.0541 39.4508 37.707C39.8025 37.36 40 36.8892 40 36.3984C40 35.9075 39.8025 35.4367 39.4508 35.0897C39.0992 34.7426 38.6223 34.5476 38.125 34.5476H11.875ZM21.875 41.9506C21.3777 41.9506 20.9008 42.1456 20.5492 42.4927C20.1975 42.8398 20 43.3106 20 43.8014C20 44.2923 20.1975 44.763 20.5492 45.1101C20.9008 45.4572 21.3777 45.6522 21.875 45.6522H28.125C28.6223 45.6522 29.0992 45.4572 29.4508 45.1101C29.8025 44.763 30 44.2923 30 43.8014C30 43.3106 29.8025 42.8398 29.4508 42.4927C29.0992 42.1456 28.6223 41.9506 28.125 41.9506H21.875ZM7.425 7.32902C7.77656 6.98244 8.25312 6.78776 8.75 6.78776C9.24688 6.78776 9.72344 6.98244 10.075 7.32902L12.7275 9.94477C12.9067 10.1154 13.0496 10.3196 13.148 10.5453C13.2463 10.7711 13.2982 11.0139 13.3005 11.2597C13.3027 11.5054 13.2554 11.7491 13.1613 11.9766C13.0671 12.2041 12.928 12.4108 12.752 12.5847C12.576 12.7585 12.3667 12.896 12.1364 12.9892C11.906 13.0824 11.6591 13.1293 11.4101 13.1273C11.1612 13.1253 10.9151 13.0743 10.6863 12.9775C10.4575 12.8806 10.2505 12.7397 10.0775 12.563L7.425 9.94724C7.25076 9.77536 7.11254 9.57128 7.01824 9.34666C6.92394 9.12204 6.8754 8.88128 6.8754 8.63813C6.8754 8.39499 6.92394 8.15422 7.01824 7.9296C7.11254 7.70498 7.25076 7.5009 7.425 7.32902Z" fill="#9D6BCE"/>
</svg>
