<svg width="50" height="35" viewBox="0 0 50 35" fill="none" xmlns="http://www.w3.org/2000/svg">
<path d="M25 0L0 9.28544L25 21.6657L36.9072 15.7691L25.7369 12.3866C25.5069 12.4959 25.2551 12.5529 25 12.5534C24.5457 12.5534 24.11 12.3747 23.7888 12.0565C23.4675 11.7383 23.287 11.3068 23.287 10.8569C23.287 10.4069 23.4675 9.97539 23.7888 9.65723C24.11 9.33906 24.5457 9.16032 25 9.16032L24.7167 10.0724L26.7013 10.6771C26.7016 10.6791 26.7019 10.6811 26.7021 10.6831L29.6307 11.5701L46.3049 16.6511V17.939C46.0743 18.0944 45.8855 18.3032 45.7549 18.5474C45.6243 18.7915 45.5558 19.0635 45.5555 19.3397C45.5558 19.6223 45.6274 19.9004 45.7638 20.1486C45.9001 20.3969 46.0969 20.6075 46.3363 20.7612C45.5566 23.6798 45.5555 30.3018 45.5555 32.912C47.2685 34.0143 47.2685 34.0546 48.9814 32.912C48.9814 30.3021 48.9806 23.6814 48.201 20.7622C48.4404 20.6083 48.6373 20.3975 48.7736 20.1491C48.9099 19.9006 48.9813 19.6224 48.9814 19.3396C48.9814 19.0631 48.9131 18.7907 48.7825 18.5462C48.6519 18.3018 48.4629 18.0927 48.232 17.9371V15.2417L41.8808 13.3063L50 9.28544L25 0ZM10.3995 16.9008L8.99454 25.25C11.7968 25.6129 15.149 27.2262 18.2306 29.1337C19.9832 30.2187 21.6247 31.4095 22.9579 32.565C23.7729 33.2712 24.4543 33.9487 25 34.6154C25.5457 33.9486 26.2271 33.2712 27.0421 32.565C28.3753 31.4095 30.0167 30.2187 31.7694 29.1337C34.851 27.2262 38.2032 25.6129 41.0055 25.25L39.6003 16.9008H38.9312L25 23.7998L11.0686 16.9008H10.3995Z" fill="#9D6BCE"/>
</svg>
