<svg width="50" height="31" viewBox="0 0 50 31" fill="none" xmlns="http://www.w3.org/2000/svg">
<path d="M24.9508 0C21.5251 2.66799 20.2087 4.54605 18.3232 8.18702C22.4877 11.609 23.7571 13.8902 24.9508 18.3233C26.2273 13.3025 27.874 11.242 31.5784 8.18702C29.7515 4.51937 28.1988 2.78954 24.9508 0Z" fill="#9D6BCE"/>
<path d="M40.8382 15.8887C39.3761 27.487 28.3626 30.216 27.583 30.216C43.3721 35.1867 49.9998 16.4735 49.9998 16.4735C45.7114 14.9141 40.8382 15.8887 40.8382 15.8887Z" fill="#9D6BCE"/>
<path d="M9.16182 15.8965C10.6239 27.4948 21.6374 30.2238 22.417 30.2238C6.62786 35.1945 0.000162125 16.4813 0.000162125 16.4813C4.2886 14.9219 9.16182 15.8965 9.16182 15.8965Z" fill="#9D6BCE"/>
<path d="M39.669 5.65234C29.2879 8.685 24.8542 14.7165 25.6341 29.5311C34.3082 27.0945 36.6476 23.001 36.6476 23.001C41.2282 16.6658 39.669 5.65234 39.669 5.65234Z" fill="#9D6BCE"/>
<path d="M10.1973 5.65234C20.5783 8.685 25.0121 14.7165 24.2321 29.5311C15.558 27.0945 13.2187 23.001 13.2187 23.001C8.63802 16.6658 10.1973 5.65234 10.1973 5.65234Z" fill="#9D6BCE"/>
</svg>
