<svg width="47" height="50" viewBox="0 0 47 50" fill="none" xmlns="http://www.w3.org/2000/svg">
<path d="M26.9897 13.5781H18.7065C12.9502 14.0126 10.6965 24.9008 9.12167 27.2902C8.7144 28.1048 2.38787 31.4174 0.650081 33.4538C-1.08771 35.4903 1.03028 36.6578 2.65939 35.8704C2.65939 35.8704 9.82201 32.069 11.2783 30.0869C12.7346 28.1048 14.3366 24.1405 14.7151 22.7557L15.9098 22.457V30.6028C16.6429 40.1877 6.56933 36.5764 2.82227 42.5771C0.650081 47.7361 6.54377 51.5917 12.6787 49.2023C12.6787 49.2023 26.9881 43.0658 33.1245 43.9076C34.5365 44.2062 34.2666 45.5096 33.1245 45.7811C29.8743 46.4081 28.0042 46.6624 24.6529 47.0844C32.8818 50.9672 38.2021 49.854 38.2021 49.854C41.2719 49.2023 51.0996 43.5003 35.0252 37.6896C35.0252 37.6896 29.4318 36.2505 29.4318 32.5306V22.7557C29.4318 22.7557 32.3387 28.8922 33.1245 29.7882C33.7491 31.0101 40.3998 35.5989 42.4107 36.5764C45.6978 38.6671 47.9786 35.7889 45.3975 33.7253C45.3975 33.7253 38.3107 29.7882 36.2199 27.2902C36.2199 27.2902 31.0082 14.2569 26.9897 13.5781Z" fill="#9D6BCE"/>
<circle cx="23.2158" cy="6.10933" r="6.10933" fill="#9D6BCE"/>
</svg>
