<svg width="50" height="50" viewBox="0 0 50 50" fill="none" xmlns="http://www.w3.org/2000/svg">
<path d="M23.575 19.184C23.675 19.4589 23.75 19.7088 23.75 20.0087V33.0549C23.75 34.3046 23.275 35.5042 22.425 36.4289L15.45 44.0517L6.95 35.5542L10 32.5051L17 2.16391C17.1526 1.49636 17.5459 0.908442 18.1048 0.512533C18.6637 0.116624 19.3489 -0.0595052 20.0295 0.0178109C20.71 0.095127 21.3382 0.420465 21.794 0.93164C22.2498 1.44281 22.5011 2.10397 22.5 2.78873V15.1851C22.092 15.0763 21.6722 15.0175 21.25 15.0102C18.5 15.0102 16.25 17.2595 16.25 20.0087V27.5065C16.25 28.2063 16.8 28.7562 17.5 28.7562C18.2 28.7562 18.75 28.2063 18.75 27.5065V20.0087C18.75 18.6341 19.875 17.5094 21.25 17.5094C21.725 17.5094 22.125 17.6844 22.5 17.9093C22.8 18.0843 23.025 18.3092 23.25 18.5591C23.325 18.6591 23.4 18.7591 23.45 18.884C23.5 18.984 23.55 19.084 23.575 19.184ZM0 42.5022L10 50L12.925 46.8259L4.3 38.2034L0 42.5022ZM40 32.5051L33 2.16391C32.8474 1.49636 32.4541 0.908442 31.8952 0.512533C31.3363 0.116624 30.6511 -0.0595052 29.9705 0.0178109C29.29 0.095127 28.6618 0.420465 28.206 0.93164C27.7502 1.44281 27.4989 2.10397 27.5 2.78873V15.1851C27.9 15.0852 28.325 15.0102 28.75 15.0102C31.5 15.0102 33.75 17.2595 33.75 20.0087V27.5065C33.75 28.2063 33.2 28.7562 32.5 28.7562C31.8 28.7562 31.25 28.2063 31.25 27.5065V20.0087C31.25 18.6341 30.125 17.5094 28.75 17.5094C28.275 17.5094 27.875 17.6844 27.5 17.9093C27.2 18.0843 26.975 18.3092 26.775 18.5591C26.7 18.6591 26.6 18.7591 26.55 18.884C26.5 18.984 26.45 19.084 26.425 19.184C26.325 19.4589 26.25 19.7088 26.25 20.0087V33.0549C26.25 34.3046 26.725 35.5042 27.575 36.4289L34.55 44.0517L43.05 35.5542L40 32.5051ZM45.7 38.2034L37.075 46.8259L40 50L50 42.5022L45.7 38.2034Z" fill="#9D6BCE"/>
</svg>
