<svg width="50" height="41" viewBox="0 0 50 41" fill="none" xmlns="http://www.w3.org/2000/svg">
<path d="M19.3984 2.68474C15.6352 0.903768 10.3752 0.0313512 3.33306 0.00037779C2.66892 -0.00856619 2.0178 0.183398 1.46655 0.550671C1.01408 0.853828 0.643686 1.26255 0.387962 1.74089C0.132237 2.21923 -0.000987794 2.75253 5.51398e-06 3.29388V32.8321C5.51398e-06 34.8289 1.43322 36.3352 3.33306 36.3352C10.7356 36.3352 18.161 37.0208 22.6085 41.1877C22.6694 41.245 22.7458 41.2833 22.8285 41.2978C22.9111 41.3124 22.9962 41.3025 23.0732 41.2695C23.1502 41.2365 23.2157 41.1818 23.2616 41.1122C23.3075 41.0426 23.3318 40.9612 23.3314 40.878V6.07322C23.3316 5.8384 23.2809 5.60627 23.1828 5.39253C23.0847 5.17879 22.9414 4.98842 22.7627 4.83429C21.7439 3.97099 20.6123 3.24795 19.3984 2.68474ZM48.5293 0.547574C47.9778 0.181215 47.3266 -0.00967777 46.6628 0.00037779C39.6207 0.0313512 34.3607 0.899638 30.5975 2.68474C29.3836 3.24693 28.2517 3.96855 27.2321 4.83016C27.0538 4.98456 26.9109 5.17501 26.813 5.3887C26.715 5.6024 26.6644 5.83439 26.6644 6.06909V40.8759C26.6644 40.9558 26.6882 41.034 26.7327 41.1006C26.7773 41.1672 26.8408 41.2192 26.9151 41.2502C26.9894 41.2812 27.0713 41.2897 27.1505 41.2747C27.2297 41.2598 27.3026 41.222 27.3602 41.166C30.034 38.5333 34.7263 36.3321 46.6669 36.3332C47.5509 36.3332 48.3987 35.9851 49.0238 35.3655C49.6488 34.7459 50 33.9056 50 33.0293V3.29491C50.0012 2.75249 49.8677 2.21812 49.6112 1.73897C49.3547 1.25983 48.9831 0.850651 48.5293 0.547574Z" fill="#9D6BCE"/>
</svg>
