<svg width="50" height="48" viewBox="0 0 50 48" fill="none" xmlns="http://www.w3.org/2000/svg">
<path d="M47.6316 10.8724C46.7171 11.7869 45.8296 12.6744 45.8027 13.5619C45.722 14.4226 46.6364 15.3101 47.4971 16.1439C48.7881 17.4887 50.0521 18.6989 49.9983 20.0168C49.9446 21.3347 48.5729 22.7063 47.2012 24.0511L36.0935 35.1858L32.2743 31.3666L43.7048 19.963L41.1229 17.3811L37.3038 21.1733L27.218 11.0876L37.5458 0.786687C38.5947 -0.262229 40.3429 -0.262229 41.3381 0.786687L47.6316 7.08019C48.6805 8.07531 48.6805 9.8235 47.6316 10.8724ZM0 38.3325L25.7119 12.5937L35.7976 22.6795L10.0857 48.4182H0V38.3325Z" fill="#9D6BCE"/>
</svg>
