<svg width="15" height="14" viewBox="0 0 15 14" fill="none" xmlns="http://www.w3.org/2000/svg">
<path fill-rule="evenodd" clip-rule="evenodd" d="M8.375 1.75C8.375 1.26675 7.98325 0.875 7.5 0.875C7.01675 0.875 6.625 1.26675 6.625 1.75V6.125L2.25 6.125C1.76675 6.125 1.375 6.51675 1.375 7C1.375 7.48325 1.76675 7.875 2.25 7.875L6.625 7.875V12.25C6.625 12.7332 7.01675 13.125 7.5 13.125C7.98325 13.125 8.375 12.7332 8.375 12.25V7.875L12.75 7.875C13.2332 7.875 13.625 7.48325 13.625 7C13.625 6.51675 13.2332 6.125 12.75 6.125L8.375 6.125V1.75Z" fill="#1F1F1F" fill-opacity="0.3"/>
</svg>
