<svg width="12" height="11" viewBox="0 0 12 11" fill="none" xmlns="http://www.w3.org/2000/svg">
<path d="M10.3967 2.22966L5.09292 7.53347C5.04385 7.58264 4.98557 7.62165 4.92141 7.64826C4.85725 7.67488 4.78847 7.68858 4.719 7.68858C4.64954 7.68858 4.58076 7.67488 4.5166 7.64826C4.45243 7.62165 4.39415 7.58264 4.34508 7.53347L2.84411 6.03249C2.795 5.98339 2.75605 5.9251 2.72948 5.86094C2.7029 5.79678 2.68922 5.72802 2.68922 5.65857C2.68922 5.58913 2.7029 5.52037 2.72948 5.45621C2.75605 5.39205 2.795 5.33376 2.84411 5.28466C2.89321 5.23555 2.9515 5.1966 3.01566 5.17003C3.07982 5.14345 3.14858 5.12977 3.21802 5.12977C3.28747 5.12977 3.35623 5.14345 3.42039 5.17003C3.48454 5.1966 3.54284 5.23555 3.59194 5.28466L4.71635 6.40906L9.64359 1.48182C9.69266 1.43266 9.75094 1.39365 9.8151 1.36703C9.87926 1.34042 9.94804 1.32672 10.0175 1.32672C10.087 1.32672 10.1558 1.34042 10.2199 1.36703C10.2841 1.39365 10.3424 1.43266 10.3914 1.48182C10.6036 1.68867 10.6036 2.02281 10.3967 2.22966ZM5.46949 9.71334C2.9714 9.71334 0.971861 7.54408 1.25296 4.99295C1.45981 3.12601 2.90775 1.5932 4.75878 1.28558C5.71877 1.12647 6.63103 1.29619 7.40538 1.69928C7.53057 1.76469 7.67662 1.77769 7.8114 1.73541C7.94618 1.69314 8.05864 1.59906 8.12405 1.47387C8.18946 1.34868 8.20246 1.20263 8.16018 1.06785C8.11791 0.933074 8.02383 0.820611 7.89864 0.755202C7.11898 0.357416 6.23854 0.13996 5.29977 0.166479C2.57361 0.25134 0.308884 2.46833 0.170985 5.18919C0.0171748 8.24949 2.44632 10.7741 5.46949 10.7741C6.10595 10.7741 6.71058 10.6627 7.27809 10.4559C7.63875 10.3233 7.73952 9.85654 7.46372 9.58074C7.39333 9.50939 7.30381 9.45991 7.20595 9.43827C7.10808 9.41663 7.00604 9.42374 6.91213 9.45875C6.4613 9.62317 5.97335 9.71334 5.46949 9.71334ZM9.18216 7.06143H8.1214C7.82969 7.06143 7.59101 7.3001 7.59101 7.59181C7.59101 7.88352 7.82969 8.12219 8.1214 8.12219H9.18216V9.18296C9.18216 9.47467 9.42083 9.71334 9.71254 9.71334C10.0042 9.71334 10.2429 9.47467 10.2429 9.18296V8.12219H11.3037C11.5954 8.12219 11.8341 7.88352 11.8341 7.59181C11.8341 7.3001 11.5954 7.06143 11.3037 7.06143H10.2429V6.00067C10.2429 5.70896 10.0042 5.47029 9.71254 5.47029C9.42083 5.47029 9.18216 5.70896 9.18216 6.00067V7.06143Z" fill="#1F1F1F"/>
</svg>
