<svg width="18" height="20" viewBox="0 0 18 20" fill="none" xmlns="http://www.w3.org/2000/svg">
<path d="M11.5744 14.7222H16.381L15.0304 13.3953C14.6641 13.0355 14.4583 12.5474 14.4583 12.0385V9.05556C14.4583 6.58826 12.8533 4.48925 10.6131 3.71134V3.38889C10.6131 2.34568 9.75231 1.5 8.69048 1.5C7.62864 1.5 6.76786 2.34568 6.76786 3.38889V3.71134C4.52764 4.48925 2.92262 6.58826 2.92262 9.05556V12.0385C2.92262 12.5474 2.71685 13.0355 2.35058 13.3953L1 14.7222H5.80655M11.5744 14.7222V15.6667C11.5744 17.2315 10.2832 18.5 8.69048 18.5C7.09773 18.5 5.80655 17.2315 5.80655 15.6667V14.7222M11.5744 14.7222H5.80655" stroke="white" stroke-width="1.75" stroke-linecap="round" stroke-linejoin="round"/>
</svg>
