<svg width="20" height="21" viewBox="0 0 20 21" fill="none" xmlns="http://www.w3.org/2000/svg">
<path fill-rule="evenodd" clip-rule="evenodd" d="M11.5017 2.00006C11.5017 1.17163 10.8301 0.500061 10.0017 0.500061C9.17327 0.500061 8.5017 1.17163 8.5017 2.00006V9.00176L1.5 9.00176C0.671573 9.00176 0 9.67333 0 10.5018C0 11.3302 0.671573 12.0018 1.5 12.0018L8.5017 12.0018V19.0032C8.5017 19.8317 9.17327 20.5032 10.0017 20.5032C10.8301 20.5032 11.5017 19.8317 11.5017 19.0032V12.0018L18.5032 12.0018C19.3316 12.0018 20.0032 11.3302 20.0032 10.5018C20.0032 9.67333 19.3316 9.00176 18.5032 9.00176L11.5017 9.00176V2.00006Z" fill="white"/>
</svg>
