<svg width="14" height="14" viewBox="0 0 14 14" fill="none" xmlns="http://www.w3.org/2000/svg">
<g clip-path="url(#clip0_1014_606)">
<path d="M9.76629 2.40445L9.76618 2.40434L9.74393 2.3821C9.31005 1.94849 8.9593 1.59795 8.6436 1.3374C8.31433 1.06565 7.99481 0.866997 7.61329 0.757783C7.23185 0.648294 6.85551 0.64736 6.43212 0.703362C6.02442 0.757287 5.53884 0.869508 4.9377 1.00844L4.91496 1.01369L4.91466 1.01376L4.19862 1.17877L4.19862 1.17878L4.17619 1.18394C3.67365 1.29976 3.25939 1.39522 2.92791 1.50893C2.58049 1.6281 2.28333 1.77997 2.03148 2.03141L2.0309 2.03199C1.77946 2.28384 1.62759 2.581 1.50842 2.92842C1.39471 3.2599 1.29925 3.67416 1.18343 4.1767L1.17835 4.19876L1.17826 4.19913L1.01268 4.91509L1.0126 4.91544L1.00753 4.93747C0.868764 5.5394 0.756767 6.02523 0.702974 6.43302C0.647131 6.85634 0.64812 7.23234 0.757201 7.61355C0.866401 7.99518 1.06509 8.31479 1.33692 8.64408C1.59784 8.96015 1.94897 9.31127 2.38338 9.74566L2.40394 9.76622L3.47137 10.8337L3.47144 10.8337L3.49392 10.8562C4.25797 11.6206 4.86693 12.2298 5.40851 12.6429C5.96696 13.069 6.51202 13.3333 7.15233 13.3333C7.79293 13.3333 8.33814 13.0688 8.89658 12.6428C9.43724 12.2303 10.045 11.6226 10.8069 10.8606L10.8332 10.8343L10.8596 10.8079C11.6218 10.0457 12.2297 9.43789 12.6422 8.89717C13.0683 8.33867 13.3328 7.79345 13.3328 7.15284C13.3328 6.51249 13.0683 5.96728 12.6423 5.40883C12.2294 4.86749 11.6208 4.2589 10.8576 3.49572L10.8338 3.47195L9.76629 2.40445ZM5.55691 4.60132C5.6216 4.66372 5.67322 4.73838 5.70874 4.82094C5.74427 4.90351 5.76298 4.99232 5.7638 5.0822C5.76461 5.17208 5.74751 5.26122 5.71349 5.34442C5.67947 5.42761 5.62921 5.5032 5.56566 5.56675C5.5021 5.63031 5.42652 5.68057 5.34332 5.71458C5.26013 5.7486 5.17099 5.76571 5.08111 5.76489C4.99123 5.76408 4.90241 5.74536 4.81985 5.70984C4.73728 5.67432 4.66262 5.6227 4.60023 5.558C4.47714 5.43037 4.40908 5.25951 4.41069 5.0822C4.41229 4.90489 4.48344 4.7353 4.60882 4.60992C4.73421 4.48454 4.9038 4.41339 5.08111 4.41178C5.25842 4.41017 5.42927 4.47824 5.55691 4.60132ZM10.7583 6.67635C10.7583 6.6763 10.7584 6.67625 10.7584 6.6762L10.7584 6.67623L10.7583 6.67635Z" stroke="#1F1F1F"/>
</g>
<defs>
<clipPath id="clip0_1014_606">
<rect width="14" height="14" fill="white"/>
</clipPath>
</defs>
</svg>
