<svg width="53" height="58" viewBox="0 0 53 58" fill="none" xmlns="http://www.w3.org/2000/svg">
<g filter="url(#filter0_d_679_46313)">
<path d="M15.25 0C8.5 0 4 7.5 4 15C4 20.275 6.25 27.5 8.5 30C10.75 32.5 13 50 17.5 50C27.715 50 22 32.5 26.5 32.5C31 32.5 25.285 50 35.5 50C40 50 42.25 32.5 44.5 30C46.75 27.5 49 20.275 49 15C49 7.5 44.5 0 37.75 0C31 0 31 2.5 26.5 2.5C22 2.5 22 0 15.25 0Z" fill="#D03C91"/>
</g>
<defs>
<filter id="filter0_d_679_46313" x="-2" y="0" width="58" height="58" filterUnits="userSpaceOnUse" color-interpolation-filters="sRGB">
<feFlood flood-opacity="0" result="BackgroundImageFix"/>
<feColorMatrix in="SourceAlpha" type="matrix" values="0 0 0 0 0 0 0 0 0 0 0 0 0 0 0 0 0 0 127 0" result="hardAlpha"/>
<feOffset dy="4"/>
<feGaussianBlur stdDeviation="2"/>
<feComposite in2="hardAlpha" operator="out"/>
<feColorMatrix type="matrix" values="0 0 0 0 0 0 0 0 0 0 0 0 0 0 0 0 0 0 0.25 0"/>
<feBlend mode="normal" in2="BackgroundImageFix" result="effect1_dropShadow_679_46313"/>
<feBlend mode="normal" in="SourceGraphic" in2="effect1_dropShadow_679_46313" result="shape"/>
</filter>
</defs>
</svg>
