<svg width="50" height="50" viewBox="0 0 50 50" fill="none" xmlns="http://www.w3.org/2000/svg">
<path d="M42.8 31.6C42.8 32.1523 42.3523 32.6 41.8 32.6H33C32.4477 32.6 32 32.1523 32 31.6V30C32 29.4477 32.4477 29 33 29H41.8C42.3523 29 42.8 29.4477 42.8 30V31.6ZM50 46C50 46.5523 49.5523 47 49 47H40.2C39.6477 47 39.2 46.5523 39.2 46V44.4C39.2 43.8477 39.6477 43.4 40.2 43.4H49C49.5523 43.4 50 43.8477 50 44.4V46ZM46.4 38.8C46.4 39.3523 45.9523 39.8 45.4 39.8H36.6C36.0477 39.8 35.6 39.3523 35.6 38.8V37.2C35.6 36.6477 36.0477 36.2 36.6 36.2H45.4C45.9523 36.2 46.4 36.6477 46.4 37.2V38.8Z" fill="#D03C91"/>
<path d="M27.1166 32.5C27.1041 31.0234 26.704 29.575 25.9552 28.2955C25.3747 27.3035 24.5998 26.4391 23.6791 25.7505C23.2359 25.419 23.0703 24.8093 23.3502 24.3318L35.4878 3.62387C35.7696 3.14307 35.604 2.52467 35.1196 2.24905L33.7824 1.48815C33.3068 1.21753 32.702 1.37942 32.4252 1.85145L19.8222 23.3436C19.603 23.7174 19.1686 23.9026 18.7398 23.8396C17.3103 23.6298 15.8486 23.7231 14.4538 24.1167C12.8255 24.5762 11.3403 25.4303 10.1339 26.6007C3.47803 32.92 3.99357 47.6935 4.01846 48.32C4.03684 48.7719 4.23222 49.1992 4.56364 49.5124C4.89506 49.8256 5.33678 50.0004 5.7962 50H32.4463C32.8194 50 33.1831 49.8844 33.4858 49.6697C33.7884 49.4549 34.0148 49.1518 34.1328 48.8034C34.2508 48.455 34.2544 48.0788 34.1432 47.7282C34.0319 47.3776 33.8114 47.0704 33.5129 46.85C27.2197 42.202 27.1166 32.5945 27.1166 32.5ZM24.7707 46.5C24.5051 46.5 24.2484 46.3961 24.0695 46.1997C23.0123 45.0395 22.2773 43.6332 21.9316 42.1175C21.8196 41.6264 21.4005 41.25 20.8968 41.25H19.2933C18.7142 41.25 18.2521 41.7417 18.3465 42.3131C18.4932 43.2005 18.7461 44.0669 19.0994 44.8942C19.4088 45.6188 18.9153 46.5 18.1274 46.5H16.7202C16.2859 46.5 15.8996 46.2202 15.7771 45.8037C15.2614 44.0504 14.9145 42.2535 14.7411 40.4365C14.6909 39.9109 14.2557 39.5 13.7276 39.5H12.1612C11.5899 39.5 11.1331 39.9779 11.1807 40.5472C11.3122 42.1187 11.5678 43.6776 11.9453 45.2098C12.105 45.858 11.6249 46.5 10.9572 46.5H8.57346C8.01447 46.5 7.56312 46.0421 7.58445 45.4835C7.71083 42.1729 8.25541 36.4898 10.3385 32.3199C10.5661 31.8642 11.1143 31.6867 11.5809 31.891L23.6733 37.1847C23.9738 37.3163 24.1892 37.5872 24.2597 37.9076C24.7997 40.363 25.7477 42.7104 27.0623 44.8561C27.4912 45.5561 27.0084 46.5 26.1875 46.5H24.7707Z" fill="#D03C91"/>
</svg>
