<svg width="50" height="50" viewBox="0 0 50 50" fill="none" xmlns="http://www.w3.org/2000/svg">
<path d="M8.33333 5C6.1232 5 4.00358 5.86393 2.44078 7.40172C0.877973 8.93952 0 11.0252 0 13.2V14.0241L25 27.2712L50 14.0282V13.2C50 11.0252 49.122 8.93952 47.5592 7.40172C45.9964 5.86393 43.8768 5 41.6667 5H8.33333ZM50 18.6817L25.9875 31.404C25.684 31.5648 25.3447 31.6489 25 31.6489C24.6553 31.6489 24.316 31.5648 24.0125 31.404L0 18.6817V37.8C0 39.9748 0.877973 42.0605 2.44078 43.5983C4.00358 45.1361 6.1232 46 8.33333 46H41.6667C43.8768 46 45.9964 45.1361 47.5592 43.5983C49.122 42.0605 50 39.9748 50 37.8V18.6817Z" fill="#D03C91"/>
</svg>
