<svg width="50" height="50" viewBox="0 0 50 50" fill="none" xmlns="http://www.w3.org/2000/svg">
<path d="M6.25 37.6H48.4375C48.8607 37.6 49.2269 37.7534 49.5361 38.0602C49.8454 38.3669 50 38.7302 50 39.15V50H43.75V43.8H6.25V50H0V20.55C0 20.1302 0.154622 19.7669 0.463867 19.4602C0.773112 19.1534 1.13932 19 1.5625 19H4.6875C5.11068 19 5.47689 19.1534 5.78613 19.4602C6.09538 19.7669 6.25 20.1302 6.25 20.55V37.6ZM20.3125 29.85C20.3125 28.1385 19.7021 26.6773 18.4814 25.4664C17.2607 24.2555 15.7878 23.65 14.0625 23.65C12.3372 23.65 10.8643 24.2555 9.64355 25.4664C8.42285 26.6773 7.8125 28.1385 7.8125 29.85C7.8125 31.5615 8.42285 33.0227 9.64355 34.2336C10.8643 35.4445 12.3372 36.05 14.0625 36.05C15.7878 36.05 17.2607 35.4445 18.4814 34.2336C19.7021 33.0227 20.3125 31.5615 20.3125 29.85ZM50 36.05V34.5C50 31.9328 49.0845 29.741 47.2534 27.9246C45.4224 26.1082 43.2129 25.2 40.625 25.2H23.4375C23.0143 25.2 22.6481 25.3534 22.3389 25.6602C22.0296 25.9669 21.875 26.3302 21.875 26.75V36.05H50Z" fill="#D03C91"/>
</svg>
