<svg width="20" height="19" viewBox="0 0 20 19" fill="none" xmlns="http://www.w3.org/2000/svg">
<mask id="mask0_1297_34403" style="mask-type:luminance" maskUnits="userSpaceOnUse" x="0" y="0" width="20" height="19">
<path d="M7.49935 1.16675H2.49935C2.27834 1.16675 2.06637 1.25455 1.91009 1.41083C1.75381 1.56711 1.66602 1.77907 1.66602 2.00008V7.00008C1.66602 7.2211 1.75381 7.43306 1.91009 7.58934C2.06637 7.74562 2.27834 7.83341 2.49935 7.83341H7.49935C7.72036 7.83341 7.93232 7.74562 8.0886 7.58934C8.24488 7.43306 8.33268 7.2211 8.33268 7.00008V2.00008C8.33268 1.77907 8.24488 1.56711 8.0886 1.41083C7.93232 1.25455 7.72036 1.16675 7.49935 1.16675ZM7.49935 11.1667H2.49935C2.27834 11.1667 2.06637 11.2545 1.91009 11.4108C1.75381 11.5671 1.66602 11.7791 1.66602 12.0001V17.0001C1.66602 17.2211 1.75381 17.4331 1.91009 17.5893C2.06637 17.7456 2.27834 17.8334 2.49935 17.8334H7.49935C7.72036 17.8334 7.93232 17.7456 8.0886 17.5893C8.24488 17.4331 8.33268 17.2211 8.33268 17.0001V12.0001C8.33268 11.7791 8.24488 11.5671 8.0886 11.4108C7.93232 11.2545 7.72036 11.1667 7.49935 11.1667ZM17.4993 1.16675H12.4993C12.2783 1.16675 12.0664 1.25455 11.9101 1.41083C11.7538 1.56711 11.666 1.77907 11.666 2.00008V7.00008C11.666 7.2211 11.7538 7.43306 11.9101 7.58934C12.0664 7.74562 12.2783 7.83341 12.4993 7.83341H17.4993C17.7204 7.83341 17.9323 7.74562 18.0886 7.58934C18.2449 7.43306 18.3327 7.2211 18.3327 7.00008V2.00008C18.3327 1.77907 18.2449 1.56711 18.0886 1.41083C17.9323 1.25455 17.7204 1.16675 17.4993 1.16675Z" fill="#555555" stroke="white" stroke-width="1.66667" stroke-linejoin="round"/>
<path d="M11.666 11.1667H18.3327M14.9993 14.5001H18.3327M11.666 17.8334H18.3327" stroke="white" stroke-width="1.66667" stroke-linecap="round" stroke-linejoin="round"/>
</mask>
<g mask="url(#mask0_1297_34403)">
<path d="M0 -0.5H20V19.5H0V-0.5Z" fill="white"/>
</g>
</svg>
