<svg width="50" height="44" viewBox="0 0 50 44" fill="none" xmlns="http://www.w3.org/2000/svg">
<path d="M-1.13068 41V11.9091H10.0057C12.108 11.9091 13.8551 12.2405 15.2472 12.9034C16.6487 13.5568 17.6951 14.4517 18.3864 15.5881C19.0871 16.7244 19.4375 18.0123 19.4375 19.4517C19.4375 20.6354 19.2102 21.6487 18.7557 22.4915C18.3011 23.3248 17.6903 24.0019 16.9233 24.5227C16.1562 25.0436 15.2992 25.4176 14.3523 25.6449V25.929C15.3845 25.9858 16.3741 26.303 17.321 26.8807C18.2775 27.4489 19.0587 28.2538 19.6648 29.2955C20.2708 30.3371 20.5739 31.5966 20.5739 33.0739C20.5739 34.5795 20.2093 35.9337 19.4801 37.1364C18.7509 38.3295 17.6525 39.2718 16.1847 39.9631C14.7169 40.6544 12.8703 41 10.6449 41H-1.13068ZM4.1392 36.5966H9.80682C11.7197 36.5966 13.0975 36.232 13.9403 35.5028C14.7926 34.7642 15.2188 33.8172 15.2188 32.6619C15.2188 31.8002 15.0057 31.0237 14.5795 30.3324C14.1534 29.6316 13.5473 29.0824 12.7614 28.6847C11.9754 28.2775 11.0379 28.0739 9.94886 28.0739H4.1392V36.5966ZM4.1392 24.2812H9.35227C10.2614 24.2812 11.0805 24.1155 11.8097 23.7841C12.5388 23.4432 13.1117 22.965 13.5284 22.3494C13.9545 21.7244 14.1676 20.9858 14.1676 20.1335C14.1676 19.0066 13.7699 18.0786 12.9744 17.3494C12.1884 16.6203 11.0189 16.2557 9.46591 16.2557H4.1392V24.2812ZM34.5902 41.4261C32.4027 41.4261 30.5135 40.9716 28.9226 40.0625C27.3411 39.1439 26.1243 37.8466 25.272 36.1705C24.4197 34.4848 23.9936 32.5009 23.9936 30.2188C23.9936 27.9744 24.4197 26.0047 25.272 24.3097C26.1338 22.6051 27.3364 21.2794 28.88 20.3324C30.4235 19.3759 32.237 18.8977 34.3203 18.8977C35.665 18.8977 36.9339 19.1155 38.1271 19.5511C39.3298 19.9773 40.3904 20.6402 41.3089 21.5398C42.237 22.4394 42.9661 23.5852 43.4964 24.9773C44.0268 26.3598 44.2919 28.0076 44.2919 29.9205V31.4972H26.4084V28.0312H39.3629C39.3535 27.0464 39.1404 26.1705 38.7237 25.4034C38.3071 24.6269 37.7247 24.0161 36.9766 23.571C36.2379 23.1259 35.3762 22.9034 34.3913 22.9034C33.3402 22.9034 32.4169 23.1591 31.6214 23.6705C30.826 24.1723 30.2057 24.8352 29.7607 25.6591C29.325 26.4735 29.1025 27.3684 29.093 28.3438V31.3693C29.093 32.6383 29.325 33.7273 29.7891 34.6364C30.2531 35.536 30.9018 36.2273 31.7351 36.7102C32.5684 37.1837 33.5438 37.4205 34.6612 37.4205C35.4093 37.4205 36.0864 37.3163 36.6925 37.108C37.2985 36.8902 37.8241 36.5729 38.2692 36.1562C38.7143 35.7396 39.0504 35.2235 39.2777 34.608L44.0788 35.1477C43.7758 36.4167 43.1982 37.5246 42.3459 38.4716C41.5031 39.4091 40.4235 40.1383 39.1072 40.6591C37.791 41.1705 36.2853 41.4261 34.5902 41.4261Z" fill="#D03C91"/>
<path d="M-1.13068 41V11.9091H10.0057C12.108 11.9091 13.8551 12.2405 15.2472 12.9034C16.6487 13.5568 17.6951 14.4517 18.3864 15.5881C19.0871 16.7244 19.4375 18.0123 19.4375 19.4517C19.4375 20.6354 19.2102 21.6487 18.7557 22.4915C18.3011 23.3248 17.6903 24.0019 16.9233 24.5227C16.1562 25.0436 15.2992 25.4176 14.3523 25.6449V25.929C15.3845 25.9858 16.3741 26.303 17.321 26.8807C18.2775 27.4489 19.0587 28.2538 19.6648 29.2955C20.2708 30.3371 20.5739 31.5966 20.5739 33.0739C20.5739 34.5795 20.2093 35.9337 19.4801 37.1364C18.7509 38.3295 17.6525 39.2718 16.1847 39.9631C14.7169 40.6544 12.8703 41 10.6449 41H-1.13068ZM4.1392 36.5966H9.80682C11.7197 36.5966 13.0975 36.232 13.9403 35.5028C14.7926 34.7642 15.2188 33.8172 15.2188 32.6619C15.2188 31.8002 15.0057 31.0237 14.5795 30.3324C14.1534 29.6316 13.5473 29.0824 12.7614 28.6847C11.9754 28.2775 11.0379 28.0739 9.94886 28.0739H4.1392V36.5966ZM4.1392 24.2812H9.35227C10.2614 24.2812 11.0805 24.1155 11.8097 23.7841C12.5388 23.4432 13.1117 22.965 13.5284 22.3494C13.9545 21.7244 14.1676 20.9858 14.1676 20.1335C14.1676 19.0066 13.7699 18.0786 12.9744 17.3494C12.1884 16.6203 11.0189 16.2557 9.46591 16.2557H4.1392V24.2812ZM34.5902 41.4261C32.4027 41.4261 30.5135 40.9716 28.9226 40.0625C27.3411 39.1439 26.1243 37.8466 25.272 36.1705C24.4197 34.4848 23.9936 32.5009 23.9936 30.2188C23.9936 27.9744 24.4197 26.0047 25.272 24.3097C26.1338 22.6051 27.3364 21.2794 28.88 20.3324C30.4235 19.3759 32.237 18.8977 34.3203 18.8977C35.665 18.8977 36.9339 19.1155 38.1271 19.5511C39.3298 19.9773 40.3904 20.6402 41.3089 21.5398C42.237 22.4394 42.9661 23.5852 43.4964 24.9773C44.0268 26.3598 44.2919 28.0076 44.2919 29.9205V31.4972H26.4084V28.0312H39.3629C39.3535 27.0464 39.1404 26.1705 38.7237 25.4034C38.3071 24.6269 37.7247 24.0161 36.9766 23.571C36.2379 23.1259 35.3762 22.9034 34.3913 22.9034C33.3402 22.9034 32.4169 23.1591 31.6214 23.6705C30.826 24.1723 30.2057 24.8352 29.7607 25.6591C29.325 26.4735 29.1025 27.3684 29.093 28.3438V31.3693C29.093 32.6383 29.325 33.7273 29.7891 34.6364C30.2531 35.536 30.9018 36.2273 31.7351 36.7102C32.5684 37.1837 33.5438 37.4205 34.6612 37.4205C35.4093 37.4205 36.0864 37.3163 36.6925 37.108C37.2985 36.8902 37.8241 36.5729 38.2692 36.1562C38.7143 35.7396 39.0504 35.2235 39.2777 34.608L44.0788 35.1477C43.7758 36.4167 43.1982 37.5246 42.3459 38.4716C41.5031 39.4091 40.4235 40.1383 39.1072 40.6591C37.791 41.1705 36.2853 41.4261 34.5902 41.4261Z" fill="#1F1F1F" fill-opacity="0.1"/>
<path d="M43.5 14V9.5H48C48.3978 9.5 48.7794 9.34196 49.0607 9.06066C49.342 8.77936 49.5 8.39782 49.5 8C49.5 7.60218 49.342 7.22064 49.0607 6.93934C48.7794 6.65804 48.3978 6.5 48 6.5H43.5V2C43.5 1.60218 43.342 1.22064 43.0607 0.93934C42.7794 0.658035 42.3978 0.5 42 0.5C41.6022 0.5 41.2206 0.658035 40.9393 0.93934C40.658 1.22064 40.5 1.60218 40.5 2V6.5H36C35.6022 6.5 35.2206 6.65804 34.9393 6.93934C34.658 7.22064 34.5 7.60218 34.5 8C34.5 8.39782 34.658 8.77936 34.9393 9.06066C35.2206 9.34196 35.6022 9.5 36 9.5H40.5V14C40.5 14.3978 40.658 14.7794 40.9393 15.0607C41.2206 15.342 41.6022 15.5 42 15.5C42.3978 15.5 42.7794 15.342 43.0607 15.0607C43.342 14.7794 43.5 14.3978 43.5 14Z" fill="#D03C91"/>
<path d="M43.5 14V9.5H48C48.3978 9.5 48.7794 9.34196 49.0607 9.06066C49.342 8.77936 49.5 8.39782 49.5 8C49.5 7.60218 49.342 7.22064 49.0607 6.93934C48.7794 6.65804 48.3978 6.5 48 6.5H43.5V2C43.5 1.60218 43.342 1.22064 43.0607 0.93934C42.7794 0.658035 42.3978 0.5 42 0.5C41.6022 0.5 41.2206 0.658035 40.9393 0.93934C40.658 1.22064 40.5 1.60218 40.5 2V6.5H36C35.6022 6.5 35.2206 6.65804 34.9393 6.93934C34.658 7.22064 34.5 7.60218 34.5 8C34.5 8.39782 34.658 8.77936 34.9393 9.06066C35.2206 9.34196 35.6022 9.5 36 9.5H40.5V14C40.5 14.3978 40.658 14.7794 40.9393 15.0607C41.2206 15.342 41.6022 15.5 42 15.5C42.3978 15.5 42.7794 15.342 43.0607 15.0607C43.342 14.7794 43.5 14.3978 43.5 14Z" fill="#1F1F1F" fill-opacity="0.1"/>
<path d="M43.5 14V9.5H48C48.3978 9.5 48.7794 9.34196 49.0607 9.06066C49.342 8.77936 49.5 8.39782 49.5 8C49.5 7.60218 49.342 7.22064 49.0607 6.93934C48.7794 6.65804 48.3978 6.5 48 6.5H43.5V2C43.5 1.60218 43.342 1.22064 43.0607 0.93934C42.7794 0.658035 42.3978 0.5 42 0.5C41.6022 0.5 41.2206 0.658035 40.9393 0.93934C40.658 1.22064 40.5 1.60218 40.5 2V6.5H36C35.6022 6.5 35.2206 6.65804 34.9393 6.93934C34.658 7.22064 34.5 7.60218 34.5 8C34.5 8.39782 34.658 8.77936 34.9393 9.06066C35.2206 9.34196 35.6022 9.5 36 9.5H40.5V14C40.5 14.3978 40.658 14.7794 40.9393 15.0607C41.2206 15.342 41.6022 15.5 42 15.5C42.3978 15.5 42.7794 15.342 43.0607 15.0607C43.342 14.7794 43.5 14.3978 43.5 14Z" stroke="#D03C91"/>
<path d="M43.5 14V9.5H48C48.3978 9.5 48.7794 9.34196 49.0607 9.06066C49.342 8.77936 49.5 8.39782 49.5 8C49.5 7.60218 49.342 7.22064 49.0607 6.93934C48.7794 6.65804 48.3978 6.5 48 6.5H43.5V2C43.5 1.60218 43.342 1.22064 43.0607 0.93934C42.7794 0.658035 42.3978 0.5 42 0.5C41.6022 0.5 41.2206 0.658035 40.9393 0.93934C40.658 1.22064 40.5 1.60218 40.5 2V6.5H36C35.6022 6.5 35.2206 6.65804 34.9393 6.93934C34.658 7.22064 34.5 7.60218 34.5 8C34.5 8.39782 34.658 8.77936 34.9393 9.06066C35.2206 9.34196 35.6022 9.5 36 9.5H40.5V14C40.5 14.3978 40.658 14.7794 40.9393 15.0607C41.2206 15.342 41.6022 15.5 42 15.5C42.3978 15.5 42.7794 15.342 43.0607 15.0607C43.342 14.7794 43.5 14.3978 43.5 14Z" stroke="#1F1F1F" stroke-opacity="0.1"/>
</svg>
