<svg width="50" height="50" viewBox="0 0 50 50" fill="none" xmlns="http://www.w3.org/2000/svg">
<path fill-rule="evenodd" clip-rule="evenodd" d="M7.69268 18.5C8.22937 8.19444 16.8164 0 27.4654 0C38.4251 0 47.2381 8.72222 47.2381 19.4444C47.2381 27.2222 42.6339 33.8611 35.9394 36.9722V50H16.1667V41.6667H13.342C10.2066 41.6667 7.69268 39.1944 7.69268 36.1111V27.7778H3.45567C2.26931 27.7778 1.59139 26.3889 2.26931 25.5278L7.69268 18.5ZM43.5105 15.1028C44.2421 9.93238 39.4202 4.97853 32.8027 4.04222C26.1851 3.10591 20.1782 6.52762 19.4467 11.698C19.0941 14.1896 20.0364 16.6377 21.8452 18.5999C21.6857 19.2932 20.9807 21.0668 17.7916 23.3957C17.7916 23.3957 22.0629 24.0001 25.99 21.5727C27.2606 22.1343 28.6626 22.5475 30.1545 22.7585C36.7721 23.6949 42.779 20.2732 43.5105 15.1028Z" fill="#D03C91"/>
<path fill-rule="evenodd" clip-rule="evenodd" d="M7.69268 18.5C8.22937 8.19444 16.8164 0 27.4654 0C38.4251 0 47.2381 8.72222 47.2381 19.4444C47.2381 27.2222 42.6339 33.8611 35.9394 36.9722V50H16.1667V41.6667H13.342C10.2066 41.6667 7.69268 39.1944 7.69268 36.1111V27.7778H3.45567C2.26931 27.7778 1.59139 26.3889 2.26931 25.5278L7.69268 18.5ZM43.5105 15.1028C44.2421 9.93238 39.4202 4.97853 32.8027 4.04222C26.1851 3.10591 20.1782 6.52762 19.4467 11.698C19.0941 14.1896 20.0364 16.6377 21.8452 18.5999C21.6857 19.2932 20.9807 21.0668 17.7916 23.3957C17.7916 23.3957 22.0629 24.0001 25.99 21.5727C27.2606 22.1343 28.6626 22.5475 30.1545 22.7585C36.7721 23.6949 42.779 20.2732 43.5105 15.1028Z" fill="#1F1F1F" fill-opacity="0.1"/>
<path d="M32 17.675L31.275 17.015C28.7 14.68 27 13.135 27 11.25C27 9.705 28.21 8.5 29.75 8.5C30.62 8.5 31.455 8.905 32 9.54C32.545 8.905 33.38 8.5 34.25 8.5C35.79 8.5 37 9.705 37 11.25C37 13.135 35.3 14.68 32.725 17.015L32 17.675Z" fill="#D03C91"/>
<path d="M32 17.675L31.275 17.015C28.7 14.68 27 13.135 27 11.25C27 9.705 28.21 8.5 29.75 8.5C30.62 8.5 31.455 8.905 32 9.54C32.545 8.905 33.38 8.5 34.25 8.5C35.79 8.5 37 9.705 37 11.25C37 13.135 35.3 14.68 32.725 17.015L32 17.675Z" fill="#1F1F1F" fill-opacity="0.1"/>
</svg>
