<svg width="50" height="50" viewBox="0 0 50 50" fill="none" xmlns="http://www.w3.org/2000/svg">
<path d="M1.89106 46.1922H48.1286C48.6033 46.193 49.06 46.3767 49.4066 46.7062C49.7531 47.0357 49.9637 47.4865 49.9957 47.9676C50.0278 48.4486 49.8789 48.9241 49.5792 49.298C49.2795 49.6719 48.8513 49.9164 48.381 49.9821L48.1286 49.9999H1.89356C1.41525 50.0048 0.95317 49.8239 0.601949 49.4941C0.250729 49.1642 0.0369383 48.7105 0.00435656 48.2258C-0.0282251 47.7411 0.122867 47.2621 0.426693 46.8869C0.73052 46.5117 1.16409 46.2686 1.63863 46.2075L1.89106 46.1922ZM40.6306 17C43.0449 17 45.0044 18.9901 45.0044 21.4423V40.4807C45.0044 41.6589 44.5436 42.7888 43.7233 43.6219C42.9031 44.455 41.7906 44.923 40.6306 44.923H9.38903C8.22902 44.923 7.11653 44.455 6.29628 43.6219C5.47603 42.7888 5.01521 41.6589 5.01521 40.4807V21.4423C5.01521 18.9901 6.97469 17 9.38903 17H40.6306Z" fill="#D03C91"/>
</svg>
