<svg width="41" height="50" viewBox="0 0 41 50" fill="none" xmlns="http://www.w3.org/2000/svg">
<path d="M31.0073 8.87236C28.149 5.68803 24.932 2.82063 21.4158 0.323163C21.1046 0.112828 20.7338 0 20.3537 0C19.9737 0 19.6029 0.112828 19.2916 0.323163C15.7819 2.82167 12.5712 5.68903 9.7187 8.87236C3.35758 15.9193 0 23.3479 0 30.3569C0 35.5666 2.14538 40.5629 5.96418 44.2467C9.78298 47.9305 14.9624 50 20.363 50C25.7636 50 30.943 47.9305 34.7618 44.2467C38.5806 40.5629 40.726 35.5666 40.726 30.3569C40.726 23.3479 37.3684 15.9193 31.0073 8.87236ZM33.2865 32.4418C32.8065 35.0282 31.5166 37.4107 29.5903 39.2684C27.664 41.1262 25.194 42.37 22.5127 42.8325C22.4139 42.8478 22.3142 42.856 22.2142 42.8571C21.7498 42.857 21.3025 42.6885 20.9608 42.3851C20.6192 42.0817 20.4083 41.6656 20.3698 41.2192C20.3314 40.7728 20.4683 40.3287 20.7533 39.9751C21.0384 39.6215 21.4508 39.3842 21.9087 39.3102C25.743 38.6874 28.9964 35.549 29.6467 31.8436C29.7289 31.3765 30.0001 30.96 30.4007 30.6858C30.8012 30.4116 31.2982 30.3022 31.7825 30.3815C32.2667 30.4608 32.6984 30.7225 32.9826 31.1088C33.2669 31.4952 33.3803 31.9747 33.2981 32.4418H33.2865Z" fill="#01BBF6"/>
</svg>
