<svg width="50" height="49" viewBox="0 0 50 49" fill="none" xmlns="http://www.w3.org/2000/svg">
<path fill-rule="evenodd" clip-rule="evenodd" d="M3.72396 12.3534C5.94045 10.0526 8.15694 9.28561 11.1113 10.8195C13.7722 12.2003 15.2352 12.3377 16.5785 12.352C17.9787 12.3377 19.5015 12.2003 22.2735 10.8195C25.3504 9.28561 27.6581 10.0526 29.9671 12.3534C32.6879 15.0664 33.5283 17.8909 33.8147 20.0244C33.8489 20.1961 33.8773 20.3678 33.9044 20.5395C32.986 20.8088 32.164 21.3377 31.5366 22.0632C30.9092 22.7887 30.5028 23.6802 30.3658 24.6314C30.2289 25.5825 30.3672 26.5532 30.7643 27.4275C31.1613 28.3019 31.8004 29.0431 32.6053 29.5627L32.4927 29.8531C31.9286 29.452 31.2876 29.173 30.6103 29.034C29.9331 28.895 29.2345 28.8989 28.5589 29.0456C27.8833 29.1922 27.2454 29.4784 26.6858 29.8859C26.1262 30.2935 25.657 30.8134 25.3081 31.4128C24.9592 32.0122 24.7382 32.6779 24.6591 33.3676C24.58 34.0574 24.6446 34.7561 24.8487 35.4195C25.0528 36.0828 25.392 36.6963 25.8447 37.221C26.2975 37.7456 26.8539 38.17 27.4786 38.4671C27.3433 38.6345 27.2108 38.7933 27.084 38.9407C25.8946 40.1841 24.5413 40.9811 23.0741 40.7379C18.4588 39.9695 17.6896 39.9695 16.9203 39.9695H16.2508C15.5129 39.9695 14.7736 39.9695 10.3421 40.7379C6.79513 41.3503 3.94617 35.3678 2.53309 32.3014C0.310902 27.4893 -0.132112 22.5714 0.030279 20.0244C0.305204 17.8895 1.11288 15.0664 3.72396 12.3549V12.3534Z" fill="#01BBF6"/>
<path fill-rule="evenodd" clip-rule="evenodd" d="M43.9379 14.4376C45.538 15.0143 46.8446 16.2059 47.5701 17.7502C48.2957 19.2945 48.3808 21.065 47.8068 22.6724C47.7612 22.7997 47.7 22.9156 47.6259 23.0201C48.788 24.0248 49.5533 25.4144 49.7833 26.9371C50.0132 28.4598 49.6926 30.0149 48.8795 31.3206C48.4795 31.9608 47.9709 32.5255 47.3766 32.989C47.5051 34.2686 47.2475 35.5573 46.6373 36.6879C47.4312 37.1189 48.1255 37.7135 48.6748 38.4327C49.2242 39.1519 49.6161 39.9795 49.8251 40.8614C50.034 41.7432 50.0552 42.6595 49.8873 43.5501C49.7195 44.4408 49.3662 45.2858 48.8508 46.0299C48.3354 46.774 47.6694 47.4004 46.8963 47.8681C46.1233 48.3357 45.2606 48.6342 44.3648 48.7439C43.469 48.8536 42.5602 48.7721 41.698 48.5046C40.8357 48.2372 40.0394 47.7899 39.3611 47.192C38.2778 48.0842 36.9334 48.5955 35.5335 48.6474C34.1335 48.6994 32.7552 48.2893 31.6093 47.4799C30.4634 46.6704 29.613 45.5062 29.1883 44.1652C28.7635 42.8243 28.7877 41.3805 29.2572 40.0548C27.6192 39.9662 26.0772 39.2502 24.9488 38.0541C23.8204 36.858 23.1915 35.2729 23.1915 33.6251C23.1915 31.9772 23.8204 30.3921 24.9488 29.196C26.0772 27.9999 27.6192 27.2839 29.2572 27.1954C28.9031 26.1942 28.8011 25.1205 28.9604 24.0701C29.1197 23.0197 29.5353 22.0252 30.1701 21.1753C30.8049 20.3254 31.6392 19.6466 32.5987 19.1992C33.5581 18.7519 34.6128 18.55 35.6688 18.6115C35.6831 18.5156 35.7059 18.4183 35.7401 18.3225C36.3145 16.7154 37.5008 15.4034 39.0381 14.6748C40.5755 13.9463 42.338 13.861 43.9379 14.4376ZM41.1132 44.9255C41.4955 45.296 41.9555 45.5759 42.4595 45.7447C42.9635 45.9135 43.4987 45.9669 44.0259 45.901C44.5531 45.835 45.0589 45.6514 45.5063 45.3637C45.9537 45.0759 46.3313 44.6912 46.6115 44.2378C46.8917 43.7844 47.0674 43.2738 47.1256 42.7433C47.1839 42.2129 47.1232 41.6761 46.9481 41.1723C46.7731 40.6684 46.488 40.2103 46.1138 39.8315C45.7396 39.4527 45.2857 39.1628 44.7855 38.983C44.737 38.9656 44.6894 38.9455 44.6431 38.9229C43.6958 39.5811 42.5633 39.9904 41.3411 40.0562C41.579 40.7287 41.7086 41.4556 41.7086 42.2111C41.7086 43.1812 41.4949 44.0999 41.1132 44.9255ZM41.3411 27.1968C42.3312 27.2496 43.2956 27.5326 44.1583 28.0235C45.021 28.5144 45.7584 29.1998 46.3125 30.0257C46.6501 29.5647 46.8732 29.0296 46.9635 28.4646C47.0686 27.8009 46.9854 27.1209 46.7235 26.5025C46.4616 25.8841 46.0316 25.3523 45.4827 24.968C44.9338 24.5838 44.2882 24.3626 43.62 24.3299C42.9518 24.2971 42.2879 24.4542 41.7043 24.7829C41.7376 25.603 41.6143 26.4233 41.3411 27.1968ZM40.938 21.977C42.264 21.4122 43.7404 21.3115 45.1302 21.6908C45.444 20.7979 45.3925 19.8164 44.987 18.9615C44.5815 18.1067 43.8552 17.4482 42.9672 17.1304C42.0792 16.8126 41.102 16.8615 40.2498 17.2663C39.3976 17.671 38.7399 18.3987 38.4209 19.2898C38.4085 19.3246 38.3947 19.359 38.3796 19.3928C39.4614 19.99 40.3494 20.887 40.938 21.977ZM35.2985 21.4633C34.354 21.4633 33.4482 21.8402 32.7803 22.511C32.1125 23.1819 31.7373 24.0917 31.7373 25.0405C31.7373 25.9892 32.1125 26.8991 32.7803 27.57C33.4482 28.2408 34.354 28.6177 35.2985 28.6177C36.243 28.6177 37.1488 28.2408 37.8166 27.57C38.4845 26.8991 38.8597 25.9892 38.8597 25.0405C38.8597 24.0917 38.4845 23.1819 37.8166 22.511C37.1488 21.8402 36.243 21.4633 35.2985 21.4633ZM29.6005 30.0486C28.6561 30.0486 27.7503 30.4255 27.0824 31.0963C26.4145 31.7672 26.0393 32.6771 26.0393 33.6258C26.0393 34.5745 26.4145 35.4844 27.0824 36.1553C27.7503 36.8261 28.6561 37.203 29.6005 37.203C30.545 37.203 31.4508 36.8261 32.1187 36.1553C32.7865 35.4844 33.1617 34.5745 33.1617 33.6258C33.1617 32.6771 32.7865 31.7672 32.1187 31.0963C31.4508 30.4255 30.545 30.0486 29.6005 30.0486ZM37.4352 33.6258C37.4352 32.6771 37.8104 31.7672 38.4782 31.0963C39.1461 30.4255 40.0519 30.0486 40.9964 30.0486C41.9409 30.0486 42.8467 30.4255 43.5145 31.0963C44.1824 31.7672 44.5576 32.6771 44.5576 33.6258C44.5576 34.5745 44.1824 35.4844 43.5145 36.1553C42.8467 36.8261 41.9409 37.203 40.9964 37.203C40.0519 37.203 39.1461 36.8261 38.4782 36.1553C37.8104 35.4844 37.4352 34.5745 37.4352 33.6258ZM35.2985 38.6339C34.354 38.6339 33.4482 39.0108 32.7803 39.6816C32.1125 40.3525 31.7373 41.2624 31.7373 42.2111C31.7373 43.1598 32.1125 44.0697 32.7803 44.7406C33.4482 45.4114 34.354 45.7883 35.2985 45.7883C36.243 45.7883 37.1488 45.4114 37.8166 44.7406C38.4845 44.0697 38.8597 43.1598 38.8597 42.2111C38.8597 41.2624 38.4845 40.3525 37.8166 39.6816C37.1488 39.0108 36.243 38.6339 35.2985 38.6339ZM0.804688 0.00143146H2.41862C6.46415 0.00143146 10.2732 1.82867 13.0538 4.25402C13.9579 5.03926 14.7772 5.91789 15.4982 6.8754V3.67165C15.4982 3.29216 15.6483 2.9282 15.9154 2.65986C16.1826 2.39152 16.5449 2.24077 16.9227 2.24077C17.3005 2.24077 17.6628 2.39152 17.9299 2.65986C18.1971 2.9282 18.3472 3.29216 18.3472 3.67165V13.1155C18.3474 13.3317 18.2989 13.5451 18.2051 13.7396C18.1113 13.9342 17.9748 14.1049 17.8059 14.2387V14.3088H17.709C17.4756 14.465 17.2013 14.5481 16.9208 14.5476C16.6404 14.547 16.3664 14.463 16.1335 14.306C12.6578 14.243 9.16496 12.8851 6.41571 10.7059C3.60094 8.4737 1.46422 5.29713 1.00554 1.60831L0.806112 0L0.804688 0.00143146ZM14.6877 11.3197C14.1834 9.75863 12.984 7.9829 11.1863 6.41466C9.249 4.72621 6.7989 3.43985 4.22914 3.01487C4.91716 5.10683 6.3274 6.9913 8.18064 8.46082C10.0795 9.96468 12.3786 10.9777 14.6877 11.3197Z" fill="#01BBF6"/>
<path fill-rule="evenodd" clip-rule="evenodd" d="M44.1144 1.63867L44.3736 3.2384C45.0218 7.24917 43.8366 11.32 41.8979 14.4651C39.9919 17.5587 37.1487 20.0742 34.1843 20.5578L32.7784 20.7868L32.5504 19.3759C31.9806 15.8488 32.7527 12.0641 34.4934 8.91615C36.2356 5.7682 39.0161 3.1411 42.566 2.09512L44.1144 1.63867ZM41.7013 5.51637C39.7569 6.53516 38.1301 8.23505 36.9834 10.307C35.8096 12.4304 35.18 14.8715 35.2156 17.2181C36.6686 16.4669 38.2213 14.9931 39.4748 12.9584C40.8252 10.7691 41.6956 8.13203 41.7027 5.5178L41.7013 5.51637Z" fill="#01BBF6"/>
</svg>
