<svg width="50" height="50" viewBox="0 0 50 50" fill="none" xmlns="http://www.w3.org/2000/svg">
<path d="M23.4625 16.3925C23.3969 16.1809 23.2504 16.0041 23.0552 15.901C22.8599 15.7979 22.6318 15.777 22.4212 15.8428C22.2105 15.9086 22.0345 16.0558 21.9319 16.2519C21.8293 16.4481 21.8084 16.6771 21.8739 16.8887L24.2193 24.476L17.466 31.2613L15.9939 26.5011C15.9284 26.2895 15.7819 26.1127 15.5867 26.0096C15.3914 25.9065 15.1633 25.8856 14.9527 25.9514C14.742 26.0172 14.566 26.1644 14.4634 26.3605C14.3608 26.5567 14.3399 26.7857 14.4054 26.9973L16.1353 32.598L12.4327 36.3173C12.2812 36.4749 12.1974 36.6859 12.1993 36.905C12.2011 37.124 12.2886 37.3335 12.4428 37.4884C12.597 37.6433 12.8056 37.7312 13.0237 37.7331C13.2417 37.735 13.4518 37.6508 13.6087 37.4986L17.3113 33.7793L22.8869 35.517C23.0962 35.5778 23.3209 35.5537 23.5126 35.4499C23.7044 35.3461 23.848 35.1708 23.9125 34.9618C23.977 34.7528 23.9572 34.5267 23.8575 34.3321C23.7578 34.1376 23.5861 33.9901 23.3793 33.9213L18.6404 32.4443L25.397 25.6573L32.9669 28.0149C33.0719 28.0498 33.1827 28.0633 33.2929 28.0546C33.4031 28.046 33.5105 28.0154 33.6088 27.9645C33.7071 27.9137 33.7943 27.8437 33.8653 27.7587C33.9364 27.6736 33.9898 27.5751 34.0226 27.4691C34.0553 27.363 34.0666 27.2515 34.0559 27.1409C34.0452 27.0304 34.0127 26.9231 33.9603 26.8254C33.9078 26.7277 33.8365 26.6414 33.7505 26.5716C33.6645 26.5019 33.5655 26.4501 33.4593 26.4192L26.726 24.3223L33.7853 17.2313C33.8647 17.1542 33.9281 17.062 33.9717 16.9601C34.0153 16.8582 34.0382 16.7485 34.0392 16.6376C34.0401 16.5267 34.0191 16.4167 33.9773 16.314C33.9355 16.2113 33.8737 16.1181 33.7956 16.0396C33.7175 15.9612 33.6247 15.8991 33.5225 15.8571C33.4202 15.8151 33.3107 15.794 33.2003 15.795C33.0899 15.7959 32.9807 15.819 32.8793 15.8627C32.7778 15.9065 32.686 15.9702 32.6093 16.05L25.5483 23.1427L23.4625 16.3925Z" fill="#01BBF6"/>
<path d="M18.7323 5.29374C14.5789 3.60619 9.71523 5.23526 7.47966 9.27035C5.98263 11.9771 5.99927 15.135 7.29669 17.7081C5.89946 18.3597 4.70184 19.4458 3.90343 20.8827C3.30558 21.9539 2.97376 23.1542 2.93612 24.3816C2.89847 25.6091 3.15612 26.8276 3.68719 27.9337C4.02319 28.6421 4.27436 29.379 4.4357 30.1309C4.2563 31.4202 3.66908 32.6175 2.76069 33.5461C0.980581 35.3662 -0.0116264 37.819 0.000102819 40.3705C0.011832 42.922 1.02655 45.3655 2.82332 47.169C4.62009 48.9725 7.05341 49.99 9.59347 49.9999C12.1335 50.0098 14.5747 49.0114 16.3853 47.2219C17.5197 46.0824 19.0717 45.4625 20.7317 45.4776C20.9812 45.5728 21.2257 45.6781 21.4686 45.795C23.6309 46.831 26.2424 46.8477 28.488 45.5778C29.7787 44.8587 30.8294 43.7729 31.5086 42.4567C31.5869 42.3771 31.664 42.2963 31.7399 42.2144C33.04 42.8537 34.4751 43.1669 35.9222 43.127C37.3692 43.0872 38.785 42.6955 40.0484 41.9855C43.7577 39.912 45.426 35.5862 44.3349 31.6497C44.6184 30.9198 44.8323 30.1645 44.9736 29.394C45.3205 29.2278 45.6541 29.0351 45.9716 28.8176C46.9691 28.1293 47.789 27.2122 48.3634 26.1423C48.9379 25.0724 49.2503 23.8805 49.2748 22.6651C49.2994 21.4498 49.0353 20.2461 48.5046 19.1536C47.9738 18.0612 47.1917 17.1115 46.2228 16.3831C46.5266 14.7518 46.4589 13.0725 46.0248 11.4712C45.5907 9.8699 44.8014 8.38803 43.7161 7.13668C42.4492 5.67664 40.8203 4.57928 38.9947 3.95599C37.1692 3.3327 35.2119 3.20568 33.3217 3.58781C32.6507 2.51257 31.7239 1.62185 30.625 0.995837C29.526 0.369828 28.2893 0.0281867 27.0262 0.00167087C25.7631 -0.0248449 24.5132 0.264598 23.3892 0.84394C22.2651 1.42328 21.3022 2.27433 20.587 3.32047C20.2353 3.84067 19.9487 4.4024 19.7337 4.99299C19.3958 5.07901 19.0617 5.17935 18.7323 5.29374ZM39.2167 33.531C38.1846 34.5674 36.9167 35.3357 35.5227 35.7695C34.1287 36.2033 32.6505 36.2894 31.2159 36.0206C30.9498 37.541 30.2511 38.9947 29.0868 40.1643C28.2245 41.0324 27.1663 41.6787 26.0022 42.0481C24.8381 42.4175 23.6024 42.4992 22.4001 42.2863C19.3395 41.7516 16.229 42.6538 14.0333 44.8594C12.851 46.047 11.2475 46.7141 9.5755 46.7141C7.9035 46.7141 6.29997 46.047 5.11768 44.8594C3.9354 43.6717 3.27119 42.061 3.27119 40.3815C3.27119 38.702 3.93539 37.0912 5.11768 35.9036C7.29669 33.6981 8.21154 30.5569 7.67927 27.4993C7.46434 26.2941 7.54433 25.0546 7.91234 23.8874C8.28034 22.7202 8.92533 21.6603 9.79174 20.7992C10.9561 19.6296 12.4032 18.9111 13.9169 18.6605C13.3846 15.8368 14.2163 12.7958 16.3953 10.607C18.0545 8.94144 20.2952 7.99201 22.6407 7.96081C24.9862 7.9296 27.2512 8.81908 28.9537 10.4399C29.2698 9.90527 29.6523 9.40402 30.1014 8.95289C30.8389 8.21259 31.72 7.63247 32.69 7.24856C33.66 6.86465 34.6982 6.68514 35.7402 6.72117C36.7821 6.75721 37.8056 7.00803 38.747 7.45805C39.6884 7.90807 40.5277 8.54769 41.2127 9.33719C43.6579 12.1442 43.7078 16.3882 41.3292 19.2453C40.7636 19.9303 40.0983 20.4817 39.383 20.9161C40.9966 22.6263 41.8821 24.9015 41.8511 27.2575C41.82 29.6136 40.8748 31.8644 39.2167 33.531Z" fill="#01BBF6"/>
</svg>
