<svg width="42" height="50" viewBox="0 0 42 50" fill="none" xmlns="http://www.w3.org/2000/svg">
<path d="M9.333 0C4.17807 0 0 4.89686 0 10.9375C0 16.1093 3.06434 20.4437 7.18019 21.5812L5.63402 46.8811C5.60516 47.2825 5.65953 47.6856 5.79368 48.0648C5.92784 48.444 6.13886 48.7912 6.41341 49.0843C6.68797 49.3774 7.02007 49.6101 7.38874 49.7677C7.75741 49.9253 8.15462 50.0043 8.55525 49.9998H10.1108C11.8218 49.9998 13.1346 48.5967 13.032 46.8811L11.4858 21.5812C15.6017 20.4405 18.666 16.1093 18.666 10.9375C18.666 4.89686 14.4879 0 9.333 0ZM40.7012 0L38.1098 15.6249H36.1654L34.8681 0H33.5708L32.2735 15.6249H30.3291L27.7377 0H26.4404V20.3124C26.4404 20.7268 26.6043 21.1243 26.896 21.4173C27.1877 21.7103 27.5833 21.8749 27.9959 21.8749H32.0464L30.5189 46.8811C30.4901 47.2825 30.5444 47.6856 30.6786 48.0648C30.8127 48.444 31.0238 48.7912 31.2983 49.0843C31.5729 49.3774 31.905 49.6101 32.2736 49.7677C32.6423 49.9253 33.0395 50.0043 33.4401 49.9998H34.9956C36.7067 49.9998 38.0195 48.5967 37.9169 46.8811L36.3894 21.8749H40.4399C40.8524 21.8749 41.2481 21.7103 41.5398 21.4173C41.8315 21.1243 41.9954 20.7268 41.9954 20.3124V0H40.6981H40.7012Z" fill="#01BBF6"/>
</svg>
