<svg width="21" height="50" viewBox="0 0 21 50" fill="none" xmlns="http://www.w3.org/2000/svg">
<path d="M15.5176 11.3348C16.3051 11.3348 17.0299 11.4833 17.6922 11.7805C19.6579 12.7469 20.8186 14.5835 20.8333 16.6315V30.7388C20.4646 32.9814 17.8364 32.3716 17.7728 30.7388V17.4182C17.5386 16.6586 16.0368 16.9735 16.0009 17.4182V47.9926C15.619 51.1146 11.4885 50.1982 11.3832 47.9402V29.2179C11.1191 28.0103 9.38089 28.559 9.34279 29.2704C9.41651 35.4934 9.3965 41.7168 9.3965 47.9402C8.98457 51.0461 4.87418 50.2514 4.77879 47.9926L4.72513 17.4182C4.48439 16.675 3.0928 16.96 3.06055 17.4182V30.7388C2.6918 32.9814 0.0636496 32.3716 0 30.7388V16.6315C0.0371574 14.6709 0.77288 12.7067 2.52363 11.7805C3.09639 11.4833 3.7944 11.3348 4.61771 11.3348L15.5176 11.3348ZM15.4634 4.92821C15.4634 7.65 13.2043 9.85646 10.4176 9.85646C7.63095 9.85646 5.37186 7.65 5.37186 4.92821C5.37182 2.20646 7.63091 0 10.4175 0C13.2043 0 15.4634 2.20646 15.4634 4.92821Z" fill="#01BBF6"/>
</svg>
