<svg width="50" height="46" viewBox="0 0 50 46" fill="none" xmlns="http://www.w3.org/2000/svg">
<path d="M38.966 15.7477H11.3263V34.2073C11.3263 35.4373 11.8127 36.6164 12.6777 37.4855C13.5427 38.3545 14.7154 38.8424 15.9378 38.8426L38.966 15.7477ZM38.966 15.7477V15.7763L39.4868 15.7546C39.6181 15.7492 39.7491 15.7461 39.8801 15.7461C44.6638 15.7461 48.4931 19.2548 48.4923 24.0076V24.0077C48.4923 28.767 44.6554 32.3672 39.8785 32.3672C39.7506 32.3672 39.6212 32.3627 39.4861 32.3571L38.9652 32.3353V32.8566V34.2072C38.9652 34.2072 38.9652 34.2073 38.9652 34.2073C38.9648 35.4373 38.4782 36.6163 37.613 37.4853C36.748 38.3542 35.5753 38.8422 34.3529 38.8426C34.3529 38.8426 34.3528 38.8426 34.3528 38.8426H15.9378L38.966 15.7477ZM49.488 40.9503C49.4108 42.0623 48.9367 43.1132 48.1475 43.906C47.2826 44.775 46.11 45.2629 44.8877 45.2634C44.8876 45.2634 44.8876 45.2634 44.8875 45.2634H5.11157L49.488 40.9503ZM49.488 40.9503H0.511146C0.588206 42.0624 1.06223 43.1134 1.85144 43.9062C2.71641 44.7752 3.88911 45.2631 5.11149 45.2634L49.488 40.9503ZM38.966 29.3608V29.8264L39.4305 29.8595C39.573 29.8697 39.7243 29.8779 39.8801 29.8779C43.1875 29.8779 45.9025 27.3681 45.9025 24.0085C45.9025 20.6419 43.1792 18.1979 39.8801 18.1979C39.7265 18.1979 39.5754 18.2051 39.436 18.2135L38.966 18.2417V18.7126V29.3608Z" fill="#01BBF6"/>
<path d="M38.966 15.7477H11.3263V34.2073C11.3263 35.4373 11.8127 36.6164 12.6777 37.4855C13.5427 38.3545 14.7154 38.8424 15.9378 38.8426L38.966 15.7477ZM38.966 15.7477V15.7763L39.4868 15.7546C39.6181 15.7492 39.7491 15.7461 39.8801 15.7461C44.6638 15.7461 48.4931 19.2548 48.4923 24.0076V24.0077C48.4923 28.767 44.6554 32.3672 39.8785 32.3672C39.7506 32.3672 39.6212 32.3627 39.4861 32.3571L38.9652 32.3353V32.8566V34.2072C38.9652 34.2072 38.9652 34.2073 38.9652 34.2073C38.9648 35.4373 38.4782 36.6163 37.613 37.4853C36.748 38.3542 35.5753 38.8422 34.3529 38.8426C34.3529 38.8426 34.3528 38.8426 34.3528 38.8426H15.9378L38.966 15.7477ZM49.488 40.9503C49.4108 42.0623 48.9367 43.1132 48.1475 43.906C47.2826 44.775 46.11 45.2629 44.8877 45.2634C44.8876 45.2634 44.8876 45.2634 44.8875 45.2634H5.11157L49.488 40.9503ZM49.488 40.9503H0.511146C0.588206 42.0624 1.06223 43.1134 1.85144 43.9062C2.71641 44.7752 3.88911 45.2631 5.11149 45.2634L49.488 40.9503ZM38.966 29.3608V29.8264L39.4305 29.8595C39.573 29.8697 39.7243 29.8779 39.8801 29.8779C43.1875 29.8779 45.9025 27.3681 45.9025 24.0085C45.9025 20.6419 43.1792 18.1979 39.8801 18.1979C39.7265 18.1979 39.5754 18.2051 39.436 18.2135L38.966 18.2417V18.7126V29.3608Z" stroke="#01BBF6"/>
<path d="M38.966 15.7477H11.3263V34.2073C11.3263 35.4373 11.8127 36.6164 12.6777 37.4855C13.5427 38.3545 14.7154 38.8424 15.9378 38.8426L38.966 15.7477ZM38.966 15.7477V15.7763L39.4868 15.7546C39.6181 15.7492 39.7491 15.7461 39.8801 15.7461C44.6638 15.7461 48.4931 19.2548 48.4923 24.0076V24.0077C48.4923 28.767 44.6554 32.3672 39.8785 32.3672C39.7506 32.3672 39.6212 32.3627 39.4861 32.3571L38.9652 32.3353V32.8566V34.2072C38.9652 34.2072 38.9652 34.2073 38.9652 34.2073C38.9648 35.4373 38.4782 36.6163 37.613 37.4853C36.748 38.3542 35.5753 38.8422 34.3529 38.8426C34.3529 38.8426 34.3528 38.8426 34.3528 38.8426H15.9378L38.966 15.7477ZM49.488 40.9503C49.4108 42.0623 48.9367 43.1132 48.1475 43.906C47.2826 44.775 46.11 45.2629 44.8877 45.2634C44.8876 45.2634 44.8876 45.2634 44.8875 45.2634H5.11157L49.488 40.9503ZM49.488 40.9503H0.511146C0.588206 42.0624 1.06223 43.1134 1.85144 43.9062C2.71641 44.7752 3.88911 45.2631 5.11149 45.2634L49.488 40.9503ZM38.966 29.3608V29.8264L39.4305 29.8595C39.573 29.8697 39.7243 29.8779 39.8801 29.8779C43.1875 29.8779 45.9025 27.3681 45.9025 24.0085C45.9025 20.6419 43.1792 18.1979 39.8801 18.1979C39.7265 18.1979 39.5754 18.2051 39.436 18.2135L38.966 18.2417V18.7126V29.3608Z" stroke="#1F1F1F" stroke-opacity="0.1"/>
<rect x="20" width="1.5" height="8" rx="0.75" fill="#01BBF6"/>
<rect x="20" width="1.5" height="8" rx="0.75" fill="#1F1F1F" fill-opacity="0.1"/>
<rect x="25" width="1.5" height="8" rx="0.75" fill="#01BBF6"/>
<rect x="25" width="1.5" height="8" rx="0.75" fill="#1F1F1F" fill-opacity="0.1"/>
<rect x="30" width="1.5" height="8" rx="0.75" fill="#01BBF6"/>
<rect x="30" width="1.5" height="8" rx="0.75" fill="#1F1F1F" fill-opacity="0.1"/>
</svg>
