<svg width="50" height="50" viewBox="0 0 50 50" fill="none" xmlns="http://www.w3.org/2000/svg">
<g clip-path="url(#clip0_599_24535)">
<path d="M50 30.6596C50 31.7054 49.5948 32.7084 48.8735 33.4479C48.1522 34.1874 47.1739 34.6029 46.1538 34.6029H3.84615C2.82609 34.6029 1.84781 34.1874 1.12651 33.4479C0.405218 32.7084 0 31.7054 0 30.6596C0 29.6138 0.405218 28.6108 1.12651 27.8713C1.84781 27.1318 2.82609 26.7164 3.84615 26.7164H46.1538C47.1739 26.7164 48.1522 27.1318 48.8735 27.8713C49.5948 28.6108 50 29.6138 50 30.6596ZM9.61538 38.5462H3.84615C3.84615 41.6836 5.06181 44.6926 7.22569 46.9111C9.38957 49.1296 12.3244 50.376 15.3846 50.376H34.6154C37.6756 50.376 40.6104 49.1296 42.7743 46.9111C44.9382 44.6926 46.1538 41.6836 46.1538 38.5462H9.61538ZM7.69231 22.7731H3.84615V14.8865C3.84615 12.7949 4.65659 10.7889 6.09918 9.30991C7.54177 7.8309 9.49833 7 11.5385 7H38.4615C40.5017 7 42.4582 7.8309 43.9008 9.30991C45.3434 10.7889 46.1538 12.7949 46.1538 14.8865V22.7731H7.69231ZM38.4615 16.8582C38.4615 17.3811 38.6641 17.8826 39.0248 18.2523C39.3854 18.6221 39.8746 18.8298 40.3846 18.8298C40.8946 18.8298 41.3838 18.6221 41.7444 18.2523C42.1051 17.8826 42.3077 17.3811 42.3077 16.8582C42.3077 16.3353 42.1051 15.8338 41.7444 15.464C41.3838 15.0943 40.8946 14.8865 40.3846 14.8865C39.8746 14.8865 39.3854 15.0943 39.0248 15.464C38.6641 15.8338 38.4615 16.3353 38.4615 16.8582ZM30.7692 12.9149C30.7692 13.4378 30.9718 13.9393 31.3325 14.3091C31.6931 14.6788 32.1823 14.8865 32.6923 14.8865C33.2023 14.8865 33.6915 14.6788 34.0521 14.3091C34.4128 13.9393 34.6154 13.4378 34.6154 12.9149C34.6154 12.392 34.4128 11.8905 34.0521 11.5208C33.6915 11.151 33.2023 10.9433 32.6923 10.9433C32.1823 10.9433 31.6931 11.151 31.3325 11.5208C30.9718 11.8905 30.7692 12.392 30.7692 12.9149ZM23.0769 16.8582C23.0769 17.3811 23.2795 17.8826 23.6402 18.2523C24.0008 18.6221 24.49 18.8298 25 18.8298C25.51 18.8298 25.9992 18.6221 26.3598 18.2523C26.7205 17.8826 26.9231 17.3811 26.9231 16.8582C26.9231 16.3353 26.7205 15.8338 26.3598 15.464C25.9992 15.0943 25.51 14.8865 25 14.8865C24.49 14.8865 24.0008 15.0943 23.6402 15.464C23.2795 15.8338 23.0769 16.3353 23.0769 16.8582ZM15.3846 12.9149C15.3846 13.4378 15.5872 13.9393 15.9479 14.3091C16.3085 14.6788 16.7977 14.8865 17.3077 14.8865C17.8177 14.8865 18.3069 14.6788 18.6675 14.3091C19.0282 13.9393 19.2308 13.4378 19.2308 12.9149C19.2308 12.392 19.0282 11.8905 18.6675 11.5208C18.3069 11.151 17.8177 10.9433 17.3077 10.9433C16.7977 10.9433 16.3085 11.151 15.9479 11.5208C15.5872 11.8905 15.3846 12.392 15.3846 12.9149ZM7.69231 16.8582C7.69231 17.3811 7.89492 17.8826 8.25556 18.2523C8.61621 18.6221 9.10535 18.8298 9.61538 18.8298C10.1254 18.8298 10.6146 18.6221 10.9752 18.2523C11.3359 17.8826 11.5385 17.3811 11.5385 16.8582C11.5385 16.3353 11.3359 15.8338 10.9752 15.464C10.6146 15.0943 10.1254 14.8865 9.61538 14.8865C9.10535 14.8865 8.61621 15.0943 8.25556 15.464C7.89492 15.8338 7.69231 16.3353 7.69231 16.8582Z" fill="#01BBF6"/>
<path d="M3 4L47 47" stroke="#01BBF6" stroke-width="5" stroke-linecap="round"/>
<path d="M3 4L47 47" stroke="#1F1F1F" stroke-opacity="0.1" stroke-width="5" stroke-linecap="round"/>
</g>
<defs>
<clipPath id="clip0_599_24535">
<rect width="50" height="50" fill="white"/>
</clipPath>
</defs>
</svg>
