<svg width="50" height="50" viewBox="0 0 50 50" fill="none" xmlns="http://www.w3.org/2000/svg">
<path d="M45.325 26.6656H49V33.9713H45.325V26.6656ZM39.2 26.6656H42.875V33.9713H39.2V26.6656ZM36.75 30.3184C36.75 28.2972 35.1085 26.6656 33.075 26.6656H31.017L36.358 31.9744C36.603 31.463 36.75 30.9029 36.75 30.3184ZM41.2825 6.52622C42.2135 5.60084 42.924 4.48063 43.3405 3.23866C43.4363 2.95983 43.4648 2.6625 43.4236 2.37071C43.3824 2.07892 43.2727 1.80086 43.1033 1.55903C42.934 1.3172 42.7097 1.11838 42.4487 0.978655C42.1878 0.838929 41.8973 0.762219 41.601 0.754729C40.768 0.779081 40.1065 1.36354 39.837 2.16716C39.396 3.50654 38.318 4.57804 36.9705 5.01638C36.1375 5.28426 35.525 5.96612 35.525 6.81845V7.18374C35.525 8.08477 36.1865 8.86404 37.093 9.01016C41.8215 9.76508 45.325 13.8806 45.325 18.7998V22.4039C45.325 23.4024 46.158 24.2303 47.1625 24.2303C48.167 24.2303 49 23.4024 49 22.4039V18.7754C49 13.3692 45.864 8.69358 41.2825 6.52622ZM30.8945 16.0723H34.3735C36.946 16.0723 39.2 17.8744 39.2 21.0645V22.4039C39.2 23.4024 40.0085 24.2303 41.0375 24.2303H41.062C42.0665 24.2303 42.8995 23.4267 42.8995 22.4039V20.2366C42.8995 15.8288 38.9795 12.5412 34.398 12.5412H31.213C28.714 12.5412 26.46 10.7635 26.1415 8.27959C25.8475 5.96612 27.2685 4.1397 29.3265 3.5796C30.1105 3.36042 30.6495 2.65421 30.6495 1.82623C30.6495 0.632967 29.5225 -0.268068 28.371 0.0728642C26.6365 0.570738 25.1155 1.62318 24.0437 3.06719C22.9718 4.51121 22.4088 6.26622 22.442 8.06042C22.491 12.5656 26.3865 16.0723 30.8945 16.0723ZM5.194 7.88995C4.96717 7.66449 4.69789 7.48565 4.40153 7.36363C4.10517 7.24162 3.78753 7.17882 3.46675 7.17882C3.14597 7.17882 2.82833 7.24162 2.53197 7.36363C2.23561 7.48565 1.96633 7.66449 1.7395 7.88995C1.51267 8.11541 1.33275 8.38307 1.20999 8.67764C1.08723 8.97222 1.02405 9.28794 1.02405 9.60679C1.02405 9.92564 1.08723 10.2414 1.20999 10.5359C1.33275 10.8305 1.51267 11.0982 1.7395 11.3236L17.15 26.6656H3.675C1.6415 26.6656 0 28.2972 0 30.3184C0 32.3397 1.6415 33.9713 3.675 33.9713H24.5L39.9105 49.2889C40.3686 49.7442 40.9899 50 41.6378 50C42.2856 50 42.9069 49.7442 43.365 49.2889C43.8231 48.8335 44.0804 48.216 44.0804 47.572C44.0804 46.9281 43.8231 46.3105 43.365 45.8552L5.194 7.88995Z" fill="#01BBF6"/>
<path d="M45.325 26.6656H49V33.9713H45.325V26.6656ZM39.2 26.6656H42.875V33.9713H39.2V26.6656ZM36.75 30.3184C36.75 28.2972 35.1085 26.6656 33.075 26.6656H31.017L36.358 31.9744C36.603 31.463 36.75 30.9029 36.75 30.3184ZM41.2825 6.52622C42.2135 5.60084 42.924 4.48063 43.3405 3.23866C43.4363 2.95983 43.4648 2.6625 43.4236 2.37071C43.3824 2.07892 43.2727 1.80086 43.1033 1.55903C42.934 1.3172 42.7097 1.11838 42.4487 0.978655C42.1878 0.838929 41.8973 0.762219 41.601 0.754729C40.768 0.779081 40.1065 1.36354 39.837 2.16716C39.396 3.50654 38.318 4.57804 36.9705 5.01638C36.1375 5.28426 35.525 5.96612 35.525 6.81845V7.18374C35.525 8.08477 36.1865 8.86404 37.093 9.01016C41.8215 9.76508 45.325 13.8806 45.325 18.7998V22.4039C45.325 23.4024 46.158 24.2303 47.1625 24.2303C48.167 24.2303 49 23.4024 49 22.4039V18.7754C49 13.3692 45.864 8.69358 41.2825 6.52622ZM30.8945 16.0723H34.3735C36.946 16.0723 39.2 17.8744 39.2 21.0645V22.4039C39.2 23.4024 40.0085 24.2303 41.0375 24.2303H41.062C42.0665 24.2303 42.8995 23.4267 42.8995 22.4039V20.2366C42.8995 15.8288 38.9795 12.5412 34.398 12.5412H31.213C28.714 12.5412 26.46 10.7635 26.1415 8.27959C25.8475 5.96612 27.2685 4.1397 29.3265 3.5796C30.1105 3.36042 30.6495 2.65421 30.6495 1.82623C30.6495 0.632967 29.5225 -0.268068 28.371 0.0728642C26.6365 0.570738 25.1155 1.62318 24.0437 3.06719C22.9718 4.51121 22.4088 6.26622 22.442 8.06042C22.491 12.5656 26.3865 16.0723 30.8945 16.0723ZM5.194 7.88995C4.96717 7.66449 4.69789 7.48565 4.40153 7.36363C4.10517 7.24162 3.78753 7.17882 3.46675 7.17882C3.14597 7.17882 2.82833 7.24162 2.53197 7.36363C2.23561 7.48565 1.96633 7.66449 1.7395 7.88995C1.51267 8.11541 1.33275 8.38307 1.20999 8.67764C1.08723 8.97222 1.02405 9.28794 1.02405 9.60679C1.02405 9.92564 1.08723 10.2414 1.20999 10.5359C1.33275 10.8305 1.51267 11.0982 1.7395 11.3236L17.15 26.6656H3.675C1.6415 26.6656 0 28.2972 0 30.3184C0 32.3397 1.6415 33.9713 3.675 33.9713H24.5L39.9105 49.2889C40.3686 49.7442 40.9899 50 41.6378 50C42.2856 50 42.9069 49.7442 43.365 49.2889C43.8231 48.8335 44.0804 48.216 44.0804 47.572C44.0804 46.9281 43.8231 46.3105 43.365 45.8552L5.194 7.88995Z" fill="#1F1F1F" fill-opacity="0.1"/>
</svg>
