<svg width="50" height="48" viewBox="0 0 50 48" fill="none" xmlns="http://www.w3.org/2000/svg">
<path d="M13.2809 0C5.60441 0 0 7.96373 0 16.5511C0 18.8586 0.361765 21.0682 1 23.1668C1.31177 24.1935 1.68971 25.1939 2.12206 26.1665C8.16176 39.731 25 48 25 48C25 48 28.725 46.0518 33.3 42.6052C30.4029 40.5722 26.3971 37.1329 24.4647 32.6436C24.232 32.1039 24.0321 31.5509 23.8662 30.9874C23.515 29.8027 23.3358 28.5743 23.3338 27.3393C23.3338 22.6002 26.3235 18.2072 30.4162 18.2072C33.2574 18.2072 35.3647 20.1788 36.6662 22.974C37.9676 20.1788 40.0765 18.2072 42.9162 18.2072C45.625 18.2072 47.8485 20.1291 49.0441 22.8017C49.6544 20.8009 50 18.7125 50 16.5511C50 7.96373 44.3956 0 36.7191 0C31.3926 0 27.4397 3.57368 25 8.64137C22.5603 3.57368 18.6074 0 13.2809 0ZM47.7294 26.4353C47.9483 26.4383 48.1645 26.4842 48.3656 26.5703C48.5667 26.6563 48.7487 26.7809 48.9013 26.9369C49.0538 27.0929 49.1739 27.2772 49.2547 27.4793C49.3355 27.6814 49.3754 27.8973 49.3721 28.1148C49.2985 33.533 46.6588 37.2206 44.0941 39.5061C43.0276 40.4546 41.8564 41.2801 40.6029 41.967C40.1129 42.2353 39.6092 42.4785 39.0941 42.6957C39.0515 42.7118 39.0176 42.7249 38.9926 42.7366L38.9618 42.7483L38.95 42.7527L38.9456 42.7541C38.5362 42.892 38.089 42.8666 37.6981 42.6833C37.3072 42.5 37.0033 42.1732 36.8504 41.7717C36.6974 41.3702 36.7074 40.9254 36.8783 40.5311C37.0491 40.1368 37.3675 39.8238 37.7662 39.658L37.7735 39.6551L37.8265 39.6332C38.2248 39.4635 38.6145 39.2744 38.9941 39.0665C40.0256 38.5019 40.9895 37.8234 41.8676 37.0438C43.9456 35.192 45.9809 32.3208 46.0397 28.068C46.0426 27.8506 46.0886 27.6359 46.1751 27.4361C46.2616 27.2364 46.3869 27.0555 46.5438 26.9039C46.7007 26.7522 46.8862 26.6328 47.0896 26.5524C47.2931 26.472 47.5105 26.4322 47.7294 26.4353Z" fill="#01BBF6"/>
</svg>
