<svg width="50" height="50" viewBox="0 0 50 50" fill="none" xmlns="http://www.w3.org/2000/svg">
<g clip-path="url(#clip0_599_24547)">
<path fill-rule="evenodd" clip-rule="evenodd" d="M38.3811 3.61446C37.9039 3.61446 37.4463 3.42405 37.1089 3.08513C36.7715 2.74621 36.5819 2.28654 36.5819 1.80723C36.5819 1.32792 36.7715 0.868246 37.1089 0.529325C37.4463 0.190404 37.9039 0 38.3811 0H47.9765C48.3321 0.000314186 48.6796 0.106476 48.9752 0.305079C49.2708 0.503681 49.5011 0.785815 49.6372 1.11585C49.7732 1.44588 49.8089 1.80901 49.7396 2.15936C49.6703 2.50972 49.4992 2.8316 49.2479 3.08434L42.723 9.63855H47.9765C48.4537 9.63855 48.9113 9.82896 49.2487 10.1679C49.5861 10.5068 49.7756 10.9665 49.7756 11.4458C49.7756 11.9251 49.5861 12.3848 49.2487 12.7237C48.9113 13.0626 48.4537 13.253 47.9765 13.253H38.3811C38.0255 13.2527 37.6779 13.1465 37.3824 12.9479C37.0868 12.7493 36.8564 12.4672 36.7204 12.1372C36.5843 11.8071 36.5487 11.444 36.618 11.0936C36.6873 10.7433 36.8584 10.4214 37.1097 10.1687L43.6346 3.61446H38.3811ZM27.5862 18.0723C27.1091 18.0723 26.6515 17.8819 26.3141 17.543C25.9767 17.204 25.7871 16.7444 25.7871 16.2651C25.7871 15.7858 25.9767 15.3261 26.3141 14.9872C26.6515 14.6482 27.1091 14.4578 27.5862 14.4578H34.7828C35.1384 14.4581 35.4859 14.5643 35.7815 14.7629C36.0771 14.9615 36.3075 15.2436 36.4435 15.5737C36.5795 15.9037 36.6152 16.2668 36.5459 16.6172C36.4766 16.9676 36.3055 17.2894 36.0542 17.5422L31.9282 21.6867H34.7828C35.26 21.6867 35.7176 21.8772 36.055 22.2161C36.3924 22.555 36.5819 23.0147 36.5819 23.494C36.5819 23.9733 36.3924 24.433 36.055 24.7719C35.7176 25.1108 35.26 25.3012 34.7828 25.3012H27.5862C27.2306 25.3009 26.8831 25.1947 26.5875 24.9961C26.292 24.7975 26.0616 24.5154 25.9256 24.1854C25.7895 23.8553 25.7539 23.4922 25.8232 23.1418C25.8925 22.7915 26.0636 22.4696 26.3149 22.2169L30.4409 18.0723H27.5862Z" fill="#01BBF6"/>
<path d="M23.9885 50.0014C37.2374 50.0014 47.977 39.2134 47.977 25.905C47.977 24.7893 46.3122 24.6038 45.7389 25.5604C44.5161 27.595 42.8484 29.3233 40.8621 30.6145C38.8758 31.9058 36.623 32.726 34.2744 33.0132C31.9258 33.3003 29.5429 33.0468 27.3063 32.2719C25.0696 31.497 23.0378 30.2209 21.3649 28.5404C19.6919 26.8599 18.4215 24.819 17.6501 22.5723C16.8786 20.3256 16.6263 17.932 16.9121 15.5729C17.198 13.2137 18.0146 10.9508 19.3 8.95555C20.5855 6.96033 22.3061 5.28511 24.3316 4.05679C25.2839 3.47847 25.0992 1.80859 23.9885 1.80859C10.7397 1.80859 0 12.5965 0 25.905C0 39.2134 10.7397 50.0014 23.9885 50.0014Z" fill="#01BBF6"/>
</g>
<defs>
<clipPath id="clip0_599_24547">
<rect width="50" height="50" fill="white"/>
</clipPath>
</defs>
</svg>
