<svg width="96" height="95" viewBox="0 0 96 95" fill="none" xmlns="http://www.w3.org/2000/svg">
<path d="M8.3574 25.7712C10.2616 22.2973 16.9296 10.5651 31.5078 4.64784C50.3425 -2.99843 67.1661 5.23707 69.4138 6.38367C89.1904 16.4778 93.3992 36.9779 94.0111 40.2402C94.4343 42.5038 98.8705 68.4798 80.4112 83.9339C64.6477 97.1311 44.3775 92.4492 37.5843 90.8794C30.9459 89.3461 17.0479 86.1338 8.3574 73.5166C-2.36012 57.9556 1.66208 37.9766 8.3574 25.7712Z" fill="#FCDB00"/>
<path d="M8.20681 25.6893C8.93709 24.3493 9.72426 23.0366 10.5615 21.7581C10.9937 21.1279 11.4055 20.4841 11.865 19.8721L12.5407 18.9462L13.2459 18.0407C15.1365 15.6338 17.2363 13.3861 19.5409 11.35C21.8477 9.31612 24.357 7.49385 27.0347 5.93775L28.0448 5.3599C28.2132 5.26435 28.3815 5.16425 28.5521 5.07325L29.0754 4.81845L31.1707 3.7947C32.5971 3.18045 34.0417 2.58212 35.5319 2.11575C37.0129 1.6198 38.5326 1.24215 40.0614 0.903175C41.5947 0.58695 43.1486 0.348075 44.7092 0.19565C45.0982 0.147875 45.4918 0.13195 45.8831 0.102375C46.2744 0.075075 46.6657 0.0455 47.0593 0.038675L48.2355 0H49.4139C50.9836 0.029575 52.5534 0.116025 54.114 0.298025C57.2331 0.66885 60.3134 1.33087 63.3005 2.2932C64.7929 2.7755 66.2671 3.31695 67.7094 3.95395C68.4306 4.27017 69.1473 4.6046 69.8571 4.97087C70.5578 5.34625 71.2334 5.73755 71.9205 6.11975C74.6186 7.73272 77.1393 9.63462 79.428 11.7686C79.7192 12.0279 79.9967 12.3055 80.272 12.583L81.1001 13.4134L81.8941 14.2733L82.2899 14.7033L82.6698 15.1469L83.4274 16.0365L84.1532 16.951L84.5149 17.4083L84.8607 17.8792L85.5477 18.8211C89.1309 23.9057 91.7107 29.5977 93.4192 35.5036C93.8469 36.9824 94.2018 38.4816 94.493 39.9968C94.7751 41.5233 94.9457 43.0475 95.0845 44.5786C95.3439 47.6408 95.3757 50.7166 95.2096 53.7901C95.1914 54.1746 95.155 54.5568 95.1277 54.9412C95.1004 55.3257 95.0709 55.7079 95.0276 56.0901L94.9071 57.239L94.7524 58.3833L94.675 58.9566L94.584 59.5276L94.3975 60.6697L94.1745 61.8049L94.063 62.3737L93.9311 62.9379C93.2327 65.9477 92.309 68.9257 91.0009 71.758C89.711 74.595 88.0957 77.2999 86.1597 79.7751C85.9299 80.0936 85.6683 80.3871 85.4158 80.6874L84.6514 81.586C84.3988 81.8886 84.1145 82.1616 83.8483 82.4505L83.0316 83.3037C82.4628 83.8474 81.8781 84.3752 81.3003 84.9121C81 85.1669 80.6951 85.4149 80.3926 85.6674C80.0854 85.9154 79.792 86.1793 79.4712 86.409C74.4685 90.2765 68.442 92.7995 62.2313 93.8915C59.1259 94.4512 55.9727 94.6946 52.8355 94.6764C49.696 94.6445 46.5701 94.3715 43.4852 93.8915C41.9428 93.6504 40.4094 93.366 38.8966 93.0361L36.6489 92.5311C35.9027 92.3604 35.1496 92.183 34.3966 91.9987C31.3822 91.2502 28.3702 90.3198 25.4604 89.1049C22.553 87.8855 19.7297 86.4045 17.1203 84.589C14.5086 82.7781 12.0834 80.6715 10.0018 78.2577C5.79531 73.4643 3.00618 67.522 1.77541 61.3795C1.63663 60.6083 1.48192 59.8416 1.38864 59.0635C1.33859 58.6768 1.27261 58.29 1.23849 57.901L1.12474 56.7362C1.08379 56.3495 1.07242 55.9582 1.04739 55.5714C1.02464 55.1824 0.997347 54.7956 0.995072 54.4066L0.967773 53.2418L0.981437 52.0793C1.01329 50.53 1.10884 48.9853 1.29311 47.4542C1.36819 46.6875 1.49102 45.9254 1.5934 45.1633C1.72762 44.4057 1.84366 43.6459 2.00063 42.8928C2.29183 41.3845 2.65582 39.8921 3.06532 38.4156C3.47482 36.9392 3.93892 35.4786 4.46217 34.0431C4.71697 33.3219 4.99909 32.6121 5.27436 31.8978C5.56784 31.1925 5.85675 30.485 6.17525 29.7911C6.7986 28.3965 7.47199 27.0224 8.21137 25.6847L8.20681 25.6893ZM8.50713 25.8531C5.61788 31.1902 3.72735 37.0666 2.90152 43.0475C2.7855 43.7937 2.72407 44.5468 2.64217 45.2952C2.59212 46.0483 2.51704 46.7967 2.49884 47.5498C2.43059 49.0535 2.45335 50.5573 2.53525 52.052C2.6035 53.5489 2.79233 55.0345 3.01983 56.5042C3.2587 57.9738 3.59084 59.423 3.97759 60.8517C4.78522 63.6977 5.89087 66.4436 7.33094 68.9894C8.02709 70.2747 8.84384 71.4896 9.68331 72.6794C10.5387 73.8601 11.4714 74.9794 12.4588 76.0464C13.4416 77.1157 14.4972 78.1189 15.6074 79.0562C16.7153 79.9958 17.8801 80.8694 19.0927 81.6725C21.5224 83.2786 24.125 84.6323 26.8482 85.7334C28.2086 86.2816 29.5941 86.789 31 87.2349C32.4083 87.6853 33.8392 88.0721 35.2839 88.4452C36.0073 88.6294 36.7353 88.8046 37.4724 88.9775L39.6769 89.4871C41.1375 89.8124 42.5935 90.1196 44.0563 90.3698C49.903 91.3685 55.8794 91.6279 61.6852 90.7088C67.4888 89.8102 73.0534 87.6102 77.8355 84.2068C78.1426 84.0066 78.4247 83.77 78.7205 83.5516L79.5963 82.8805C80.1537 82.4005 80.7179 81.9318 81.2707 81.445C81.7985 80.9331 82.3468 80.4417 82.8632 79.9162L83.6185 79.1108C83.8688 78.8401 84.1304 78.5785 84.3602 78.2896C86.2917 76.0601 87.9501 73.5803 89.3174 70.939C90.6892 68.2978 91.7471 65.4813 92.5229 62.5852C93.3214 59.6914 93.7946 56.7044 94.0494 53.7036C94.1768 52.2021 94.2359 50.6915 94.2359 49.1832C94.2382 47.6749 94.1791 46.1643 94.054 44.6605C93.9311 43.159 93.7491 41.653 93.4693 40.1879C93.1849 38.7137 92.8027 37.2531 92.3613 35.813C91.4741 32.9329 90.3184 30.1369 88.9306 27.4729C88.2254 26.1443 87.4656 24.8498 86.6579 23.5895C85.8458 22.3291 84.9608 21.1234 84.0394 19.9472C80.313 15.2766 75.6856 11.4068 70.5077 8.5904C69.8525 8.25597 69.1973 7.90562 68.5444 7.58257C67.8915 7.2709 67.2203 6.97287 66.5401 6.69305C65.1796 6.13567 63.7874 5.63972 62.3769 5.20292C59.5559 4.32932 56.662 3.69005 53.7387 3.29647C47.8942 2.5298 41.8973 2.73227 36.1324 4.20192C34.6878 4.55 33.2705 5.00727 31.86 5.49412L29.7807 6.3245L29.2597 6.53152C29.089 6.6066 28.923 6.69077 28.7523 6.7704L27.74 7.25497L26.7253 7.74182L25.7425 8.28782C25.0896 8.65637 24.4207 9.00217 23.7974 9.42305L22.8487 10.0327L22.3732 10.3376C22.2163 10.4422 22.0684 10.556 21.9137 10.6652L20.9992 11.3295C20.6966 11.5547 20.3826 11.764 20.096 12.012C17.7186 13.8707 15.546 16.0023 13.6054 18.3297L12.8819 19.2055L12.1949 20.111C11.7285 20.7093 11.3077 21.3418 10.8686 21.9583C10.0246 23.2186 9.24423 24.5199 8.5094 25.8508L8.50713 25.8531Z" fill="black"/>
<path d="M31.0166 66.9487C31.053 65.909 31.2873 64.9103 31.6013 63.9434C31.9152 62.9743 32.3407 62.0461 32.8389 61.1588C33.3371 60.2716 33.9149 59.4253 34.5679 58.6358C35.214 57.8441 35.9511 57.1184 36.7906 56.5224C37.6209 55.9172 38.5491 55.4395 39.4728 55.0072C40.4055 54.5818 41.3292 54.195 42.2233 53.7696C44.0137 52.9301 45.7541 52.0383 47.6082 51.1807C48.5341 50.753 49.501 50.3867 50.4974 50.1182C50.9979 49.9977 51.503 49.8725 52.0149 49.8088C52.2697 49.7724 52.5267 49.7292 52.7838 49.7042L53.5573 49.6314C54.5879 49.554 55.6321 49.5154 56.6672 49.5882C57.7046 49.6428 58.7352 49.7929 59.7385 50.0454C60.7418 50.2934 61.7246 50.6187 62.6664 51.0282C63.6128 51.4286 64.5228 51.8996 65.3919 52.4319C66.2609 52.9643 67.0867 53.5626 67.8557 54.2246C68.6224 54.8912 69.3413 55.6124 69.9419 56.4518C70.0033 56.5383 69.9828 56.6566 69.8986 56.718C69.8486 56.7544 69.7849 56.7612 69.7303 56.7453H69.7235C67.8284 56.1265 66.0243 55.5555 64.2316 55.0618C63.3353 54.8161 62.4457 54.5932 61.5608 54.3861C60.6735 54.1837 59.7908 54.0085 58.9104 53.8447L57.5932 53.6013C57.1518 53.5376 56.715 53.442 56.2737 53.3806C55.3932 53.235 54.5037 53.1326 53.6074 53.0712L52.934 53.0371C52.7087 53.0257 52.4858 53.0325 52.2606 53.028C51.8078 53.0143 51.3574 53.028 50.9001 53.0189C50.6726 53.0143 50.4428 53.0234 50.2131 53.0257C49.9833 53.028 49.749 53.0166 49.5192 53.0302C49.0596 53.0575 48.5864 53.0507 48.1223 53.103L47.4194 53.1713C47.185 53.2009 46.9553 53.2418 46.7232 53.2828C46.4912 53.326 46.2568 53.3647 46.0293 53.4238C45.8041 53.4875 45.5721 53.5421 45.3491 53.6126C45.1239 53.6809 44.9032 53.7628 44.6825 53.847L44.3526 53.9721L44.0319 54.12C43.5996 54.3065 43.1879 54.5408 42.7897 54.7888C41.9958 55.2984 41.286 55.9377 40.6467 56.6316C40.0029 57.3209 39.4341 58.0694 38.8381 58.7587C38.2534 59.4617 37.6346 60.1146 37.009 60.7698C36.3879 61.4295 35.7714 62.1007 35.1571 62.7877L33.3075 64.8898C32.6774 65.6042 32.0563 66.3367 31.3579 67.0806C31.2851 67.1603 31.1622 67.1648 31.0826 67.092C31.0394 67.0533 31.0189 66.9965 31.0212 66.9441L31.0166 66.9487Z" fill="black"/>
<path d="M17.8282 26.4469L40.1641 36.9574C39.609 37.7991 37.5092 40.7566 33.4074 42.0261C29.2987 43.2955 25.893 42.0329 24.9603 41.6507C23.9229 41.1024 20.6333 39.2005 18.7655 35.0805C16.991 31.1629 17.5779 27.623 17.8259 26.4469H17.8282Z" fill="white"/>
<path d="M17.7784 26.3445C19.5028 26.9292 21.3365 27.5935 23.2156 28.2987C24.1552 28.6422 25.1107 29.0244 26.0707 29.3862C27.0331 29.7638 28.0068 30.1506 28.9827 30.5532C30.9347 31.3518 32.9094 32.2185 34.8477 33.1649C36.786 34.1091 38.6993 35.0828 40.5875 36.0542L40.6558 36.0883C41.1267 36.3317 41.3132 36.9119 41.0698 37.3828C41.0493 37.4237 41.022 37.467 40.9947 37.5034C40.0802 38.7728 38.9199 39.8125 37.6414 40.6315C36.356 41.4459 34.9523 42.0238 33.5214 42.406C32.8002 42.5812 32.0767 42.7336 31.3442 42.8178C30.6116 42.8974 29.8745 42.9429 29.1352 42.9315C27.6564 42.911 26.1663 42.7336 24.6989 42.2922L24.6375 42.2627C23.1724 41.6507 21.796 40.7794 20.6585 39.6373C20.0898 39.0686 19.5802 38.4384 19.1297 37.7695C18.9159 37.4283 18.6884 37.0939 18.5109 36.7321C18.4176 36.5524 18.3175 36.3795 18.2334 36.1975L17.9854 35.6492C17.3484 34.175 17.0026 32.5825 16.9503 31.006C16.9252 30.2165 16.9798 29.4294 17.1072 28.6604C17.1413 28.4693 17.1732 28.276 17.2142 28.0871C17.2597 27.8983 17.3006 27.7095 17.3552 27.5229C17.403 27.3364 17.4599 27.1498 17.5213 26.9678L17.6168 26.6948C17.6305 26.6539 17.6601 26.5652 17.6896 26.5083C17.7215 26.4446 17.7556 26.3923 17.7829 26.3468L17.7784 26.3445ZM17.8807 26.5492C17.8898 26.5947 17.9058 26.6334 17.9171 26.663C17.9285 26.6994 17.9376 26.7017 17.9353 26.754V27.0361V27.5957C17.9422 27.9666 17.9672 28.3351 17.9899 28.7014C18.0514 29.4317 18.156 30.1506 18.2971 30.8535C18.5951 32.2572 19.0615 33.5972 19.7098 34.8393C20.0261 35.465 20.4037 36.0496 20.7973 36.6252C21.2068 37.1894 21.6504 37.724 22.1168 38.2427C23.0518 39.2733 24.1006 40.2379 25.2859 41.0387L25.2244 41.0091C26.4188 41.6461 27.777 42.0761 29.167 42.1967C29.8632 42.249 30.5639 42.2308 31.2555 42.1398C31.9493 42.0534 32.625 41.8691 33.2848 41.6484C33.6055 41.5142 33.9354 41.405 34.2425 41.2389C34.3972 41.1593 34.5542 41.0888 34.7066 41.0046L35.1548 40.7452C35.7395 40.379 36.29 39.9695 36.7974 39.5145C37.8052 38.5999 38.6583 37.5329 39.334 36.4114L39.7412 37.8605C37.9053 37.0825 36.0966 36.3022 34.313 35.4945C32.5294 34.6892 30.78 33.8042 29.01 32.851C28.1251 32.3778 27.2355 31.8864 26.3369 31.3904C25.436 30.8763 24.5328 30.3826 23.6092 29.8503C21.7664 28.8038 19.8759 27.7163 17.8807 26.5492Z" fill="black"/>
<path d="M44.3753 32.7236C43.3152 32.6212 42.3028 32.4074 41.3041 32.1685C40.3053 31.9251 39.3294 31.6361 38.3648 31.3131C37.4024 30.9923 36.4515 30.6397 35.5187 30.2529C34.5792 29.8798 33.6646 29.4499 32.7887 28.9334C31.0324 27.9097 29.4104 26.5834 27.6063 25.6665C25.8068 24.7406 23.8912 24.0718 21.9097 23.5508C20.9223 23.2823 19.9304 23.0253 18.9613 22.7181C17.9899 22.4156 17.0435 22.0538 16.0948 21.7035C14.1952 20.9982 12.2933 20.3021 10.4687 19.4285C9.55644 18.994 8.65553 18.5321 7.76601 18.043C6.87421 17.5607 5.99379 17.0534 5.12246 16.5256C4.25114 15.9978 3.3912 15.445 2.5449 14.8603C1.6986 14.2733 0.863663 13.6636 0.0628635 12.9811C-0.0122115 12.9174 -0.0213037 12.806 0.0423963 12.7309C0.0833463 12.6831 0.14476 12.6626 0.201635 12.6695C1.24586 12.8082 2.25822 13.0221 3.25922 13.2587C4.26022 13.4976 5.2453 13.7683 6.22128 14.0618C7.19725 14.3552 8.16185 14.6715 9.11735 15.0127C10.0751 15.3471 11.0215 15.7089 11.9543 16.0956C13.8243 16.8668 15.6148 17.8155 17.4075 18.7551C18.3038 19.226 19.2047 19.6878 20.0806 20.2088C20.9565 20.7252 21.8119 21.2894 22.6718 21.8445C24.3849 22.9684 26.1617 23.9466 28.0545 24.6633C29.9427 25.3913 32.013 25.712 33.949 26.3331C34.9204 26.638 35.8509 27.0315 36.7563 27.4797C37.6686 27.9142 38.565 28.3852 39.4499 28.8857C40.3326 29.3862 41.2017 29.9185 42.0503 30.4986C42.8965 31.081 43.7315 31.6907 44.5164 32.4119C44.5892 32.4802 44.5937 32.5939 44.5277 32.6667C44.4891 32.7099 44.4322 32.7281 44.3776 32.7236H44.3753Z" fill="black"/>
<path d="M50.6108 32.4119C51.3957 31.6908 52.2307 31.0811 53.077 30.4987C53.9255 29.9185 54.7946 29.3862 55.6773 28.8857C56.56 28.3852 57.4563 27.9143 58.3709 27.4797C59.2763 27.0293 60.2091 26.638 61.1782 26.3331C63.1143 25.7121 65.1845 25.3913 67.0727 24.6633C68.9655 23.9444 70.7423 22.9661 72.4554 21.8446C73.3153 21.2917 74.1707 20.7253 75.0466 20.2088C75.9202 19.6879 76.8211 19.226 77.7197 18.7551C79.5124 17.8133 81.3051 16.8669 83.1729 16.0956C84.1057 15.7066 85.0521 15.3472 86.0099 15.0127C86.9654 14.6715 87.93 14.3553 88.9059 14.0618C89.8819 13.7683 90.867 13.4953 91.868 13.2587C92.869 13.0221 93.8813 12.8083 94.9256 12.6695C95.0234 12.6558 95.1121 12.7241 95.1258 12.8219C95.1349 12.8833 95.1076 12.9425 95.0643 12.9812C94.2635 13.6659 93.4286 14.2734 92.5823 14.8603C91.736 15.445 90.8761 15.9955 90.0047 16.5256C89.1334 17.0534 88.253 17.5607 87.3612 18.043C86.4717 18.5299 85.5708 18.994 84.6585 19.4285C82.8339 20.3021 80.932 21.0005 79.0324 21.7035C78.0837 22.0561 77.1374 22.4179 76.1659 22.7182C75.1968 23.0253 74.2049 23.2824 73.2175 23.5508C71.236 24.0718 69.3227 24.7406 67.5209 25.6666C65.7169 26.5834 64.0948 27.9097 62.3385 28.9335C61.4626 29.4499 60.548 29.8799 59.6085 30.253C58.6734 30.6397 57.7248 30.9923 56.7624 31.3131C55.8001 31.6362 54.8219 31.9251 53.8231 32.1685C52.8221 32.4074 51.812 32.6212 50.7519 32.7236C50.6541 32.7327 50.5653 32.6599 50.5562 32.5621C50.5517 32.5052 50.5744 32.4483 50.6131 32.4119H50.6108Z" fill="black"/>
<path d="M34.0602 34.696L26.3252 31.056C26.0249 31.6407 25.8521 32.3027 25.8521 33.0057C25.8521 35.3672 27.7676 37.2827 30.1291 37.2827C31.8922 37.2827 33.405 36.2157 34.0602 34.6938V34.696Z" fill="black"/>
<path d="M77.2969 26.4469L54.9609 36.9574C55.516 37.7991 57.6159 40.7566 61.7177 42.0261C65.8264 43.2955 69.232 42.0329 70.1648 41.6507C71.2022 41.1024 74.4918 39.2005 76.3596 35.0805C78.1341 31.1629 77.5472 27.623 77.2992 26.4469H77.2969Z" fill="white"/>
<path d="M77.2442 26.5493C75.2468 27.7163 73.3562 28.8038 71.5158 29.8503C70.5921 30.3826 69.6889 30.8763 68.788 31.3905C67.8894 31.8887 66.9999 32.3778 66.1149 32.851C64.345 33.8042 62.5955 34.6892 60.8119 35.4945C59.0283 36.3022 57.2196 37.0802 55.3837 37.8606L55.791 36.4114C56.4689 37.533 57.3198 38.5999 58.3276 39.5145C58.8349 39.9695 59.3855 40.379 59.9701 40.7452L60.4183 41.0046C60.5707 41.0888 60.7277 41.1593 60.8824 41.2389C61.1873 41.405 61.5171 41.5142 61.8402 41.6484C62.4999 41.8691 63.1756 42.0534 63.8695 42.1398C64.5611 42.2308 65.2641 42.249 65.9579 42.1967C67.348 42.0761 68.7061 41.6484 69.9005 41.0091L69.8391 41.0387C71.0244 40.2379 72.0731 39.2733 73.0082 38.2427C73.4745 37.724 73.9182 37.1894 74.3277 36.6252C74.719 36.0519 75.0989 35.465 75.4151 34.8394C76.0612 33.5972 76.5276 32.2572 76.8279 30.8535C76.9712 30.1506 77.0736 29.4317 77.135 28.7014C77.1555 28.3374 77.1828 27.9666 77.1896 27.5957L77.1942 27.0361V26.754C77.1896 26.7017 77.1964 26.6994 77.2101 26.663C77.2215 26.6334 77.2374 26.5948 77.2465 26.5493H77.2442ZM77.3466 26.3445C77.3739 26.39 77.408 26.4446 77.4399 26.506C77.4694 26.5629 77.499 26.6516 77.5127 26.6926L77.6082 26.9656C77.6696 27.1476 77.7242 27.3341 77.7743 27.5207C77.8266 27.7072 77.8698 27.8961 77.9153 28.0849C77.9563 28.2737 77.9859 28.4671 78.0223 28.6582C78.1474 29.4271 78.202 30.2143 78.1792 31.0037C78.1269 32.5826 77.7811 34.1728 77.1441 35.647L76.8961 36.1952C76.812 36.3772 76.7096 36.5524 76.6186 36.7299C76.4389 37.0916 76.2114 37.426 75.9998 37.7673C75.5516 38.4361 75.042 39.0663 74.471 39.6351C73.3335 40.7771 71.9571 41.6484 70.492 42.2604L70.4306 42.29C68.9632 42.7313 67.4731 42.9088 65.9943 42.9293C65.255 42.9384 64.5179 42.8929 63.7853 42.8155C63.0505 42.7313 62.327 42.5789 61.6081 42.4037C60.1772 42.0238 58.7735 41.446 57.4881 40.6292C56.2073 39.8102 55.047 38.7706 54.1347 37.5011C53.8253 37.0711 53.9232 36.4705 54.3532 36.1589C54.3918 36.1316 54.4305 36.1088 54.4692 36.0861L54.542 36.0496C56.4302 35.0759 58.3435 34.1045 60.2818 33.1604C62.2201 32.214 64.1925 31.3472 66.1468 30.5487C67.1227 30.146 68.0942 29.7615 69.0588 29.3816C70.0188 29.0199 70.9766 28.6377 71.9139 28.2942C73.7953 27.5889 75.6267 26.9246 77.3511 26.34L77.3466 26.3445Z" fill="black"/>
<path d="M61.0645 34.696L68.7995 31.056C69.0998 31.6407 69.2726 32.3027 69.2726 33.0057C69.2726 35.3672 67.3571 37.2827 64.9956 37.2827C63.2325 37.2827 61.7197 36.2157 61.0645 34.6938V34.696Z" fill="black"/>
</svg>
