<svg width="91" height="96" viewBox="0 0 91 96" fill="none" xmlns="http://www.w3.org/2000/svg">
<path d="M1.04978 38.1137C3.99363 23.151 14.6088 10.3427 28.8298 4.69164C32.3378 3.29706 44.5273 -1.02544 58.7802 3.60646C79.1346 10.2199 86.3554 29.4596 87.427 32.4717C88.4666 35.3928 95.6102 56.6049 82.0011 75.4419C80.9887 76.8433 67.4593 94.9068 44.4568 94.106C19.7184 93.246 7.372 71.381 6.0434 68.9308C3.17918 63.6483 -1.71662 52.1777 1.05205 38.1137H1.04978Z" fill="#FCDB00"/>
<path d="M0.883365 38.0818L1.38387 35.8933L1.50899 35.345C1.55449 35.163 1.61364 34.9856 1.66597 34.8058L1.98446 33.7298L2.29613 32.6514C2.40988 32.2942 2.54638 31.9462 2.66923 31.5913L3.04916 30.5334C3.17656 30.1808 3.29258 29.8236 3.44956 29.4823L4.32772 27.4121C4.64622 26.7341 4.98518 26.0653 5.31278 25.3896C5.62446 24.7048 6.02032 24.0656 6.38659 23.4081L6.93941 22.4253C7.12141 22.0954 7.34209 21.7906 7.54002 21.4698C9.12114 18.9059 10.9798 16.5058 13.041 14.2831L13.8145 13.4481C14.0647 13.1615 14.3536 12.9158 14.6244 12.6496L15.4479 11.8625L15.8597 11.4689C15.9962 11.337 16.135 11.205 16.2828 11.0844L18.0278 9.61022C18.3121 9.35542 18.6284 9.14158 18.9309 8.90953L19.8523 8.22928C20.1617 8.00633 20.462 7.76747 20.7828 7.56044L21.7474 6.93937C22.3958 6.53215 23.0237 6.09079 23.7039 5.73589C24.375 5.36734 25.0416 4.98286 25.7218 4.62569L27.8103 3.65198C30.6222 2.38708 33.5865 1.49074 36.6009 0.878769C39.6198 0.273619 42.7047 -0.0335004 45.7896 0.00289956C48.8745 0.0370246 51.9594 0.414659 54.9578 1.12446C60.9661 2.51448 66.6127 5.29908 71.3902 9.08468L72.282 9.79903L73.1465 10.5452L73.5764 10.9183L73.995 11.3051L74.83 12.0809C75.9174 13.141 76.9639 14.2399 77.949 15.3887C79.9214 17.6842 81.6914 20.1389 83.2566 22.7142C84.824 25.2872 86.1913 27.9786 87.3288 30.7723C88.4686 33.5751 89.2557 36.4984 89.8632 39.4491C91.0257 45.3573 91.3487 51.4793 90.4751 57.5126C90.052 60.527 89.2944 63.505 88.257 66.3874L88.0659 66.9288L87.8521 67.4612L87.4198 68.5282C87.2833 68.8876 87.1081 69.2289 86.9512 69.5792L86.4666 70.6257C86.114 71.3059 85.7591 71.9884 85.3905 72.6641C84.9947 73.3239 84.6216 73.995 84.2075 74.6434L83.5751 75.608C83.3612 75.9287 83.1633 76.2495 82.9199 76.5771C82.4558 77.2164 81.9735 77.8147 81.4798 78.4062C80.4924 79.5892 79.4482 80.7153 78.3608 81.7982C76.1904 83.9686 73.8108 85.9274 71.2901 87.6928C66.2396 91.2031 60.4861 93.8307 54.3823 95.0751C48.2853 96.34 41.9198 96.224 35.8592 94.7657C29.7872 93.3166 24.127 90.4091 19.2699 86.619C14.4196 82.7992 10.3656 78.0968 7.1578 72.9235C6.75513 72.2774 6.37066 71.6176 6.00211 70.9488C5.63584 70.2845 5.26957 69.5951 4.95107 68.9058C4.29814 67.5317 3.69753 66.1349 3.17656 64.7107L2.97637 64.1784L2.79209 63.6415L2.42809 62.5654L2.10048 61.4779C1.99356 61.1162 1.87754 60.7568 1.78881 60.3882C1.60226 59.6557 1.39069 58.9322 1.24054 58.1906L0.997115 57.0872C0.91749 56.7186 0.860607 56.3455 0.790082 55.977C0.255457 53.0126 -0.015261 50.0074 0.000664045 47.0089L0.00748182 45.8851C0.0120318 45.5097 0.0461568 45.1366 0.0643568 44.7612C0.114407 44.0128 0.130332 43.2643 0.234982 42.5204L0.360118 41.4033C0.401068 41.0302 0.435182 40.6571 0.505707 40.2909L0.883365 38.0773V38.0818ZM1.21778 38.1478L0.865161 40.3477C0.796911 40.714 0.76733 41.0826 0.73093 41.4534L0.621735 42.5613C0.53301 43.2984 0.535292 44.0423 0.501167 44.784C0.492067 45.1548 0.467041 45.5256 0.471591 45.8965L0.501167 47.0089C0.580792 49.9733 0.985735 52.9239 1.68871 55.7927C2.39169 58.6615 3.36993 61.4575 4.61663 64.1192C5.22178 65.4569 5.91111 66.7537 6.64139 68.0208C7.36256 69.2812 8.18156 70.4847 9.03923 71.67C10.7569 74.0314 12.6633 76.2541 14.7085 78.3175C15.2159 78.8362 15.7414 79.3367 16.2646 79.8395C16.5285 80.0897 16.8015 80.3286 17.0677 80.572C17.3339 80.8155 17.6046 81.0589 17.8822 81.2909L18.7034 81.9984L19.5475 82.6786C20.1026 83.1427 20.6963 83.5523 21.2628 83.9959C23.5901 85.693 26.054 87.1854 28.6384 88.4139C31.2205 89.6424 33.9255 90.5911 36.701 91.2327C42.2451 92.5294 48.0782 92.6386 53.6816 91.5898C56.4889 91.0734 59.2326 90.2157 61.8784 89.1078C64.5288 88.0135 67.0631 86.6212 69.4723 85.0356C71.8747 83.434 74.1475 81.6253 76.2541 79.637C77.3074 78.6451 78.3244 77.6077 79.2776 76.5271C79.7553 75.9902 80.2194 75.4351 80.654 74.8845C80.8678 74.6229 81.0748 74.3158 81.2841 74.0246L81.9166 73.1441C85.2017 68.3917 87.5063 62.943 88.6301 57.2055C89.1852 54.3367 89.4878 51.4065 89.4832 48.4649C89.481 46.9953 89.4377 45.5211 89.3035 44.0537C89.1693 42.5863 88.9759 41.1235 88.7211 39.6698C88.4686 38.2161 88.1524 36.7737 87.7656 35.3496C87.57 34.6398 87.3629 33.9322 87.1309 33.2338C86.8988 32.5377 86.6418 31.8461 86.3688 31.1636C85.2699 28.4267 83.9049 25.79 82.3193 23.3012C79.1593 18.3189 75.0643 13.9259 70.264 10.5998C67.8776 8.92089 65.3045 7.53086 62.6337 6.41383C61.3005 5.84963 59.9333 5.36961 58.5546 4.93736C57.16 4.55516 55.77 4.16613 54.3504 3.91133C51.5226 3.35396 48.647 3.06959 45.7691 3.06504C42.8912 3.06049 40.0088 3.33348 37.1719 3.85446C35.75 4.10471 34.3441 4.43231 32.9518 4.81906C31.5595 5.19898 30.1831 5.63808 28.8454 6.17725L26.832 6.98941L24.8664 7.9176C24.1998 8.20881 23.581 8.58875 22.9395 8.93227L21.984 9.46006C21.6655 9.63751 21.3675 9.84682 21.0581 10.0379L20.1344 10.6226C19.8273 10.8205 19.5088 11.0025 19.2199 11.2232L17.4408 12.504C17.2884 12.6064 17.1473 12.7224 17.0086 12.8407L16.5831 13.1888L15.7323 13.885C15.1522 14.3354 14.6266 14.845 14.0875 15.3432L13.2798 16.0917L13.0774 16.2782L12.8863 16.4784L12.5063 16.8766L11.7442 17.6751L11.362 18.0755C11.2323 18.2074 11.1072 18.3417 10.9912 18.485L9.57159 20.1821C9.32589 20.4597 9.12341 20.7668 8.89818 21.0603L8.24298 21.9544C8.02913 22.2569 7.79481 22.5436 7.59916 22.8575L7.00084 23.7926C6.60727 24.4182 6.19093 25.0347 5.85196 25.6922C5.50161 26.3428 5.12624 26.9844 4.79409 27.6487L3.85905 29.6666C3.69525 30.001 3.56331 30.3468 3.43363 30.6949L3.03778 31.7346C2.90811 32.0827 2.76707 32.4262 2.64649 32.7765L2.31661 33.8412L1.99357 34.9059C1.94124 35.0834 1.88209 35.2608 1.83659 35.4406L1.70919 35.982L1.20413 38.1524L1.21778 38.1478Z" fill="black"/>
<path d="M20.4667 22.5982C21.3653 22.9212 22.2048 23.3239 23.0329 23.7425C23.8587 24.1656 24.6595 24.6206 25.4444 25.1007C26.227 25.5807 26.9982 26.0789 27.7489 26.6044C28.5042 27.1231 29.23 27.6828 29.9125 28.3016C31.2752 29.5438 32.5083 30.9611 33.9597 32.0804C35.3998 33.2156 36.9809 34.1552 38.6189 35.0174C38.9647 35.1994 39.0989 35.6294 38.9169 35.9775C38.8555 36.0935 38.7691 36.1845 38.6644 36.2482L38.4756 36.3642C37.7203 36.8328 36.965 37.2992 36.1915 37.7315C35.4203 38.1637 34.6286 38.5528 33.846 38.96C32.2762 39.7676 30.7087 40.573 29.0753 41.2373C27.4464 41.9061 25.7879 42.5135 24.0976 43.0481C22.405 43.5782 20.6942 44.0628 18.9037 44.3767C18.8287 44.3904 18.7581 44.3403 18.7468 44.2653C18.7377 44.2152 18.7582 44.1652 18.7968 44.1333C20.2255 43.014 21.7316 42.0631 23.2558 41.1599C24.7823 40.2613 26.343 39.4332 27.931 38.6688C29.5166 37.8998 31.166 37.2719 32.8131 36.644C33.6389 36.3323 34.4579 36.007 35.2951 35.7204C36.1323 35.4337 36.9855 35.1835 37.8386 34.9355L37.6975 36.2823C36.3735 34.9878 34.9948 33.7684 33.4729 32.7469C31.9645 31.7073 30.2355 30.9679 28.6362 30.0533C27.8377 29.5938 27.0824 29.0751 26.3566 28.5154C25.6264 27.9626 24.9166 27.3802 24.2182 26.7842C23.522 26.1858 22.8418 25.5625 22.1866 24.9073C21.5337 24.2475 20.8921 23.5719 20.3097 22.8166C20.2642 22.7574 20.2733 22.6687 20.3347 22.6232C20.3734 22.5936 20.4235 22.5868 20.4644 22.6027L20.4667 22.5982Z" fill="black"/>
<path d="M70.048 22.812C68.8355 24.2589 67.5114 25.5534 66.151 26.7956C64.786 28.0332 63.38 29.2139 61.9217 30.3218C60.4589 31.4252 58.9119 32.4125 57.3695 33.409C56.6005 33.9095 55.8293 34.4054 55.0262 34.8604C54.2254 35.3177 53.4064 35.7477 52.5965 36.1913L52.4759 35.0379C53.9888 35.9706 55.554 36.7851 57.2102 37.3925C58.8619 38.0113 60.6455 38.3389 62.3108 38.9258C63.148 39.2125 63.9533 39.5651 64.745 39.9564C65.539 40.3386 66.3239 40.739 67.0974 41.1713C67.8709 41.599 68.633 42.0517 69.3792 42.5385C70.1254 43.0277 70.8625 43.5395 71.5609 44.1333C71.6178 44.1834 71.6269 44.2698 71.5768 44.3267C71.545 44.3631 71.4972 44.379 71.454 44.3745C70.544 44.2516 69.6727 44.0446 68.8104 43.8171C67.9482 43.5873 67.1019 43.3234 66.267 43.0345C65.4298 42.7479 64.6062 42.4339 63.7918 42.0972C62.9728 41.7696 62.172 41.4056 61.3985 40.9756C59.847 40.1293 58.4137 39.0214 56.8485 38.2069C55.2879 37.3811 53.6362 36.7601 51.9322 36.2596C51.6069 36.164 51.4226 35.8228 51.5159 35.4997C51.5478 35.3928 51.6046 35.3018 51.6797 35.229L51.8094 35.1084C52.4805 34.4737 53.1403 33.8253 53.8205 33.2042C54.4984 32.5786 55.2082 31.9962 55.9203 31.4183C57.3399 30.2558 58.7549 29.0865 60.2542 28.0331C61.7557 26.9844 63.3118 26.0084 64.9088 25.0893C66.5081 24.1748 68.1461 23.3102 69.8956 22.6004C69.9661 22.5731 70.0458 22.605 70.0731 22.6755C70.0936 22.7233 70.0822 22.7779 70.0503 22.8143L70.048 22.812Z" fill="black"/>
<path d="M14.1604 65.4523C15.2114 64.3262 16.283 63.2206 17.3545 62.1172C18.4351 61.0229 19.5089 59.9218 20.6055 58.8435C21.6952 57.7606 22.7849 56.6754 23.8906 55.6084C24.9939 54.5414 26.0859 53.4585 27.2052 52.4052C27.5874 52.0435 28.1903 52.0617 28.552 52.4462C28.6453 52.544 28.7135 52.6578 28.7568 52.7783L28.7704 52.8147L29.9148 56.0702C30.2992 57.1554 30.6701 58.2429 31.0432 59.3326L32.1488 62.6018C32.5196 63.6915 32.8745 64.7858 33.234 65.8778L31.1137 65.8232C31.5437 64.7334 31.9736 63.6437 32.4173 62.5585C32.8586 61.4734 33.3068 60.3905 33.7663 59.3121C34.2259 58.2338 34.6786 57.1532 35.1495 56.0794L36.5509 52.8534L36.5737 52.7988C36.7307 52.4393 37.1493 52.2733 37.5087 52.4302C37.7317 52.5281 37.8818 52.7306 37.925 52.9512L38.5438 56.2591C38.7577 57.3602 38.9602 58.4635 39.1854 59.5624C39.4038 60.6635 39.6336 61.76 39.8656 62.8566C40.0999 63.9531 40.3411 65.0474 40.5891 66.1417L39.8724 66.0802L41.2147 62.7952C41.6674 61.7009 42.0928 60.5975 42.5274 59.4964C42.9664 58.3976 43.385 57.2919 43.8082 56.1863C44.2336 55.0829 44.6477 53.9727 45.0617 52.8648C45.1846 52.5372 45.5508 52.3711 45.8784 52.4917C46.0832 52.569 46.2242 52.7396 46.272 52.9376L46.2834 52.9854L47.9419 60.0538C48.224 61.2322 48.481 62.413 48.7518 63.5914C49.0248 64.7699 49.275 65.9528 49.5344 67.1358L47.4482 66.947C48.3354 64.5537 49.2454 62.1718 50.1441 59.7831L52.865 52.6282C53.122 51.9548 53.875 51.6158 54.5507 51.8706C54.942 52.0185 55.2196 52.3347 55.3333 52.7055L55.3447 52.7442C56.0613 55.1079 56.7529 57.4807 57.4354 59.8558C57.7812 61.0411 58.1088 62.2332 58.4433 63.4231L59.4306 66.9948L57.035 66.8424C58.0929 64.4809 59.1872 62.1354 60.2633 59.7808C60.8002 58.6023 61.3575 57.4352 61.9035 56.2613C62.4541 55.0897 62.9955 53.9158 63.5552 52.7488L63.5848 52.6873C63.7963 52.246 64.3264 52.0594 64.7678 52.271C64.8997 52.3347 65.0112 52.4302 65.0931 52.5394L67.5319 55.8041L69.9479 59.0846L72.339 62.3856L73.522 64.0464L74.6936 65.7163C74.7323 65.7731 74.7186 65.8505 74.664 65.8914C74.6117 65.9278 74.5412 65.9187 74.5002 65.8732L73.1193 64.3717L71.7497 62.8611L69.0357 59.8194L66.3466 56.7573L63.6803 53.6769L65.2205 53.4699C64.7518 54.6757 64.2604 55.8746 63.7827 57.0758C63.2981 58.2747 62.8249 59.4805 62.3312 60.6771C61.3439 63.0704 60.3793 65.4706 59.376 67.8548C59.1053 68.5009 58.3591 68.8057 57.713 68.5327C57.3513 68.3803 57.0987 68.0823 56.9918 67.7365L56.9804 67.7023L55.9066 64.1556C55.5563 62.9703 55.1968 61.7896 54.8556 60.6021C54.164 58.2315 53.4815 55.8564 52.824 53.4745L55.3037 53.5905L52.4031 60.6748C51.4272 63.0317 50.4648 65.3955 49.4775 67.7501L49.4593 67.7933C49.2272 68.3462 48.5925 68.6055 48.0397 68.3735C47.6893 68.2256 47.455 67.9093 47.3913 67.5613C47.182 66.3692 46.9636 65.1794 46.768 63.985C46.57 62.7906 46.3607 61.6008 46.1742 60.4041L45.023 53.2333L46.2447 53.3539C45.7533 54.43 45.2619 55.5083 44.7819 56.589C44.2973 57.6696 43.8127 58.7479 43.3463 59.8354C42.8754 60.9206 42.3954 62.0034 41.9427 63.0954L40.5686 66.3669C40.489 66.5603 40.2683 66.6513 40.0749 66.5694C39.9589 66.5216 39.8793 66.4192 39.852 66.3055C39.5994 65.2135 39.3424 64.1215 39.0762 63.0317C38.81 61.942 38.5393 60.8546 38.2572 59.7694C37.9819 58.6819 37.6862 57.599 37.3995 56.5161L36.5191 53.2675L37.8932 53.3653L36.7648 56.6959C36.3917 57.8083 36.0004 58.9117 35.6182 60.0196C35.236 61.1276 34.8401 62.231 34.4397 63.3321C34.0393 64.4332 33.6276 65.5297 33.2135 66.6263C32.9951 67.2064 32.3467 67.4999 31.7666 67.2815C31.4367 67.1563 31.2001 66.8947 31.0978 66.5876L31.0932 66.5739C30.7338 65.4819 30.372 64.3899 30.024 63.2934L28.9752 60.006C28.6294 58.9095 28.2813 57.8129 27.9492 56.7095L26.9391 53.4085L28.502 53.818C27.3508 54.8372 26.1747 55.8246 25.0121 56.8278C23.8496 57.8334 22.6712 58.8185 21.4927 59.8058C20.3211 60.8 19.1244 61.7691 17.9392 62.7474C16.7448 63.7165 15.5459 64.6834 14.3287 65.6275C14.2741 65.6707 14.1945 65.6594 14.1535 65.6048C14.1149 65.5547 14.1194 65.4865 14.1604 65.4433V65.4523Z" fill="black"/>
</svg>
