<svg width="98" height="95" viewBox="0 0 98 95" fill="none" xmlns="http://www.w3.org/2000/svg">
<path d="M1.6022 48.0499C1.80923 43.393 2.74653 22.2378 20.4119 9.56374C34.774 -0.739735 50.8082 1.2941 56.2932 2.32923C59.0368 2.84565 81.3 7.44571 91.3077 28.9513C92.4543 31.4151 101.279 51.244 90.4387 70.3313C79.1228 90.2557 56.0316 92.376 49.3476 92.6126C46.9293 92.6968 19.1174 93.2542 6.80967 72.9362C0.928793 63.2242 1.3656 53.3348 1.6022 48.0499Z" fill="#FCDB00"/>
<path d="M1.43173 48.0431C1.49088 46.5098 1.5978 44.9741 1.76387 43.4476C1.91857 41.9188 2.13925 40.3968 2.40315 38.8794C2.66705 37.3643 2.99465 35.8582 3.3632 34.3613C3.74085 32.8666 4.18221 31.3856 4.67361 29.9205C5.66551 26.9925 6.9122 24.1374 8.43417 21.4142C9.97662 18.707 11.7853 16.1249 13.8896 13.7816C16.0054 11.452 18.3827 9.34536 20.9717 7.52536C22.2775 6.63129 23.6266 5.79636 25.0235 5.04561C26.4294 4.31078 27.865 3.63283 29.3414 3.05043C35.2564 0.723103 41.656 -0.214192 47.9418 0.0406075C49.5161 0.0997575 51.0836 0.245343 52.6397 0.452368C53.4177 0.554743 54.1958 0.677615 54.9693 0.81639C55.7428 0.955165 56.5095 1.10986 57.2875 1.29869C60.3542 2.05854 63.3026 3.1073 66.1509 4.3813C71.8407 6.92702 77.1141 10.3759 81.6027 14.6598C83.8436 16.8028 85.9025 19.1392 87.6861 21.6759L88.3458 22.6336C88.455 22.7951 88.5688 22.9521 88.6734 23.1137L88.9805 23.6073C89.3923 24.2648 89.8132 24.9155 90.1817 25.598L90.7528 26.6103C90.9393 26.9516 91.1031 27.3019 91.2829 27.6455L91.8106 28.6829C91.9813 29.0332 92.1428 29.3881 92.2998 29.7453C92.9254 31.1694 93.4714 32.6209 93.956 34.0951C94.4496 35.5647 94.8819 37.0571 95.2482 38.5677C95.6122 40.0783 95.9238 41.6026 96.1673 43.1405C96.4039 44.6806 96.579 46.2322 96.6814 47.7906C96.868 50.9096 96.7838 54.0628 96.322 57.1818C96.1127 58.7447 95.776 60.2871 95.396 61.8228C94.9683 63.3447 94.5065 64.8622 93.9105 66.3296C92.7616 69.2848 91.2396 72.0921 89.4401 74.7129C87.6246 77.3269 85.4816 79.7157 83.1156 81.8473C80.7519 83.9881 78.1242 85.8195 75.3647 87.3961C75.0234 87.6008 74.6685 87.7783 74.3182 87.9671C73.9655 88.1491 73.6197 88.347 73.2626 88.5176C72.5482 88.8657 71.8384 89.2183 71.1104 89.5323C70.3892 89.8644 69.6521 90.1534 68.9196 90.4537C68.551 90.5993 68.1779 90.7312 67.8094 90.8723L67.252 91.0793L66.6901 91.2704C63.6985 92.3078 60.6249 93.0676 57.515 93.6045C55.9612 93.8753 54.396 94.0732 52.824 94.2233C52.0368 94.2939 51.2497 94.3553 50.4603 94.3962C50.0621 94.419 49.6731 94.4326 49.2681 94.4486C48.8586 94.4599 48.4605 94.4599 48.0624 94.4577C44.8888 94.4235 41.7561 94.1551 38.6462 93.6523C35.5385 93.1632 32.4627 92.4397 29.4597 91.4706C26.4636 90.4787 23.5356 89.2502 20.776 87.6918C18.0187 86.1357 15.4344 84.2657 13.1161 82.1181C10.7934 79.9727 8.78452 77.5043 7.12605 74.8449C5.4653 72.1831 4.17766 69.3166 3.24036 66.3591C2.28941 63.4016 1.76388 60.3349 1.48633 57.2682C1.23608 54.1947 1.27703 51.1121 1.4431 48.0499L1.43173 48.0431ZM1.77298 48.059C1.71383 49.5901 1.65923 51.1189 1.68425 52.6454C1.7161 54.172 1.80483 55.6962 1.97318 57.2114C2.08238 57.9667 2.162 58.7242 2.3076 59.4704C2.37585 59.8435 2.43273 60.2212 2.51463 60.592L2.76488 61.7045C2.84223 62.0776 2.94688 62.4416 3.04698 62.8079C3.14935 63.1741 3.24263 63.5404 3.35411 63.9044L3.71355 64.9827L3.89328 65.5219L4.09802 66.052L4.51208 67.1076C4.64858 67.4602 4.82375 67.7969 4.97617 68.1404C5.1377 68.4817 5.28558 68.8275 5.45621 69.1642L5.98855 70.1629C6.7029 71.4893 7.52645 72.7519 8.40687 73.9644C10.1746 76.3873 12.263 78.5509 14.5903 80.4004C16.9085 82.2637 19.452 83.8175 22.1092 85.1324C22.4368 85.3031 22.7826 85.4441 23.117 85.6034C23.456 85.7558 23.7859 85.9196 24.1294 86.0629L25.1577 86.4883L25.6719 86.6999L26.1951 86.8933L27.2371 87.2846L28.2927 87.6417C28.9911 87.8897 29.7122 88.0831 30.4198 88.3061C31.8507 88.7156 33.2908 89.0864 34.7514 89.389C35.4771 89.555 36.2142 89.6802 36.9445 89.8212C37.6816 89.9418 38.4141 90.0692 39.1535 90.167C42.1042 90.5742 45.0981 90.8154 48.0533 90.8086C49.4979 90.8017 50.9926 90.7107 52.4691 90.5719C53.9501 90.4332 55.4243 90.2284 56.8917 89.9896C58.359 89.7507 59.8173 89.4481 61.2597 89.0955C62.702 88.7406 64.1375 88.3538 65.5435 87.8852C71.1764 86.0493 76.509 83.2669 80.9725 79.4222C83.2043 77.5021 85.2154 75.3317 86.9649 72.9589C88.7075 70.577 90.1704 67.9858 91.367 65.2808C93.7603 59.8617 94.8864 53.8739 94.8023 47.8634C94.7454 44.8581 94.4383 41.8437 93.824 38.8817C93.5237 37.4007 93.1597 35.9287 92.7297 34.4773C92.2929 33.0281 91.7924 31.5948 91.2214 30.198C90.043 27.4225 88.5756 24.7448 86.8329 22.2696C85.1039 19.7808 83.0701 17.5103 80.8406 15.4628C76.3816 11.3519 71.0513 8.26018 65.4206 6.1194C62.6042 5.05243 59.6968 4.20842 56.7734 3.66014C53.85 3.14144 50.8447 2.89118 47.8667 2.88436C41.904 2.85706 35.9571 3.80119 30.4152 5.87371C29.032 6.39469 27.6739 6.98164 26.3453 7.63684C25.0144 8.28521 23.7313 9.02459 22.4664 9.80036C19.9661 11.3974 17.5888 13.2106 15.4457 15.2899C13.3004 17.367 11.3757 19.6898 9.6968 22.1946C8.87325 23.4572 8.09065 24.7517 7.3854 26.0916C7.19885 26.4215 7.04415 26.7673 6.87353 27.1063C6.70518 27.4453 6.53456 27.7842 6.38213 28.1323L5.91121 29.1697L5.4744 30.223C3.18802 35.8628 1.99365 41.9529 1.76615 48.0613L1.77298 48.059Z" fill="black"/>
<path d="M45.3164 28.0709C45.3164 38.8271 36.2483 47.5471 25.0598 47.5471C13.8714 47.5471 4.80322 38.8271 4.80322 28.0709H45.3141H45.3164Z" fill="black"/>
<path d="M45.421 27.9662C45.4734 28.2802 45.5371 28.6601 45.5644 29.0537C45.5826 29.3949 45.5894 29.7202 45.5985 30.0569L45.5734 31.0602C45.5484 31.3946 45.512 31.7268 45.4802 32.0635C45.3255 33.4012 45.007 34.7298 44.536 36.0106C43.5965 38.5746 42.0563 40.936 40.093 42.8811C38.1297 44.8217 35.7568 46.3755 33.161 47.3379C31.862 47.8133 30.5129 48.1432 29.1502 48.3229C27.7875 48.5004 26.4134 48.5254 25.0598 48.4344L24.0474 48.3389C23.7107 48.2979 23.3763 48.2456 23.0441 48.1978C22.712 48.1478 22.3798 48.0795 22.05 48.0226C21.7201 47.9635 21.3948 47.8747 21.0672 47.8019C19.7659 47.4789 18.4964 47.0626 17.2656 46.5552C14.8086 45.536 12.5154 44.1438 10.4975 42.3852C8.4773 40.6357 6.72555 38.5086 5.47658 36.0629C4.21623 33.6241 3.51325 30.8623 3.45637 28.0754C3.44045 27.3474 4.02057 26.7445 4.74857 26.7286H4.80545L10.0038 26.6035C11.7397 26.5762 13.4846 26.5398 15.2272 26.5284C18.7125 26.508 22.191 26.5899 25.6217 26.7195C29.0524 26.8492 32.4399 27.0335 35.7546 27.2405C39.0692 27.4475 42.3202 27.6819 45.4187 27.9708L45.421 27.9662ZM45.2117 28.1755C41.5604 28.4645 38.0591 28.6988 34.6216 28.9058C31.1841 29.1151 27.8193 29.2971 24.5001 29.4268C21.1786 29.5565 17.9049 29.6384 14.638 29.6179C13.0046 29.6065 11.3734 29.5701 9.73311 29.5428L4.80318 29.4177L6.15226 28.0686C6.09311 30.4869 6.47758 32.9212 7.31706 35.2462C8.16336 37.5622 9.4965 39.753 11.2642 41.5662C13.0319 43.3771 15.2181 44.8035 17.6069 45.6771C19.9934 46.5598 22.5709 46.8533 25.0598 46.6599C26.3065 46.5666 27.535 46.3505 28.7271 46.0502C29.9214 45.7499 31.084 45.3632 32.2055 44.8922C33.3317 44.4259 34.4169 43.873 35.4565 43.2429C36.4917 42.6036 37.4767 41.8801 38.3845 41.0657C40.2067 39.4436 41.7537 37.4916 42.9094 35.2917C43.485 34.1906 43.9673 33.0304 44.345 31.8223L44.602 30.9055L44.8295 29.975C44.8887 29.6634 44.9501 29.3403 45.0138 29.0332C45.0593 28.7784 45.1412 28.5077 45.2094 28.171L45.2117 28.1755Z" fill="black"/>
<path d="M51.9502 28.0709C51.9502 38.8271 61.0183 47.5471 72.2068 47.5471C83.3952 47.5471 92.4634 38.8271 92.4634 28.0709H51.9525H51.9502Z" fill="black"/>
<path d="M52.055 28.1755C52.1233 28.5122 52.2052 28.7829 52.2507 29.0377C52.3144 29.3449 52.3758 29.6679 52.435 29.9796L52.6625 30.9101L52.9195 31.8269C53.2972 33.0349 53.7795 34.1952 54.3551 35.2963C55.513 37.4962 57.0578 39.4482 58.88 41.0702C59.79 41.8847 60.7751 42.6059 61.808 43.2474C62.8476 43.8776 63.9328 44.4304 65.0589 44.8968C66.1805 45.3677 67.3453 45.7545 68.5374 46.0548C69.7295 46.3551 70.958 46.5689 72.2047 46.6644C74.6958 46.8578 77.2711 46.5644 79.6576 45.6817C82.0464 44.8081 84.2326 43.3794 86.0003 41.5707C87.768 39.7553 89.1011 37.5667 89.9474 35.2508C90.7846 32.928 91.1714 30.4915 91.1122 28.0731L92.4613 29.4222L87.5314 29.5473C85.8934 29.5746 84.2599 29.6111 82.6265 29.6224C79.3619 29.6429 76.0859 29.561 72.7644 29.4313C69.4451 29.3016 66.0781 29.1174 62.6429 28.9104C59.2054 28.7033 55.7041 28.469 52.0528 28.1801L52.055 28.1755ZM51.8457 27.9662C54.9466 27.6773 58.1953 27.443 61.5099 27.236C64.8246 27.0267 68.2121 26.8447 71.6428 26.715C75.0735 26.5853 78.552 26.5034 82.0373 26.5239C83.7799 26.5353 85.5248 26.5717 87.2607 26.599L92.459 26.7241H92.5205C93.2485 26.7423 93.8263 27.3429 93.8081 28.0731C93.7512 30.8577 93.0483 33.6219 91.7879 36.0607C90.5389 38.5086 88.7849 40.6334 86.767 42.3829C84.7513 44.1415 82.4559 45.536 79.9989 46.553C78.7704 47.0603 77.5009 47.4789 76.1973 47.7997C75.8697 47.8725 75.5444 47.9612 75.2145 48.0204C74.8847 48.0795 74.5525 48.1478 74.2204 48.1955C73.8859 48.2433 73.5515 48.2956 73.2171 48.3366L72.2047 48.4321C70.8511 48.5208 69.477 48.4981 68.1143 48.3206C66.7515 48.1432 65.4025 47.8111 64.1034 47.3356C61.5077 46.3733 59.1348 44.8194 57.1715 42.8789C55.2082 40.936 53.668 38.5723 52.7284 36.0084C52.2575 34.7275 51.939 33.3989 51.7843 32.0612C51.7525 31.7245 51.7161 31.3924 51.691 31.0579L51.666 30.0547C51.6751 29.718 51.6797 29.3927 51.7001 29.0514C51.7274 28.6556 51.7934 28.2756 51.8435 27.964L51.8457 27.9662Z" fill="black"/>
<path d="M43.7125 30.1912C44.031 30.1684 44.2858 30.1844 44.5247 30.2048C44.7613 30.2253 44.9706 30.264 45.1685 30.3095C45.3664 30.3527 45.5462 30.4119 45.7191 30.4778C45.8942 30.5415 46.0512 30.6303 46.1923 30.7736C46.4675 31.0557 46.7405 31.5448 47.1387 31.6927C47.53 31.8497 47.9736 31.7564 48.3581 31.5198C48.5514 31.406 48.7312 31.265 48.9063 31.1717C48.9928 31.1148 49.0792 31.067 49.1657 31.0284C49.2089 31.0079 49.2521 30.9897 49.2931 30.9715L49.4182 30.9055L49.6662 30.7759C49.7481 30.7304 49.8254 30.6803 49.9073 30.6394C50.0711 30.562 50.2281 30.4733 50.4056 30.4255C50.7536 30.314 51.1313 30.2435 51.5544 30.1844C51.9799 30.1275 52.4349 30.082 53.0241 30.0911H53.0309C53.1196 30.0911 53.1902 30.1661 53.1902 30.2549C53.1902 30.2594 53.1902 30.2617 53.1902 30.2663C53.1401 30.8737 52.8967 31.3605 52.5896 31.7791C52.4326 31.9862 52.2597 32.1818 52.0618 32.3456C51.8707 32.5208 51.6545 32.6618 51.4293 32.7847C50.9698 33.019 50.4465 33.1077 49.9255 33.1214C49.6685 33.1441 49.4046 33.1305 49.1475 33.0918C49.0178 33.0691 48.8881 33.0236 48.7607 32.9803C48.6333 32.9371 48.5105 32.8962 48.3876 32.8347C47.8985 32.6095 47.4663 32.4502 46.9976 32.4502C46.5358 32.4389 45.967 32.6778 45.4324 32.63C45.1685 32.6118 44.9296 32.5117 44.7181 32.3729C44.5042 32.2341 44.3086 32.0703 44.1402 31.8747C43.9696 31.6813 43.8263 31.4606 43.7216 31.2104C43.617 30.9601 43.5442 30.6849 43.5464 30.3618C43.5464 30.2708 43.6192 30.1957 43.708 30.1889H43.7125V30.1912Z" fill="black"/>
<path d="M4.65535 29.4473C4.27542 29.329 3.99787 29.172 3.74762 29.0059C3.49965 28.8376 3.30173 28.651 3.12655 28.4577C2.95593 28.262 2.81714 28.0527 2.70339 27.8343C2.58737 27.6182 2.51684 27.3839 2.53049 27.1177C2.55324 26.5876 2.86265 25.9506 2.78075 25.4592C2.7125 24.9633 2.38718 24.5629 1.9299 24.2148C1.70695 24.0373 1.4749 23.8644 1.28835 23.6733C1.09725 23.4845 0.963027 23.2729 0.821977 23.0659C0.535327 22.6518 0.244125 22.2401 0.12355 21.7646C-0.00157451 21.2891 -0.0265978 20.7795 0.0257272 20.2381C0.0826022 19.6944 0.20544 19.1279 0.539865 18.4818C0.59674 18.3726 0.726415 18.3271 0.83789 18.3703C1.51584 18.6365 1.97995 18.9846 2.38035 19.3554C2.77392 19.7285 3.09015 20.1312 3.31083 20.5702C3.5315 21.0093 3.58382 21.5098 3.64069 22.0103C3.67027 22.2605 3.70895 22.5063 3.68847 22.7747C3.67482 23.0409 3.6134 23.3252 3.56107 23.6051C3.44505 24.1693 3.46324 24.6834 3.73851 25.102C4.00014 25.5252 4.6508 25.8027 5.01708 26.1872C5.20363 26.3783 5.30373 26.6013 5.35833 26.8401C5.41748 27.079 5.44932 27.327 5.44932 27.5886C5.44704 27.8502 5.41748 28.1209 5.3424 28.4099C5.26505 28.6988 5.15812 29.0014 4.94882 29.3404C4.88512 29.4427 4.76227 29.486 4.65079 29.4518L4.65535 29.4473Z" fill="black"/>
<path d="M92.3135 29.3358C92.1065 28.9968 91.9973 28.6965 91.9199 28.4053C91.8448 28.1164 91.8175 27.8457 91.813 27.584C91.813 27.3224 91.8448 27.0744 91.904 26.8356C91.9586 26.5944 92.0587 26.3715 92.2452 26.1826C92.6115 25.7982 93.2622 25.5206 93.5238 25.0975C93.7991 24.6789 93.8173 24.1647 93.7012 23.6005C93.6512 23.3207 93.5898 23.0363 93.5738 22.7701C93.5534 22.5017 93.592 22.256 93.6216 22.0058C93.6785 21.5053 93.7308 21.0047 93.9515 20.5657C94.1699 20.1266 94.4861 19.7239 94.882 19.3508C95.2824 18.98 95.7465 18.6319 96.4244 18.3658C96.5382 18.3203 96.6678 18.3703 96.7224 18.4772C97.0569 19.1233 97.1797 19.6921 97.2366 20.2335C97.2889 20.775 97.2616 21.2846 97.1388 21.76C97.0182 22.2355 96.727 22.6473 96.4403 23.0613C96.2993 23.2684 96.1651 23.4799 95.974 23.6688C95.7874 23.8599 95.5554 24.0328 95.3324 24.2102C94.8751 24.5606 94.5498 24.9587 94.4816 25.4546C94.3997 25.946 94.7091 26.583 94.7318 27.1131C94.7455 27.3793 94.6772 27.6136 94.5589 27.8297C94.4452 28.0481 94.3064 28.2574 94.1358 28.4531C93.9606 28.6487 93.7627 28.8353 93.5147 29.0014C93.2667 29.1697 92.9869 29.3244 92.607 29.4427C92.4909 29.4791 92.3704 29.4291 92.3089 29.3312L92.3135 29.3358Z" fill="black"/>
<path d="M74.7504 50.8891C75.2191 64.5687 65.0384 76.4374 51.5704 78.0572C37.9113 79.702 25.0667 70.304 22.5005 56.6585C28.5816 57.9735 37.5382 59.1929 48.2649 58.1168C59.8173 56.9588 68.8946 53.5918 74.7504 50.8869V50.8891Z" fill="white"/>
<path d="M74.8278 50.764C74.8915 51.1485 74.9938 51.6263 75.0348 52.1177C75.0643 52.5476 75.0803 52.9548 75.0985 53.3757C75.1053 53.7943 75.0985 54.2129 75.0985 54.6338C75.0848 55.0524 75.0484 55.471 75.0234 55.8919C74.8846 57.5708 74.5729 59.2452 74.0815 60.8718C73.1101 64.1319 71.4585 67.2146 69.2677 69.8649C68.1711 71.189 66.9494 72.4175 65.6117 73.5049C64.2763 74.5947 62.8339 75.5638 61.2983 76.351C59.765 77.1427 58.1474 77.7728 56.4822 78.2051C55.6495 78.4235 54.81 78.6032 53.9637 78.7374C53.1174 78.8671 52.2666 78.9535 51.4157 79.0036C49.714 79.1014 48.0123 79.0264 46.3379 78.8193C44.6658 78.5986 43.0164 78.2529 41.4148 77.7683C38.2048 76.8173 35.1654 75.3408 32.424 73.4116C29.6804 71.487 27.2302 69.0914 25.2805 66.2932C23.324 63.5017 21.9181 60.2849 21.2083 56.9065C21.0604 56.2058 21.5109 55.5165 22.2116 55.3686C22.3822 55.3322 22.5528 55.3322 22.7166 55.3618L22.7803 55.3754C27.0891 56.2013 31.4549 56.6995 35.8252 56.8565C36.9172 56.8997 38.0114 56.9293 39.1034 56.9338C39.6494 56.9338 40.1954 56.9452 40.7437 56.9384L42.384 56.9133L44.022 56.8633C44.568 56.8451 45.114 56.8064 45.66 56.7814C46.206 56.7632 46.752 56.7154 47.298 56.6813L48.117 56.6244L48.9337 56.5471C49.4774 56.4925 50.0257 56.4629 50.5694 56.3969L52.2029 56.2149C53.2881 56.0716 54.3755 55.9237 55.4584 55.7463L56.2729 55.6211L57.085 55.4801C57.6265 55.3868 58.1679 55.2935 58.7071 55.1821C59.2463 55.0706 59.7877 54.9751 60.3224 54.8522C60.8593 54.7362 61.4007 54.6315 61.9376 54.5041C62.4745 54.3767 63.0114 54.2561 63.546 54.1242L65.1499 53.7147L66.7515 53.2847C67.2816 53.13 67.8162 52.9821 68.3463 52.8206C69.411 52.5089 70.4688 52.1768 71.5244 51.8287C72.0545 51.6604 72.5801 51.4806 73.1079 51.2986L73.5037 51.1667C73.6561 51.1121 73.8131 51.0575 73.9655 51.0097C74.2749 50.9119 74.5684 50.8391 74.83 50.7617L74.8278 50.764ZM74.6731 51.0165C74.4274 51.169 74.2135 51.3259 74.0133 51.4579C73.9132 51.5239 73.8154 51.5853 73.713 51.6467L73.3422 51.8469C72.8485 52.1131 72.3503 52.3724 71.8475 52.625C70.8465 53.1368 69.825 53.6032 68.799 54.0673C68.2849 54.2948 67.7639 54.5064 67.2452 54.7271L65.6754 55.355C65.1499 55.5597 64.6175 55.744 64.0875 55.9396C63.5551 56.1285 63.0205 56.3036 62.4859 56.4856C61.9513 56.6676 61.4098 56.8292 60.8706 56.9998C60.3314 57.1704 59.7832 57.3092 59.2394 57.4662C58.6957 57.6232 58.1474 57.7596 57.5992 57.8984L56.7756 58.1077L55.9475 58.2988C53.7385 58.797 51.5044 59.1997 49.2545 59.5L48.4105 59.6115L47.5641 59.7025C47 59.7594 46.4357 59.8299 45.8693 59.8708C45.3028 59.9118 44.7363 59.9619 44.1699 59.9937L42.4682 60.0802L40.7642 60.1143C40.1954 60.1211 39.629 60.1143 39.0602 60.1143C37.925 60.0915 36.7898 60.0551 35.6568 59.9823C33.3909 59.8276 31.1318 59.591 28.8887 59.252C26.6478 58.9085 24.4206 58.474 22.2161 57.9508L23.7881 56.4197C24.2977 59.5023 25.3283 62.5144 26.8753 65.2876C28.4246 68.0563 30.5153 70.5656 33.0451 72.5676C35.5726 74.5674 38.5347 76.0438 41.6628 76.8423C44.7955 77.6386 48.076 77.7091 51.2041 77.17C51.9867 77.0357 52.7603 76.8697 53.5247 76.6626C54.2868 76.4602 55.0421 76.2326 55.7792 75.9642C57.2556 75.4273 58.6844 74.7857 60.0516 74.0327C61.4166 73.2751 62.7293 72.4266 63.9601 71.462C65.1863 70.4928 66.3374 69.4258 67.3862 68.261C69.4883 65.9314 71.1968 63.231 72.4185 60.294C73.0259 58.8243 73.5219 57.2978 73.8836 55.7258L74.127 54.5405C74.193 54.1424 74.2681 53.742 74.3295 53.3416L74.4842 52.1358C74.5161 51.806 74.6116 51.4602 74.6662 51.0256L74.6731 51.0165Z" fill="black"/>
<path d="M33.0904 58.2328C33.4362 58.863 33.5977 59.4932 33.7092 60.1234C33.7615 60.4373 33.7957 60.7535 33.8093 61.0675C33.8343 61.3814 33.8184 61.6977 33.7593 62.0116C33.641 62.6418 33.3475 63.2719 33.2929 63.9021C33.2315 64.5323 33.3225 65.1625 33.4976 65.7927C33.5818 66.1066 33.6705 66.4228 33.732 66.7368C33.7957 67.0507 33.8252 67.3669 33.8594 67.6809C33.9299 68.3111 34.0004 68.9413 33.9708 69.5714C33.9367 70.2016 33.8548 70.8318 33.7183 71.4619C33.5773 72.0921 33.3998 72.7223 33.0904 73.3525C33.0654 73.4025 33.004 73.423 32.9539 73.398C32.9334 73.3866 32.9175 73.3707 32.9084 73.3525C32.599 72.7223 32.4193 72.0921 32.2805 71.4619C32.144 70.8318 32.0598 70.2016 32.028 69.5714C32.0007 68.9413 32.0712 68.3111 32.1395 67.6809C32.1736 67.3669 32.2032 67.0507 32.2669 66.7368C32.3283 66.4228 32.417 66.1066 32.5012 65.7927C32.6764 65.1625 32.7674 64.5323 32.7059 63.9021C32.6536 63.2719 32.3579 62.6418 32.2396 62.0116C32.1804 61.6977 32.1645 61.3814 32.1895 61.0675C32.2032 60.7535 32.2373 60.4373 32.2896 60.1234C32.3988 59.4932 32.5603 58.863 32.9084 58.2328C32.9357 58.1828 32.9994 58.1646 33.0495 58.1919C33.0677 58.201 33.0813 58.2169 33.0904 58.2328Z" fill="black"/>
<path d="M42.0609 58.2328C42.4067 59.0359 42.5682 59.839 42.6797 60.6443C42.732 61.047 42.7662 61.4474 42.7798 61.8501C42.8026 62.2528 42.7866 62.6532 42.7297 63.0558C42.6114 63.8589 42.318 64.662 42.2634 65.4673C42.2019 66.2704 42.293 67.0735 42.4681 67.8788C42.5523 68.2815 42.641 68.6819 42.7024 69.0846C42.7661 69.4873 42.7957 69.8877 42.8298 70.2903C42.9004 71.0934 42.9709 71.8965 42.9413 72.7018C42.9095 73.5049 42.8253 74.308 42.6888 75.1133C42.5477 75.9164 42.3703 76.7195 42.0609 77.5248C42.0427 77.5749 41.9858 77.5999 41.9358 77.5817C41.9085 77.5703 41.8903 77.5499 41.8789 77.5248C41.5695 76.7218 41.3898 75.9187 41.251 75.1133C41.1145 74.3103 41.0303 73.5072 40.9985 72.7018C40.9689 71.8988 41.0417 71.0957 41.1099 70.2903C41.1441 69.8877 41.1736 69.4873 41.2373 69.0846C41.2988 68.6819 41.3875 68.2815 41.4717 67.8788C41.6469 67.0758 41.7378 66.2727 41.6764 65.4673C41.6241 64.6643 41.3283 63.8612 41.21 63.0558C41.1509 62.6532 41.1373 62.2528 41.16 61.8501C41.1737 61.4474 41.2078 61.047 41.2601 60.6443C41.3693 59.8413 41.5308 59.0382 41.8789 58.2328C41.9016 58.1828 41.9585 58.16 42.0086 58.1805C42.0336 58.1919 42.0495 58.2101 42.0609 58.2328Z" fill="black"/>
<path d="M51.5907 58.2328C51.9365 59.0587 52.098 59.8845 52.2095 60.7103C52.2618 61.1244 52.2959 61.5361 52.3096 61.9502C52.3323 62.3642 52.3187 62.776 52.2595 63.1901C52.1412 64.0159 51.8478 64.8417 51.7932 65.6675C51.7317 66.4934 51.8227 67.3192 51.9979 68.145C52.0821 68.5591 52.1708 68.9708 52.2322 69.3849C52.2959 69.7989 52.3255 70.2107 52.3596 70.6248C52.4302 71.4506 52.5007 72.2764 52.4711 73.1022C52.4393 73.9281 52.3551 74.7539 52.2186 75.5797C52.0775 76.4055 51.9001 77.2314 51.5907 78.0572C51.5725 78.1073 51.5156 78.1323 51.4656 78.1141C51.4383 78.105 51.4178 78.0822 51.4087 78.0572C51.0993 77.2314 50.9196 76.4055 50.7808 75.5797C50.6443 74.7539 50.5601 73.9281 50.5283 73.1022C50.4987 72.2764 50.5715 71.4506 50.6397 70.6248C50.6739 70.2107 50.7034 69.7989 50.7671 69.3849C50.8286 68.9708 50.9173 68.5591 51.0014 68.145C51.1766 67.3192 51.2676 66.4934 51.2062 65.6675C51.1539 64.8417 50.8581 64.0159 50.7398 63.1901C50.6807 62.776 50.667 62.3642 50.6898 61.9502C50.7034 61.5361 50.7375 61.1244 50.7899 60.7103C50.8991 59.8845 51.0606 59.0587 51.4087 58.2328C51.4292 58.1828 51.4883 58.16 51.5384 58.1805C51.5634 58.1919 51.5816 58.2101 51.5907 58.2328Z" fill="black"/>
<path d="M60.5633 55.9601C60.9091 56.7655 61.0707 57.5708 61.1821 58.3784C61.2345 58.7811 61.2686 59.1838 61.2822 59.5865C61.305 59.9891 61.2913 60.3918 61.2322 60.7945C61.1139 61.5998 60.8204 62.4052 60.7658 63.2128C60.7044 64.0182 60.7954 64.8235 60.9706 65.6311C61.0547 66.0338 61.1435 66.4365 61.2049 66.8392C61.2686 67.2418 61.2982 67.6445 61.3323 68.0472C61.4028 68.8525 61.4733 69.6579 61.4438 70.4655C61.4119 71.2708 61.3277 72.0762 61.1912 72.8838C61.0502 73.6892 60.8727 74.4945 60.5633 75.3021C60.5451 75.3522 60.4883 75.3772 60.4382 75.359C60.4109 75.3476 60.3927 75.3272 60.3813 75.3021C60.0719 74.4968 59.8922 73.6914 59.7534 72.8838C59.6169 72.0785 59.5328 71.2731 59.5009 70.4655C59.4713 69.6601 59.5441 68.8548 59.6124 68.0472C59.6465 67.6445 59.6761 67.2418 59.7398 66.8392C59.8012 66.4365 59.8899 66.0338 59.9741 65.6311C60.1493 64.8258 60.2403 64.0204 60.1789 63.2128C60.1265 62.4075 59.8308 61.6021 59.7125 60.7945C59.6533 60.3918 59.6397 59.9891 59.6624 59.5865C59.6761 59.1838 59.7102 58.7811 59.7625 58.3784C59.8717 57.5731 60.0333 56.7677 60.3813 55.9601C60.4041 55.9101 60.461 55.8873 60.511 55.9078C60.536 55.9191 60.5542 55.9374 60.5633 55.9601Z" fill="black"/>
<path d="M68.8263 53.626C69.1721 54.2561 69.3336 54.8863 69.445 55.5165C69.4974 55.8304 69.5315 56.1467 69.5451 56.4606C69.5702 56.7746 69.5543 57.0908 69.4951 57.4047C69.3768 58.0349 69.0833 58.6651 69.0287 59.2952C68.9673 59.9254 69.0583 60.5556 69.2335 61.1858C69.3176 61.4997 69.4064 61.816 69.4678 62.1299C69.5315 62.4439 69.5611 62.7601 69.5952 63.074C69.6657 63.7042 69.7363 64.3344 69.7067 64.9646C69.6726 65.5947 69.5907 66.2249 69.4542 66.8551C69.3131 67.4852 69.1357 68.1154 68.8263 68.7456C68.8012 68.7957 68.7398 68.8161 68.6897 68.7911C68.6693 68.7797 68.6534 68.7638 68.6443 68.7456C68.3349 68.1154 68.1551 67.4852 68.0164 66.8551C67.8799 66.2249 67.7957 65.5947 67.7638 64.9646C67.7365 64.3344 67.8071 63.7042 67.8753 63.074C67.9094 62.7601 67.939 62.4439 68.0027 62.1299C68.0641 61.816 68.1528 61.4997 68.237 61.1858C68.4122 60.5556 68.5032 59.9254 68.4418 59.2952C68.3895 58.6651 68.0937 58.0349 67.9754 57.4047C67.9163 57.0908 67.9003 56.7746 67.9253 56.4606C67.939 56.1467 67.9731 55.8304 68.0254 55.5165C68.1346 54.8863 68.2962 54.2561 68.6443 53.626C68.6716 53.5759 68.7353 53.5577 68.7853 53.585C68.8035 53.5941 68.8172 53.61 68.8263 53.626Z" fill="black"/>
</svg>
