<svg width="95" height="94" viewBox="0 0 95 94" fill="none" xmlns="http://www.w3.org/2000/svg">
<path d="M3.31701 33.4378C4.66609 29.6044 9.96911 16.1274 24.586 7.82815C28.8425 5.4121 43.1341 -1.8133 60.0328 3.34185C74.6405 7.79858 82.0889 18.7299 84.919 23.0183C87.3077 26.6401 95.4568 39.4188 93.0203 56.5859C92.4765 60.4125 90.4791 74.4948 78.5513 84.0748C65.6861 94.4078 50.0728 92.4308 41.2231 91.3093C32.3688 90.1877 19.2056 88.5201 9.68246 77.7093C-5.68744 60.2601 2.69821 35.1918 3.31701 33.4356V33.4378Z" fill="#FCDB00"/>
<path d="M3.1577 33.381C3.66048 31.9432 4.2406 30.5304 4.87988 29.1495C5.50777 27.7595 6.2153 26.4104 6.9615 25.0795C8.45845 22.4223 10.1829 19.888 12.1235 17.5151C13.0972 16.3321 14.1164 15.1833 15.197 14.089C16.2685 12.9856 17.4015 11.9391 18.5867 10.9495C19.7697 9.95985 20.9983 9.01573 22.2836 8.14895L22.7614 7.81908L23.2505 7.50513C23.5781 7.2981 23.9011 7.08425 24.231 6.8795C24.893 6.47455 25.5642 6.08325 26.2467 5.7147C28.979 4.2405 31.8455 2.99835 34.8234 2.06105C36.3113 1.59013 37.8287 1.20338 39.3598 0.882602C40.8954 0.575477 42.447 0.336602 44.0099 0.186452C45.5728 0.0385768 47.1471 -0.0251232 48.7191 0.00900184C50.2911 0.0408518 51.8654 0.140952 53.4238 0.366177L54.0085 0.443527L54.5909 0.541352C54.9776 0.609602 55.3667 0.668752 55.7534 0.743827C56.5247 0.903077 57.2936 1.06233 58.0534 1.26708C58.8178 1.44908 59.5686 1.6834 60.3216 1.90863C61.0655 2.16115 61.8004 2.43643 62.5397 2.70033C65.4677 3.83328 68.2682 5.28245 70.8617 7.02283C73.4529 8.76775 75.8394 10.788 77.9961 13.0129C78.5307 13.5726 79.0722 14.1277 79.5727 14.7169L80.3371 15.5882L81.0719 16.4823L81.4382 16.9282L81.7908 17.3855L82.4938 18.3023C82.9419 18.9279 83.4015 19.5467 83.8246 20.186C84.6891 21.46 85.515 22.7362 86.3089 24.0512C87.1052 25.3639 87.84 26.713 88.5271 28.0848C89.8943 30.8307 91.0455 33.6836 91.9396 36.6183C92.8268 39.5553 93.4661 42.5697 93.8142 45.625C94.1577 48.6804 94.2009 51.7721 93.9598 54.8479C93.821 56.3881 93.6435 57.9032 93.4001 59.4297C93.1567 60.954 92.8427 62.4691 92.4605 63.9683C91.6916 66.9668 90.6405 69.9084 89.2664 72.7134C88.5794 74.1148 87.8104 75.4821 86.9596 76.8016C86.1042 78.1166 85.1669 79.3815 84.1545 80.5895C80.1073 85.417 74.7406 89.189 68.7778 91.3525C65.8044 92.4536 62.7035 93.1634 59.5868 93.5775C56.4655 93.9847 53.3214 94.0711 50.2115 93.9619C48.6554 93.9028 47.1061 93.805 45.5682 93.6525C44.0303 93.5024 42.5038 93.3204 40.9955 93.1338C37.9811 92.7607 34.9076 92.3444 31.8568 91.6938C28.8083 91.0408 25.7712 90.1786 22.8501 88.966C19.929 87.7626 17.1125 86.2383 14.56 84.3387C12.0097 82.4391 9.70742 80.2073 7.7896 77.6934C5.84675 75.1977 4.2679 72.4382 3.05988 69.5489C1.87233 66.6483 1.0738 63.618 0.580125 60.5672C0.507325 60.1873 0.46865 59.8028 0.4186 59.4206C0.370825 59.0384 0.316225 58.6562 0.275275 58.2717L0.175175 57.1206L0.125125 56.545L0.0955504 55.9695L0.0341253 54.8183L0.0113748 53.6672L0 53.0916L0.00682472 52.516L0.020475 51.3671C0.05915 50.6027 0.0705247 49.8361 0.1365 49.0739C0.166075 48.6917 0.184275 48.3118 0.2184 47.9296L0.3276 46.7898C0.493675 45.2724 0.6916 43.7595 0.9555 42.258C1.22395 40.7565 1.52425 39.2641 1.89053 37.7854C2.25225 36.3044 2.65265 34.837 3.15542 33.3924L3.1577 33.381ZM3.47848 33.4947C2.52525 36.359 1.8837 39.3347 1.44917 42.324C1.03057 45.3179 0.853125 48.3437 0.94185 51.3535C1.05332 54.361 1.40823 57.3549 2.10893 60.2555C2.80052 63.1562 3.80608 65.9658 5.12103 68.598C6.44508 71.2279 8.1081 73.6576 10.0214 75.8507C10.9587 76.9654 11.9984 77.9892 13.0767 78.956C14.1528 79.9252 15.2948 80.8193 16.4846 81.6428C18.862 83.2922 21.4487 84.6344 24.1605 85.6923C26.8746 86.7456 29.7047 87.5373 32.6007 88.1175C34.0476 88.4087 35.5082 88.6657 36.9847 88.8864C38.4612 89.1094 39.9513 89.2914 41.455 89.4916C44.4603 89.8874 47.411 90.2355 50.3662 90.3925C53.3192 90.5472 56.2676 90.5108 59.175 90.1809C62.0802 89.8533 64.949 89.2641 67.6926 88.3086C73.1936 86.4431 78.1599 83.1079 82.0911 78.7831C83.0739 77.7025 83.993 76.5605 84.8438 75.3638C85.6992 74.1717 86.4864 72.925 87.2007 71.6351C88.634 69.0552 89.7783 66.3002 90.6633 63.4587C91.5392 60.6173 92.1557 57.6712 92.522 54.7C92.704 53.2167 92.7995 51.7243 92.8359 50.2274C92.8541 48.7304 92.7904 47.2335 92.663 45.7388C92.1352 39.7624 90.3357 33.9042 87.5465 28.583C86.8527 27.2498 86.086 25.9577 85.2738 24.695C84.8666 24.0649 84.4412 23.4461 84.0089 22.825C83.5767 22.2085 83.1444 21.5919 82.6871 20.9982C82.2412 20.3953 81.7635 19.8174 81.2994 19.2305L80.5737 18.3751L80.2097 17.9474L79.832 17.5333L79.079 16.7052C78.8219 16.4345 78.5557 16.1729 78.2964 15.9067C77.78 15.3675 77.2294 14.8648 76.6857 14.3597C72.304 10.3261 67.1262 7.25715 61.5751 5.37345C56.0264 3.45335 50.116 2.74583 44.2738 3.20083C38.4293 3.66265 32.6326 5.196 27.2249 7.65755C21.8286 10.1214 16.8532 13.6408 12.7787 18.0793C10.7357 20.2906 8.92255 22.7226 7.3619 25.3116C6.5793 26.6038 5.86723 27.9392 5.2143 29.3042C4.56593 30.6715 3.99263 32.0706 3.48303 33.4947H3.47848Z" fill="black"/>
<path d="M20.4115 65.3811C20.6481 63.7977 21.0394 62.2507 21.5559 60.7287C22.0837 59.2068 22.7389 57.7121 23.7262 56.2788C23.7876 56.1901 23.8468 56.0991 23.9128 56.0104L24.1198 55.7442C24.2631 55.569 24.3951 55.3939 24.5657 55.2232C24.734 55.0549 24.8774 54.8797 25.0753 54.7182C25.2664 54.5567 25.4416 54.3883 25.6736 54.2427C25.7851 54.1676 25.8943 54.0948 26.008 54.022L26.388 53.8264C26.4539 53.7945 26.5131 53.7627 26.5836 53.7331L26.7975 53.6558C26.9453 53.608 27.0796 53.5488 27.2388 53.5215C27.8485 53.3555 28.556 53.3873 29.168 53.5557C29.7845 53.724 30.3123 54.0107 30.7423 54.3269C31.1655 54.6454 31.5181 54.9866 31.8229 55.3347C32.121 55.6828 32.3985 56.0309 32.6283 56.3835C32.8717 56.7338 33.0833 57.0842 33.288 57.4345C34.1002 58.82 34.6963 60.2305 35.513 61.3612C35.9157 61.9209 36.382 62.3963 36.9167 62.6215C36.9849 62.6466 37.0509 62.683 37.1214 62.6989L37.333 62.7489C37.4718 62.7626 37.6424 62.7876 37.7402 62.7762C37.9768 62.7535 38.2976 62.617 38.6047 62.4327C39.2303 62.0596 39.8582 61.5819 40.4634 61.1018C41.0594 60.6241 41.6396 60.1236 42.1651 59.5776C42.4381 59.3137 42.6815 59.0202 42.934 58.7404C43.1729 58.4469 43.4118 58.1534 43.6347 57.8463C44.0966 57.2343 44.4606 56.5951 44.9952 55.8921L45.0953 55.7601L45.2136 55.6236C45.2955 55.5326 45.366 55.4416 45.4729 55.3484C45.6572 55.1641 45.8961 54.9821 46.1645 54.8319C46.7219 54.5316 47.3362 54.4065 47.9709 54.4657C48.6056 54.5248 49.1766 54.7705 49.6294 55.0481C50.0844 55.3347 50.4575 55.6509 50.7873 55.9763C51.4403 56.6246 51.9499 57.2821 52.4253 57.9168C52.9008 58.547 53.3444 59.1613 53.7972 59.6959C54.0224 59.9689 54.2499 60.21 54.4774 60.4375C54.7049 60.6537 54.9324 60.847 55.1485 60.9995C55.3646 61.1451 55.5717 61.252 55.7559 61.318C55.9425 61.3726 56.1063 61.3999 56.2746 61.4044C56.443 61.3976 56.5977 61.368 56.7683 61.3157C56.9435 61.2452 57.1346 61.1769 57.3462 61.0268C57.3985 60.9972 57.4508 60.9585 57.5054 60.9176L57.6715 60.8015C57.783 60.7037 57.8967 60.6286 58.0127 60.5194C58.2448 60.3238 58.4791 60.0895 58.718 59.846C59.1957 59.3569 59.678 58.795 60.1854 58.2171C60.6904 57.637 61.2091 57.025 61.7892 56.4244C62.3625 55.8193 63.0064 55.2141 63.7776 54.6636C63.9619 54.5225 64.1848 54.3997 64.3873 54.2723L64.7217 54.0948C64.8309 54.0357 64.9469 53.9811 65.0698 53.931C65.5362 53.7149 66.0799 53.5739 66.6282 53.5102C67.1833 53.4487 67.7429 53.4988 68.2684 53.6307C68.4027 53.6535 68.5232 53.7104 68.6506 53.7513C68.7758 53.7968 68.9032 53.8378 69.0192 53.8924L69.3627 54.0653L69.5311 54.154C69.5857 54.1858 69.6357 54.2222 69.6858 54.2564C70.5207 54.7978 71.1281 55.4849 71.6172 56.1901C72.5841 57.6143 73.146 59.1408 73.5351 60.6901C73.5601 60.7902 73.4987 60.8903 73.4008 60.9153C73.3258 60.9335 73.2507 60.9039 73.2075 60.847C72.2611 59.589 71.2987 58.3559 70.2136 57.4254C69.6767 56.9659 69.1034 56.5928 68.5596 56.4017C68.0159 56.1947 67.5291 56.2174 67.1014 56.3471C66.2528 56.6133 65.3382 57.5915 64.4669 58.7381C64.0301 59.316 63.5842 59.9302 63.1156 60.565C62.6492 61.202 62.151 61.8549 61.5617 62.5032C60.9657 63.1471 60.3105 63.8045 59.3959 64.3551C58.9546 64.6326 58.4177 64.8647 57.8535 65.0353C57.2756 65.1991 56.6477 65.2514 56.038 65.2082C55.4283 65.1536 54.83 64.9966 54.2931 64.7532C53.763 64.5052 53.308 64.1958 52.9054 63.8682C52.5095 63.5361 52.1774 63.1857 51.8725 62.8354C51.579 62.4828 51.306 62.1279 51.0626 61.7775C50.5712 61.0745 50.1572 60.3852 49.7568 59.7277C49.3564 59.0771 48.9833 58.4446 48.6033 57.9237C48.4122 57.6689 48.228 57.4368 48.0505 57.2685C47.8731 57.0933 47.7252 56.9864 47.5864 56.9249C47.2656 56.8203 47.0086 56.7793 46.4557 57.2503C46.2009 57.4641 45.9257 57.7462 45.6481 58.0169L44.7927 58.8587C44.2149 59.4206 43.6143 59.9598 43.0023 60.4739C42.6997 60.7378 42.3858 60.9813 42.0786 61.2361C41.9262 61.3657 41.767 61.4818 41.6077 61.6024L41.1391 61.9709C40.5112 62.4395 39.9174 62.9355 39.2417 63.4201C38.8936 63.6498 38.5296 63.916 37.9973 64.0525C37.7152 64.123 37.49 64.1253 37.242 64.139L36.8734 64.1162C36.7506 64.1048 36.6323 64.0775 36.5094 64.0571C36.0294 63.957 35.5767 63.7681 35.174 63.5384C34.7782 63.304 34.4005 63.0424 34.0684 62.7603C33.3927 62.1961 32.8262 61.5796 32.2825 60.9699C31.7456 60.3579 31.2519 59.7414 30.781 59.1522C30.3078 58.5652 29.8551 58.0033 29.4137 57.5392C29.1908 57.314 28.9792 57.1183 28.7813 56.9613C28.5856 56.8135 28.4195 56.7225 28.2876 56.677C28.1534 56.6337 28.0578 56.6133 27.9077 56.636C27.8735 56.6315 27.828 56.6565 27.7871 56.661L27.7234 56.6724C27.7006 56.677 27.6756 56.6929 27.6529 56.702C27.6051 56.7225 27.555 56.7407 27.505 56.7589L27.3457 56.8499C27.2388 56.8999 27.1205 56.9886 27.0045 57.0683C26.8862 57.1365 26.7702 57.2548 26.6519 57.3504C26.5313 57.4414 26.4175 57.5665 26.2992 57.6825L26.1195 57.8531C26.0604 57.9146 26.0035 57.9805 25.9443 58.0442C25.0116 59.068 24.1448 60.3147 23.3053 61.591C22.459 62.8718 21.6537 64.2049 20.746 65.5176C20.6868 65.6041 20.5708 65.6268 20.4866 65.5677C20.4252 65.5267 20.3979 65.4539 20.407 65.3857L20.4115 65.3811Z" fill="black"/>
<path d="M35.1125 35.913C35.3082 35.3215 35.4515 34.6982 35.4265 34.0088C35.4106 33.6585 35.3673 33.3013 35.2149 32.8759C35.1376 32.6643 35.0375 32.4323 34.8373 32.182C34.7372 32.0569 34.612 31.9295 34.4528 31.8135C34.3754 31.7566 34.2799 31.702 34.1889 31.6542C34.0933 31.6087 33.9887 31.57 33.8886 31.5382C33.7839 31.5109 33.6747 31.4881 33.5701 31.4768C33.4677 31.4699 33.3585 31.4654 33.2607 31.4722C33.0628 31.4859 32.8876 31.5268 32.7352 31.5791C32.428 31.6883 32.2142 31.8248 32.0345 31.9659C31.6727 32.248 31.4407 32.5278 31.2314 32.8122C30.8219 33.3787 30.5512 33.9497 30.3077 34.5207C30.0689 35.0917 29.8664 35.665 29.7322 36.2543C29.5957 36.8412 29.5251 37.4418 29.4683 38.0333C29.4114 38.6271 29.375 39.214 29.3113 39.7942C29.2476 40.3743 29.1862 40.9499 29.0997 41.53C29.0224 42.1124 28.9086 42.6971 28.8677 43.3432C28.854 43.6685 28.8495 44.0052 28.9473 44.3965C28.9951 44.5921 29.0701 44.8014 29.2248 45.0289C29.3045 45.1404 29.4046 45.2542 29.5342 45.3611C29.5979 45.4134 29.6753 45.4612 29.7504 45.5067C29.83 45.5499 29.9164 45.584 30.0029 45.6159C30.0916 45.6409 30.1826 45.6637 30.2736 45.6773C30.3623 45.6864 30.4556 45.6955 30.5398 45.6932C30.7127 45.6887 30.8674 45.6546 31.0084 45.6136C31.2883 45.5294 31.4885 45.4066 31.6636 45.2837C32.0163 45.0358 32.2438 44.7628 32.444 44.4852C32.8375 43.9301 33.0514 43.3341 33.197 42.7335C33.338 42.1283 33.404 41.5232 33.4927 40.9385C33.5837 40.3538 33.6929 39.7919 33.8545 39.2436C34.0092 38.6931 34.2071 38.1539 34.43 37.6056C34.6553 37.0573 34.9101 36.5022 35.108 35.9107L35.1125 35.913Z" fill="black"/>
<path d="M30.5057 45.8116C30.4238 45.8116 30.3373 45.8025 30.2623 45.7957C30.1758 45.782 30.0848 45.7615 29.9733 45.7297C29.8892 45.6978 29.7891 45.6592 29.6981 45.6114C29.623 45.5659 29.5343 45.5113 29.4637 45.4521C29.3386 45.3498 29.2317 45.236 29.1339 45.0995C28.9928 44.8902 28.8995 44.6786 28.8381 44.4284C28.7357 44.0143 28.7426 43.664 28.7562 43.3432C28.7858 42.8905 28.8495 42.4719 28.9109 42.0647C28.9382 41.8804 28.9655 41.7007 28.9905 41.5187C29.0679 40.984 29.127 40.4449 29.1862 39.9239L29.2021 39.7851C29.2408 39.4393 29.2681 39.0912 29.2977 38.7409C29.3181 38.5043 29.3363 38.2654 29.3591 38.0265C29.4137 37.4532 29.4842 36.8413 29.6253 36.2316C29.7458 35.6947 29.9301 35.1396 30.2054 34.4798C30.442 33.927 30.7173 33.3355 31.1404 32.7485C31.3429 32.471 31.584 32.1752 31.9662 31.8795C32.1255 31.7566 32.3507 31.5997 32.6988 31.4768C32.8853 31.4131 33.0673 31.3767 33.2562 31.3631C33.3608 31.354 33.4791 31.3608 33.5815 31.3676C33.6839 31.379 33.7908 31.3995 33.9205 31.4313C34.0524 31.4745 34.1571 31.5132 34.2435 31.5564C34.3368 31.6065 34.4392 31.6634 34.5256 31.7248C34.6758 31.834 34.8077 31.9614 34.9306 32.1138C35.1421 32.3777 35.2468 32.6189 35.3287 32.8395C35.4925 33.2991 35.5312 33.6722 35.5471 34.0066C35.5676 34.6163 35.4697 35.2146 35.2263 35.9517C35.0807 36.384 34.9055 36.798 34.7349 37.1984C34.6712 37.3509 34.6052 37.5033 34.5438 37.6534C34.2913 38.2722 34.1093 38.7887 33.9705 39.2801C33.8272 39.7669 33.7134 40.3015 33.6111 40.9613C33.5883 41.1092 33.5678 41.2616 33.5451 41.4117C33.4837 41.8531 33.4177 42.3104 33.313 42.7654C33.1379 43.4956 32.8922 44.0644 32.5441 44.5581C32.3462 44.8288 32.1118 45.1154 31.7365 45.3816C31.5522 45.509 31.3429 45.641 31.0471 45.7274C30.8742 45.7797 30.7127 45.807 30.5512 45.8116C30.5375 45.8116 30.5262 45.8116 30.5125 45.8116H30.5057ZM33.3699 31.5837C33.3358 31.5837 33.3017 31.5837 33.2698 31.5883C33.0992 31.5997 32.9377 31.6338 32.7716 31.6907C32.4554 31.8044 32.2483 31.9477 32.1027 32.0592C31.7433 32.339 31.5135 32.6211 31.3201 32.8828C30.9106 33.4515 30.6399 34.0294 30.4101 34.5685C30.1394 35.2146 29.9597 35.7584 29.8414 36.2816C29.7026 36.8777 29.6321 37.4828 29.5798 38.047C29.557 38.2859 29.5388 38.5225 29.5183 38.7591C29.4888 39.1117 29.4615 39.4621 29.4228 39.8101L29.4069 39.9489C29.35 40.4722 29.2886 41.0136 29.2112 41.5505C29.1885 41.7325 29.1589 41.9145 29.1316 42.0988C29.0702 42.4992 29.0087 42.9155 28.9792 43.3546C28.9655 43.6572 28.961 43.9893 29.0542 44.3738C29.1088 44.599 29.1907 44.7833 29.3159 44.9698C29.4 45.0859 29.4933 45.1882 29.6025 45.277C29.6617 45.327 29.7413 45.3748 29.805 45.4135C29.8778 45.4521 29.9688 45.4863 30.037 45.5136C30.1326 45.5409 30.2122 45.5591 30.285 45.5704C30.3601 45.5773 30.4534 45.5864 30.5307 45.5841C30.6718 45.5795 30.8151 45.5545 30.9698 45.509C31.2337 45.4317 31.4248 45.3111 31.5931 45.1951C31.9412 44.9494 32.1619 44.6786 32.3484 44.4238C32.6806 43.9552 32.9126 43.4115 33.081 42.7108C33.1856 42.2671 33.2471 41.8144 33.3108 41.3776C33.3312 41.2252 33.354 41.0728 33.3767 40.9249C33.4814 40.2538 33.5974 39.71 33.743 39.2141C33.8841 38.7181 34.0683 38.1926 34.3231 37.5647C34.3846 37.4123 34.4505 37.2599 34.5142 37.1074C34.6826 36.7116 34.8555 36.3021 34.9988 35.8789C35.2331 35.1691 35.3287 34.5936 35.3082 34.0134C35.2923 33.6972 35.2582 33.3446 35.1035 32.9146C35.0284 32.7121 34.9351 32.4915 34.744 32.2526C34.6325 32.1161 34.5142 32.0023 34.3823 31.9045C34.3095 31.8499 34.2139 31.7976 34.132 31.7544C34.057 31.718 33.9637 31.6816 33.8499 31.6452C33.7385 31.6179 33.6406 31.5974 33.5542 31.5883C33.4973 31.5837 33.4313 31.5815 33.3676 31.5815L33.3699 31.5837Z" fill="black"/>
<path d="M64.6878 42.2421C64.4353 41.48 64.1054 40.7633 63.8188 40.0604C63.5321 39.3551 63.2796 38.659 63.0794 37.9492C62.8724 37.2416 62.7313 36.5182 62.6153 35.7652C62.5015 35.0144 62.4174 34.2318 62.2376 33.4538C62.0534 32.678 61.7781 31.909 61.273 31.1947C61.0137 30.8375 60.7202 30.4872 60.2698 30.1664C60.0445 30.0094 59.7852 29.8479 59.4257 29.7387C59.246 29.6864 59.0458 29.6431 58.8229 29.6363C58.7137 29.6318 58.5931 29.6431 58.4793 29.6545C58.3633 29.6704 58.245 29.7023 58.1313 29.7341C58.0198 29.7751 57.9083 29.8206 57.8059 29.8752C57.7104 29.9343 57.608 29.9958 57.5284 30.0617C57.3623 30.1982 57.2326 30.3438 57.128 30.4872C56.9278 30.7806 56.83 31.0491 56.7685 31.3016C56.6434 31.8067 56.6457 32.2389 56.6639 32.6575C56.7162 33.4902 56.8618 34.2432 56.9596 34.9939C57.0666 35.7424 57.1462 36.4818 57.2258 37.2303C57.3054 37.9765 57.3532 38.734 57.4237 39.4984C57.4943 40.2606 57.5853 41.0341 57.7604 41.7894C57.9311 42.5492 58.1904 43.2863 58.4975 44.0211C58.8092 44.7582 59.1573 45.4931 59.6805 46.2211C59.949 46.5896 60.247 46.9491 60.7134 47.3131C60.9454 47.4928 61.2207 47.6702 61.6166 47.8113C61.8145 47.8795 62.0397 47.9319 62.2945 47.9501C62.4196 47.9614 62.5607 47.9546 62.6926 47.9455C62.8291 47.9319 62.9679 47.9023 63.1021 47.8682C63.2341 47.8249 63.3683 47.7772 63.4912 47.718C63.6072 47.6566 63.73 47.5883 63.8301 47.5155C64.0349 47.3677 64.1964 47.2016 64.3261 47.0423C64.5854 46.7193 64.7151 46.4213 64.8152 46.1505C65.0131 45.6023 65.0677 45.1427 65.0882 44.6923C65.1201 43.8027 64.9358 43.0019 64.6878 42.2398V42.2421Z" fill="black"/>
<path d="M62.4374 48.0729C62.3851 48.0729 62.3351 48.0729 62.2873 48.0684C62.0484 48.0502 61.8187 48.0024 61.5821 47.9228C61.1384 47.7635 60.8495 47.5633 60.647 47.4064C60.1579 47.0264 59.8508 46.6465 59.5914 46.2916C59.0477 45.5386 58.6951 44.7765 58.3948 44.0689C58.0422 43.2226 57.8055 42.506 57.6531 41.8167C57.4711 41.0341 57.3824 40.2469 57.3142 39.5098C57.2869 39.2027 57.2618 38.8979 57.2368 38.5953C57.2004 38.1517 57.164 37.6898 57.1162 37.2462L57.098 37.0688C57.0252 36.3954 56.9501 35.7015 56.85 35.0144C56.8205 34.7801 56.7841 34.5458 56.7499 34.3092C56.6726 33.7882 56.5907 33.2468 56.5543 32.6689C56.5361 32.2549 56.5293 31.809 56.6612 31.2789C56.7386 30.9627 56.8592 30.6919 57.0366 30.428C57.1617 30.2529 57.2982 30.1073 57.4575 29.9776C57.5462 29.9025 57.6577 29.8365 57.7487 29.7819C57.867 29.7182 57.9898 29.6705 58.0945 29.6318C58.2492 29.5863 58.3607 29.5613 58.4653 29.5476C58.5813 29.5362 58.711 29.5226 58.8293 29.5271C59.0341 29.534 59.2388 29.5704 59.4595 29.6341C59.8349 29.7455 60.1033 29.9139 60.3354 30.0754C60.8154 30.4167 61.1134 30.7829 61.3659 31.131C61.8141 31.7635 62.1258 32.4937 62.3487 33.4288C62.483 34.0134 62.5648 34.6004 62.6445 35.1669C62.6718 35.3625 62.6991 35.5559 62.7286 35.7493C62.8583 36.6001 63.0039 37.2894 63.1882 37.9173C63.3657 38.5498 63.5977 39.2164 63.923 40.0172C64.0026 40.2105 64.0846 40.4062 64.1687 40.6041C64.3871 41.1183 64.6124 41.6506 64.7966 42.208C65.106 43.1544 65.2311 43.9233 65.2038 44.7014C65.1834 45.1314 65.1333 45.6091 64.924 46.1938C64.8194 46.4759 64.6874 46.783 64.4167 47.1197C64.2597 47.3131 64.0891 47.4746 63.898 47.6134C63.7911 47.693 63.6591 47.7635 63.5454 47.825C63.4294 47.8818 63.302 47.9296 63.1382 47.9819C62.9653 48.0252 62.831 48.0502 62.7059 48.0638C62.6217 48.0684 62.5284 48.0752 62.4374 48.0752V48.0729ZM58.777 29.7524C58.6837 29.7524 58.5836 29.7615 58.4926 29.7706C58.4039 29.7842 58.2992 29.807 58.1627 29.8456C58.074 29.8775 57.9603 29.923 57.8602 29.9776C57.7828 30.0254 57.6782 30.0891 57.6008 30.1528C57.4575 30.2711 57.3324 30.403 57.2209 30.5577C57.0571 30.7989 56.9524 31.0377 56.8796 31.3312C56.7568 31.8317 56.7613 32.2617 56.7795 32.6553C56.8137 33.2217 56.8956 33.7564 56.9729 34.2728C57.0093 34.5117 57.0434 34.746 57.0753 34.9803C57.1754 35.6696 57.2505 36.3681 57.3233 37.0415L57.3415 37.2189C57.3892 37.6671 57.4256 38.1289 57.462 38.5748C57.4871 38.8774 57.5098 39.1822 57.5394 39.4871C57.6076 40.2151 57.6941 40.9931 57.8738 41.7644C58.0262 42.4423 58.2583 43.1453 58.6041 43.9779C58.8998 44.6741 59.2456 45.4203 59.7757 46.1551C60.0237 46.4964 60.3194 46.8604 60.7858 47.2244C60.9746 47.37 61.2431 47.5565 61.6571 47.7067C61.871 47.7795 62.0848 47.8227 62.3055 47.8409C62.4261 47.85 62.5649 47.8432 62.6877 47.8363C62.7969 47.825 62.922 47.7999 63.0767 47.7613C63.2223 47.7135 63.3406 47.668 63.443 47.6202C63.5454 47.5656 63.6682 47.4974 63.7638 47.4268C63.939 47.2994 64.0937 47.1516 64.2393 46.9741C64.4895 46.6647 64.6124 46.3781 64.7102 46.1142C64.9104 45.5591 64.9559 45.1018 64.9763 44.69C65.0036 43.9415 64.8808 43.1976 64.5805 42.2785C64.3985 41.7325 64.1755 41.2024 63.9594 40.6928C63.8752 40.4949 63.7934 40.2993 63.7137 40.1036C63.3861 39.296 63.1495 38.6203 62.9698 37.981C62.7832 37.344 62.6354 36.6456 62.5034 35.7834C62.4739 35.59 62.4466 35.3944 62.4193 35.1987C62.3419 34.6368 62.26 34.0544 62.1281 33.4811C61.9119 32.5756 61.6116 31.8704 61.1817 31.263C60.9428 30.9331 60.6561 30.5827 60.2034 30.262C59.9873 30.1095 59.737 29.9548 59.3935 29.8525C59.1933 29.7933 59.0045 29.7615 58.8202 29.7546C58.8066 29.7546 58.7906 29.7546 58.777 29.7546V29.7524Z" fill="black"/>
<path d="M18.6758 28.153C19.0444 27.7253 19.4493 27.3909 19.8611 27.077C20.2729 26.7653 20.7006 26.4946 21.1374 26.2466C21.5742 26.0009 22.0201 25.7779 22.4751 25.5846C22.9301 25.3844 23.3987 25.2228 23.8947 25.1387C24.8843 24.9589 25.9672 25.0249 26.925 24.7565C27.885 24.4948 28.7654 24.0216 29.6026 23.4301C30.0235 23.1412 30.4398 22.8409 30.8721 22.5816C31.3021 22.3177 31.7525 22.1038 32.1984 21.8831C33.0902 21.4395 33.9797 20.9913 34.9239 20.6865C35.3948 20.5318 35.8748 20.4021 36.3617 20.2906C36.8485 20.1746 37.3399 20.0813 37.8404 20.004C38.8414 19.8561 39.8629 19.7583 40.9549 19.8493C41.0368 19.8561 41.1005 19.9289 41.0937 20.0108C41.0914 20.0472 41.0755 20.0791 41.0504 20.1041C40.2838 20.8867 39.4488 21.4805 38.5934 22.0242C38.1657 22.2926 37.7312 22.5452 37.2876 22.7749C36.8462 23.0115 36.3981 23.2254 35.9408 23.4165C35.0285 23.8032 34.0616 24.0467 33.097 24.2969C32.6147 24.422 32.1347 24.554 31.6365 24.6359C31.1405 24.7223 30.6287 24.7701 30.1213 24.8247C29.0999 24.9248 28.1262 25.1432 27.2298 25.5732C26.3312 25.9963 25.5554 26.7562 24.6886 27.2658C24.2564 27.5274 23.7968 27.7117 23.3236 27.8573C22.8504 28.0074 22.3681 28.1326 21.8767 28.2327C21.3853 28.3328 20.8848 28.4056 20.3684 28.442C19.852 28.4738 19.3265 28.4852 18.7691 28.4033C18.6849 28.3919 18.6258 28.3123 18.6371 28.2258C18.6417 28.1963 18.6553 28.169 18.6735 28.1462L18.6758 28.153Z" fill="black"/>
<path d="M52.9986 19.8515C53.5583 19.7696 54.0815 19.781 54.598 19.8129C55.1144 19.847 55.6149 19.9221 56.1063 20.0222C56.5977 20.1223 57.08 20.2451 57.5532 20.3975C58.0264 20.5431 58.4859 20.7297 58.9182 20.989C59.785 21.5009 60.5585 22.2585 61.4594 22.6816C62.3557 23.1139 63.3317 23.3323 64.3509 23.4301C64.8582 23.487 65.3701 23.5325 65.866 23.6189C66.3643 23.7008 66.842 23.8351 67.3266 23.9579C68.2912 24.2059 69.2581 24.4493 70.1703 24.8383C70.6276 25.0294 71.0758 25.2456 71.5171 25.4799C71.9608 25.7097 72.3953 25.9622 72.823 26.2306C73.6784 26.7744 74.5133 27.3704 75.28 28.1507C75.3391 28.2099 75.3369 28.3054 75.28 28.3646C75.255 28.3896 75.2208 28.4033 75.1867 28.4078C74.097 28.4988 73.0755 28.401 72.0722 28.2531C71.5717 28.1758 71.0781 28.0825 70.5935 27.9665C70.1066 27.855 69.6266 27.7253 69.1557 27.5706C68.2116 27.2658 67.322 26.8176 66.4302 26.374C65.9843 26.1533 65.5362 25.9394 65.1039 25.6755C64.6717 25.4162 64.2553 25.1182 63.8345 24.827C62.9973 24.2332 62.1168 23.76 61.1568 23.5006C60.199 23.2322 59.1184 23.2982 58.1265 23.1184C57.6305 23.0343 57.1619 22.8727 56.7069 22.6725C56.2519 22.4769 55.806 22.2562 55.3692 22.0105C54.9324 21.7648 54.5047 21.4918 54.0929 21.1801C53.6811 20.8662 53.2785 20.5318 52.9076 20.1041C52.8508 20.0381 52.8576 19.9403 52.9236 19.8834C52.9463 19.8629 52.9736 19.8515 53.0032 19.847L52.9986 19.8515Z" fill="black"/>
</svg>
