<svg width="93" height="94" viewBox="0 0 93 94" fill="none" xmlns="http://www.w3.org/2000/svg">
<path d="M4.65679 30.2123C6.98638 24.6886 12.6784 14.1463 24.9134 7.35315C29.7409 4.6732 41.4185 -0.663954 55.8761 2.4346C69.7241 5.4012 77.7048 14.3033 80.4734 17.4814C83.2535 20.6733 92.0987 31.6888 92.3376 48.1553C92.3876 51.6224 92.631 68.4687 79.8956 80.8538C63.3268 96.9654 39.3756 91.3507 35.3329 90.402C29.9389 89.1371 16.0727 85.8884 7.26394 73.0392C-5.27586 54.7482 3.45104 33.0766 4.65906 30.2123H4.65679Z" fill="#FCDB00"/>
<path d="M4.49767 30.1441C5.07779 28.754 5.73755 27.3981 6.44052 26.0673C7.1253 24.725 7.91699 23.4396 8.70869 22.1588C10.3399 19.6222 12.1826 17.2152 14.2347 14.9857C16.289 12.7585 18.5526 10.7087 21.0119 8.89784C21.633 8.45422 22.2381 7.98329 22.8888 7.58517L23.8534 6.96409C24.1764 6.75707 24.4949 6.54549 24.8271 6.35667C25.4845 5.96309 26.1557 5.59227 26.8314 5.23282L27.8528 4.70274L28.8925 4.20679C29.2383 4.03844 29.5909 3.88602 29.9435 3.73587C30.2962 3.58572 30.6488 3.42874 31.0037 3.28314L32.0798 2.86454L32.6189 2.65524L33.1649 2.46642L34.2592 2.08877C34.6232 1.95909 34.9963 1.86354 35.3671 1.75207L36.4796 1.42902L37.6057 1.15602C37.9811 1.06729 38.3565 0.964917 38.7364 0.892117L39.8785 0.678267C40.2607 0.612293 40.6383 0.525842 41.0228 0.475792L42.1762 0.321093C42.5607 0.275593 42.9452 0.211892 43.3319 0.184592L44.4922 0.0981425C44.8789 0.0708425 45.2657 0.0367175 45.6547 0.0185175L46.8195 0.00259248C49.9271 -0.0315325 53.0439 0.271042 56.0833 0.921692C59.1181 1.59282 62.0825 2.59154 64.8898 3.91104C67.6972 5.23282 70.3453 6.86399 72.7954 8.73177C73.1094 8.95699 73.3983 9.21179 73.6986 9.45067C73.9966 9.69409 74.2992 9.93297 74.5904 10.1832C75.1637 10.6951 75.7552 11.1865 76.3058 11.7234C77.4342 12.7653 78.492 13.8778 79.509 15.0176C79.766 15.302 80.014 15.5909 80.2597 15.8821C80.51 16.171 80.7511 16.4645 80.9923 16.7557L81.7134 17.6452L82.4164 18.5507C83.3378 19.7701 84.1841 21.0372 84.9985 22.3249C86.5956 24.9161 87.9879 27.6279 89.1345 30.4375C90.2765 33.2472 91.2025 36.1501 91.8326 39.1189L91.8986 39.3965L91.9487 39.6763L92.0488 40.236L92.2467 41.3575C92.3991 42.1015 92.4719 42.8568 92.5629 43.6121C92.779 45.1158 92.8132 46.6355 92.9155 48.153C93.0816 54.2113 92.3127 60.3401 90.3675 66.1619C88.427 71.9699 85.2192 77.455 80.8216 81.8639C76.4445 86.2911 70.914 89.5807 64.9922 91.4985C64.2483 91.7238 63.5089 91.974 62.7536 92.1606L61.6252 92.4586L60.4877 92.7134L59.9189 92.8408L59.3456 92.9477L58.199 93.1593L57.0479 93.3322C56.6634 93.3913 56.2789 93.4459 55.8945 93.4846L54.7388 93.6143L53.5808 93.7098L53.0007 93.7553L52.4205 93.7849C52.0338 93.8031 51.647 93.8281 51.2603 93.8418C49.7133 93.8918 48.1663 93.8827 46.6238 93.8213C43.5367 93.6916 40.4654 93.3208 37.4306 92.7361C36.673 92.5883 35.9131 92.4267 35.1692 92.2516C34.4321 92.0787 33.695 91.9035 32.9488 91.7169C31.461 91.3416 29.9686 90.9207 28.4989 90.4293C25.5619 89.4397 22.6817 88.2225 19.9608 86.6915C17.2377 85.1672 14.6624 83.354 12.3441 81.2474C7.70314 77.0364 4.16551 71.6514 2.17944 65.7865C1.17844 62.8586 0.525516 59.8305 0.232041 56.7866L0.122845 55.6445L0.0591383 54.5002L0.0272989 53.9292L0.01819 53.3582L0 52.2161C0.01365 50.6941 0.0682439 49.1767 0.207019 47.6684C0.229769 47.2907 0.282094 46.9154 0.320769 46.5377C0.361719 46.1623 0.398125 45.7847 0.455 45.4116L0.607421 44.2877L0.787141 43.1684C1.04649 41.6806 1.34452 40.2018 1.70397 38.7367C2.0657 37.2739 2.46609 35.8202 2.93702 34.3892C3.40112 32.956 3.90844 31.5364 4.49767 30.1509V30.1441ZM4.81162 30.276C3.67412 33.0401 2.80961 35.918 2.19081 38.8414C1.57656 41.7648 1.20348 44.7405 1.12385 47.7139L1.10337 48.8286C1.10337 49.1995 1.11475 49.5726 1.1193 49.9434C1.12385 50.3142 1.13294 50.685 1.15569 51.0559L1.21484 52.1661L1.31722 53.2717L1.36954 53.8245L1.44234 54.3751L1.58795 55.4739L1.77677 56.5636C2.27955 59.4688 3.14859 62.2898 4.29519 64.9652C4.56364 65.6432 4.90034 66.2893 5.21202 66.9445C5.36217 67.2743 5.54416 67.5906 5.71934 67.9068L6.2426 68.86C6.61798 69.4811 7.00245 70.0931 7.3892 70.705L8.00799 71.5968C8.21729 71.8926 8.41067 72.1974 8.63589 72.4795C9.48902 73.6443 10.4286 74.7409 11.4114 75.7919C12.3896 76.8453 13.4339 77.8372 14.5304 78.7631C16.7212 80.6218 19.1123 82.2416 21.6534 83.5997C24.1969 84.9534 26.8746 86.0704 29.6364 86.9622C31.0196 87.4013 32.4165 87.8062 33.8406 88.1588C34.5504 88.3363 35.2739 88.5069 35.9973 88.6753C36.7139 88.8413 37.4215 88.9938 38.1358 89.1394C40.9932 89.7081 43.8938 90.0744 46.8013 90.2564C48.255 90.3383 49.711 90.3724 51.1647 90.3497C51.5287 90.3428 51.8905 90.3269 52.2545 90.3155L52.7982 90.2973L53.3419 90.2632L54.4294 90.1927L55.5123 90.088C55.874 90.0585 56.2334 90.013 56.5929 89.9652L57.6712 89.8264L58.7428 89.6512L59.2797 89.5625L59.812 89.4556L60.8767 89.2417L61.93 88.9869C62.6376 88.83 63.3246 88.6116 64.0208 88.4182C69.549 86.7506 74.6769 83.8477 78.9129 79.8938C81.0196 77.9077 82.9237 75.6987 84.5504 73.2803C86.1838 70.8666 87.5306 68.2503 88.6112 65.518C89.6805 62.7812 90.4881 59.9261 91.0045 57.0141C91.2639 55.5581 91.4664 54.0884 91.5915 52.612C91.7143 51.1332 91.7621 49.6545 91.7576 48.1643C91.7212 45.2 91.4231 42.238 90.8248 39.3282L90.3152 37.1602C90.1196 36.4435 89.8943 35.736 89.685 35.0239C89.6304 34.8465 89.5827 34.6668 89.5235 34.4916L89.3347 33.9683L88.9548 32.9218C88.7159 32.2189 88.4042 31.5432 88.1221 30.8584C86.9437 28.1352 85.499 25.5304 83.8292 23.0847C82.9761 21.8744 82.0934 20.6892 81.1447 19.5585L80.4235 18.719C80.1755 18.4437 79.9344 18.1707 79.6796 17.9C79.4271 17.6293 79.1723 17.3563 78.9152 17.0924C78.6604 16.8239 78.4033 16.56 78.1394 16.303C73.9762 12.1329 69.0735 8.76134 63.725 6.50454C61.0542 5.36932 58.2809 4.50482 55.4486 3.90649C52.6116 3.33319 49.7247 3.03744 46.8309 3.02379L45.7457 3.01697C45.384 3.02607 45.0222 3.04882 44.6605 3.06474L43.5753 3.11479C43.2136 3.13072 42.8542 3.18304 42.4924 3.21489L41.4095 3.31727C41.0478 3.34912 40.6906 3.41737 40.3312 3.46287L39.2528 3.61984C38.8934 3.67672 38.5385 3.75407 38.179 3.81777C35.3216 4.36604 32.4847 5.13044 29.7502 6.20197C28.3761 6.72067 27.0315 7.31672 25.7098 7.96509C24.4062 8.64532 23.0981 9.33009 21.8559 10.1309C19.3534 11.6961 16.9965 13.5206 14.8557 15.5886C12.7127 17.6498 10.7858 19.9498 9.09545 22.4113C8.26735 23.6535 7.47337 24.9229 6.76357 26.2379C6.0515 27.5528 5.39857 28.8996 4.81389 30.276H4.81162Z" fill="black"/>
<path d="M81.1039 46.4649C80.3918 46.2875 79.7685 46.0122 79.1656 45.7187C78.5673 45.4207 78.0053 45.0817 77.4684 44.7177C76.9315 44.3537 76.4242 43.9579 75.9374 43.5415C75.4482 43.1275 74.9955 42.6748 74.6179 42.1447C73.8535 41.0914 73.3302 39.7855 72.4794 38.8232C71.6399 37.8495 70.582 37.1056 69.4149 36.4754C68.8371 36.1546 68.2501 35.8452 67.7019 35.4926C67.149 35.1445 66.6463 34.7464 66.1344 34.3551C65.1106 33.5748 64.0823 32.799 63.1974 31.8731C62.7515 31.4135 62.3306 30.9289 61.9279 30.4239C61.5207 29.9234 61.1339 29.4024 60.7654 28.861C60.3968 28.3218 60.0442 27.7621 59.7212 27.1752C59.3981 26.586 59.0933 25.9785 58.8498 25.3074C58.8112 25.2028 58.8658 25.0845 58.9704 25.0458C59.0136 25.0299 59.0591 25.0299 59.1001 25.0435C59.7826 25.2528 60.4059 25.5258 61.0111 25.8193C61.614 26.1128 62.1895 26.4358 62.7492 26.7771C63.3066 27.1183 63.848 27.4778 64.369 27.86C64.8945 28.2353 65.3996 28.6335 65.8819 29.0543C66.851 29.8915 67.6791 30.8789 68.5095 31.8617C68.9258 32.3531 69.349 32.8354 69.7243 33.37C70.1043 33.9001 70.4432 34.4711 70.7936 35.0308C71.4806 36.166 72.2769 37.1829 73.2938 37.9723C74.2971 38.7731 75.628 39.2304 76.72 39.9402C77.2682 40.2928 77.7437 40.7183 78.1828 41.1869C78.6241 41.651 79.0427 42.1401 79.434 42.6566C79.8253 43.173 80.1893 43.719 80.5192 44.3014C80.8445 44.8883 81.1494 45.4958 81.3632 46.1987C81.3974 46.3102 81.3337 46.4262 81.2245 46.4604C81.1881 46.4717 81.1471 46.4717 81.113 46.4626L81.1039 46.4649Z" fill="black"/>
<path d="M53.394 46.672C53.6079 45.969 53.9127 45.3616 54.2381 44.7746C54.5679 44.1922 54.932 43.6485 55.3233 43.1298C55.7146 42.6134 56.1332 42.1265 56.5745 41.6601C57.0113 41.1915 57.4891 40.7638 58.0373 40.4134C59.1293 39.7036 60.4602 39.2464 61.4635 38.4456C62.4781 37.6561 63.2766 36.6392 63.9637 35.504C64.3118 34.9421 64.653 34.371 65.033 33.8432C65.4083 33.3086 65.8315 32.8263 66.2478 32.3349C67.0782 31.3521 67.9063 30.3648 68.8754 29.5276C69.3577 29.1067 69.8628 28.7086 70.3883 28.3332C70.9093 27.951 71.4484 27.5915 72.0081 27.2503C72.5655 26.909 73.1433 26.586 73.7462 26.2925C74.3513 25.999 74.9747 25.726 75.6572 25.5167C75.7641 25.4826 75.8779 25.544 75.912 25.651C75.9257 25.6942 75.9234 25.7397 75.9097 25.7806C75.6663 26.4518 75.3614 27.0592 75.0384 27.6484C74.7131 28.2354 74.3627 28.795 73.9942 29.3342C73.6256 29.8734 73.2389 30.3966 72.8316 30.8971C72.429 31.4022 72.0058 31.8867 71.5622 32.3463C70.6772 33.2722 69.6489 34.048 68.6252 34.8283C68.1133 35.2196 67.6105 35.6177 67.0577 35.9658C66.5094 36.3184 65.9225 36.6278 65.3446 36.9486C64.1775 37.5765 63.1197 38.3227 62.2802 39.2964C61.4293 40.2587 60.9038 41.5646 60.1417 42.6179C59.7618 43.148 59.3113 43.6007 58.8222 44.0148C58.3354 44.4311 57.828 44.8247 57.2911 45.1909C56.7542 45.5549 56.1923 45.8916 55.594 46.1919C54.9911 46.4877 54.37 46.7607 53.6557 46.9381C53.5442 46.9654 53.4305 46.8972 53.4032 46.7857C53.3941 46.747 53.3963 46.7084 53.4054 46.6742L53.394 46.672Z" fill="black"/>
<path d="M39.2758 46.4649C38.5637 46.2875 37.9404 46.0122 37.3375 45.7187C36.7392 45.4207 36.1772 45.0817 35.6403 44.7177C35.1034 44.3537 34.5961 43.9579 34.1093 43.5415C33.6201 43.1275 33.1674 42.6748 32.7897 42.1447C32.0253 41.0914 31.5021 39.7855 30.6513 38.8232C29.8118 37.8495 28.7539 37.1056 27.5868 36.4754C27.009 36.1546 26.422 35.8452 25.8738 35.4926C25.3209 35.1445 24.8181 34.7464 24.3063 34.3551C23.2825 33.5748 22.2542 32.799 21.3693 31.8731C20.9234 31.4135 20.5025 30.9289 20.0998 30.4239C19.6926 29.9234 19.3058 29.4024 18.9373 28.861C18.5687 28.3218 18.2161 27.7621 17.893 27.1752C17.57 26.586 17.2651 25.9785 17.0217 25.3074C16.983 25.2028 17.0377 25.0845 17.1423 25.0458C17.1855 25.0299 17.231 25.0299 17.272 25.0435C17.9545 25.2528 18.5778 25.5258 19.183 25.8193C19.7858 26.1128 20.3614 26.4358 20.9211 26.7771C21.4784 27.1183 22.0199 27.4778 22.5409 27.86C23.0664 28.2353 23.5715 28.6335 24.0538 29.0543C25.0229 29.8915 25.851 30.8789 26.6814 31.8617C27.0977 32.3531 27.5209 32.8354 27.8962 33.37C28.2762 33.9001 28.6151 34.4711 28.9655 35.0308C29.6525 36.166 30.4488 37.1829 31.4657 37.9723C32.469 38.7731 33.7999 39.2304 34.8919 39.9402C35.4401 40.2928 35.9156 40.7183 36.3547 41.1869C36.796 41.651 37.2146 42.1401 37.6059 42.6566C37.9972 43.173 38.3612 43.719 38.6911 44.3014C39.0164 44.8883 39.3213 45.4958 39.5351 46.1987C39.5692 46.3102 39.5056 46.4262 39.3964 46.4604C39.36 46.4717 39.319 46.4717 39.2849 46.4626L39.2758 46.4649Z" fill="black"/>
<path d="M11.5659 46.672C11.7798 45.969 12.0846 45.3616 12.4099 44.7746C12.7398 44.1922 13.1038 43.6485 13.4951 43.1298C13.8864 42.6134 14.305 42.1265 14.7464 41.6601C15.1832 41.1915 15.6609 40.7638 16.2092 40.4134C17.3012 39.7036 18.6321 39.2464 19.6354 38.4456C20.65 37.6561 21.4485 36.6392 22.1356 35.504C22.4836 34.9421 22.8249 34.371 23.2048 33.8432C23.5802 33.3086 24.0033 32.8263 24.4197 32.3349C25.25 31.3521 26.0781 30.3648 27.0473 29.5276C27.5296 29.1067 28.0346 28.7086 28.5602 28.3332C29.0811 27.951 29.6203 27.5915 30.18 27.2503C30.7373 26.909 31.3152 26.586 31.9181 26.2925C32.5232 25.999 33.1466 25.726 33.8291 25.5167C33.936 25.4826 34.0497 25.544 34.0839 25.651C34.0975 25.6942 34.0952 25.7397 34.0816 25.7806C33.8382 26.4518 33.5333 27.0592 33.2103 27.6484C32.8849 28.2354 32.5346 28.795 32.166 29.3342C31.7975 29.8734 31.4107 30.3966 31.0035 30.8971C30.6008 31.4022 30.1777 31.8867 29.7341 32.3463C28.8491 33.2722 27.8208 34.048 26.797 34.8283C26.2852 35.2196 25.7824 35.6177 25.2296 35.9658C24.6813 36.3184 24.0943 36.6278 23.5165 36.9486C22.3494 37.5765 21.2915 38.3227 20.4521 39.2964C19.6012 40.2587 19.0757 41.5646 18.3136 42.6179C17.9337 43.148 17.4832 43.6007 16.9941 44.0148C16.5072 44.4311 15.9999 44.8247 15.463 45.1909C14.9261 45.5549 14.3642 45.8916 13.7658 46.1919C13.163 46.4877 12.5419 46.7607 11.8275 46.9381C11.7161 46.9654 11.6023 46.8972 11.575 46.7857C11.5659 46.747 11.5682 46.7084 11.5773 46.6742L11.5659 46.672Z" fill="black"/>
<path d="M22.9137 58.2858C23.8943 57.9241 24.8748 57.6943 25.8576 57.4918C26.8381 57.2962 27.8186 57.1529 28.8014 57.0505C29.782 56.9458 30.7625 56.8776 31.7453 56.8457C32.7258 56.8093 33.7063 56.8253 34.6891 56.9504C36.6502 57.1847 38.6135 57.7739 40.5746 57.8831C41.5551 57.9491 42.5356 57.9241 43.5184 57.8558C44.4989 57.7899 45.4795 57.6352 46.4623 57.4714C47.4428 57.3053 48.4233 57.1256 49.4061 57.0027C50.3866 56.8753 51.3672 56.8162 52.35 56.7479C54.311 56.6091 56.2743 56.4635 58.2377 56.5227C59.2182 56.55 60.1987 56.6091 61.1815 56.6979C62.162 56.7798 63.1426 56.8912 64.1254 57.0277C65.1059 57.1642 66.0864 57.328 67.0692 57.5305C68.0497 57.7353 69.0303 57.965 70.0131 58.2835C70.1132 58.3154 70.1678 58.4246 70.1359 58.5247C70.1154 58.5838 70.0677 58.6293 70.0131 58.6475C69.0325 58.966 68.052 59.1958 67.0692 59.4006C66.0887 59.603 65.1082 59.7668 64.1254 59.9033C63.1448 60.0398 62.1643 60.1513 61.1815 60.2332C60.201 60.3219 59.2205 60.3811 58.2377 60.4084C56.2766 60.4675 54.3133 60.3219 52.35 60.1832C51.3694 60.1126 50.3889 60.0558 49.4061 59.9284C48.4256 59.8055 47.4428 59.6258 46.4623 59.4597C45.4817 59.2982 44.5012 59.1412 43.5184 59.0752C42.5379 59.007 41.5574 58.982 40.5746 59.0479C38.6135 59.1571 36.6502 59.7464 34.6891 59.9807C33.7086 60.1058 32.7281 60.1217 31.7453 60.0853C30.7648 60.0535 29.7842 59.9852 28.8014 59.8806C27.8209 59.7759 26.8404 59.6349 25.8576 59.4392C24.8771 59.239 23.8965 59.007 22.9137 58.6453C22.8136 58.6089 22.7613 58.4974 22.7977 58.3973C22.8182 58.3427 22.8614 58.3017 22.9137 58.2813V58.2858Z" fill="black"/>
</svg>
