<svg width="95" height="94" viewBox="0 0 95 94" fill="none" xmlns="http://www.w3.org/2000/svg">
<path d="M1.69431 37.5332C6.84264 16.4736 24.7583 7.4418 27.1584 6.28155C31.5332 4.16808 44.2027 -1.10992 59.568 3.09883C77.5246 8.01738 85.9057 22.2612 87.637 25.3802C89.5002 28.7358 96.5709 41.9354 92.5555 57.5009C87.4027 77.48 67.2325 88.7617 50.3088 90.7773C46.0636 91.2824 25.2883 93.7599 10.9558 78.3354C-3.96816 62.2761 0.936737 40.6409 1.69659 37.5355L1.69431 37.5332Z" fill="#FCDB00"/>
<path d="M1.52847 37.4923C2.97765 31.6387 5.48925 26.049 8.9518 21.0668C10.6853 18.5802 12.6305 16.2279 14.7758 14.0598C16.9279 11.8985 19.2553 9.90108 21.7623 8.12886C23.0181 7.24616 24.3126 6.41352 25.6639 5.65139C27.0289 4.88244 28.4144 4.23178 29.8386 3.62208C30.1935 3.46966 30.5529 3.33089 30.9124 3.18756L31.4515 2.97599L31.9975 2.78034L33.0895 2.39131L34.1952 2.04097C35.6717 1.58142 37.1754 1.20832 38.6929 0.889819C41.73 0.275569 44.8354 -0.0315614 47.9407 0.00256362C51.0461 0.0321386 54.1469 0.39841 57.175 1.06498C57.9257 1.25608 58.6765 1.45174 59.4249 1.64966C59.6115 1.69971 59.8003 1.74521 59.9846 1.80208L60.5374 1.97954L61.6431 2.33444L62.7328 2.73029L63.2765 2.92821L63.8134 3.14662L64.8849 3.58569L65.9383 4.06571C67.3351 4.72319 68.7047 5.43299 70.0219 6.23151C71.3414 7.02094 72.6268 7.86951 73.8507 8.79089C75.0792 9.70771 76.2645 10.6791 77.4043 11.6983C78.5395 12.7221 79.6247 13.7959 80.6598 14.9152C81.6949 16.0345 82.6845 17.1902 83.6196 18.3891C84.5614 19.5812 85.4396 20.8234 86.2722 22.0951C89.571 27.2047 91.9802 32.8581 93.3543 38.7868C93.6933 40.2701 93.9594 41.7716 94.1437 43.2844C94.3371 44.7973 94.4554 46.3216 94.4895 47.8504C94.5236 49.3792 94.4554 50.9125 94.3234 52.4413C94.262 53.2057 94.1551 53.9656 94.0527 54.7277C93.923 55.4853 93.807 56.2451 93.6341 56.9959C93.4908 57.7534 93.2792 58.4928 93.0904 59.2413C93.0017 59.6167 92.8811 59.9829 92.7651 60.3515L92.4193 61.4571L92.0211 62.5446C91.8846 62.9063 91.7641 63.2749 91.6048 63.6275C91.2977 64.3373 91.0156 65.0585 90.6652 65.7478L90.1602 66.7943L89.6074 67.8158C89.2502 68.5051 88.8316 69.1557 88.4335 69.8223C88.2378 70.1567 88.0058 70.4684 87.7942 70.7937C87.5758 71.1122 87.3642 71.4398 87.1367 71.7538L86.4451 72.6865L86.097 73.1529L85.7308 73.6034C83.797 76.0285 81.5994 78.2375 79.2129 80.21C76.8287 82.1869 74.2716 83.9478 71.5825 85.472C68.8958 87.0008 66.093 88.3272 63.1946 89.4078C61.75 89.9606 60.2735 90.427 58.7902 90.8683C58.0417 91.0663 57.3001 91.2892 56.5425 91.4598C56.1649 91.5486 55.7895 91.6441 55.4118 91.7283L54.2721 91.9649C48.191 93.1684 41.9279 93.4095 35.7558 92.5791C34.2157 92.3607 32.6823 92.0786 31.1626 91.7306C29.6452 91.3688 28.1437 90.9366 26.6649 90.4247C26.2941 90.2996 25.9301 90.154 25.5638 90.022L25.0156 89.8173C24.8336 89.7467 24.6538 89.6671 24.4718 89.5943L23.3889 89.1416L22.3242 88.6479L21.7919 88.4L21.2709 88.1292L20.2312 87.5832L19.2143 86.994L18.707 86.6983L18.211 86.382L17.2237 85.745C16.9006 85.5221 16.5867 85.29 16.2659 85.0648C15.6198 84.6212 15.0192 84.1184 14.4027 83.6361C14.091 83.3995 13.8089 83.1265 13.5132 82.8717C13.222 82.6124 12.9239 82.3576 12.6373 82.0937L11.7978 81.2769C11.518 81.0062 11.2382 80.7332 10.9788 80.442C8.83577 78.1784 6.98165 75.6577 5.44375 72.9732C5.239 72.6456 5.07292 72.2952 4.89092 71.954C4.71347 71.6105 4.5292 71.2715 4.35857 70.9257L3.87172 69.8746L3.6283 69.3491C3.55095 69.1717 3.48042 68.9919 3.40762 68.8145L2.9731 67.7452C2.83205 67.3881 2.71147 67.0218 2.57952 66.6623C2.3088 65.9434 2.09722 65.2063 1.86745 64.4761C1.44885 63.0041 1.07802 61.5186 0.820948 60.0171C0.670798 59.2709 0.572973 58.5156 0.456948 57.7648L0.324998 56.6319C0.277223 56.2542 0.240823 55.8766 0.211248 55.4989C-0.0617524 52.4777 -0.0594769 49.4451 0.156648 46.4353C0.272673 44.9315 0.429648 43.43 0.659423 41.9399C0.886923 40.4498 1.15992 38.9665 1.52392 37.5014L1.52847 37.4923ZM1.86062 37.5742C1.51482 39.0279 1.25092 40.5044 1.04845 41.9854C0.859623 43.4687 0.720847 44.9611 0.661697 46.4558C0.597997 47.9505 0.604823 49.4451 0.686723 50.9353C0.716298 51.6815 0.784548 52.4231 0.848248 53.167C0.932423 53.9087 1.01205 54.6481 1.13035 55.3829C1.2259 56.12 1.37832 56.8503 1.51255 57.5805C1.67635 58.304 1.8174 59.0343 2.0176 59.7486C2.37932 61.1864 2.84797 62.5924 3.35757 63.9733C3.63285 64.6581 3.88537 65.3497 4.2016 66.014C4.35402 66.3484 4.49735 66.6874 4.65887 67.0172L5.15482 68C5.239 68.1638 5.31862 68.3276 5.4028 68.4892L5.67352 68.9669L6.2127 69.9224C6.40152 70.2364 6.59945 70.5435 6.79282 70.8529C6.99075 71.16 7.17047 71.4762 7.3866 71.772C10.658 76.6018 14.9805 80.6513 19.9423 83.5497L20.4041 83.8272L20.8796 84.0843L21.8283 84.5984L22.7974 85.0694L23.282 85.306L23.7757 85.5244L24.763 85.9589L25.7686 86.3547C25.9369 86.4207 26.103 86.489 26.2714 86.5504L26.781 86.7278C27.1222 86.8439 27.4589 86.9713 27.8024 87.0805C29.1743 87.5241 30.5688 87.8926 31.9771 88.218C33.3898 88.5251 34.814 88.7708 36.2518 88.9573C41.9984 89.699 47.8907 89.4738 53.6123 88.4546L54.6816 88.2498C55.0365 88.177 55.3914 88.0928 55.7463 88.0155C56.4583 87.8676 57.159 87.6697 57.8666 87.4945C59.268 87.1032 60.6671 86.6892 62.0366 86.1887C64.7871 85.2241 67.4602 84.032 70.0242 82.6442C75.1475 79.8642 79.8294 76.2446 83.6355 71.8448L83.9972 71.4353L84.3407 71.0121L85.0255 70.1636C85.2507 69.8792 85.4578 69.5812 85.6762 69.29C85.8877 68.9942 86.1175 68.7121 86.3132 68.405C86.7136 67.7998 87.1435 67.2083 87.5098 66.5804L88.0786 65.6477L88.6041 64.6899C88.9704 64.0575 89.2661 63.3932 89.5914 62.738C89.7598 62.4126 89.8872 62.0714 90.0351 61.737L90.4628 60.7291L90.8427 59.7008C90.9701 59.3573 91.102 59.0161 91.2044 58.6657C91.4183 57.9673 91.6571 57.2734 91.83 56.5613C92.0302 55.8561 92.1758 55.1372 92.3351 54.4206C92.467 53.6994 92.6081 52.9782 92.7014 52.2479C92.9061 50.7919 93.0312 49.3223 93.0563 47.8481C93.0813 46.3739 93.029 44.8951 92.8947 43.4209C92.7514 41.949 92.5307 40.4816 92.2373 39.0279C91.9438 37.5742 91.5752 36.1341 91.1293 34.7168C90.688 33.2995 90.1761 31.9026 89.5983 30.5308C89.0227 29.159 88.3789 27.819 87.6736 26.5109C86.9752 25.1936 86.2062 23.931 85.369 22.7025C83.7015 20.2455 81.7791 17.9637 79.6679 15.8866C78.61 14.8515 77.5044 13.8664 76.36 12.9337C75.2134 12.0032 74.0145 11.141 72.786 10.3333C71.5598 9.52116 70.2835 8.78634 68.9845 8.10839C67.6877 7.42134 66.35 6.82528 64.9941 6.28383C63.6382 5.73556 62.2528 5.27829 60.8582 4.85514L59.8026 4.57077L59.2748 4.42972C59.0973 4.38649 58.9176 4.35237 58.7402 4.31369C58.0281 4.16354 57.316 4.01111 56.6062 3.85186C53.7443 3.33543 50.8459 3.06016 47.9453 3.06016C45.0447 3.06016 42.1418 3.33089 39.2798 3.86097L38.2106 4.07482C37.8534 4.14534 37.4962 4.21132 37.1436 4.30232C36.4361 4.47749 35.724 4.62764 35.0256 4.83922L33.97 5.12813L32.9257 5.45573L32.4025 5.61954L31.8861 5.79926C31.5425 5.92211 31.1945 6.03586 30.8532 6.16099L29.8295 6.54774C29.4882 6.67969 29.1538 6.82302 28.8148 6.95952C28.4758 7.09829 28.146 7.25071 27.807 7.39176C27.4748 7.53736 27.1495 7.68751 26.8219 7.84448C25.5115 8.47466 24.2239 9.18673 22.9681 9.95113C20.4496 11.4731 18.0495 13.2158 15.8109 15.1541C14.6871 16.1209 13.6201 17.1515 12.585 18.2162L11.8206 19.0284L11.0835 19.8633C10.8332 20.1386 10.5966 20.4252 10.3623 20.7142C10.128 21.0031 9.88682 21.2875 9.65932 21.5809C8.74705 22.7571 7.878 23.9697 7.08857 25.2369C6.88155 25.5463 6.69727 25.8716 6.50617 26.1924C6.31735 26.5131 6.12397 26.8339 5.94425 27.1615L5.41872 28.1511L5.1571 28.6471L4.91367 29.1521L4.4291 30.1645C4.2744 30.5035 4.13562 30.8516 3.98775 31.1951C3.8467 31.5409 3.68745 31.8799 3.56005 32.2325L3.16647 33.2835L2.9731 33.8091L2.80247 34.3437L2.4635 35.4129C2.24737 36.1296 2.06765 36.8553 1.86745 37.5765L1.86062 37.5742Z" fill="black"/>
<path d="M13.2446 36.969C13.3037 36.5823 13.3879 36.2001 13.488 35.8179C13.6063 35.447 13.7496 35.0831 13.8952 34.7168C14.0636 34.3642 14.2456 34.0161 14.4344 33.6703C14.6437 33.3404 14.8644 33.0105 15.0919 32.6875C15.3353 32.3758 15.5947 32.0778 15.8517 31.7752C16.1338 31.4976 16.4114 31.2155 16.7071 30.9494C17.012 30.6968 17.3214 30.4466 17.6467 30.2191C17.9834 30.0098 18.3247 29.805 18.6818 29.6321C19.0481 29.4729 19.4144 29.3205 19.7898 29.1976C20.1742 29.0907 20.5496 28.9747 20.9318 28.8837C21.3208 28.8086 21.6962 28.7153 22.0739 28.638C22.265 28.6038 22.4515 28.5652 22.6403 28.5288C22.8269 28.4878 23.0112 28.4378 23.1977 28.4082C24.681 28.0942 26.1507 27.7712 27.6999 27.5391C28.0867 27.4982 28.478 27.439 28.8716 27.4163C29.2651 27.4049 29.6633 27.3844 30.0591 27.4004C30.4527 27.4322 30.8508 27.4595 31.2444 27.521C31.6334 27.596 32.027 27.6688 32.416 27.7575C33.9676 28.1284 35.4918 28.7313 36.8159 29.6526C38.1354 30.574 39.2751 31.7434 40.1487 33.0674C41.0201 34.3915 41.6434 35.8702 41.855 37.4126C41.8664 37.4877 41.8118 37.5582 41.7367 37.5673C41.6889 37.5742 41.6434 37.5537 41.6138 37.5218C40.5969 36.3775 39.6164 35.3447 38.5631 34.4278C37.5143 33.511 36.4132 32.7125 35.2643 32.0118C34.12 31.3111 32.9484 30.6422 31.6766 30.144C31.3581 30.0234 31.0328 29.9233 30.7098 29.8028C30.3822 29.7049 30.0523 29.6117 29.7224 29.4979C29.3903 29.4047 29.0513 29.3159 28.7123 29.2136C28.3711 29.1294 28.0253 29.0588 27.6726 28.9792C26.2712 28.7017 24.7811 28.754 23.4184 29.2226C23.0771 29.3364 22.7518 29.4979 22.4288 29.6526C22.1103 29.8187 21.8077 30.0234 21.5097 30.2168C21.2162 30.4216 20.9341 30.6468 20.652 30.8538C20.3767 31.0768 20.1105 31.3043 19.833 31.509C19.5668 31.7297 19.3006 31.9481 19.0208 32.1437C18.7546 32.3576 18.4839 32.5646 18.2041 32.7603C17.9425 32.9787 17.6717 33.1902 17.401 33.4018C17.1417 33.627 16.8846 33.8545 16.6116 34.0729C16.3636 34.3118 16.0997 34.5439 15.8358 34.7782C15.5878 35.0262 15.3285 35.2696 15.0646 35.5153C14.8166 35.7724 14.5595 36.0294 14.2888 36.2842C14.0386 36.5527 13.7747 36.8189 13.4812 37.0828L13.4744 37.0896C13.4175 37.1419 13.331 37.1374 13.2787 37.0805C13.2491 37.0486 13.2378 37.0054 13.2446 36.9667V36.969Z" fill="black"/>
<path d="M52.8798 36.969C53.1369 35.4334 53.8057 33.9751 54.718 32.6761C55.6325 31.3771 56.8087 30.2441 58.1555 29.366C59.5069 28.4878 61.0516 27.9327 62.6122 27.6097C63.0058 27.5437 63.3948 27.455 63.7907 27.4095C63.9886 27.389 64.1865 27.3685 64.3845 27.3549C64.5824 27.3412 64.778 27.3185 64.9782 27.3253C65.3764 27.3321 65.7722 27.3344 66.1658 27.3776C66.5594 27.4254 66.9484 27.4664 67.3329 27.5346C68.8753 27.8122 70.3336 28.183 71.8078 28.5424C72.1718 28.6448 72.5472 28.7244 72.9225 28.8086C73.2911 28.911 73.6733 28.9929 74.0555 29.0907C74.4286 29.2045 74.8108 29.3137 75.1862 29.4411C75.5524 29.5844 75.9255 29.7323 76.2804 29.912C76.4533 30.0075 76.6262 30.1054 76.7969 30.21C76.9675 30.3124 77.1381 30.4148 77.2974 30.5331C77.6113 30.7742 77.923 31.0245 78.2119 31.2929C78.4963 31.5705 78.7738 31.8526 79.04 32.146C79.288 32.4577 79.5451 32.7558 79.7726 33.0811C79.991 33.411 80.2048 33.7431 80.4005 34.0843C80.5779 34.437 80.7554 34.7873 80.9078 35.1468C81.042 35.5176 81.1762 35.8861 81.2809 36.2592C81.3696 36.6437 81.4424 37.0282 81.4879 37.4172C81.497 37.4923 81.4424 37.5628 81.3673 37.5719C81.3241 37.5765 81.2832 37.5628 81.2559 37.5355L81.249 37.5287C80.9647 37.2557 80.7076 36.9804 80.4664 36.7052C80.2048 36.4412 79.9523 36.1774 79.7134 35.9112C79.4586 35.6564 79.2038 35.4061 78.9649 35.1513C78.7124 34.9056 78.4508 34.6713 78.2096 34.4233C77.9503 34.1913 77.6932 33.9615 77.4407 33.7294C77.1836 33.5019 76.9106 33.2926 76.6581 33.0629C76.3896 32.849 76.1166 32.6465 75.8596 32.419C75.5934 32.2052 75.3227 31.9959 75.0679 31.7593C74.8017 31.5386 74.531 31.3202 74.2693 31.0791C73.9986 30.8538 73.7142 30.64 73.4321 30.4148C73.1432 30.2055 72.8384 30.0121 72.529 29.8233C72.215 29.6504 71.8851 29.5025 71.553 29.3614C70.2062 28.8496 68.7183 28.7517 67.3078 28.9883C66.9552 29.0407 66.6071 29.1294 66.2636 29.1908C66.0907 29.2181 65.9224 29.2773 65.7517 29.3182C65.5811 29.3592 65.4128 29.4047 65.2444 29.4433C64.9077 29.5252 64.5801 29.639 64.248 29.7163C63.9181 29.8073 63.595 29.9256 63.272 30.0257C61.9866 30.4853 60.7945 31.1177 59.6274 31.7798C58.4581 32.4441 57.332 33.2062 56.2559 34.0912C55.1753 34.9739 54.1629 35.9794 53.1118 37.0919C53.0595 37.1488 52.9731 37.151 52.9162 37.0987C52.8821 37.0669 52.8684 37.0191 52.8752 36.9759L52.8798 36.969Z" fill="black"/>
<path d="M48.9255 50.9489C47.5969 50.6805 46.5345 50.7806 45.6177 51.0991C45.1627 51.2606 44.7509 51.4745 44.3801 51.7361C44.1958 51.868 44.0206 52.0068 43.8409 52.1501L43.5724 52.3708L43.4382 52.4846C43.4018 52.5187 43.3609 52.5528 43.3199 52.5869C43.006 52.8713 42.6806 53.2967 42.4736 53.8154C42.262 54.3296 42.1801 54.9302 42.2757 55.5012C42.3712 56.07 42.6397 56.6114 43.0264 56.9936C43.2198 57.1824 43.4428 57.328 43.6748 57.4122C43.9046 57.4986 44.1435 57.5146 44.3641 57.4918C44.7554 57.4554 45.1035 57.7421 45.1422 58.1356C45.1672 58.3904 45.0535 58.6271 44.8624 58.7727L44.4893 59.0548C44.1298 59.3255 43.8887 59.7191 43.6953 60.1377C43.5065 60.5585 43.3495 61.009 43.2744 61.4708C43.2016 61.9326 43.2175 62.4013 43.2972 62.8062C43.3813 63.2135 43.5133 63.5524 43.6794 63.8209C43.7135 63.88 43.7795 63.9756 43.8409 64.0575C43.9023 64.1439 43.9683 64.2236 44.0365 64.3055C44.173 64.467 44.3232 64.6171 44.487 64.7627C44.8191 65.0425 45.2059 65.2928 45.6518 65.4725C46.5459 65.8388 47.647 65.9503 48.9255 65.6318C49.012 65.609 49.0984 65.6613 49.1189 65.7478C49.1303 65.791 49.1212 65.832 49.1007 65.8684C48.3886 67.0764 46.8666 67.8454 45.2855 67.8112C43.6998 67.793 42.0641 67.0081 41.054 65.6045C40.5126 64.8355 40.26 63.9415 40.2236 63.1065C40.1827 62.2648 40.3283 61.4662 40.5899 60.7246C40.8538 59.9852 41.2383 59.28 41.807 58.7021C42.3667 58.1266 43.122 57.6761 43.9478 57.5259L44.0707 59.0866C43.6657 58.9524 43.304 58.7294 43.0014 58.4769C42.6966 58.2221 42.4486 57.9309 42.2438 57.6306C41.8298 57.0277 41.575 56.3816 41.368 55.7219C41.1655 55.0621 41.0062 54.3773 40.9403 53.6334C40.9084 53.2626 40.9107 52.8781 40.9653 52.4823C41.0176 52.0887 41.1223 51.6815 41.3111 51.2947C42.0209 49.7682 43.6543 48.8832 45.2332 48.79C46.0272 48.7399 46.8189 48.8969 47.5036 49.229C48.1839 49.5657 48.764 50.0731 49.103 50.7101C49.1462 50.7897 49.1143 50.8875 49.0347 50.9307C49.0006 50.9489 48.9619 50.9535 48.9255 50.9467V50.9489Z" fill="black"/>
<path d="M30.669 53.6152C31.422 53.6084 32.1728 53.663 32.9167 53.7767C32.1273 51.9135 31.9953 49.7818 32.5482 47.8344C32.7757 47.0359 33.2511 46.1578 34.0747 46.0531C34.6207 45.9826 35.1621 46.3011 35.4988 46.7379C35.8355 47.1747 36.0062 47.7139 36.1518 48.2439C37.0231 51.4085 37.2733 54.7436 36.8957 58.0037C33.8904 59.6167 30.4483 60.4084 27.0381 60.2696C26.1213 60.2332 25.1817 60.1217 24.3718 59.6895C23.5619 59.2572 22.9044 58.4428 22.8885 57.5259C22.8635 56.0972 24.2876 55.0985 25.6162 54.5798C27.2224 53.9542 28.9446 53.6266 30.669 53.6129V53.6152Z" fill="#FF55AB"/>
<path d="M30.6685 53.5243C31.0462 53.5174 31.4261 53.5311 31.8037 53.5425C32.1814 53.5607 32.5613 53.5811 32.9412 53.613L32.7638 53.8405C32.352 53.0147 32.0153 52.132 31.8151 51.1992C31.6126 50.2665 31.5535 49.2837 31.6832 48.3122C31.7127 48.0665 31.7628 47.8299 31.8151 47.5842C31.8765 47.3272 31.963 47.0746 32.0745 46.8198C32.1882 46.5673 32.3361 46.3148 32.5317 46.0714C32.7274 45.8302 32.989 45.5982 33.3234 45.4366C33.6533 45.2774 34.0423 45.2046 34.4132 45.2455C34.784 45.2819 35.1093 45.423 35.3823 45.5982C35.6576 45.7756 35.8805 45.9986 36.0671 46.2511C36.2445 46.4968 36.3719 46.7539 36.4675 47.0087C36.6586 47.5183 36.7291 47.9892 36.8042 48.4419C36.8815 48.8992 36.943 49.3587 36.993 49.8183C37.1045 50.7351 37.1682 51.6519 37.2319 52.5642C37.3525 54.3888 37.4071 56.2133 37.3365 58.0583C37.332 58.188 37.2615 58.3018 37.1591 58.3677L37.0999 58.4041C36.1899 58.9774 35.2322 59.4939 34.2266 59.917C33.2211 60.3379 32.1677 60.6427 31.0939 60.8566C30.0201 61.075 28.9259 61.1978 27.8248 61.2274C27.2719 61.2388 26.7305 61.2456 26.1481 61.1865C25.5702 61.1341 24.9605 61.0113 24.3577 60.7656C24.2075 60.7064 24.0596 60.6314 23.914 60.554C23.7639 60.4698 23.6183 60.3788 23.4795 60.2787C23.2042 60.0763 22.9494 59.8442 22.731 59.5712C22.2988 59.0366 21.9757 58.32 21.9871 57.5465C21.9962 57.1711 22.0781 56.8003 22.2192 56.4636C22.3625 56.1291 22.5672 55.8425 22.7834 55.5945C23.0063 55.3488 23.252 55.1509 23.5023 54.9734C23.7571 54.8051 24.0187 54.6618 24.2803 54.5389C24.8058 54.2955 25.3632 54.1385 25.8865 54.0225C26.4165 53.9019 26.9512 53.8132 27.4812 53.7427C28.5437 53.5993 29.5993 53.5334 30.6549 53.5265L30.6685 53.5243ZM30.6685 53.7063C29.6266 53.7199 28.5869 53.8996 27.6064 54.2318C27.115 54.3956 26.6418 54.6026 26.1822 54.8301C25.7158 55.0576 25.3018 55.3124 24.9241 55.6036C24.5533 55.8948 24.2348 56.2292 24.0278 56.5637C23.9254 56.7297 23.8572 56.8981 23.8117 57.0528C23.7753 57.2098 23.7684 57.3599 23.7753 57.5101C23.823 58.072 24.3759 58.6976 25.097 58.9547C25.8341 59.2527 26.8192 59.3073 27.8248 59.3414C28.8212 59.3619 29.8245 59.3187 30.8187 59.1867C32.8002 58.8978 34.7885 58.4246 36.6768 57.6056L36.4425 57.9514C36.786 56.2042 36.8747 54.3933 36.654 52.6165C36.5494 51.7293 36.3469 50.8534 36.0944 49.998C35.9624 49.5726 35.8237 49.1494 35.6712 48.7331C35.5211 48.3122 35.3641 47.9027 35.1844 47.5865C35.0957 47.4273 34.9956 47.2908 34.8909 47.1816C34.7954 47.0792 34.6771 46.995 34.5656 46.9381C34.4541 46.879 34.3449 46.8562 34.2653 46.854C34.1857 46.8471 34.1151 46.8744 34.0401 46.9086C33.8899 46.9723 33.6806 47.2043 33.5214 47.5137C33.4372 47.6661 33.3644 47.839 33.2984 48.0165C33.2302 48.2053 33.1665 48.4055 33.1096 48.6057C32.8798 49.4042 32.7183 50.246 32.6955 51.115C32.6728 51.9795 32.7797 52.8713 33.0686 53.7131L33.0755 53.7358C33.1028 53.8177 33.0595 53.9087 32.9776 53.936C32.9481 53.9451 32.9185 53.9474 32.8912 53.9406C32.5272 53.8587 32.1586 53.7973 31.7878 53.7609C31.417 53.7199 31.0416 53.7085 30.6685 53.7085V53.7063Z" fill="black"/>
<path d="M12.9783 48.3463C13.6972 48.5693 14.3979 48.8468 15.0713 49.1813C14.8847 47.1679 15.4057 45.0953 16.5204 43.4073C16.9777 42.7157 17.6989 42.0241 18.5156 42.172C19.0571 42.2721 19.4757 42.7385 19.6645 43.2549C19.8533 43.7713 19.851 44.3378 19.8306 44.8883C19.7009 48.1689 18.9297 51.4221 17.5806 54.4138C14.2272 55.0394 10.7078 54.7504 7.50007 53.5856C6.63785 53.2717 5.77562 52.8827 5.13407 52.2252C4.4948 51.5677 4.1126 50.5918 4.3765 49.7136C4.786 48.3463 6.44447 47.8254 7.86862 47.7344C9.58852 47.6252 11.3289 47.8367 12.976 48.3463H12.9783Z" fill="#FF55AB"/>
<path d="M13.0013 48.2712C13.3653 48.3782 13.7224 48.501 14.0796 48.6284C14.4345 48.7581 14.7894 48.8946 15.142 49.0425L14.9191 49.1972C14.7826 48.2872 14.7439 47.3453 14.8463 46.4012C14.9441 45.4571 15.1944 44.513 15.6039 43.628C15.7062 43.405 15.8223 43.1935 15.9451 42.9751C16.0793 42.7498 16.2318 42.5337 16.4115 42.3244C16.5935 42.1174 16.8028 41.9194 17.0599 41.7443C17.3147 41.5714 17.6286 41.4235 17.9926 41.3666C18.3521 41.3098 18.7479 41.3439 19.096 41.4872C19.4441 41.626 19.7262 41.8535 19.9468 42.0992C20.1675 42.3494 20.3336 42.627 20.4542 42.9296C20.5679 43.223 20.6271 43.5119 20.6612 43.7895C20.7272 44.3491 20.6908 44.8315 20.6612 45.291C20.6362 45.7574 20.5793 46.2215 20.5224 46.6856C20.4064 47.6115 20.2312 48.5283 20.006 49.4315C19.7853 50.3347 19.5123 51.2265 19.1824 52.0932C18.8503 52.96 18.4544 53.7995 18.0176 54.614L17.9858 54.6731C17.9198 54.796 17.797 54.871 17.6696 54.887C15.522 55.1213 13.388 55.0485 11.2836 54.7846C10.2303 54.6526 9.17698 54.4752 8.13048 54.2318C7.60723 54.1066 7.08853 53.9792 6.56073 53.7927C6.0352 53.6107 5.50513 53.3582 5.016 52.9964C4.77485 52.8167 4.54053 52.6006 4.33805 52.3503C4.14013 52.1001 3.96495 51.8271 3.83755 51.5268C3.57593 50.9353 3.48038 50.205 3.6965 49.5157C3.8057 49.1813 3.9786 48.8673 4.197 48.6011C4.41768 48.335 4.68158 48.1302 4.9523 47.9596C5.2253 47.7935 5.5074 47.6775 5.79178 47.5819C6.07615 47.4955 6.36053 47.4341 6.6449 47.3908C7.2091 47.3089 7.78013 47.318 8.31248 47.3567C8.85165 47.3954 9.38628 47.4614 9.9118 47.5478C10.9651 47.7184 11.9934 47.9664 13.0013 48.2712ZM12.9535 48.4237C11.957 48.112 10.9151 47.9573 9.87768 47.9619C9.35898 47.9619 8.84255 48.0074 8.33295 48.0756C7.81653 48.1416 7.33878 48.2485 6.87923 48.4032C6.42423 48.5602 6.00563 48.7718 5.6803 49.0288C5.51878 49.1585 5.38683 49.2996 5.2799 49.4452C5.1798 49.5953 5.11155 49.7523 5.05695 49.9183C4.97505 50.2391 5.00235 50.6122 5.14795 50.9831C5.22075 51.1651 5.31175 51.3493 5.43005 51.5177C5.54153 51.6883 5.68258 51.843 5.8441 52C6.4811 52.6142 7.42523 53.0579 8.37618 53.4514C9.33168 53.8336 10.3281 54.1362 11.3519 54.2955C12.3756 54.457 13.4153 54.507 14.4482 54.4433C15.481 54.3796 16.5025 54.1999 17.4921 53.9428L17.144 54.2158C17.4489 53.3809 17.7082 52.5323 17.9403 51.6815C18.1746 50.8306 18.3771 49.9752 18.5386 49.1107C18.6979 48.2462 18.8116 47.3772 18.8867 46.5058C18.9231 46.069 18.9458 45.6323 18.964 45.1955C18.9845 44.7518 18.9982 44.3264 18.9595 43.9874C18.8958 43.2981 18.5022 42.9227 18.2224 42.9682C18.054 42.9705 17.7719 43.1252 17.5171 43.3686C17.3852 43.4869 17.2601 43.6302 17.1418 43.7781C17.0189 43.9374 16.8938 44.1103 16.7755 44.2832C16.3046 44.9748 15.9042 45.7392 15.6266 46.565C15.3536 47.3885 15.1966 48.2735 15.2239 49.1631V49.1835C15.2262 49.2654 15.1625 49.336 15.0783 49.3382C15.0488 49.3382 15.0215 49.3314 14.9987 49.3178C14.6757 49.1312 14.3435 48.9606 14 48.8127C13.6587 48.6603 13.3061 48.5329 12.9512 48.4191L12.9535 48.4237Z" fill="black"/>
</svg>
