<svg width="97" height="97" viewBox="0 0 97 97" fill="none" xmlns="http://www.w3.org/2000/svg">
<path d="M0.955478 58.7546C-1.64485 45.4481 3.1213 34.9945 5.2962 30.3967C6.90917 26.9888 17.5516 5.48549 40.8886 1.74994C54.7388 -0.465905 65.5064 4.78251 68.6686 6.37956C86.8641 15.5683 92.3422 33.2791 93.2659 36.4732C94.5626 40.9595 98.3755 54.9394 91.2411 69.4607C81.9159 88.4388 61.5729 92.7181 57.9647 93.4779C55.0755 94.0854 33.3333 98.2873 16.0069 83.6386C13.1995 81.2657 3.75146 73.0325 0.960033 58.7523L0.955478 58.7546Z" fill="#FCDB00"/>
<path d="M0.789418 58.7864L0.409511 56.4978C0.304861 55.7311 0.243409 54.9599 0.154684 54.1909L0.122859 53.902L0.106918 53.6131L0.0750928 53.033L0.0136633 51.8727L0 51.5838V51.2926L0.00227722 50.7125V49.55C0.0500522 46.4491 0.464107 43.3574 1.14433 40.3225C1.82228 37.2854 2.80509 34.3097 3.99719 31.4296C4.29294 30.7084 4.59547 29.9986 4.91624 29.2797C5.23929 28.5653 5.58059 27.8601 5.93094 27.1594C6.64302 25.7625 7.40283 24.3907 8.2241 23.053C9.86893 20.3799 11.7185 17.8205 13.7933 15.4409C15.8795 13.0726 18.1636 10.8545 20.6888 8.91843C23.2095 6.98468 25.9191 5.26707 28.8197 3.9271C31.7089 2.57347 34.7574 1.54746 37.8765 0.896808L38.4589 0.767118L39.0481 0.667031L40.2266 0.473634C40.6179 0.400834 41.0137 0.364452 41.4096 0.321227L42.5948 0.19609C43.382 0.0914404 44.1782 0.086906 44.9699 0.041406L45.5637 0.0141071C45.7616 0.00273208 45.9595 -0.00410402 46.1574 0.00272097L47.3473 0.020911C50.5163 0.084611 53.6627 0.49185 56.7271 1.20165C57.1116 1.279 57.4915 1.3882 57.8714 1.4883L59.0089 1.79087L60.1351 2.13439C60.5105 2.24587 60.8858 2.36188 61.2544 2.49383L62.3645 2.87605L63.4611 3.29464C63.8274 3.42886 64.1891 3.58358 64.5486 3.736C64.9103 3.88615 65.2697 4.03629 65.6246 4.20236C67.0533 4.84391 68.4524 5.52871 69.8106 6.29766C71.1893 7.03248 72.4997 7.88333 73.801 8.741C76.3672 10.5132 78.7878 12.4947 80.9786 14.7083C82.082 15.8071 83.1285 16.9628 84.1227 18.1618C85.1169 19.3607 86.0678 20.596 86.9528 21.8791C87.84 23.16 88.6749 24.4772 89.4484 25.8308C90.231 27.1799 90.9568 28.5631 91.6211 29.9758C92.2854 31.3909 92.8928 32.8333 93.4365 34.3052C93.7072 35.04 93.9598 35.7907 94.1896 36.5347C94.4216 37.2763 94.6445 38.0293 94.8493 38.7846C95.6751 41.8081 96.2461 44.9158 96.5169 48.0621C96.6488 49.6364 96.708 51.2175 96.6829 52.8032C96.6511 54.3889 96.5396 55.9745 96.3349 57.5534C96.1324 59.1322 95.8435 60.702 95.4567 62.249C95.0745 63.7983 94.6036 65.3271 94.0371 66.8217C93.9029 67.1994 93.755 67.5702 93.6003 67.9388C93.4456 68.3073 93.3045 68.6827 93.1316 69.0421L92.6334 70.1341L92.0897 71.2034C91.3731 72.6344 90.5336 74.0016 89.6623 75.3484C88.75 76.6657 87.8105 77.9692 86.7549 79.1773C86.2475 79.8006 85.6902 80.3762 85.151 80.97C84.878 81.2635 84.5868 81.5387 84.307 81.8254C84.0226 82.1097 83.7428 82.3941 83.4425 82.6603L82.5574 83.4725C82.2571 83.7364 81.95 83.9934 81.6452 84.2528L81.1879 84.6418L80.717 85.0149C80.4008 85.2606 80.0913 85.5154 79.7706 85.7543C78.492 86.7166 77.1657 87.613 75.8075 88.4525C70.3544 91.7831 64.3143 94.0671 58.0762 95.3138C56.486 95.6255 54.9094 95.8394 53.326 95.9918C51.7426 96.1465 50.1546 96.2261 48.5667 96.2421C46.9787 96.258 45.3908 96.2125 43.8074 96.1056C42.224 95.9918 40.6451 95.7984 39.0754 95.555C38.2928 95.4162 37.5102 95.2843 36.7344 95.1091C36.3454 95.0227 35.9563 94.9499 35.5696 94.852L34.4139 94.5631C32.8806 94.1445 31.3586 93.685 29.873 93.1139C28.3806 92.5679 26.9314 91.9105 25.5073 91.2143C24.099 90.4818 22.709 89.7196 21.385 88.8529C16.0638 85.4153 11.5524 80.9131 7.99888 75.7989C6.23803 73.2304 4.72288 70.5027 3.51031 67.6476C3.21911 66.9287 2.89606 66.2234 2.65491 65.4863L2.26817 64.3921C2.20447 64.2101 2.1362 64.028 2.07705 63.8438L1.91781 63.2864L1.5925 62.1716C1.48785 61.7985 1.36271 61.4323 1.28991 61.0523L0.780309 58.7887L0.789418 58.7864ZM1.12384 58.7205L1.64937 60.9613C1.72672 61.3367 1.8541 61.7007 1.96102 62.0693L2.29549 63.1704L2.46612 63.7186C2.52754 63.9006 2.60032 64.0781 2.66629 64.2578L3.07353 65.3339C3.32605 66.0574 3.66047 66.7489 3.9767 67.4474C5.26207 70.2274 6.87732 72.8482 8.74964 75.2575C8.97942 75.56 9.22965 75.8512 9.4708 76.147C9.7165 76.4382 9.94855 76.7408 10.2079 77.0206C10.7175 77.5871 11.2157 78.1626 11.7549 78.6995C12.8128 79.7938 13.9253 80.8289 15.0878 81.8026C15.6702 82.2849 16.2571 82.7741 16.8668 83.2222L17.7768 83.8979L18.2318 84.2346L18.7028 84.5508C19.3284 84.9717 19.9472 85.3994 20.6001 85.7793L21.5647 86.364L22.552 86.9077C23.8624 87.6403 25.2297 88.2659 26.6016 88.8619C27.9939 89.4148 29.3862 89.9585 30.8194 90.3862C33.67 91.2871 36.6047 91.89 39.5622 92.2881C41.0433 92.4769 42.5311 92.6043 44.0235 92.6862C45.5159 92.759 47.0106 92.7727 48.503 92.7294C51.4832 92.6293 54.4839 92.3382 57.3595 91.7489C63.1972 90.5477 68.8529 88.4024 73.9784 85.4039C79.0995 82.3964 83.5994 78.3719 87.0074 73.533C87.8355 72.309 88.6385 71.0623 89.3279 69.7519L89.8534 68.7714L90.3357 67.7704C90.5018 67.4383 90.6406 67.0948 90.793 66.7581C90.9454 66.4191 91.0933 66.0801 91.2252 65.7343C92.3559 62.9884 93.1203 60.0991 93.6299 57.1644C93.8802 55.6947 94.044 54.2069 94.1327 52.7122C94.2282 51.2175 94.2487 49.716 94.1987 48.2123C94.0895 45.207 93.6936 42.2017 93.0407 39.2419C92.8769 38.5025 92.6971 37.7654 92.506 37.0261C92.3172 36.2867 92.1124 35.5678 91.8849 34.8444C91.4345 33.3997 90.9022 31.9756 90.3061 30.5764C89.7123 29.1773 89.0594 27.801 88.3428 26.4587C87.6194 25.1187 86.8367 23.8106 85.9973 22.5389C82.6485 17.4497 78.2873 13.0066 73.1913 9.66692C71.9082 8.84792 70.6 8.06758 69.2396 7.38508C68.5662 7.03701 67.8792 6.69804 67.1853 6.39091C66.4914 6.07696 65.7953 5.77668 65.0855 5.50368C64.7351 5.36036 64.3756 5.23296 64.0185 5.10328C63.6613 4.97361 63.3064 4.84165 62.9447 4.7279L61.8641 4.37526L60.772 4.05904C60.4103 3.94756 60.0441 3.8543 59.6755 3.76558L58.5744 3.49256L57.462 3.26734C57.0911 3.19454 56.7226 3.11038 56.3495 3.05806C50.3958 2.03203 44.2874 2.24816 38.5044 3.68141C35.6151 4.39803 32.8078 5.41268 30.1301 6.69578C27.4456 7.97206 24.9135 9.55771 22.5179 11.3368C17.7427 14.9176 13.5453 19.3266 10.035 24.261C9.15912 25.4964 8.31965 26.759 7.53477 28.058C7.14575 28.7087 6.76583 29.3639 6.4041 30.0304C6.04465 30.6925 5.69433 31.3795 5.35308 32.062C4.67286 33.427 4.02674 34.8079 3.46254 36.2253C2.90744 37.6426 2.38419 39.0804 1.97924 40.5523C1.13749 43.4848 0.596054 46.5197 0.459554 49.5818C0.443629 50.3462 0.404917 51.1129 0.420842 51.8796L0.461832 53.0284L0.482271 53.604L0.49138 53.8906L0.516429 54.1773C0.593779 54.9394 0.657491 55.7061 0.755316 56.4659L1.12384 58.7387V58.7205Z" fill="black"/>
<path d="M23.0776 33.2678C23.4894 32.36 24.5018 30.1351 26.8792 29.3684C29.1428 28.6381 31.8955 29.4685 33.4107 31.5137C35.4468 34.2574 34.0318 37.5379 33.7997 38.0453C33.5995 38.4866 32.2914 41.4305 29.3157 41.9446C26.1011 42.4997 22.9298 39.8767 22.3929 37.0693C22.0835 35.4495 22.7091 34.0731 23.0754 33.2678H23.0776Z" fill="black"/>
<path d="M28.444 42.1335C25.4546 42.1335 22.7655 39.6105 22.2832 37.0921C21.967 35.4382 22.5972 34.0504 22.9749 33.2223C23.4071 32.2714 24.4195 30.0441 26.8469 29.2615C29.2015 28.5017 32.0021 29.4208 33.5058 31.4478C35.476 34.1005 34.3112 37.2058 33.9085 38.0953C33.433 39.1418 32.0521 41.592 29.3403 42.0607C29.0423 42.113 28.742 42.1357 28.4485 42.138L28.444 42.1335ZM28.5645 29.2206C28.0049 29.2206 27.4475 29.3025 26.9152 29.4754C24.5833 30.2261 23.6005 32.3897 23.1819 33.3133C22.8156 34.1187 22.2059 35.4632 22.5085 37.0466C22.9726 39.474 25.5638 41.9037 28.4417 41.9037C28.7261 41.9037 29.0127 41.881 29.3016 41.8309C31.9065 41.3805 33.2419 39.0099 33.6946 38.0112C34.0927 37.1376 35.2189 34.1323 33.3238 31.5798C32.2182 30.0896 30.3823 29.2206 28.5668 29.2206H28.5645Z" fill="black"/>
<path d="M60.4697 33.2678C60.8815 32.36 61.8939 30.1351 64.2712 29.3684C66.5349 28.6381 69.2876 29.4685 70.8028 31.5137C72.8389 34.2574 71.4238 37.5379 71.1918 38.0453C70.9916 38.4866 69.6835 41.4305 66.7078 41.9446C63.4932 42.4997 60.3219 39.8767 59.785 37.0693C59.4756 35.4495 60.1012 34.0731 60.4675 33.2678H60.4697Z" fill="black"/>
<path d="M65.834 42.1335C62.8447 42.1335 60.1557 39.6105 59.6734 37.0921C59.3572 35.4382 59.9873 34.0504 60.365 33.2223C60.7972 32.2714 61.8096 30.0441 64.237 29.2615C66.5916 28.5017 69.3921 29.4208 70.8959 31.4478C72.8661 34.1005 71.7013 37.2058 71.2986 38.0953C70.8231 39.1418 69.4422 41.592 66.7282 42.0607C66.4301 42.113 66.1298 42.138 65.8363 42.138L65.834 42.1335ZM65.9546 29.2206C65.395 29.2206 64.8376 29.3025 64.3052 29.4754C61.9734 30.2261 60.9906 32.3897 60.572 33.3133C60.2057 34.1187 59.596 35.4632 59.8986 37.0466C60.3627 39.474 62.9539 41.9037 65.8318 41.9037C66.1161 41.9037 66.4028 41.881 66.6917 41.8309C69.2966 41.3805 70.632 39.0099 71.087 38.0112C71.4852 37.1376 72.6113 34.1323 70.7162 31.5798C69.6106 30.0896 67.7746 29.2206 65.9592 29.2206H65.9546Z" fill="black"/>
<path d="M24.959 58.4753C25.3912 58.9508 25.7757 59.4331 26.1602 59.9063C26.5765 60.3613 26.9428 60.8368 27.3432 61.2827L27.9437 61.9447C28.1417 62.1654 28.326 62.3929 28.5421 62.5976C28.7491 62.8069 28.9493 63.023 29.1518 63.2323C29.2519 63.337 29.3543 63.4439 29.4498 63.5508L29.766 63.8534C30.196 64.247 30.5805 64.6815 31.0286 65.0478L31.6679 65.6302C31.8772 65.8281 32.1093 65.9987 32.3277 66.1853C32.5483 66.3696 32.7713 66.5493 32.9874 66.7381C33.2104 66.9178 33.4447 67.0839 33.6631 67.2705C33.8861 67.4502 34.1067 67.6367 34.3251 67.8233C34.5549 67.9939 34.7801 68.1736 35.0053 68.3556C35.2351 68.5285 35.4421 68.7424 35.681 68.9062C35.9108 69.0836 36.1451 69.2565 36.3749 69.4431C36.8276 69.8276 37.3259 70.137 37.815 70.4828L38.1858 70.7376L38.5726 70.9582C38.8319 71.1061 39.0935 71.2494 39.3574 71.3905C39.8875 71.6726 40.4517 71.8682 41.0136 72.0821C41.5824 72.2709 42.1693 72.396 42.754 72.5234C43.0498 72.5735 43.3478 72.6053 43.6458 72.6372C43.9438 72.6713 44.2396 72.7009 44.5376 72.7214C45.1359 72.7214 45.7342 72.7191 46.328 72.6759C46.6238 72.644 46.9195 72.6099 47.213 72.5689L48.0889 72.412C49.2468 72.1685 50.3639 71.8182 51.4468 71.4314C52.5297 71.0401 53.5921 70.6284 54.6136 70.1233C56.6611 69.1109 58.5243 67.7914 60.3603 66.406C62.203 65.0228 63.9729 63.4849 65.711 61.8469C66.5801 61.0279 67.44 60.1816 68.3045 59.3193C69.1713 58.4594 70.0335 57.5744 70.9435 56.6985C71.0186 56.6257 71.1369 56.628 71.2097 56.7031C71.2598 56.7531 71.2734 56.8259 71.2552 56.8896C70.8821 58.1045 70.3884 59.2716 69.8288 60.4068C69.2669 61.542 68.6253 62.6408 67.9132 63.6987C66.4914 65.8145 64.7828 67.7755 62.7831 69.4499C60.7766 71.1175 58.4287 72.4051 55.9467 73.2947C54.7068 73.7406 53.4306 74.1 52.127 74.282C50.8234 74.4686 49.5039 74.4845 48.214 74.4026L47.2494 74.3252C46.9286 74.2843 46.6124 74.2479 46.2939 74.2138C45.9777 74.1751 45.6637 74.1159 45.3498 74.0704C45.0358 74.0295 44.7242 73.9772 44.4102 73.943C43.7891 73.8225 43.1703 73.711 42.5515 73.6086C42.2467 73.5358 41.9396 73.4676 41.6302 73.4039C41.3253 73.3333 41.0091 73.3015 40.7042 73.2173C40.3994 73.1377 40.09 73.0763 39.7828 73.0035C39.4734 72.9375 39.1572 72.8829 38.8524 72.7942C38.5453 72.7145 38.2359 72.6349 37.9219 72.5621L37.451 72.4506L36.9891 72.3141C36.3749 72.123 35.7379 71.957 35.1373 71.7067C34.8325 71.593 34.5322 71.4633 34.2273 71.3404C34.0749 71.279 33.9293 71.2062 33.786 71.1311C33.6404 71.0583 33.4947 70.981 33.3514 70.9036C33.0625 70.7489 32.7758 70.592 32.4937 70.4236C32.2162 70.2507 31.9546 70.0551 31.6884 69.8662C31.4222 69.6751 31.1583 69.484 30.9058 69.2747C30.6601 69.0586 30.4235 68.8334 30.1823 68.615L29.8229 68.2828C29.7 68.1736 29.5841 68.0599 29.4771 67.937L28.8173 67.2159C28.5989 66.9747 28.3828 66.7313 28.1894 66.4697C27.9892 66.2126 27.7936 65.9532 27.6048 65.6893L27.3181 65.298C27.2294 65.1615 27.1452 65.0228 27.0588 64.884C26.8904 64.6064 26.7175 64.3312 26.5537 64.0536C26.2216 63.4985 25.9645 62.9002 25.6892 62.3223C25.621 62.1767 25.5595 62.0289 25.5049 61.8764C25.4481 61.7263 25.3935 61.5739 25.3411 61.4214C25.2319 61.1189 25.1296 60.814 25.0318 60.5114C24.8589 59.8926 24.7315 59.2579 24.6268 58.63C24.6109 58.5276 24.6791 58.4321 24.7815 58.4139C24.8452 58.4025 24.9089 58.4275 24.9498 58.4708L24.9612 58.4821L24.959 58.4753Z" fill="black"/>
</svg>
