<svg width="96" height="96" viewBox="0 0 96 96" fill="none" xmlns="http://www.w3.org/2000/svg">
<path d="M0.978117 55.1673C-2.30471 37.8682 6.03999 24.4867 7.34357 22.4687C17.4855 6.7644 37.2939 -1.69861 56.247 2.21212C81.2538 7.37182 90.5039 31.1251 91.2615 33.1749C92.829 37.4155 99.2126 56.5232 88.0788 73.9747C77.7503 90.1636 58.2581 95.6623 42.647 93.6512C22.2562 91.0259 4.76372 75.1145 0.978117 55.165V55.1673Z" fill="#FCDB00"/>
<path d="M0.809501 55.1991C0.245301 52.1756 -0.025424 49.0998 0.00187601 46.0218C0.020076 44.4816 0.115626 42.9437 0.268051 41.4081C0.427301 39.8747 0.666176 38.3482 0.968751 36.8308C1.57845 33.8005 2.45205 30.8134 3.60093 27.9196C4.18105 26.475 4.8226 25.0531 5.54605 23.6631C5.91005 22.9715 6.28998 22.273 6.70858 21.611L7.32965 20.6123C7.5344 20.2779 7.76645 19.9617 7.98485 19.6363C9.75708 17.0451 11.816 14.6404 14.1092 12.4746C16.4024 10.3088 18.939 8.4001 21.6326 6.75073C24.3421 5.12865 27.1995 3.73861 30.182 2.69438L31.3013 2.30537L32.432 1.95501L32.9985 1.77986L33.5718 1.62742L34.7161 1.32486C36.254 0.967683 37.7987 0.64008 39.3639 0.43988C40.142 0.31248 40.9291 0.253318 41.714 0.171418C42.1053 0.135018 42.5011 0.119098 42.8924 0.0917981C43.286 0.0690481 43.6773 0.0349209 44.0709 0.0326459C44.8581 0.0121709 45.6452 -0.0128507 46.4323 0.00762426C46.8259 0.0167243 47.2195 0.00762093 47.6108 0.0326459L48.7892 0.0986298C49.1828 0.114555 49.5718 0.160039 49.9631 0.196439C50.3544 0.235114 50.7457 0.264691 51.1348 0.312466L52.3018 0.469456C52.4952 0.496756 52.6909 0.519503 52.8842 0.551353L53.4644 0.651439L54.6223 0.853918L55.7712 1.10188C56.5402 1.24976 57.2909 1.47953 58.0485 1.67063C64.0841 3.32001 69.7374 6.20699 74.6037 10.0404C79.4949 13.8533 83.6445 18.5398 87.0388 23.7086C87.892 25.0008 88.6814 26.3316 89.4276 27.6875C90.1806 29.0412 90.879 30.4266 91.5092 31.8531C91.6639 32.2125 91.8186 32.5697 91.9642 32.9405C92.1052 33.3022 92.2417 33.6662 92.376 34.0325C92.6444 34.7628 92.8947 35.4999 93.1313 36.2416C93.6022 37.7248 94.0117 39.2263 94.3575 40.746C95.0514 43.7832 95.4836 46.8885 95.6497 50.0189C95.7202 51.5864 95.7225 53.1585 95.6543 54.7305C95.5701 56.3025 95.3972 57.8722 95.1628 59.4352C94.1755 65.68 91.7162 71.7384 88.0148 76.9163C84.3543 82.1397 79.4153 86.4326 73.8711 89.5516L72.8246 90.1249C72.4765 90.316 72.1148 90.4844 71.7622 90.6664C71.057 91.0349 70.3244 91.3466 69.601 91.6787C68.1358 92.2953 66.6525 92.8731 65.1397 93.3554C63.6268 93.84 62.0957 94.2632 60.5464 94.5976C58.9972 94.9388 57.4365 95.2255 55.8622 95.412C55.0773 95.5212 54.2879 95.5826 53.4985 95.6623C52.7068 95.7123 51.9174 95.7783 51.1257 95.7965C50.334 95.8329 49.5423 95.8329 48.7483 95.8329C47.9566 95.8101 47.1626 95.801 46.3732 95.7442C44.7898 95.6554 43.2087 95.4939 41.6435 95.2391L40.4673 95.0503L39.3025 94.8114C38.5222 94.6635 37.7578 94.4588 36.9888 94.27C33.9198 93.4783 30.9533 92.3339 28.1231 90.9507C27.4088 90.6163 26.724 90.2273 26.0279 89.8587C25.6775 89.679 25.3454 89.4674 25.0041 89.2695C24.6674 89.067 24.3262 88.8714 23.9917 88.6644C22.6654 87.8203 21.3573 86.9513 20.1152 85.9958C17.6172 84.1053 15.3035 81.9895 13.2105 79.6849L12.4279 78.8182L11.6772 77.9264C11.1699 77.3394 10.7035 76.7161 10.228 76.1041C9.98685 75.8015 9.7639 75.483 9.5364 75.1691L8.85845 74.2272L8.21463 73.2603C8.00078 72.9396 7.78238 72.6188 7.58445 72.2866C5.94873 69.6613 4.5223 66.9131 3.38935 64.0489C3.12545 63.3254 2.82288 62.6179 2.58855 61.8831L2.21773 60.7911L1.8924 59.6854C1.66263 58.9506 1.48518 58.2021 1.29408 57.4582C1.1917 57.0874 1.12118 56.7097 1.04383 56.3321L0.809501 55.2037V55.1991ZM1.14393 55.1354C1.45788 56.6278 1.79913 58.1157 2.26323 59.5694L2.6113 60.6591L3.0026 61.7329C3.2483 62.4541 3.56225 63.1502 3.85118 63.8532C3.9945 64.2058 4.16968 64.5448 4.32665 64.8929C4.49045 65.2364 4.64288 65.5845 4.81578 65.9235L5.34358 66.9358L5.60975 67.4409L5.8964 67.9346L6.46743 68.9219C6.6608 69.2495 6.8701 69.5658 7.07258 69.8865C7.4707 70.5326 7.91205 71.1514 8.34658 71.7725C10.0961 74.2545 12.1322 76.5159 14.3207 78.5884C16.507 80.6678 18.9003 82.5105 21.4165 84.1371C22.6654 84.9652 23.969 85.7023 25.2817 86.4121C25.9482 86.7488 26.6103 87.0901 27.2837 87.4086C27.9616 87.7157 28.6305 88.0456 29.3221 88.3186L30.3504 88.7485L31.3923 89.1421C32.0816 89.4174 32.7915 89.6358 33.4944 89.8747C33.8425 89.9998 34.2019 90.0976 34.5568 90.2045L35.6216 90.5208C36.3405 90.6959 37.0525 90.8961 37.776 91.0554C38.4994 91.2101 39.2183 91.383 39.9486 91.4967L41.0383 91.6878L42.1349 91.8403C43.5954 92.0496 45.0673 92.1701 46.5438 92.2247C48.0203 92.2839 49.4991 92.2771 50.9755 92.202C51.7149 92.1792 52.4497 92.1064 53.1868 92.0541C53.9216 91.9722 54.6587 91.9085 55.389 91.797C58.3192 91.4103 61.2107 90.7551 64.0227 89.8656C65.4309 89.4265 66.8095 88.901 68.17 88.3391C69.5191 87.7498 70.8568 87.1356 72.1489 86.4303C73.4366 85.7205 74.706 84.9743 75.9095 84.1326C76.526 83.7299 77.1016 83.2772 77.6977 82.8449L78.5576 82.1579L78.9876 81.8143L79.4039 81.4526L80.2343 80.7292L81.0351 79.9739L81.4355 79.5962L81.82 79.2026L82.5889 78.4132L83.3238 77.5919L83.6923 77.1824L84.0426 76.757L84.7434 75.9062L85.4054 75.0257C88.9294 70.3051 91.3135 64.7723 92.4692 58.9574C92.7468 57.5014 92.9675 56.0295 93.1063 54.5485C93.2428 53.0652 93.3178 51.575 93.3247 50.0781C93.3178 47.0865 93.0517 44.0835 92.5284 41.1169C92.2668 39.6336 91.9392 38.1616 91.5547 36.7034C91.3613 35.9754 91.1543 35.2496 90.9268 34.5307C90.813 34.1713 90.6925 33.8141 90.5696 33.4592C90.4491 33.1112 90.3148 32.7608 90.1783 32.4104C89.6255 31.0136 88.9976 29.6327 88.3105 28.2859C87.6144 26.9413 86.8727 25.6196 86.0674 24.3342C84.4681 21.7566 82.6504 19.3133 80.6211 17.0587L80.2434 16.6333L79.8521 16.2216L79.0695 15.398L78.2573 14.604C77.9866 14.3401 77.7181 14.0717 77.4315 13.8214L76.5898 13.0593C76.3122 12.7999 76.0119 12.5702 75.723 12.3268C75.4295 12.0879 75.1429 11.8399 74.8448 11.6078L73.9417 10.9185C69.1187 7.25121 63.4721 4.74645 57.6094 3.50202C56.8723 3.36097 56.1443 3.18353 55.4004 3.08571L54.2902 2.91508L53.1754 2.78767L52.6181 2.72396C52.4315 2.70349 52.245 2.6944 52.0584 2.67847L50.9414 2.5943C50.5683 2.56927 50.1952 2.56471 49.8221 2.54878C49.449 2.53741 49.0759 2.51466 48.7028 2.52148C45.7203 2.49646 42.7377 2.72623 39.8144 3.26086C39.4481 3.32683 39.0818 3.38826 38.7178 3.46106L37.6304 3.69767L37.0866 3.81597L36.5475 3.95019L35.4668 4.22093L34.3976 4.53033L33.863 4.68501L33.3329 4.85563L32.275 5.19688L31.2285 5.57454L30.7053 5.76336L30.1888 5.97039L29.156 6.38218L28.1368 6.82807C27.7978 6.97594 27.4566 7.12383 27.1267 7.2899L26.1257 7.7722C25.7936 7.936 25.4682 8.11345 25.1384 8.2818C24.4741 8.61167 23.8393 8.99614 23.191 9.35787C18.0859 12.3631 13.4471 16.2352 9.74343 20.9353C9.51593 21.2311 9.27478 21.5177 9.05638 21.8203L8.39435 22.7258C7.94845 23.3264 7.54805 23.9475 7.14993 24.5845C6.3605 25.8562 5.63705 27.1802 4.97503 28.5361C3.65553 31.2502 2.58173 34.0985 1.81733 37.0355C1.03928 39.9703 0.595651 42.9983 0.468251 46.0422C0.404551 47.5642 0.452326 49.0907 0.552426 50.6127C0.666176 52.1347 0.886851 53.6453 1.15075 55.1468L1.14393 55.1354Z" fill="black"/>
<path d="M29.3882 31.5619C28.8035 33.2295 28.4531 34.9789 28.3576 36.7443C26.8333 34.5399 25.2204 32.2512 22.8521 30.9931C20.4861 29.7351 17.135 29.8852 15.5607 32.0533C13.1014 35.4362 15.4015 39.9339 17.6423 42.7572C19.8286 45.5099 22.7588 47.653 26.0553 48.8769C27.0335 49.2409 27.9208 49.3251 28.7375 49.1931C30.735 48.8701 32.3434 46.9887 33.6811 45.6077C38.4222 40.7119 42.2578 33.2954 40.3787 26.3225C39.6461 23.6016 36.923 22.9328 34.5774 24.2387C33.3421 24.9257 32.3866 26.0245 31.5904 27.1939C30.669 28.5452 29.9296 30.0194 29.3882 31.5619Z" fill="#FF55AB"/>
<path d="M29.5269 31.6097C29.3835 32.0237 29.2562 32.4446 29.1447 32.8677C29.04 33.2932 28.949 33.7209 28.8785 34.1531C28.8148 34.5854 28.7579 35.0199 28.7306 35.4544C28.7033 35.8912 28.6897 36.3257 28.7033 36.7602C28.7101 36.9468 28.5645 37.1015 28.378 37.1083C28.2688 37.1129 28.171 37.0628 28.1073 36.9855L28.0709 36.94C27.5135 36.2507 26.9402 35.5795 26.335 34.9539C25.7344 34.326 25.1088 33.7391 24.4445 33.2408C23.7848 32.7381 23.0954 32.324 22.3856 32.0169C21.71 31.7211 20.982 31.5664 20.2608 31.5096C18.8162 31.4208 17.4125 31.8189 16.6526 32.7494C16.2249 33.2636 15.8928 33.8778 15.7244 34.5626C15.5493 35.2497 15.5197 36.0163 15.6152 36.8035C15.8132 38.3846 16.4706 40.009 17.3738 41.4627C18.2793 42.9255 19.4441 44.2382 20.7909 45.3211C22.1331 46.4085 23.6528 47.2753 25.2612 47.8645C25.6548 48.0147 26.0802 48.1535 26.467 48.2604C26.8515 48.3582 27.2337 48.4151 27.6068 48.4219C27.9776 48.4242 28.3439 48.3809 28.6783 48.2786C29.0059 48.1853 29.3221 48.0352 29.6315 47.8372C30.8668 47.0455 31.9225 45.651 33.0941 44.3315C34.202 43.0552 35.2075 41.6902 36.0629 40.2478C37.7669 37.3677 38.9681 34.2168 39.257 31.0341C39.2798 30.636 39.3321 30.2378 39.3162 29.842C39.3139 29.4461 39.3321 29.0457 39.2798 28.6522C39.2388 28.2586 39.2297 27.8582 39.1456 27.4714C39.075 27.0915 39.0227 26.6456 38.9454 26.3885C38.7748 25.8084 38.4835 25.342 38.0081 25.019C37.7692 24.8597 37.4871 24.7323 37.1686 24.6573C36.8478 24.5936 36.502 24.5754 36.1426 24.6004C35.4259 24.6755 34.6752 24.9439 33.9927 25.3944C33.3034 25.8334 32.6755 26.4249 32.1181 27.087C30.9942 28.411 30.1093 29.9625 29.5246 31.6142L29.5269 31.6097ZM29.2471 31.5118C29.834 29.8283 30.5802 28.1994 31.5175 26.6479C31.9907 25.8744 32.523 25.1077 33.2055 24.4252C33.8812 23.745 34.7344 23.1626 35.7376 22.8191C36.2427 22.6575 36.7841 22.5665 37.346 22.5597C37.9102 22.5688 38.4926 22.6712 39.0523 22.8919C39.6119 23.1148 40.1238 23.4788 40.5492 23.9156C40.986 24.3524 41.2909 24.8757 41.5321 25.4103C41.7709 25.9813 41.8596 26.4135 41.9871 26.8936C42.1258 27.3645 42.1873 27.8491 42.2578 28.3314C42.3442 28.8137 42.3556 29.3005 42.3852 29.7874C42.4284 30.2765 42.3965 30.7588 42.3761 31.2457C42.276 33.184 41.8346 35.0767 41.1544 36.8467C40.4764 38.6189 39.571 40.2751 38.5268 41.8153C37.478 43.3532 36.2995 44.7887 34.9937 46.0991C34.8344 46.2607 34.6638 46.4336 34.5091 46.5814L34.0336 47.0364C33.7106 47.3458 33.3693 47.6575 33.0145 47.9646C32.3092 48.5811 31.5129 49.1818 30.562 49.6117C30.0911 49.8279 29.5678 49.9894 29.0264 50.0576C28.494 50.1327 27.9662 50.1122 27.4566 50.0303C26.9493 49.9507 26.4647 49.8051 26.012 49.6186C25.7799 49.523 25.5843 49.4252 25.3727 49.3274C25.1634 49.2341 24.9609 49.1272 24.7539 49.0271C23.125 48.1899 21.6099 47.1752 20.2244 46.0127C18.8389 44.8479 17.5831 43.5352 16.4638 42.0997C15.9087 41.3785 15.3786 40.6255 14.9145 39.8179C14.4482 39.0102 14.0364 38.1503 13.7588 37.2062C13.4813 36.2689 13.3311 35.2383 13.4494 34.1759C13.5677 33.1134 13.9659 32.0601 14.6188 31.1729C14.9555 30.6951 15.3923 30.297 15.8587 29.9603C16.3364 29.6441 16.846 29.3756 17.3761 29.2164C17.508 29.1686 17.64 29.1299 17.7719 29.1003C17.9039 29.0685 18.0381 29.0344 18.1723 29.0071C18.4408 28.9729 18.7092 28.9183 18.9754 28.9092C19.51 28.8569 20.0378 28.9047 20.5565 28.9684C21.5894 29.1276 22.5858 29.4894 23.464 30.0422C24.3057 30.5859 25.0406 31.2479 25.6548 31.9691C26.9015 33.4092 27.7501 35.0108 28.6487 36.5396L28.0163 36.7193C28.0777 36.2711 28.1437 35.8275 28.2279 35.3862C28.312 34.9448 28.3985 34.5057 28.5077 34.0735C28.6101 33.639 28.7215 33.2067 28.8512 32.7813C28.9718 32.3536 29.106 31.9282 29.2561 31.5096L29.2471 31.5118Z" fill="black"/>
<path d="M65.3329 31.5619C65.9176 33.2295 66.2679 34.9789 66.3635 36.7443C67.8877 34.5399 69.5007 32.2512 71.869 30.9931C74.235 29.7351 77.586 29.8852 79.1603 32.0533C81.6196 35.4362 79.3196 39.9339 77.0787 42.7572C74.8924 45.5099 71.9622 47.653 68.6658 48.8769C67.6875 49.2409 66.8003 49.3251 65.9835 49.1931C63.9861 48.8701 62.3777 46.9887 61.04 45.6077C56.2989 40.7119 52.4632 33.2954 54.3424 26.3225C55.0749 23.6016 57.7981 22.9328 60.1436 24.2387C61.3789 24.9257 62.3344 26.0245 63.1307 27.1939C64.0521 28.5452 64.7914 30.0194 65.3329 31.5619Z" fill="#FF55AB"/>
<path d="M65.4716 31.5118C65.624 31.9304 65.7628 32.3536 65.8857 32.7813C66.0176 33.2067 66.1314 33.639 66.236 34.0735C66.3475 34.508 66.4339 34.9471 66.5204 35.3862C66.6068 35.8275 66.6728 36.2734 66.7342 36.7216L66.0586 36.5305C66.9526 34.9994 67.8035 33.3955 69.0456 31.9464C69.6599 31.2206 70.3947 30.5563 71.2342 29.9944C72.1123 29.4279 73.1133 29.048 74.1576 28.8706C74.6831 28.7978 75.2177 28.7409 75.7614 28.7818C76.0322 28.7841 76.3074 28.8342 76.5804 28.866C76.7169 28.891 76.8534 28.9229 76.9899 28.9525C77.1264 28.9798 77.2629 29.0162 77.3994 29.0617L77.8067 29.1936L78.2071 29.3665C78.273 29.3961 78.3413 29.4234 78.405 29.4575L78.5984 29.5644C78.7258 29.6372 78.8577 29.7078 78.9828 29.7874C79.4788 30.1218 79.9474 30.5222 80.3205 31.0091C80.4252 31.1274 80.498 31.2411 80.5799 31.3571C80.6618 31.4709 80.7391 31.5892 80.8097 31.7143C80.9598 31.9555 81.0895 32.2103 81.2078 32.4719C81.4467 32.9929 81.6059 33.5502 81.6992 34.1053C81.8926 35.2224 81.8038 36.328 81.5741 37.3381C81.0963 39.3697 80.1158 41.0805 78.9965 42.6138C77.8635 44.1426 76.5304 45.5145 75.0357 46.6656C74.2872 47.2412 73.4955 47.7553 72.672 48.2035C71.8507 48.6585 70.993 49.043 70.1172 49.3615C69.8965 49.4388 69.6804 49.523 69.4574 49.589C69.2299 49.6595 69.0252 49.7278 68.7749 49.796C68.2903 49.9257 67.783 50.0121 67.2689 50.0281C66.7547 50.0463 66.236 50.003 65.7355 49.8711C65.2259 49.7437 64.755 49.5344 64.3318 49.2864C63.4833 48.7814 62.8008 48.1375 62.1683 47.4869C61.8498 47.1638 61.5472 46.8294 61.2492 46.5018L60.3483 45.519C59.138 44.1927 58.0073 42.7981 56.9563 41.3285C55.9121 39.8565 54.9315 38.3095 54.1558 36.626C53.3732 34.9494 52.8044 33.1271 52.6179 31.2229C52.5769 30.7474 52.5223 30.2697 52.5473 29.7874C52.5542 29.3051 52.5519 28.8251 52.627 28.345C52.6838 27.865 52.7339 27.385 52.8613 26.9163C52.9773 26.4386 53.0569 26.004 53.2844 25.4421C53.5119 24.9166 53.8077 24.3979 54.2308 23.9634C54.6426 23.5288 55.1454 23.1671 55.6959 22.9419C56.2442 22.719 56.8198 22.6097 57.3794 22.5984C57.9368 22.6029 58.4737 22.6917 58.9765 22.8509C59.9729 23.1876 60.8238 23.7632 61.4995 24.4411C62.1797 25.1191 62.7098 25.8835 63.1852 26.6547C64.1225 28.204 64.8733 29.8261 65.4739 31.505L65.4716 31.5118ZM65.1918 31.6097C64.6185 29.9512 63.7403 28.3951 62.6165 27.0688C62.0614 26.4067 61.4312 25.813 60.7419 25.3693C60.0571 24.9166 59.3064 24.6413 58.5829 24.5617C58.2189 24.5344 57.8686 24.5481 57.5432 24.6118C57.2202 24.6846 56.9313 24.8051 56.681 24.9621C56.1851 25.2829 55.8666 25.7561 55.6732 26.3499C55.5845 26.616 55.523 27.0619 55.4411 27.4441C55.3456 27.8332 55.3274 28.2358 55.2705 28.634C55.2045 29.0298 55.2136 29.4348 55.1863 29.8374C55.1522 30.2401 55.1841 30.6451 55.1863 31.0523C55.3024 34.2919 56.176 37.7067 57.8936 40.7324C58.7467 42.2453 59.8023 43.649 61.0035 44.9093C61.2947 45.2255 61.6178 45.5418 61.9249 45.8557C62.2366 46.1674 62.5505 46.47 62.869 46.7589C63.5083 47.3345 64.1931 47.8395 64.9142 48.1603C65.2714 48.3264 65.64 48.4287 66.0017 48.4629C66.3657 48.5084 66.7433 48.4856 67.1073 48.4219C67.4736 48.3536 67.8353 48.2354 68.1857 48.0829C68.354 48.0101 68.5565 47.9078 68.7431 47.819C68.9342 47.7326 69.1184 47.6279 69.305 47.5324C70.0466 47.1365 70.7564 46.6929 71.4412 46.2197C72.1214 45.7374 72.7698 45.2187 73.3863 44.6704C74.6217 43.5739 75.7114 42.3226 76.6032 40.9508C77.0468 40.266 77.4472 39.5585 77.768 38.8373C78.0956 38.1207 78.3436 37.3859 78.4892 36.6738C78.6348 35.9594 78.6643 35.2679 78.5642 34.6377C78.5165 34.3215 78.4209 34.0234 78.3049 33.7345C78.2435 33.5912 78.1798 33.4479 78.1001 33.3114C78.0637 33.2408 78.0228 33.1726 77.9773 33.1066C77.9341 33.0406 77.8908 32.9655 77.8476 32.92C77.8044 32.8677 77.7634 32.8131 77.7225 32.7585C77.6815 32.7039 77.6247 32.663 77.5792 32.6107C77.4927 32.5015 77.3699 32.4264 77.2652 32.3308C77.2061 32.2899 77.1424 32.2535 77.0809 32.2125L76.9899 32.1511C76.9581 32.1329 76.9217 32.117 76.8876 32.1011L76.6851 31.9964L76.4644 31.9122C75.8752 31.6802 75.1722 31.6051 74.4647 31.621C73.7549 31.6597 73.0314 31.7985 72.358 32.0783C71.646 32.3672 70.9566 32.7767 70.2969 33.2772C69.6326 33.7709 69.0047 34.3556 68.4018 34.9812C67.7967 35.6046 67.2234 36.2757 66.6637 36.965L66.625 37.0128C66.4999 37.1675 66.2747 37.1902 66.12 37.0651C66.029 36.9923 65.9835 36.8808 65.988 36.7739C66.004 36.3394 65.988 35.9049 65.963 35.4681C65.938 35.0335 65.8834 34.599 65.822 34.1668C65.7537 33.7345 65.665 33.3068 65.5626 32.8791C65.4534 32.456 65.3283 32.0351 65.1895 31.6188L65.1918 31.6097Z" fill="black"/>
<path d="M73.4775 53.0993C73.9461 66.7789 63.7655 78.6476 50.2975 80.2674C36.6384 81.9122 23.7937 72.5142 21.2275 58.8687C27.3086 60.1837 36.2653 61.4031 46.9919 60.327C58.5444 59.169 67.6216 55.802 73.4775 53.097V53.0993Z" fill="black"/>
<path d="M73.5548 52.9742C73.6185 53.3587 73.7209 53.8364 73.7618 54.3278C73.7914 54.7578 73.8073 55.165 73.8255 55.5859C73.8324 56.0045 73.8255 56.4231 73.8255 56.844C73.8119 57.2626 73.7755 57.6812 73.7505 58.102C73.6117 59.781 73.3 61.4554 72.8086 63.082C71.8372 66.3421 70.1855 69.4247 67.9947 72.0751C66.8982 73.3992 65.6765 74.6277 64.3388 75.7151C63.0034 76.8048 61.561 77.774 60.0254 78.5611C58.492 79.3528 56.8745 79.983 55.2092 80.4152C54.3766 80.6336 53.5371 80.8134 52.6908 80.9476C51.8445 81.0773 50.9936 81.1637 50.1428 81.2138C48.4411 81.3116 46.7394 81.2365 45.065 81.0295C43.3929 80.8088 41.7435 80.463 40.1419 79.9785C36.9319 79.0275 33.8925 77.551 31.1511 75.6218C28.4074 73.6972 25.9573 71.3016 24.0076 68.5033C22.0511 65.7119 20.6451 62.4951 19.9353 59.1167C19.7875 58.416 20.2379 57.7267 20.9386 57.5788C21.1092 57.5424 21.2799 57.5424 21.4437 57.572L21.5074 57.5856C25.8162 58.4114 30.1819 58.9097 34.5522 59.0666C35.6442 59.1099 36.7385 59.1394 37.8305 59.144C38.3765 59.144 38.9225 59.1554 39.4708 59.1485L41.111 59.1235L42.749 59.0735C43.295 59.0553 43.841 59.0166 44.387 58.9916C44.933 58.9734 45.479 58.9256 46.025 58.8915L46.844 58.8346L47.6608 58.7572C48.2045 58.7026 48.7528 58.6731 49.2965 58.6071L50.9299 58.4251C52.0151 58.2818 53.1026 58.1339 54.1855 57.9564L54.9999 57.8313L55.8121 57.6903C56.3535 57.597 56.895 57.5037 57.4342 57.3922C57.9733 57.2808 58.5148 57.1852 59.0494 57.0624C59.5863 56.9464 60.1278 56.8417 60.6647 56.7143C61.2016 56.5869 61.7385 56.4663 62.2731 56.3344L63.877 55.9249L65.4786 55.4949C66.0086 55.3402 66.5433 55.1923 67.0733 55.0308C68.138 54.7191 69.1959 54.387 70.2515 54.0389C70.7816 53.8706 71.3071 53.6908 71.8349 53.5088L72.2308 53.3769C72.3832 53.3223 72.5402 53.2677 72.6926 53.2199C73.002 53.1221 73.2955 53.0493 73.5571 52.9719L73.5548 52.9742ZM73.4001 53.2267C73.1544 53.3791 72.9406 53.5361 72.7404 53.6681C72.6403 53.7341 72.5424 53.7955 72.4401 53.8569L72.0692 54.0571C71.5756 54.3233 71.0773 54.5826 70.5746 54.8352C69.5736 55.347 68.5521 55.8134 67.5261 56.2775C67.0119 56.505 66.4909 56.7166 65.9722 56.9372L64.4025 57.5652C63.877 57.7699 63.3446 57.9542 62.8145 58.1498C62.2822 58.3386 61.7476 58.5138 61.2129 58.6958C60.6783 58.8778 60.1369 59.0393 59.5977 59.21C59.0585 59.3806 58.5102 59.5194 57.9665 59.6764C57.4228 59.8333 56.8745 59.9698 56.3262 60.1086L55.5027 60.3179L54.6746 60.509C52.4656 61.0072 50.2315 61.4099 47.9815 61.7102L47.1375 61.8217L46.2912 61.9127C45.727 61.9695 45.1628 62.0401 44.5963 62.081C44.0299 62.122 43.4634 62.172 42.8969 62.2039L41.1952 62.2903L39.4912 62.3244C38.9225 62.3313 38.356 62.3244 37.7873 62.3244C36.652 62.3017 35.5168 62.2653 34.3839 62.1925C32.118 62.0378 29.8589 61.8012 27.6157 61.4622C25.3749 61.1187 23.1476 60.6842 20.9432 60.1609L22.5152 58.6298C23.0248 61.7125 24.0554 64.7246 25.6024 67.4978C27.1516 70.2665 29.2424 72.7758 31.7722 74.7778C34.2997 76.7775 37.2617 78.254 40.3899 79.0525C43.5225 79.8488 46.8031 79.9193 49.9312 79.3801C50.7138 79.2459 51.4873 79.0798 52.2517 78.8728C53.0138 78.6703 53.7691 78.4428 54.5062 78.1744C55.9827 77.6375 57.4114 76.9959 58.7787 76.2429C60.1437 75.4853 61.4564 74.6367 62.6871 73.6721C63.9134 72.703 65.0645 71.636 66.1133 70.4712C68.2154 68.1416 69.9239 65.4412 71.1456 62.5042C71.753 61.0345 72.249 59.508 72.6107 57.936L72.8541 56.7507C72.9201 56.3526 72.9952 55.9522 73.0566 55.5518L73.2113 54.346C73.2431 54.0161 73.3387 53.6703 73.3933 53.2358L73.4001 53.2267Z" fill="black"/>
<path d="M45.1583 72.4982C41.8368 73.6357 39.0545 75.1736 36.7886 76.7456C41.3158 78.8682 46.4664 79.7327 51.708 78.9342C57.1726 78.1038 62.0047 75.5786 65.7652 71.975C60.6556 70.6122 53.2209 69.7318 45.1583 72.496V72.4982Z" fill="#FF55AB"/>
</svg>
