<svg width="109" height="110" viewBox="0 0 109 110" fill="none" xmlns="http://www.w3.org/2000/svg">
<path d="M2.11744 43.304C7.77288 22.4742 28.3075 1.03311 55.9421 1.77237C79.0393 2.38885 98.5133 18.2685 105.449 38.6542C106.264 41.0522 114.168 65.6593 98.4715 86.8313C80.4264 111.172 48.8943 107.097 46.64 106.768C44.976 106.525 14.5333 101.546 3.77883 74.8699C-1.88706 60.8188 0.840064 48.0085 2.11744 43.3066V43.304Z" fill="#FCDB00"/>
<path d="M1.92921 43.2517C2.40986 41.5668 2.92446 39.8872 3.56184 38.2546C3.85441 37.4265 4.20183 36.6219 4.53619 35.8121C4.69815 35.4046 4.88886 35.0102 5.07171 34.6105L5.61762 33.4141C7.14054 30.2533 8.91686 27.2101 10.9178 24.3106C14.9328 18.5271 19.9038 13.3262 25.7473 9.19892C28.6809 7.1614 31.8129 5.37203 35.1252 3.95883C35.5406 3.78381 35.9454 3.58789 36.3712 3.43638L37.6381 2.96357C38.4767 2.63182 39.3439 2.38365 40.2007 2.10153C40.4176 2.03622 40.6291 1.96308 40.8486 1.903L41.5042 1.7306L42.8156 1.3884C43.2492 1.26301 43.6959 1.18987 44.1374 1.09061L45.4643 0.816326C49.0169 0.150212 52.6479 -0.0953365 56.2554 0.032662L57.6085 0.105804C57.8332 0.118865 58.0604 0.1267 58.2851 0.144985L58.9591 0.207684L60.3069 0.340901C60.7536 0.395758 61.2003 0.463681 61.647 0.526374C62.543 0.638699 63.4286 0.813712 64.3141 0.978282C64.7582 1.05404 65.1944 1.16637 65.6358 1.26563C66.0747 1.37012 66.5135 1.46416 66.9524 1.57387L68.2559 1.93175L68.9063 2.1146L69.5489 2.32096L70.8316 2.73891C71.2573 2.88258 71.6753 3.04716 72.0984 3.20128C73.7859 3.81776 75.4343 4.53873 77.0434 5.32501C80.246 6.93413 83.3049 8.8097 86.1287 10.9883C88.9447 13.1669 91.5934 15.557 93.9549 18.2032C95.1565 19.5067 96.2641 20.8886 97.3481 22.2861C98.4035 23.7045 99.4275 25.1491 100.355 26.6537C100.838 27.393 101.269 28.1662 101.716 28.9263C101.943 29.3051 102.136 29.7022 102.35 30.0888C102.557 30.4806 102.782 30.8594 102.97 31.2591C103.359 32.0505 103.761 32.8368 104.109 33.6492C104.284 34.0541 104.477 34.4512 104.644 34.8587L105.146 36.0838C105.318 36.4913 105.464 36.9067 105.616 37.322L106.068 38.568C106.355 39.4144 106.603 40.2607 106.833 41.1149C107.285 42.8233 107.672 44.5474 107.985 46.2845C108.299 48.0216 108.534 49.7744 108.698 51.535C108.871 53.2931 108.983 55.0615 108.996 56.8326C109.014 58.6037 108.972 60.38 108.831 62.1511C108.779 63.0392 108.667 63.9196 108.573 64.8051C108.521 65.2466 108.447 65.6854 108.387 66.1269C108.322 66.5683 108.265 67.0098 108.176 67.446C106.969 74.4703 104.257 81.3169 100.125 87.2336C98.0743 90.1984 95.6711 92.9308 92.9988 95.3732C90.3265 97.8182 87.3616 99.9472 84.2165 101.747C81.074 103.552 77.7278 104.986 74.3006 106.122C72.5896 106.702 70.842 107.157 69.0892 107.588C67.3285 107.975 65.5627 108.34 63.7786 108.588C60.2155 109.129 56.6159 109.346 53.0137 109.312C51.2112 109.294 49.4114 109.187 47.5933 108.999C47.1362 108.949 46.6842 108.897 46.1931 108.821C45.7151 108.743 45.2684 108.662 44.8191 108.57C43.9231 108.392 43.0428 108.189 42.1677 107.964C40.4176 107.517 38.6935 107 36.9929 106.42C36.1414 106.136 35.2976 105.822 34.4565 105.506C33.6232 105.172 32.7847 104.842 31.9618 104.479C28.6548 103.069 25.4679 101.363 22.4377 99.4091C20.9383 98.4086 19.465 97.3663 18.0622 96.2274L17.0147 95.3706L16.0012 94.4746C15.3142 93.8895 14.6768 93.2469 14.029 92.6199C11.4586 90.0835 9.20424 87.2362 7.29732 84.1903C3.48871 78.083 1.17951 71.1658 0.361883 64.1547C-0.0482347 60.6465 -0.100487 57.1121 0.158122 53.6091C0.442854 50.1088 1.01756 46.6345 1.94228 43.2517H1.92921ZM2.30797 43.3536C1.86389 45.0359 1.50599 46.739 1.23694 48.4579C0.973102 50.1767 0.81115 51.9112 0.719723 53.6457C0.576051 57.1173 0.785051 60.5994 1.39631 64.0005C1.43288 64.2121 1.4642 64.4263 1.50339 64.6379L1.64184 65.2701L1.92137 66.5344C2.00496 66.9576 2.12773 67.3703 2.24528 67.7856L2.59534 69.029C2.70244 69.4444 2.85395 69.8493 2.9924 70.2568L3.41293 71.4741C3.48607 71.6752 3.54617 71.8816 3.62976 72.0801L3.8753 72.6757L4.36643 73.8643C5.71694 77.0146 7.43315 79.9899 9.44194 82.7275C9.67965 83.0801 9.94608 83.4093 10.2099 83.741L10.9988 84.7389C11.1268 84.9061 11.2627 85.0706 11.4063 85.2274L11.8269 85.7054L12.6654 86.6589C13.2531 87.2701 13.8409 87.8788 14.4338 88.477L15.356 89.3494C15.6616 89.6394 15.9646 89.9346 16.2912 90.2036C16.9364 90.7496 17.5554 91.3243 18.2268 91.8363L19.2168 92.6252L20.2382 93.3749C21.5887 94.3884 23.015 95.3001 24.4491 96.1934C30.2351 99.6886 36.6037 102.277 43.1682 103.897C43.9884 104.095 44.8113 104.281 45.6263 104.443C46.0338 104.524 46.4465 104.6 46.8305 104.66C47.2014 104.717 47.6194 104.767 48.0295 104.809C49.6857 104.981 51.3784 105.062 53.0685 105.098C54.7586 105.13 56.4539 105.093 58.144 104.994C58.9904 104.95 59.8341 104.876 60.6779 104.809C61.0984 104.769 61.519 104.72 61.9396 104.678L62.5717 104.61L63.2013 104.524C64.8836 104.32 66.5449 104.004 68.201 103.667C69.8467 103.291 71.4898 102.894 73.0963 102.377C76.3146 101.376 79.4571 100.114 82.4063 98.5C94.2448 92.121 103.103 80.3974 106.062 67.0176C106.167 66.6023 106.245 66.1817 106.326 65.7612C106.405 65.3406 106.496 64.9226 106.567 64.4995C106.697 63.6531 106.849 62.8067 106.94 61.9525C107.055 61.101 107.128 60.2442 107.201 59.3874C107.238 58.959 107.251 58.5279 107.275 58.0995C107.301 57.6711 107.319 57.2401 107.324 56.8091C107.376 55.0877 107.34 53.361 107.233 51.6395C107.115 49.9181 106.927 48.1992 106.663 46.4909C106.402 44.7825 106.065 43.0871 105.637 41.4127C105.42 40.5794 105.19 39.7461 104.924 38.9337L104.487 37.7164C104.341 37.3089 104.2 36.9014 104.033 36.5044C102.766 33.2914 101.185 30.1985 99.2811 27.3172C98.3538 25.8596 97.3011 24.4882 96.2379 23.1325L95.4046 22.1424L94.9867 21.6487L94.5531 21.1707L93.6858 20.2146C93.388 19.9038 93.0824 19.5981 92.782 19.2925C90.3605 16.8422 87.696 14.648 84.8591 12.728C84.5117 12.4798 84.146 12.2552 83.7855 12.0227C83.4224 11.7955 83.0671 11.5577 82.7014 11.3357L81.5939 10.6879L81.04 10.364L80.4758 10.061L79.3473 9.45492L78.198 8.89067C77.4404 8.50145 76.649 8.18015 75.8731 7.83011C72.7437 6.49266 69.4941 5.46868 66.1896 4.73726C59.5755 3.31622 52.7158 3.09418 46.0651 4.22005C39.4171 5.34591 32.9701 7.75175 27.1135 11.2756C24.1852 13.0363 21.4137 15.0842 18.8328 17.3621C16.2546 19.6452 13.8435 22.145 11.7172 24.8853C9.58037 27.615 7.69435 30.5485 6.09306 33.6362C5.31201 35.1904 4.58061 36.7708 3.95368 38.393C3.30323 40.0073 2.79384 41.6739 2.30797 43.3431V43.3536Z" fill="black"/>
<path d="M15.0632 44.994C15.1312 44.55 15.2278 44.1111 15.3427 43.6723C15.4785 43.2465 15.6431 42.8285 15.8103 42.408C16.0036 42.0031 16.2126 41.6034 16.4294 41.2063C16.6697 40.8276 16.9231 40.4488 17.1843 40.0779C17.4638 39.72 17.7616 39.3778 18.0568 39.0304C18.3807 38.7117 18.6994 38.3877 19.039 38.0821C19.3891 37.7922 19.7443 37.5048 20.1178 37.2436C20.5044 37.0033 20.8963 36.7682 21.3064 36.5697C21.727 36.3868 22.1476 36.2118 22.5786 36.0707C23.02 35.948 23.4511 35.8147 23.8899 35.7102C24.3366 35.624 24.7676 35.5169 25.2012 35.4281C25.4206 35.3889 25.6349 35.3445 25.8517 35.3027C26.0659 35.2557 26.2775 35.1982 26.4917 35.1643C28.1948 34.8038 29.8823 34.4329 31.6613 34.1664C32.1053 34.1194 32.5546 34.0515 33.0065 34.0254C33.4584 34.0123 33.9156 33.9888 34.3701 34.0071C34.822 34.0436 35.2791 34.075 35.731 34.1455C36.1777 34.2317 36.6297 34.3153 37.0764 34.4172C38.8579 34.843 40.608 35.5352 42.1283 36.5932C43.6434 37.6511 44.9522 38.9938 45.9553 40.5141C46.9558 42.0344 47.6715 43.7323 47.9144 45.5034C47.9275 45.5896 47.8648 45.6706 47.7786 45.681C47.7237 45.6889 47.6715 45.6654 47.6375 45.6288C46.4699 44.3149 45.344 43.1289 44.1346 42.0762C42.9303 41.0235 41.666 40.1066 40.3469 39.302C39.0329 38.4975 37.6876 37.7295 36.2274 37.1574C35.8617 37.019 35.4881 36.904 35.1172 36.7656C34.741 36.6532 34.3623 36.5461 33.9835 36.4155C33.6021 36.3084 33.2129 36.2066 32.8237 36.089C32.4318 35.9924 32.0348 35.9114 31.6299 35.8199C30.0208 35.5013 28.3098 35.5613 26.745 36.0995C26.3532 36.2301 25.9796 36.4155 25.6087 36.5932C25.243 36.7839 24.8956 37.019 24.5534 37.241C24.2164 37.4761 23.8925 37.7347 23.5686 37.9724C23.2525 38.2284 22.9469 38.4896 22.6282 38.7247C22.3226 38.9781 22.0169 39.2289 21.6956 39.4535C21.39 39.6991 21.0792 39.9368 20.7579 40.1614C20.4575 40.4122 20.1466 40.6552 19.8358 40.8981C19.538 41.1567 19.2428 41.4179 18.9293 41.6687C18.6446 41.943 18.3415 42.2094 18.0385 42.4785C17.7538 42.7632 17.456 43.0427 17.153 43.3248C16.8683 43.62 16.5731 43.9152 16.2622 44.2078C15.9749 44.516 15.6719 44.8216 15.3349 45.1246L15.3271 45.1325C15.2618 45.1926 15.1625 45.1873 15.1024 45.122C15.0684 45.0855 15.0554 45.0358 15.0632 44.9914V44.994Z" fill="black"/>
<path d="M60.5736 44.994C60.8688 43.2308 61.6368 41.5564 62.6843 40.0648C63.7344 38.5732 65.0849 37.2723 66.6313 36.264C68.183 35.2557 69.9567 34.6183 71.7487 34.2474C72.2006 34.1716 72.6472 34.0698 73.1018 34.0175C73.329 33.994 73.5563 33.9705 73.7836 33.9548C74.0108 33.9392 74.2355 33.913 74.4653 33.9209C74.9225 33.9287 75.377 33.9313 75.8289 33.981C76.2808 34.0358 76.7275 34.0828 77.169 34.1612C78.9401 34.4799 80.6145 34.9057 82.3072 35.3184C82.7251 35.436 83.1561 35.5274 83.5872 35.624C84.0103 35.7416 84.4492 35.8356 84.8881 35.9479C85.3165 36.0786 85.7553 36.204 86.1864 36.3502C86.6069 36.5148 87.0353 36.6846 87.4428 36.891C87.6413 37.0007 87.8398 37.113 88.0358 37.2332C88.2317 37.3507 88.4276 37.4683 88.6105 37.6041C88.971 37.881 89.3288 38.1683 89.6605 38.4766C89.9871 38.7953 90.3058 39.1192 90.6114 39.4561C90.8962 39.814 91.1913 40.1562 91.4526 40.5298C91.7033 40.9086 91.9489 41.2899 92.1735 41.6818C92.3773 42.0867 92.581 42.4889 92.756 42.9017C92.9102 43.3274 93.0643 43.7506 93.1844 44.179C93.2863 44.6205 93.3699 45.062 93.4222 45.5087C93.4326 45.5949 93.3699 45.6758 93.2837 45.6863C93.2341 45.6915 93.1871 45.6758 93.1557 45.6445L93.1479 45.6367C92.8214 45.3232 92.5262 45.0071 92.2493 44.691C91.9489 44.388 91.6589 44.085 91.3846 43.7794C91.0921 43.4868 90.7995 43.1995 90.5252 42.9069C90.2353 42.6248 89.9348 42.3557 89.6579 42.071C89.3601 41.8045 89.065 41.5407 88.775 41.2743C88.4799 41.013 88.1664 40.7727 87.8765 40.5089C87.5682 40.2633 87.2547 40.0308 86.9596 39.7696C86.6539 39.5241 86.3431 39.2838 86.0505 39.0121C85.7449 38.7587 85.434 38.5079 85.1336 38.231C84.8228 37.9724 84.4962 37.7269 84.1723 37.4683C83.8405 37.2279 83.4905 37.0059 83.1352 36.7891C82.7748 36.5906 82.396 36.4208 82.0147 36.2588C80.4682 35.6711 78.7598 35.5587 77.1402 35.8304C76.7353 35.8905 76.3357 35.9924 75.9413 36.0629C75.7427 36.0942 75.5494 36.1621 75.3535 36.2092C75.1576 36.2562 74.9642 36.3084 74.7709 36.3528C74.3843 36.4469 74.0082 36.5775 73.6268 36.6663C73.248 36.7708 72.8771 36.9066 72.5062 37.0216C71.0303 37.5492 69.6615 38.2754 68.3214 39.0356C66.9787 39.7984 65.6857 40.6735 64.4501 41.6896C63.2093 42.7031 62.0469 43.8577 60.84 45.1351C60.78 45.2004 60.6807 45.203 60.6154 45.1429C60.5762 45.1064 60.5605 45.0515 60.5684 45.0019L60.5736 44.994Z" fill="black"/>
<path d="M29.8069 59.1053C30.3032 59.6512 30.7447 60.205 31.1861 60.7483C31.6642 61.2708 32.0847 61.8167 32.5445 62.3287L33.2341 63.0889C33.4613 63.3423 33.6729 63.6035 33.9211 63.8386C34.1588 64.0789 34.3887 64.3271 34.6212 64.5674C34.7361 64.6876 34.8537 64.8103 34.9634 64.9331L35.3264 65.2805C35.8202 65.7325 36.2616 66.2314 36.7762 66.652L37.5103 67.3207C37.7506 67.5479 38.017 67.7439 38.2678 67.9581C38.5212 68.1696 38.7772 68.376 39.0254 68.5928C39.2814 68.7992 39.5504 68.9899 39.8012 69.2041C40.0572 69.4104 40.3106 69.6246 40.5613 69.8388C40.8252 70.0348 41.0838 70.2411 41.3424 70.4501C41.6062 70.6486 41.8439 70.8942 42.1182 71.0823C42.382 71.286 42.6511 71.4845 42.9149 71.6987C43.4348 72.1402 44.0069 72.4955 44.5685 72.8925L44.9942 73.1851L45.4384 73.4385C45.7362 73.6083 46.0366 73.7728 46.3396 73.9348C46.9482 74.2587 47.5961 74.4834 48.2413 74.7289C48.8943 74.9457 49.5683 75.0894 50.2396 75.2357C50.5792 75.2931 50.9214 75.3297 51.2636 75.3663C51.6058 75.4055 51.9454 75.4394 52.2876 75.4629C52.9746 75.4629 53.6616 75.4603 54.3434 75.4107C54.683 75.3741 55.0226 75.3349 55.3596 75.2879L56.3652 75.1077C57.6948 74.8282 58.9774 74.4259 60.2208 73.9818C61.4643 73.5325 62.6842 73.0597 63.8571 72.4798C66.2081 71.3174 68.3475 69.8023 70.4555 68.2114C72.5714 66.6232 74.6037 64.8574 76.5994 62.9766C77.5973 62.0362 78.5847 61.0644 79.5774 60.0744C80.5726 59.087 81.5626 58.0708 82.6075 57.0651C82.6937 56.9815 82.8296 56.9841 82.9132 57.0703C82.9706 57.1278 82.9863 57.2114 82.9654 57.2845C82.537 58.6795 81.9701 60.0195 81.3275 61.323C80.6823 62.6265 79.9457 63.8882 79.1281 65.1029C77.4954 67.5323 75.5337 69.784 73.2375 71.7066C70.9336 73.6213 68.2377 75.0998 65.3878 76.1212C63.9642 76.6332 62.4987 77.0459 61.0019 77.2549C59.5051 77.4691 57.99 77.4874 56.5089 77.3934L55.4013 77.3045C55.033 77.2575 54.6699 77.2157 54.3042 77.1766C53.9411 77.1321 53.5806 77.0642 53.2201 77.012C52.8596 76.965 52.5018 76.9049 52.1413 76.8657C51.4282 76.7273 50.7177 76.5992 50.0071 76.4817C49.6571 76.3981 49.3044 76.3197 48.9492 76.2466C48.5991 76.1656 48.236 76.1291 47.886 76.0324C47.5359 75.941 47.1807 75.8704 46.828 75.7869C46.4728 75.7111 46.1097 75.6484 45.7597 75.5465C45.407 75.4551 45.0517 75.3637 44.6913 75.2801L44.1505 75.1521L43.6202 74.9954C42.9149 74.7759 42.1835 74.5852 41.4939 74.2979C41.1439 74.1673 40.7991 74.0184 40.449 73.8773C40.274 73.8068 40.1068 73.7232 39.9423 73.637C39.7751 73.5534 39.6079 73.4646 39.4433 73.3758C39.1115 73.1982 38.7824 73.0179 38.4585 72.8246C38.1398 72.6261 37.8394 72.4014 37.5338 72.1846C37.2282 71.9652 36.9251 71.7458 36.6352 71.5054C36.353 71.2573 36.0814 70.9987 35.8045 70.7479L35.3918 70.3665C35.2507 70.2411 35.1175 70.1105 34.9948 69.9694L34.2372 69.1414C33.9864 68.8645 33.7382 68.585 33.5162 68.2846C33.2863 67.9894 33.0617 67.6916 32.8448 67.3886L32.5157 66.9393C32.4138 66.7826 32.3172 66.6232 32.2179 66.4639C32.0246 66.1452 31.8261 65.8291 31.638 65.5104C31.2567 64.873 30.9615 64.186 30.6454 63.5225C30.567 63.3553 30.4965 63.1855 30.4338 63.0105C30.3685 62.8381 30.3058 62.6631 30.2457 62.4881C30.1203 62.1407 30.0028 61.7906 29.8905 61.4432C29.692 60.7327 29.5457 60.0039 29.4255 59.2829C29.4072 59.1653 29.4856 59.0556 29.6031 59.0347C29.6763 59.0217 29.7494 59.0504 29.7964 59.1L29.8095 59.1131L29.8069 59.1053Z" fill="black"/>
</svg>
