<svg width="93" height="96" viewBox="0 0 93 96" fill="none" xmlns="http://www.w3.org/2000/svg">
<path d="M0.851715 56.509C-3.00668 34.6304 10.8663 14.4716 27.7627 6.15872C30.7702 4.67997 47.9146 -3.33029 64.8748 4.63904C76.1815 9.95344 81.5391 19.6108 84.1895 24.3883C86.4986 28.5515 92.0747 38.9392 90.7006 53.0351C90.2137 58.0196 88.1708 70.5298 78.113 80.5967C65.2228 93.5005 43.6627 97.8935 25.8108 89.2781C24.464 88.6274 4.76926 78.7108 0.851715 56.5068V56.509Z" fill="#FCDB00"/>
<path d="M0.683449 56.5386C-0.347126 50.6145 -0.203798 44.4971 1.05655 38.5821C2.3533 32.6807 4.70111 26.9545 8.06129 21.8403C9.74479 19.2901 11.6262 16.8513 13.7533 14.6332L14.5609 13.8096L14.9682 13.4001L15.3868 13.0042L16.2263 12.2125C16.5084 11.9532 16.8018 11.703 17.0907 11.4482C18.2487 10.4335 19.4704 9.49163 20.7171 8.58163C23.2378 6.80258 25.9291 5.25106 28.7706 4.00436C30.1902 3.39011 31.6303 2.83952 33.0954 2.37087C34.5582 1.89312 36.0438 1.48592 37.5453 1.14922C40.5483 0.473549 43.6172 0.0845221 46.693 0.0094471C49.7688 -0.0542529 52.8538 0.202838 55.8613 0.821638C61.8923 2.02966 67.5298 4.78693 72.2641 8.58391C72.4119 8.70221 72.5666 8.8137 72.7099 8.93882L73.1399 9.3119L73.9999 10.0581C74.2911 10.3038 74.5504 10.5814 74.828 10.8362L75.6493 11.6233C76.7026 12.7131 77.7309 13.8278 78.6773 15.0108C78.9139 15.3065 79.1573 15.5955 79.3871 15.8981L80.0673 16.8058C80.2994 17.1061 80.5132 17.4154 80.7316 17.7248C80.9477 18.0365 81.173 18.3391 81.38 18.6553C82.224 19.9089 83.0203 21.1943 83.7869 22.491C84.5445 23.79 85.293 25.089 86.0005 26.4313C86.7126 27.7667 87.3837 29.1271 87.9797 30.524C88.594 31.914 89.1173 33.3428 89.62 34.7783C89.843 35.5063 90.0887 36.2274 90.2911 36.9622L90.5869 38.0679L90.7348 38.6207C90.7803 38.805 90.8189 38.9938 90.8599 39.1781C92.2499 45.1204 92.4911 51.3972 91.4378 57.4669C90.9464 60.5063 90.116 63.4888 89.0376 66.3848C87.9547 69.2809 86.5715 72.0723 84.9108 74.6977C83.25 77.3231 81.2981 79.7732 79.1141 82.0004C76.905 84.2003 74.4822 86.1864 71.8659 87.8722C71.5383 88.0815 71.213 88.2976 70.8831 88.5024L69.8799 89.0985L69.3771 89.3942L68.8652 89.6717L67.8369 90.2246C66.4423 90.9139 65.0364 91.585 63.5849 92.1424C60.6957 93.2958 57.6858 94.1353 54.6328 94.704C48.5199 95.8233 42.1885 95.7619 36.1211 94.456C33.0863 93.8031 30.1333 92.8067 27.3146 91.535C26.9597 91.3848 26.6139 91.2096 26.2681 91.039L25.2307 90.5271C24.5073 90.1495 23.8589 89.7513 23.1991 89.3396C21.8955 88.5137 20.6398 87.6311 19.4295 86.6961C17.0043 84.8283 14.768 82.7398 12.7046 80.5058C10.6593 78.2535 8.79839 75.8443 7.18769 73.2827C6.37097 72.0087 5.64067 70.6846 4.9468 69.3446L4.45314 68.3254L4.20742 67.8158L3.97992 67.2971L3.52492 66.262C3.37705 65.9162 3.24966 65.5613 3.11088 65.211C2.97893 64.8583 2.83106 64.5125 2.71048 64.1553L2.34421 63.0884L2.1622 62.5537C2.10305 62.374 2.05528 62.192 2.00068 62.0123L1.68445 60.9294C1.57298 60.57 1.49108 60.2037 1.3978 59.8397L1.12709 58.7454C0.967841 58.0106 0.833601 57.2712 0.685726 56.5341L0.683449 56.5386ZM1.02014 56.4795C2.07119 62.3513 4.46679 67.9683 7.94981 72.7685C11.4078 77.5938 15.8577 81.6251 20.749 84.851C21.9706 85.6609 23.2287 86.4117 24.5072 87.0987C25.1442 87.4377 25.804 87.7698 26.4251 88.0497L27.4284 88.4706C27.7628 88.6093 28.0949 88.7549 28.4362 88.8755C29.1164 89.1257 29.7875 89.3919 30.4814 89.6058C30.8249 89.7173 31.1662 89.8378 31.512 89.9425L32.5539 90.2405L33.0749 90.3929L33.6004 90.5248L34.6515 90.7865C35.0018 90.8707 35.359 90.9344 35.7116 91.0094C36.0665 91.0777 36.4169 91.1664 36.7718 91.221C37.4838 91.3393 38.1914 91.4781 38.908 91.5577L39.9795 91.6965L41.0556 91.7989L41.5925 91.8512L42.1317 91.8831L43.21 91.9445C43.5695 91.9604 43.9312 91.9604 44.2907 91.9695C44.6501 91.974 45.0118 91.9922 45.3713 91.9786C46.0925 91.9649 46.8114 91.9627 47.5303 91.9103C47.8897 91.8876 48.2492 91.8762 48.6086 91.8466L49.6847 91.7511C50.0441 91.7238 50.4013 91.6806 50.7585 91.6328L51.83 91.4985L52.897 91.3234C53.2519 91.2665 53.6068 91.2074 53.9594 91.1323L55.0173 90.9185C55.3699 90.8457 55.718 90.7569 56.0683 90.675C56.7713 90.5226 57.4629 90.3178 58.1568 90.129C58.5048 90.0403 58.8438 89.9174 59.1896 89.8151C59.5309 89.7036 59.879 89.6058 60.2179 89.4852C60.8936 89.2395 61.5784 89.0165 62.2449 88.7435C63.5917 88.2385 64.8953 87.6242 66.1898 86.9986C67.4615 86.3297 68.7355 85.6609 69.9436 84.8783C72.3869 83.3609 74.6483 81.5682 76.7162 79.5776C78.7637 77.5665 80.6156 75.3529 82.2058 72.9527C85.3908 68.1525 87.5611 62.6652 88.751 56.9686C89.049 55.5444 89.2947 54.1067 89.4449 52.6597L89.6519 50.4848C89.6906 49.7568 89.711 49.0289 89.7406 48.3009C89.7907 45.3843 89.554 42.4564 89.0353 39.5671C89.0035 39.3874 88.9762 39.2054 88.9421 39.0257L88.8261 38.4888L88.594 37.4127C88.4348 36.6961 88.23 35.9886 88.0503 35.2742L87.7318 34.2164C87.6226 33.8637 87.527 33.5088 87.3974 33.163C87.1539 32.4669 86.9196 31.7685 86.6421 31.0837C86.1165 29.705 85.5182 28.3514 84.8676 27.0205C84.2124 25.6965 83.5003 24.3815 82.7814 23.0756C81.3481 20.4708 79.7443 17.9683 77.8765 15.6706C77.4238 15.0859 76.9301 14.5353 76.4409 13.9779C76.2021 13.6958 75.9405 13.4342 75.6834 13.1681L74.9144 12.3695L74.1091 11.6074C73.8383 11.3571 73.579 11.0932 73.2924 10.8612L72.4438 10.1491L72.0206 9.79422C71.8796 9.67592 71.7271 9.57128 71.5816 9.45753C66.9133 5.8471 61.3213 3.4902 55.536 2.68485C52.6444 2.2708 49.7142 2.20025 46.8136 2.4323C45.3622 2.55742 43.9175 2.72808 42.482 2.97833C41.0465 3.22631 39.6292 3.55844 38.2209 3.92244C35.409 4.66864 32.6495 5.63095 30.0014 6.8094C27.3715 7.99695 24.8462 9.4348 22.4484 11.0682C21.2631 11.9054 20.0801 12.7517 18.9631 13.6845C18.681 13.9143 18.3943 14.1394 18.1168 14.3738L17.2932 15.0904C16.7336 15.5591 16.2217 16.0778 15.6803 16.5646C13.5691 18.5757 11.6057 20.7574 9.83805 23.0961C9.38532 23.674 8.97356 24.2792 8.54131 24.8752C8.11588 25.4735 7.72913 26.0969 7.31736 26.7089C6.94198 27.339 6.54386 27.9601 6.18441 28.6039C5.83406 29.25 5.45642 29.8847 5.13792 30.5513C3.79794 33.1789 2.69229 35.9385 1.89149 38.7959C1.10206 41.6556 0.61976 44.6063 0.467335 47.5797L0.435482 48.1371L0.419569 48.4169V48.6967L0.417292 49.8137V50.3734L0.440036 50.9308L0.49008 52.0478C0.496905 52.4209 0.54696 52.7917 0.581085 53.1625L0.692558 54.275C0.785833 55.0144 0.908693 55.7492 1.01562 56.4886L1.02014 56.4795Z" fill="black"/>
<path d="M24.0568 36.5095L13.064 79.7596L27.6877 90.1312L31.9374 35.3948L24.0568 36.5095Z" fill="#ADE5D8"/>
<path d="M24.1093 36.5687C23.3426 40.3338 22.5327 44.0079 21.7069 47.6547L21.0858 50.3825L20.4488 53.0943L19.8095 55.8015L19.1543 58.4929C18.2966 62.0919 17.3707 65.6409 16.3765 69.1808C15.3846 72.7184 14.329 76.256 13.3485 79.8323L13.2325 79.5184L15.0388 80.8447L16.8588 82.1529C18.0691 83.031 19.2999 83.875 20.5193 84.7395C21.7501 85.5858 22.974 86.4458 24.2162 87.2739L27.9335 89.7809L27.2533 90.0994L27.6014 83.2426C27.7242 80.9585 27.8698 78.6744 28.02 76.3925L28.4795 69.5448C28.6365 67.2629 28.7776 64.9789 28.9596 62.6993L29.2212 59.2777L29.5147 55.8584L29.8081 52.4391L30.1266 49.022C30.5498 44.4652 31.0139 39.9129 31.5189 35.3629L31.9853 35.802C31.3438 35.868 30.7022 35.9408 30.0538 35.9999L28.0973 36.1865L24.1002 36.5664L24.1093 36.5687ZM24.0023 36.4504L27.8858 35.7178L29.8696 35.347C30.5339 35.2219 31.205 35.1081 31.8784 34.9898C32.0968 34.9511 32.3038 35.0967 32.3425 35.3129C32.347 35.3424 32.3493 35.3698 32.3493 35.3971V35.4266C32.1468 39.9994 31.9011 44.5698 31.6168 49.1358L31.4052 52.5619L31.1686 55.9858L30.9297 59.4097L30.659 62.8312C30.4884 65.1131 30.2745 67.3904 30.0766 69.6699L29.476 76.5063C29.2735 78.7858 29.0642 81.0631 28.8322 83.3404L28.1201 90.1677V90.1904C28.0928 90.4247 27.8835 90.5954 27.6492 90.5704C27.5695 90.5613 27.4967 90.5317 27.4376 90.4884L23.8431 87.8085C22.6487 86.9099 21.4339 86.0408 20.2281 85.1581C19.011 84.2913 17.8052 83.4087 16.5767 82.5578L14.7408 81.2724L12.8912 80.0052C12.7911 79.937 12.7456 79.8142 12.7729 79.7004V79.689C13.6283 76.0558 14.4041 72.384 15.2436 68.7144C16.0831 65.0448 16.9885 61.3866 17.9622 57.7762L18.6811 55.0621L19.416 52.3617L20.1531 49.6681L20.9061 46.9904C21.9139 43.4301 22.9354 39.8947 24.0001 36.4526L24.0023 36.4504Z" fill="black"/>
<path d="M69.352 36.5095L80.3447 79.7596L65.721 90.1312L61.4736 35.3948L69.352 36.5095Z" fill="#ADE5D8"/>
<path d="M69.4063 36.4504C70.471 39.8947 71.4925 43.4278 72.5003 46.9882L73.2533 49.6658L73.9904 52.3595L74.7252 55.0599L75.4441 57.7739C76.4178 61.3843 77.3233 65.0426 78.1628 68.7121C79.0022 72.3817 79.778 76.0536 80.6311 79.6867V79.6958C80.6607 79.8141 80.6107 79.9347 80.5151 80.0007L78.6655 81.2678L76.8296 82.5533C75.6011 83.4041 74.3953 84.2868 73.1782 85.1536C71.9725 86.0363 70.7576 86.9053 69.5632 87.8039L65.9687 90.4839C65.7799 90.6249 65.5137 90.5863 65.3727 90.3975C65.3249 90.3338 65.2976 90.2609 65.2908 90.1881V90.1654L64.5764 83.3381C64.3444 81.0608 64.1374 78.7836 63.9326 76.504L63.332 69.6676C63.1341 67.3881 62.9203 65.1108 62.7496 62.829L62.4789 59.4074L62.24 55.9835L62.0034 52.5596L61.7918 49.1335C61.5075 44.5676 61.2618 39.9971 61.0616 35.4243V35.3971C61.0502 35.1764 61.2208 34.9898 61.4415 34.9807C61.4711 34.9807 61.5007 34.9807 61.528 34.9875C62.1991 35.1058 62.8725 35.2196 63.5368 35.3447L65.5206 35.7155L69.404 36.4481L69.4063 36.4504ZM69.2993 36.5687L65.3022 36.1888L63.3457 36.0022C62.6973 35.943 62.0558 35.8703 61.4142 35.8043L61.8828 35.3652C62.3879 39.9152 62.852 44.4675 63.2751 49.0243L63.5936 52.4413L63.8871 55.8607L64.1806 59.28L64.4422 62.7016C64.6265 64.9812 64.7653 67.2652 64.9222 69.547L65.3818 76.3948C65.5319 78.6766 65.6775 80.9607 65.8004 83.2448L66.1485 90.1017L65.4682 89.7832L69.1856 87.2762C70.43 86.4458 71.6517 85.5881 72.8825 84.7418C74.1019 83.8796 75.3349 83.0333 76.543 82.1551L78.363 80.847L80.1693 79.5207L80.0533 79.8346C79.075 76.2583 78.0194 72.7207 77.0253 69.1831C76.0334 65.6432 75.1051 62.0942 74.2475 58.4951L73.5923 55.8038L72.953 53.0966L72.316 50.3847L71.6949 47.657C70.8714 44.0079 70.0592 40.3338 69.2925 36.5709L69.2993 36.5687Z" fill="black"/>
<path d="M47.1141 67.6816C51.1046 67.6816 54.3394 63.6776 54.3394 58.7385C54.3394 53.7994 51.1046 49.7955 47.1141 49.7955C43.1236 49.7955 39.8887 53.7994 39.8887 58.7385C39.8887 63.6776 43.1236 67.6816 47.1141 67.6816Z" fill="black"/>
<path d="M54.4981 58.7385C54.4799 59.8146 54.4184 60.8884 54.2592 61.9918C54.2364 62.1283 54.2251 62.2694 54.2 62.4081L54.1159 62.8222L54.0362 63.2453L53.9225 63.6617L53.8042 64.0825C53.7587 64.2213 53.7041 64.3555 53.6541 64.4943L53.4948 64.9106C53.4356 65.0471 53.3674 65.1814 53.3014 65.3156C52.7691 66.3894 51.9501 67.3904 50.8535 68.0729C50.3121 68.4209 49.7001 68.6712 49.0676 68.8396C48.7537 68.9283 48.4193 68.9578 48.0985 69.0034C47.7709 69.0284 47.4433 69.0147 47.118 69.0102C45.8098 68.9124 44.5973 68.3504 43.6486 67.6087C42.6908 66.858 41.9583 65.9548 41.3417 65.0175C40.7275 64.0757 40.2293 63.0815 39.8471 62.0304C39.4694 60.9817 39.1714 59.8828 39.0212 58.7385C38.8825 57.5965 38.8893 56.4044 39.1327 55.2305C39.3716 54.0566 39.8562 52.9168 40.5387 51.8749C41.2212 50.8352 42.1221 49.8797 43.255 49.1835C44.3789 48.4828 45.7484 48.0688 47.118 48.0938C48.4852 48.1189 49.8343 48.5602 50.9195 49.2904C52.0115 50.023 52.8146 51.0513 53.3378 52.1365C53.4038 52.273 53.472 52.4072 53.5289 52.5437L53.6859 52.9646C53.7359 53.1034 53.7905 53.2399 53.8338 53.3809L53.9521 53.8041L54.0658 54.2204L54.1454 54.6435L54.2296 55.0599C54.2524 55.1986 54.266 55.3397 54.2865 55.4785C54.4435 56.5841 54.4981 57.6647 54.5003 58.7408L54.4981 58.7385ZM54.1796 58.7385C54.1682 57.692 53.9202 56.6501 53.4629 55.7264C53.4083 55.6104 53.3537 55.4944 53.29 55.3829L53.0853 55.0576L52.876 54.7391L52.6394 54.4411L52.4073 54.1499C52.3254 54.0566 52.2344 53.9702 52.1503 53.8814L51.8955 53.6198C51.8067 53.5356 51.7112 53.4628 51.6225 53.3832C50.9013 52.7576 50.1301 52.2934 49.3816 51.9681C48.6331 51.636 47.8733 51.4745 47.1157 51.4972C46.3581 51.5268 45.6233 51.7156 44.9112 52.0773C44.2037 52.439 43.5303 52.9737 42.9684 53.6471C42.4042 54.3205 41.9583 55.1213 41.5829 55.9744C41.2121 56.8298 40.914 57.758 40.7616 58.7385C40.6251 59.7168 40.6319 60.7383 40.8685 61.7188C41.1029 62.697 41.5306 63.6412 42.1653 64.4147C42.7955 65.1905 43.6349 65.7774 44.5176 66.0845C45.4026 66.4053 46.2944 66.4462 47.1134 66.3529C47.9393 66.246 48.6946 65.9935 49.443 65.6204C50.187 65.245 50.94 64.7559 51.6543 64.1167C51.7408 64.0348 51.8386 63.9597 51.925 63.8755L52.1776 63.6116C52.2617 63.5229 52.3505 63.4341 52.4324 63.3408L52.6644 63.0474L52.8987 62.7471L53.108 62.4286L53.3128 62.101C53.3765 61.9895 53.4311 61.8735 53.4857 61.7575C53.9407 60.8315 54.1841 59.785 54.1773 58.7385H54.1796Z" fill="black"/>
<path d="M42.582 65.0471C43.7628 66.7078 45.4394 67.7453 47.2981 67.7453C49.6186 67.7453 51.6547 66.13 52.7968 63.7049C51.6161 62.0441 49.9394 61.0067 48.0807 61.0067C45.7602 61.0067 43.7241 62.6219 42.582 65.0471Z" fill="#FF55AB"/>
<path d="M16.4239 30.1008C16.8471 29.7209 17.2839 29.4297 17.7207 29.1499C18.1597 28.8746 18.6011 28.6335 19.0493 28.4082C19.4952 28.1853 19.9456 27.9783 20.4006 27.7894C20.8556 27.5983 21.3174 27.4368 21.8111 27.3412C22.7894 27.141 23.8723 27.1387 24.8141 26.7838C25.756 26.4358 26.5977 25.8671 27.3462 25.1618C27.7216 24.8137 28.0901 24.4611 28.4678 24.1312C28.8454 23.8013 29.2435 23.5078 29.6303 23.2007C30.4061 22.5887 31.1545 21.9518 31.9713 21.4103C32.3808 21.1396 32.7971 20.8779 33.2248 20.6277C33.6502 20.3752 34.0825 20.1295 34.5284 19.8906C35.4202 19.4174 36.3302 18.9533 37.3744 18.5938C37.4495 18.5688 37.5337 18.6075 37.5587 18.6826C37.5701 18.7167 37.5678 18.7531 37.5564 18.785C37.3448 19.2991 37.0832 19.7701 36.7965 20.2182C36.5122 20.6687 36.1959 21.0918 35.8638 21.499C35.5294 21.904 35.1767 22.293 34.8036 22.657C34.4351 23.0256 34.0461 23.3737 33.6366 23.6944C32.8221 24.3405 31.8985 24.8387 30.9725 25.3097C30.5084 25.544 30.0466 25.7806 29.5529 25.9603C29.3095 26.0559 29.057 26.1355 28.8045 26.2105C28.5519 26.2879 28.2994 26.363 28.0446 26.4289C27.5373 26.5723 27.0345 26.711 26.559 26.8976C26.0836 27.0841 25.6195 27.2935 25.1781 27.5506C24.2932 28.0556 23.5242 28.8541 22.6233 29.391C22.1751 29.664 21.6951 29.8597 21.1992 30.0076C20.7055 30.16 20.1981 30.2805 19.684 30.3647C19.1698 30.4511 18.6489 30.5035 18.1165 30.508C17.5842 30.5103 17.0473 30.4807 16.4922 30.3533C16.4125 30.3351 16.3625 30.2555 16.3807 30.1759C16.3875 30.1441 16.4035 30.119 16.4262 30.0985L16.4239 30.1008Z" fill="black"/>
<path d="M78.4246 30.3579C77.8695 30.4853 77.3327 30.5149 76.8003 30.5126C76.268 30.5081 75.747 30.4557 75.2328 30.3693C74.7187 30.2828 74.2136 30.1645 73.7199 30.0121C73.224 29.8642 72.744 29.6686 72.2958 29.3956C71.3949 28.8587 70.6237 28.0602 69.741 27.5551C69.2996 27.298 68.8355 27.0887 68.36 26.9022C67.8846 26.7156 67.3818 26.5746 66.8745 26.4335C66.6197 26.3653 66.3671 26.2925 66.1146 26.2151C65.8621 26.14 65.6096 26.0604 65.3661 25.9649C64.8747 25.7829 64.4107 25.5485 63.9466 25.3142C63.0184 24.8433 62.097 24.345 61.2825 23.6989C60.873 23.3782 60.484 23.0301 60.1154 22.6616C59.7423 22.2976 59.3897 21.9085 59.0553 21.5036C58.7232 21.0964 58.4069 20.6732 58.1225 20.2228C57.8359 19.7746 57.5743 19.3037 57.3627 18.7895C57.3331 18.7145 57.3672 18.6303 57.44 18.6007C57.4742 18.587 57.5106 18.587 57.5424 18.5984C58.5844 18.9579 59.4966 19.422 60.3884 19.8952C60.8321 20.1318 61.2666 20.3775 61.692 20.6323C62.1197 20.8825 62.536 21.1442 62.9455 21.4149C63.7623 21.9563 64.5107 22.5933 65.2865 23.2053C65.6733 23.5124 66.0714 23.8059 66.4491 24.1358C66.8267 24.4657 67.1952 24.8183 67.5706 25.1664C68.3168 25.8716 69.1586 26.4403 70.1027 26.7884C71.0445 27.1433 72.1275 27.1479 73.1057 27.3458C73.5971 27.4413 74.0612 27.6028 74.5162 27.7939C74.9712 27.9828 75.4216 28.1876 75.8675 28.4128C76.3134 28.638 76.7571 28.8792 77.1961 29.1544C77.6329 29.4343 78.0697 29.7232 78.4929 30.1054C78.5543 30.1623 78.5589 30.2555 78.5043 30.3169C78.4838 30.3397 78.4565 30.3556 78.4269 30.3624L78.4246 30.3579Z" fill="black"/>
<path d="M17.7188 34.8829C19.6548 35.4198 21.6205 35.7315 23.5679 35.7269C24.5393 35.736 25.5039 35.67 26.4525 35.5313L26.8075 35.4835L27.1601 35.4175L27.863 35.2879C28.0974 35.2492 28.3249 35.1764 28.5569 35.1218C28.7867 35.0604 29.0165 35.0103 29.244 34.9421C30.1494 34.6622 31.0253 34.2982 31.8534 33.8569C32.2788 33.6612 32.6815 33.4247 33.1092 33.2427C33.521 33.0265 33.9555 32.8513 34.3786 32.6489C35.2386 32.2667 36.1054 31.8685 36.9904 31.4476C37.8822 31.0336 38.7808 30.5968 39.784 30.185C39.8659 30.1509 39.9592 30.1896 39.9934 30.2715C40.0093 30.3124 40.0093 30.3557 39.9934 30.3921C39.5839 31.4113 38.965 32.3031 38.2575 33.1084C37.5477 33.9138 36.7287 34.6213 35.8324 35.2242C35.391 35.5358 34.911 35.7861 34.4287 36.0273C33.9305 36.2388 33.4345 36.4527 32.909 36.5892C32.6474 36.6597 32.388 36.737 32.1264 36.8007L31.3324 36.9668L30.9388 37.051C30.8069 37.0715 30.6727 37.0897 30.5407 37.1147L29.749 37.2512C29.4851 37.2944 29.2189 37.3171 28.955 37.3513C28.6889 37.3786 28.4272 37.4241 28.1611 37.4332L27.3648 37.4718L26.969 37.4901H26.5709C25.5107 37.4741 24.4596 37.374 23.4291 37.1966C21.3679 36.828 19.3932 36.1342 17.6051 35.1536C17.5323 35.115 17.5072 35.024 17.5459 34.9512C17.58 34.8898 17.6528 34.8624 17.7165 34.8806L17.7188 34.8829Z" fill="black"/>
<path d="M76.6206 35.1559C74.8324 36.1364 72.8577 36.8303 70.7966 37.1988C69.766 37.3763 68.7149 37.4764 67.6548 37.4946H67.2567L66.8608 37.4741L66.0646 37.4354C65.7984 37.4263 65.5368 37.3808 65.2706 37.3535C65.0067 37.3194 64.7382 37.2967 64.4766 37.2534L63.6849 37.117C63.553 37.0919 63.4187 37.0737 63.2868 37.0533L62.8932 36.9691L62.0993 36.803C61.8376 36.7393 61.5783 36.662 61.3166 36.5914C60.7911 36.4549 60.2929 36.2411 59.797 36.0295C59.3147 35.7861 58.8346 35.5358 58.3933 35.2264C57.4969 34.6258 56.6802 33.916 55.9681 33.1107C55.2606 32.3053 54.6418 31.4135 54.2323 30.3943C54.1982 30.3124 54.2391 30.2191 54.321 30.185C54.362 30.1691 54.4052 30.1691 54.4416 30.185C55.4449 30.5968 56.3435 31.0359 57.2353 31.4476C58.1203 31.8685 58.987 32.2666 59.847 32.6488C60.2701 32.8536 60.7024 33.0265 61.1164 33.2426C61.5441 33.4269 61.9491 33.6635 62.3722 33.8569C63.2026 34.2982 64.0762 34.66 64.9817 34.9421C65.2092 35.0103 65.4389 35.0604 65.6687 35.1218C65.8985 35.1764 66.1283 35.2492 66.3626 35.2879L67.0656 35.4175L67.4182 35.4835L67.7731 35.5312C68.7218 35.67 69.6864 35.736 70.6578 35.7269C72.6052 35.7315 74.5708 35.4198 76.5068 34.8829C76.5864 34.8602 76.6683 34.9056 76.6911 34.9853C76.7093 35.0535 76.6774 35.124 76.6206 35.1559Z" fill="black"/>
</svg>
