<svg width="93" height="93" viewBox="0 0 93 93" fill="none" xmlns="http://www.w3.org/2000/svg">
<path d="M0.262471 53.1651C0.0417963 49.6412 -1.01381 26.4021 17.4069 11.4963C20.535 8.96419 31.1706 1.05399 46.7043 1.29514C64.0717 1.56587 75.1987 11.8398 77.7399 14.3172C93.1758 29.3755 91.6629 49.3886 91.4126 52.08C91.0486 56.0021 89.4038 71.1786 76.8708 81.812C62.3267 94.1538 43.9038 91.2259 35.2019 89.8427C27.5102 88.6187 17.6344 87.049 9.81067 78.7748C1.29989 69.7749 0.596896 58.5341 0.262471 53.1651Z" fill="#ADE5D8"/>
<path d="M0.0918344 53.1765C-0.00599064 51.6705 -0.0173534 50.1622 0.0190466 48.6561C0.0463466 47.1501 0.146454 45.644 0.282954 44.1425C0.421729 42.641 0.617358 41.1441 0.858508 39.6517C0.990458 38.9077 1.11332 38.1615 1.27257 37.4221C1.34992 37.0513 1.41818 36.6805 1.50463 36.312L1.76398 35.2063C2.13253 33.7389 2.52608 32.2693 3.01748 30.8315C3.24271 30.1058 3.51572 29.3937 3.77507 28.6771C3.9002 28.3176 4.05717 27.9696 4.19594 27.6147C4.34382 27.262 4.47806 26.9048 4.63503 26.5567C5.86125 23.7608 7.34226 21.0581 9.10538 18.5305C10.8708 16.0076 12.9228 13.6666 15.2069 11.5759L16.0737 10.8024L16.5082 10.4179L16.9564 10.0471C17.557 9.55566 18.169 9.08023 18.7946 8.62068C19.104 8.38636 19.4271 8.17246 19.7433 7.94951C20.0618 7.72884 20.3803 7.50592 20.7079 7.30117L21.6839 6.67099L22.6849 6.07947L23.1854 5.78599L23.6972 5.50844L24.721 4.95791C25.4103 4.60301 26.111 4.27087 26.8117 3.93872C27.5261 3.63842 28.2359 3.3222 28.9548 3.03327C29.6828 2.76482 30.4062 2.48272 31.1433 2.23702C34.0849 1.24512 37.1379 0.569448 40.2228 0.248673C40.9895 0.130373 41.7676 0.114436 42.5411 0.0666614L43.7013 0.00295478C44.0881 -0.00387022 44.4748 0.00295701 44.8616 0.005232C46.4086 0.005232 47.9556 0.0370731 49.4889 0.223623C51.0245 0.389698 52.5511 0.614959 54.0548 0.942559C55.5609 1.26561 57.051 1.64324 58.5116 2.12099C64.3629 3.99332 69.7728 7.00539 74.5207 10.791C79.2869 14.5789 83.259 19.3177 86.2415 24.623C87.7157 27.2847 88.9511 30.083 89.9202 32.9745C90.8871 35.866 91.6105 38.844 92.0701 41.8698C92.5296 44.8955 92.7435 47.9577 92.6479 51.0517C92.6343 51.4384 92.6161 51.8275 92.5888 52.2165C92.5615 52.5964 92.5342 52.9786 92.5001 53.3631C92.4341 54.1298 92.3499 54.8964 92.2475 55.6585C92.036 57.1851 91.7607 58.7048 91.4103 60.2085C90.7233 63.2206 89.72 66.1668 88.4346 68.9969C87.147 71.8247 85.5545 74.532 83.6594 77.0208C79.8852 82.0122 74.9029 86.1185 69.2154 88.828C68.8605 88.9987 68.4988 89.1534 68.1416 89.3149L67.6024 89.556L67.0565 89.7768C66.6902 89.9201 66.3285 90.0725 65.9599 90.2113L64.8497 90.6026C63.3596 91.0939 61.8512 91.5353 60.3202 91.8606C57.2626 92.534 54.1527 92.8753 51.0518 92.9685C47.951 93.0436 44.8616 92.8912 41.8131 92.5386C40.2888 92.3657 38.7737 92.1496 37.2722 91.9107C35.7684 91.6695 34.2965 91.4079 32.8018 91.1395C31.3094 90.871 29.8079 90.5571 28.3132 90.2021L27.1939 89.9223L26.0769 89.6107C25.3307 89.4128 24.5959 89.158 23.8588 88.9236C20.9218 87.9181 18.0825 86.5644 15.4799 84.8513C12.8864 83.1223 10.5796 80.9975 8.61856 78.627C6.65068 76.2564 5.0468 73.6129 3.80465 70.8351C3.16992 69.4496 2.66714 68.0118 2.20076 66.5718C2.08929 66.21 1.99374 65.8415 1.89137 65.4775C1.79354 65.1112 1.67751 64.7517 1.59788 64.3809C1.42498 63.6438 1.24073 62.9113 1.10878 62.1673C0.810755 60.6863 0.594612 59.1916 0.435362 57.6924C0.264737 56.1955 0.162374 54.6917 0.0781988 53.1902L0.0918344 53.1765ZM0.433084 53.156C0.615084 56.1499 0.929046 59.1393 1.61155 62.0513C1.76625 62.7816 1.97554 63.5005 2.17119 64.2194C2.26219 64.5811 2.38961 64.9314 2.50336 65.2863C2.62166 65.639 2.73084 65.9962 2.85824 66.3465C3.37922 67.7411 3.94796 69.1175 4.64639 70.4256L5.16509 71.4084C5.3471 71.7292 5.54958 72.0408 5.74068 72.3571C5.93633 72.671 6.12286 72.9895 6.32534 73.2989L6.9669 74.2021C7.1853 74.4978 7.3855 74.8095 7.61983 75.0916L8.3228 75.9425L8.67315 76.3679C8.7869 76.5112 8.9052 76.6523 9.03715 76.7819L9.79699 77.5782C11.8286 79.6917 14.1582 81.4889 16.6834 82.9108C19.2155 84.3281 21.9318 85.37 24.7278 86.1549C27.5374 86.9216 30.4176 87.4426 33.3614 87.8726C34.8311 88.0955 36.3258 88.3048 37.7932 88.5118C39.2628 88.7166 40.7279 88.8963 42.1907 89.0328C45.1186 89.3013 48.042 89.4287 50.9495 89.3218C56.7553 89.1216 62.4996 87.9749 67.7162 85.5953C70.312 84.3895 72.7849 82.9085 75.0258 81.1135C76.1633 80.2377 77.228 79.2685 78.2495 78.2584C79.2755 77.2506 80.2242 76.1677 81.1205 75.0393C84.7105 70.5234 87.2266 65.1658 88.7645 59.5351C89.1535 58.1269 89.472 56.6983 89.7314 55.2559C89.8611 54.5347 89.9794 53.8135 90.0795 53.0855C90.1318 52.7215 90.175 52.3575 90.2205 51.9913C90.2637 51.6318 90.3001 51.2724 90.3297 50.9084C90.5709 48.0009 90.5185 45.0343 90.2228 42.1018C89.9157 39.1671 89.3856 36.2437 88.5461 33.4045C88.1434 31.9804 87.6429 30.5835 87.1038 29.2049L86.6738 28.1811C86.5327 27.8376 86.3667 27.5077 86.2142 27.1687C85.9139 26.4908 85.5658 25.8356 85.2314 25.1735C85.0676 24.8414 84.8743 24.5252 84.6968 24.1976C84.5125 23.8768 84.3442 23.5447 84.144 23.2307C83.7527 22.6005 83.375 21.9613 82.9473 21.3539L82.3217 20.4347L81.6574 19.5407C81.2229 18.9378 80.736 18.3758 80.2697 17.798C78.3655 15.5162 76.2065 13.455 73.8496 11.6509C69.1404 8.02914 63.6963 5.38333 57.9974 3.92505C56.5733 3.55195 55.1286 3.27666 53.6795 3.05599C52.2303 2.82849 50.7698 2.70112 49.3115 2.63059C47.8509 2.54869 46.3904 2.57146 44.9344 2.64653C44.5704 2.66246 44.2064 2.67155 43.8424 2.6943L42.7549 2.80805C42.0315 2.89222 41.3057 2.93543 40.5891 3.06965L39.513 3.24255C39.1559 3.30398 38.7941 3.34267 38.4392 3.4314L36.3098 3.89095L34.2078 4.46198C33.5139 4.67128 32.8246 4.90558 32.133 5.12626C29.3893 6.07493 26.7253 7.26703 24.1932 8.70028L23.2445 9.2372L22.3118 9.80367C21.9978 9.98795 21.6952 10.1881 21.3904 10.3883C21.0878 10.5885 20.7784 10.7819 20.4827 10.9935C19.8798 11.4007 19.2883 11.8239 18.7082 12.2607L18.2736 12.5905L17.8505 12.9364L17.0019 13.6234C14.7679 15.4889 12.6726 17.5432 10.8412 19.8364C8.99618 22.1137 7.36729 24.5843 5.98181 27.1983C4.60316 29.8168 3.47021 32.5787 2.59433 35.4292C1.72073 38.2798 1.10195 41.2168 0.737954 44.188C0.373954 47.1569 0.251108 50.1645 0.428558 53.1515L0.433084 53.156Z" fill="black"/>
<path d="M14.6562 40.6526L38.6166 34.7149C38.7167 35.7182 38.9555 39.3377 36.5713 42.9095C34.1849 46.4858 30.745 47.6551 29.7827 47.9486C28.6316 48.1784 24.8801 48.7767 20.8329 46.761C16.9836 44.8432 15.2068 41.7242 14.6562 40.6549V40.6526Z" fill="white"/>
<path d="M14.5518 40.6049C16.2603 39.9701 18.1008 39.3286 20.0049 38.6893C20.9491 38.364 21.9319 38.0546 22.9056 37.7316C23.8906 37.4176 24.8894 37.1037 25.8995 36.7988C27.9174 36.1868 29.9967 35.6136 32.0988 35.1244C34.1987 34.633 36.2985 34.1803 38.3755 33.7458L38.4506 33.7298C38.9693 33.6206 39.4789 33.9528 39.5881 34.4738C39.5972 34.5193 39.6041 34.5693 39.6063 34.6148C39.6996 36.1754 39.4539 37.7134 38.9784 39.158C38.4961 40.6026 37.7704 41.9358 36.9014 43.1347C36.4532 43.7262 35.9891 44.2995 35.4704 44.8273C34.9517 45.3505 34.408 45.851 33.8278 46.3106C32.6676 47.2274 31.4004 48.0305 29.9831 48.6129L29.9171 48.6288C28.3951 49.077 26.7753 49.2726 25.1737 49.102C24.3729 49.0201 23.5812 48.854 22.81 48.6174C22.4278 48.4855 22.041 48.3718 21.6748 48.2034C21.4905 48.1238 21.3017 48.051 21.122 47.9645L20.5828 47.696C19.1586 46.9544 17.8869 45.9375 16.8495 44.7454C16.3331 44.1493 15.8781 43.5032 15.4913 42.8276C15.3981 42.6569 15.3002 42.4886 15.2115 42.3157C15.1273 42.1405 15.0409 41.9676 14.9635 41.7879C14.8839 41.6127 14.8088 41.433 14.7406 41.2533L14.6428 40.9803C14.6291 40.9416 14.5927 40.8529 14.5813 40.7914C14.5654 40.7232 14.5586 40.6595 14.5518 40.6072V40.6049ZM14.7588 40.6982C14.7952 40.7278 14.8316 40.7482 14.8589 40.7641C14.8907 40.7846 14.8998 40.78 14.9294 40.8233L15.1046 41.0439L15.4618 41.4739C15.7006 41.7583 15.9532 42.0267 16.2011 42.2975C16.7107 42.8253 17.2431 43.3167 17.7982 43.7739C18.9152 44.6748 20.1232 45.4211 21.4086 45.9762C22.0479 46.2628 22.7122 46.4789 23.3787 46.6746C24.0521 46.852 24.7324 46.9885 25.4217 47.0977C26.7981 47.307 28.2199 47.3935 29.6441 47.2661L29.5781 47.282C30.9067 47.0227 32.2308 46.4994 33.3865 45.7145C33.9598 45.3164 34.4921 44.8591 34.9722 44.3518C35.4567 43.8467 35.8639 43.278 36.237 42.691C36.4031 42.3839 36.5897 42.0905 36.7216 41.7697C36.7921 41.6105 36.8695 41.4557 36.9332 41.2965L37.1175 40.8119C37.3381 40.159 37.5088 39.4924 37.6157 38.8213C37.8205 37.4768 37.8091 36.1118 37.6271 34.8127L38.8578 35.6818C36.9423 36.2346 35.0472 36.7715 33.1544 37.272C31.2639 37.7748 29.3461 38.1911 27.3737 38.5688C26.3886 38.7599 25.3898 38.9396 24.3775 39.1216C23.3537 39.2922 22.3414 39.4788 21.2903 39.6471C19.2019 39.9975 17.0474 40.3478 14.7633 40.7027L14.7588 40.6982Z" fill="black"/>
<path d="M14.4449 31.0954C14.9203 30.7837 15.3981 30.563 15.8713 30.3537C16.3467 30.149 16.8222 29.9784 17.2977 29.8237C17.7732 29.6712 18.2487 29.537 18.7287 29.4187C19.2064 29.3004 19.6887 29.2094 20.1915 29.1912C21.188 29.1434 22.2595 29.3049 23.2445 29.0979C24.2296 28.9 25.1487 28.4655 25.9928 27.8831C26.4182 27.5964 26.8345 27.303 27.2599 27.0345C27.6831 26.7661 28.1199 26.5363 28.5521 26.2929C29.4121 25.806 30.2493 25.2919 31.1388 24.8824C31.5847 24.6776 32.0352 24.4842 32.497 24.3022C32.9565 24.118 33.4206 23.9405 33.8961 23.7744C34.8493 23.4423 35.8208 23.1238 36.9059 22.9281C36.9856 22.9145 37.0606 22.9668 37.0743 23.0442C37.0811 23.0806 37.0743 23.1169 37.0561 23.1442C36.7694 23.6197 36.4373 24.0451 36.0869 24.4433C35.7366 24.8437 35.3612 25.2145 34.9699 25.5649C34.5786 25.9129 34.1714 26.2451 33.746 26.5476C33.3251 26.857 32.8883 27.1414 32.4333 27.3939C31.5278 27.9081 30.5405 28.2608 29.5531 28.5815C29.0594 28.7431 28.5658 28.9046 28.0516 29.0092C27.7968 29.0661 27.5352 29.107 27.2736 29.1412C27.012 29.1798 26.7526 29.214 26.4887 29.2413C25.9654 29.305 25.449 29.3664 24.9485 29.4779C24.448 29.5893 23.9589 29.7258 23.4834 29.9124C22.5325 30.2764 21.6498 30.9475 20.6761 31.3411C20.1915 31.5435 19.6864 31.6618 19.1746 31.7324C18.6627 31.8074 18.144 31.8484 17.623 31.8552C17.1021 31.8643 16.5788 31.8348 16.051 31.7574C15.5255 31.6778 14.9977 31.5663 14.4699 31.3547C14.3925 31.3252 14.3561 31.2387 14.388 31.1613C14.3994 31.1318 14.4198 31.109 14.4449 31.0931V31.0954Z" fill="black"/>
<path d="M77.2737 31.3593C76.7459 31.5708 76.2181 31.6823 75.6926 31.762C75.1671 31.837 74.6415 31.8666 74.1206 31.8598C73.5996 31.8529 73.0809 31.8143 72.569 31.7369C72.0571 31.6664 71.5521 31.5481 71.0675 31.3456C70.0938 30.952 69.2111 30.2809 68.2601 29.9169C67.7847 29.7304 67.2956 29.5939 66.7951 29.4824C66.2968 29.3709 65.7781 29.3095 65.2549 29.2458C64.9933 29.2185 64.7316 29.1844 64.47 29.1457C64.2084 29.1116 63.9468 29.0706 63.692 29.0137C63.1778 28.9091 62.6841 28.7475 62.1905 28.586C61.2008 28.263 60.2158 27.9126 59.3103 27.3985C58.8576 27.1437 58.4185 26.8593 57.9976 26.5522C57.5722 26.2496 57.1672 25.9198 56.7737 25.5694C56.3824 25.2191 56.007 24.8482 55.6566 24.4478C55.304 24.0474 54.9742 23.622 54.6875 23.1488C54.6466 23.0805 54.667 22.9918 54.7353 22.9486C54.7671 22.9304 54.8035 22.9236 54.8354 22.9304C55.9205 23.126 56.892 23.4445 57.8452 23.7767C58.3207 23.9428 58.787 24.1202 59.2443 24.3045C59.7039 24.4865 60.1566 24.6799 60.6025 24.8846C61.492 25.2941 62.3292 25.8105 63.1892 26.2951C63.6192 26.5385 64.056 26.7683 64.4814 27.0368C64.9045 27.3052 65.3231 27.5987 65.7486 27.8853C66.5949 28.4677 67.514 28.9022 68.4968 29.1002C69.4818 29.3072 70.5534 29.1457 71.5498 29.1935C72.0503 29.2117 72.5326 29.3027 73.0126 29.421C73.4904 29.537 73.9681 29.6735 74.4436 29.8259C74.9191 29.9806 75.3946 30.1512 75.87 30.356C76.3455 30.5653 76.821 30.7859 77.2964 31.0976C77.3647 31.1431 77.3852 31.2364 77.3397 31.3047C77.3215 31.332 77.2987 31.3502 77.2714 31.3616L77.2737 31.3593Z" fill="black"/>
<path d="M30.6951 55.3719C30.959 55.2536 31.2365 55.1604 31.5186 55.0807C31.8007 55.0193 32.0897 54.9897 32.3831 54.9624C32.6743 54.9533 32.9655 54.9715 33.2613 54.992C33.5525 55.0307 33.8414 55.0921 34.1303 55.1603C34.417 55.2377 34.69 55.3514 34.9721 55.4538C35.2428 55.5767 35.5044 55.7223 35.7661 55.8679C36.0163 56.0317 36.2597 56.2069 36.4895 56.3957C36.7056 56.6004 36.9081 56.8234 37.0947 57.0554C37.2653 57.3034 37.4223 57.5582 37.5633 57.8198C37.6839 58.0951 37.8045 58.3658 37.9114 58.6365C37.9978 58.9186 38.0934 59.1894 38.1844 59.4556C38.2595 59.7308 38.3459 59.9947 38.4346 60.2541C38.7713 61.2983 39.1103 62.3243 39.3719 63.4618C39.4197 63.7439 39.4698 64.0351 39.5084 64.3286C39.5312 64.6221 39.538 64.9201 39.538 65.2204C39.5198 65.5184 39.4766 65.8142 39.4265 66.1122C39.3651 66.4057 39.2741 66.6923 39.1945 66.9858C38.8305 68.1346 38.2162 69.2472 37.3153 70.0866C36.419 70.9238 35.2997 71.5085 34.1349 71.7769C32.9724 72.0408 31.7507 71.9999 30.6905 71.5494C30.6177 71.5176 30.5836 71.4334 30.6155 71.3606C30.6291 71.3265 30.6564 71.2992 30.6883 71.2856H30.6905C31.712 70.8306 32.5742 70.3801 33.3341 69.8455L33.8824 69.436C34.0575 69.2949 34.2213 69.1402 34.3942 69.006C34.5535 68.8513 34.7082 68.6966 34.8697 68.5533C35.0153 68.3918 35.1632 68.2348 35.3156 68.0846C35.8866 67.4499 36.4531 66.7992 36.8831 66.0235C36.9787 65.8255 37.0833 65.6299 37.1766 65.4274C37.2516 65.2204 37.3517 65.0157 37.445 64.8041C37.5178 64.5902 37.6134 64.3741 37.7021 64.1511C37.7681 63.9259 37.8454 63.6961 37.9182 63.4595C37.9614 63.2229 38.0138 62.9795 38.0479 62.7338C38.0661 62.4904 38.0615 62.2424 38.0524 61.9944C38.0433 61.8716 38.0183 61.751 37.9956 61.6282C37.9728 61.5076 37.9478 61.3847 37.9182 61.2664C37.85 61.0298 37.7476 60.8023 37.6452 60.5794C37.5269 60.361 37.3745 60.1631 37.2266 59.9674C37.0628 59.7809 36.8763 59.6125 36.6965 59.4487C36.5009 59.2963 36.303 59.153 36.1142 59.0097C35.9094 58.8823 35.7137 58.7548 35.534 58.616C35.3338 58.4977 35.1541 58.3681 34.9835 58.2293C34.7969 58.1087 34.6286 57.9654 34.4534 57.8289C34.2691 57.706 34.0917 57.5718 33.9097 57.4399C33.7208 57.3216 33.532 57.1942 33.3409 57.0668C33.1407 56.9599 32.9451 56.8279 32.7403 56.7096C32.531 56.605 32.3217 56.4798 32.1056 56.3593C31.8849 56.2546 31.6597 56.1363 31.4254 56.0112C31.1888 55.9065 30.9453 55.7883 30.6905 55.6427L30.6792 55.6358C30.6086 55.5971 30.5859 55.5084 30.6246 55.4379C30.6405 55.4106 30.6632 55.3901 30.6905 55.3764L30.6951 55.3719Z" fill="black"/>
<path d="M61.0483 55.6381C60.0269 56.0931 59.1646 56.5436 58.4048 57.0759L57.8565 57.4854C57.6813 57.6264 57.5175 57.7811 57.3446 57.9154C57.1854 58.0701 57.0307 58.2248 56.8692 58.3681C56.7236 58.5296 56.5757 58.6866 56.4232 58.8367C55.8522 59.4715 55.2858 60.1221 54.8558 60.8979C54.7602 61.0958 54.6556 61.2915 54.56 61.4939C54.4849 61.701 54.3848 61.9057 54.2916 62.1173C54.2188 62.3311 54.1232 62.5472 54.0345 62.7702C53.9685 62.9954 53.8912 63.2252 53.8184 63.4618C53.7751 63.6984 53.7228 63.9419 53.6887 64.1876C53.6705 64.431 53.6751 64.679 53.6842 64.9269C53.6933 65.0498 53.7183 65.1703 53.741 65.2932C53.7638 65.4137 53.7888 65.5366 53.8184 65.6549C53.8866 65.8915 53.989 66.119 54.0914 66.342C54.2097 66.5604 54.3621 66.7583 54.51 66.9539C54.6738 67.1405 54.8603 67.3088 55.04 67.4726C55.2357 67.6251 55.4336 67.7684 55.6225 67.9117C55.8272 68.0391 56.0228 68.1665 56.2026 68.3053C56.4028 68.4236 56.5825 68.5532 56.7531 68.692C56.9397 68.8126 57.108 68.9559 57.2832 69.0924C57.4675 69.2153 57.6449 69.3495 57.8269 69.4814C58.0157 69.5997 58.2046 69.7272 58.3957 69.8546C58.5959 69.9615 58.7915 70.0934 58.9963 70.2117C59.2056 70.3164 59.4149 70.4415 59.631 70.5621C59.8517 70.6667 60.0769 70.785 60.3112 70.9101C60.5478 71.0148 60.7912 71.1331 61.046 71.2787L61.0574 71.2855C61.128 71.3242 61.1507 71.4129 61.112 71.4834C61.0961 71.5107 61.0733 71.5312 61.046 71.5449C60.7821 71.6632 60.5046 71.7564 60.2225 71.8361C59.9404 71.8975 59.6515 71.9271 59.358 71.9544C59.0668 71.9635 58.7756 71.9452 58.4798 71.9248C58.1886 71.8861 57.8997 71.8247 57.6108 71.7564C57.3242 71.6791 57.0511 71.5654 56.769 71.463C56.4983 71.3401 56.2367 71.1945 55.9751 71.0489C55.7248 70.8851 55.4814 70.7099 55.2516 70.5211C55.0355 70.3164 54.833 70.0934 54.6465 69.8614C54.4758 69.6134 54.3189 69.3586 54.1778 69.097C54.0572 68.8217 53.9367 68.551 53.8298 68.2803C53.7433 67.9982 53.6477 67.7274 53.5567 67.4613C53.4817 67.186 53.3952 66.9221 53.3065 66.6627C52.9698 65.6185 52.6308 64.5925 52.3692 63.455C52.3214 63.1729 52.2714 62.8817 52.2327 62.5882C52.21 62.2947 52.2031 61.9967 52.2031 61.6964C52.2213 61.3984 52.2645 61.1026 52.3146 60.8046C52.376 60.5111 52.467 60.2245 52.5467 59.931C52.9107 58.7821 53.5249 57.6697 54.4258 56.8302C55.3222 55.993 56.4415 55.4083 57.6063 55.1399C58.7688 54.876 59.9905 54.9169 61.0506 55.3674C61.1234 55.3992 61.1575 55.4834 61.1257 55.5562C61.112 55.5903 61.0847 55.6176 61.0529 55.6313H61.0506L61.0483 55.6381Z" fill="black"/>
<path d="M38.6484 63.0227C39.8519 62.8066 41.0553 62.6451 42.2611 62.4767L44.0674 62.2515L45.8738 62.0672C46.4767 62.0126 47.0773 61.8943 47.6802 61.8078C48.283 61.7191 48.8836 61.7123 49.4865 61.7942C50.0894 61.8739 50.69 62.0058 51.2929 62.1946C51.8957 62.3903 52.4963 62.6314 53.0992 63.0227C53.1743 63.0728 53.197 63.1729 53.147 63.2479C53.1333 63.2684 53.1174 63.2843 53.0992 63.2957C52.4963 63.687 51.8957 63.9282 51.2929 64.1238C50.69 64.3126 50.0894 64.4446 49.4865 64.5242C48.8836 64.6061 48.283 64.5993 47.6802 64.5106C47.0773 64.4241 46.4767 64.3058 45.8738 64.2512L44.0674 64.0669L42.2611 63.8417C41.0576 63.6734 39.8542 63.5118 38.6484 63.2957C38.5733 63.282 38.5233 63.2093 38.5369 63.1342C38.5483 63.075 38.5938 63.0318 38.6484 63.0227Z" fill="black"/>
<path d="M26.7068 42.2338C29.3959 42.3521 31.6731 40.2682 31.7914 37.5791C31.8005 37.3789 31.7914 37.181 31.7778 36.9876L22.2979 38.8986C22.9167 40.7618 24.6275 42.1427 26.7068 42.236V42.2338Z" fill="black"/>
<path d="M77.0891 40.6526L53.1288 34.7149C53.0287 35.7182 52.7898 39.3377 55.174 42.9095C57.5605 46.4858 61.0003 47.6551 61.9626 47.9486C63.1137 48.1784 66.8652 48.7767 70.9124 46.761C74.7617 44.8432 76.5385 41.7242 77.0891 40.6549V40.6526Z" fill="white"/>
<path d="M76.9843 40.7004C74.6979 40.3455 72.5458 39.9974 70.4573 39.6448C69.4063 39.4765 68.3916 39.2876 67.3701 39.1193C66.36 38.9396 65.359 38.7576 64.374 38.5665C62.3993 38.1888 60.4837 37.7725 58.5932 37.2697C56.7004 36.7692 54.8053 36.2346 52.8898 35.6795L54.1205 34.8104C53.9385 36.1072 53.9249 37.4722 54.1319 38.819C54.2388 39.4924 54.4095 40.1567 54.6302 40.8096L54.8144 41.2942C54.8781 41.4534 54.9555 41.6082 55.026 41.7674C55.1579 42.0882 55.3445 42.3817 55.5106 42.6888C55.8814 43.2757 56.2909 43.8444 56.7755 44.3495C57.2532 44.8568 57.7878 45.3141 58.3611 45.7122C59.5146 46.4948 60.8386 47.0204 62.1695 47.2797L62.1035 47.2638C63.5277 47.3912 64.9495 47.3047 66.3259 47.0954C67.0152 46.9885 67.6954 46.852 68.3689 46.6723C69.0354 46.4743 69.6997 46.2583 70.339 45.9739C71.6244 45.4188 72.8324 44.6725 73.9494 43.7716C74.5045 43.3166 75.0369 42.8252 75.5465 42.2952C75.7945 42.0267 76.047 41.756 76.2859 41.4716L76.643 41.0416L76.8182 40.821C76.8501 40.7777 76.8569 40.7823 76.8887 40.7618C76.916 40.7459 76.9524 40.7277 76.9888 40.6959L76.9843 40.7004ZM77.1913 40.6071C77.1845 40.6595 77.1777 40.7232 77.1617 40.7914C77.1504 40.8551 77.1162 40.9416 77.1003 40.9803L77.0025 41.2533C76.9342 41.433 76.8614 41.6127 76.7795 41.7878C76.7022 41.9653 76.6157 42.1382 76.5316 42.3157C76.4428 42.4886 76.3473 42.6569 76.2517 42.8275C75.865 43.5032 75.41 44.1493 74.8936 44.7453C73.8584 45.9374 72.5844 46.9521 71.1603 47.696L70.6211 47.9645C70.4414 48.0532 70.2526 48.1238 70.0683 48.2034C69.702 48.3695 69.3153 48.4854 68.9331 48.6174C68.1618 48.854 67.3701 49.0224 66.5693 49.102C64.9655 49.2726 63.3479 49.077 61.8259 48.6288L61.76 48.6128C60.3427 48.0304 59.0755 47.2274 57.9152 46.3106C57.3351 45.851 56.7914 45.3505 56.2727 44.8273C55.7563 44.2995 55.2899 43.7239 54.8417 43.1347C53.9704 41.9358 53.2469 40.6026 52.7646 39.158C52.2892 37.7134 52.0435 36.1777 52.1367 34.6148C52.1686 34.0847 52.6236 33.6797 53.1536 33.7116C53.1991 33.7139 53.2447 33.7207 53.2902 33.7298L53.3698 33.7458C55.4469 34.1826 57.5467 34.6353 59.6465 35.1244C61.7486 35.6135 63.8257 36.1845 65.8459 36.7988C66.8583 37.1036 67.8547 37.4176 68.8398 37.7316C69.8135 38.0569 70.7963 38.364 71.7404 38.6893C73.6446 39.3286 75.4851 39.9679 77.1936 40.6049L77.1913 40.6071Z" fill="black"/>
<path d="M65.0361 42.2338C62.347 42.3521 60.0697 40.2682 59.9514 37.5791C59.9423 37.3789 59.9514 37.181 59.9651 36.9876L69.445 38.8986C68.8262 40.7618 67.1154 42.1427 65.0361 42.236V42.2338Z" fill="black"/>
</svg>
