<svg width="50" height="50" viewBox="0 0 50 50" fill="none" xmlns="http://www.w3.org/2000/svg">
<path d="M2.91667 50C8.7037 50 14.4213 48.7389 20.0694 46.2167C25.7176 43.6944 30.8565 40.1176 35.4861 35.4861C40.1157 30.8565 43.6917 25.7176 46.2139 20.0694C48.7361 14.4213 49.9981 8.7037 50 2.91667C50 2.08333 49.7222 1.38889 49.1667 0.833333C48.6111 0.277778 47.9167 0 47.0833 0L35.8333 0C35.1852 0 34.6065 0.22037 34.0972 0.661111C33.588 1.10185 33.287 1.62222 33.1944 2.22222L31.3889 11.9444C31.2963 12.6852 31.3194 13.3102 31.4583 13.8194C31.5972 14.3287 31.8519 14.7685 32.2222 15.1389L38.9583 21.9444C38.0324 23.6574 36.9333 25.312 35.6611 26.9083C34.3889 28.5046 32.988 30.0444 31.4583 31.5278C30.0231 32.963 28.5185 34.2944 26.9444 35.5222C25.3704 36.75 23.7037 37.8722 21.9444 38.8889L15.4167 32.3611C15 31.9444 14.4556 31.6324 13.7833 31.425C13.1111 31.2176 12.4519 31.1593 11.8056 31.25L2.22222 33.1944C1.57407 33.3796 1.04167 33.7157 0.625004 34.2028C0.208336 34.6898 0 35.2333 0 35.8333V47.0833C0 47.9167 0.277775 48.6111 0.833332 49.1667C1.38889 49.7222 2.08334 50 2.91667 50Z" fill="#FE8596"/>
</svg>
