<svg width="30" height="50" viewBox="0 0 30 50" fill="none" xmlns="http://www.w3.org/2000/svg">
<path d="M6.44231 0H24.391C25.8786 0 27.3053 0.598618 28.3572 1.66417C29.4091 2.72971 30 4.17491 30 5.68182V44.3182C30 45.8251 29.4091 47.2703 28.3572 48.3358C27.3053 49.4014 25.8786 50 24.391 50H6.44231C4.95472 50 3.52805 49.4014 2.47617 48.3358C1.42428 47.2703 0.833334 45.8251 0.833334 44.3182V5.68182C0.833334 4.17491 1.42428 2.72971 2.47617 1.66417C3.52805 0.598618 4.95472 0 6.44231 0ZM15.4167 47.7273C17.2788 47.7273 18.7821 46.2045 18.7821 44.3182C18.7821 42.4318 17.2788 40.9091 15.4167 40.9091C13.5545 40.9091 12.0513 42.4318 12.0513 44.3182C12.0513 46.2045 13.5545 47.7273 15.4167 47.7273ZM5.32051 38.6364H25.5128V6.81818H5.32051V38.6364Z" fill="#FE8596"/>
</svg>
