<svg width="50" height="50" viewBox="0 0 50 50" fill="none" xmlns="http://www.w3.org/2000/svg">
<path d="M15.1911 5C15.1911 2.225 12.9783 0 10.2184 0C7.45859 0 5.24574 2.225 5.24574 5C5.24574 7.775 7.45859 10 10.2184 10C12.9783 10 15.1911 7.775 15.1911 5ZM5.24574 47.5V35H2.48589C0.795177 35 -0.398266 33.325 0.123867 31.7L5.3452 15.925C5.67782 14.9293 6.3124 14.0634 7.15975 13.4491C8.0071 12.8347 9.02461 12.5028 10.0693 12.5H10.3676C11.4132 12.499 12.4324 12.8295 13.2805 13.4444C14.1286 14.0592 14.7623 14.9272 15.0917 15.925L17.2299 22.375C14.5447 23.875 12.7048 26.7 12.7048 30V50H7.73209C6.3646 50 5.24574 48.875 5.24574 47.5ZM23.8933 23.75C21.8297 23.75 20.1638 22.075 20.1638 20C20.1638 17.925 21.8297 16.25 23.8933 16.25C25.957 16.25 27.6229 17.925 27.6229 20C27.6229 22.075 25.957 23.75 23.8933 23.75ZM41.2978 10C38.5379 10 36.3251 7.775 36.3251 5C36.3251 2.225 38.5379 0 41.2978 0C44.0576 0 46.2705 2.225 46.2705 5C46.2705 7.775 44.0576 10 41.2978 10ZM36.3251 47.5V32.5H35.0819C33.7144 32.5 32.5956 31.375 32.5956 30V17.5C32.5956 14.75 34.8333 12.5 37.5683 12.5H45.0273C47.7623 12.5 50 14.75 50 17.5V30C50 31.375 48.8811 32.5 47.5137 32.5H46.2705V47.5C46.2705 48.875 45.1516 50 43.7841 50H38.8114C37.4439 50 36.3251 48.875 36.3251 47.5ZM30.1092 30V37.5C30.1092 38.875 28.9904 40 27.6229 40V47.5C27.6229 48.875 26.504 50 25.1365 50H22.6502C21.2827 50 20.1638 48.875 20.1638 47.5V40C18.7963 40 17.6775 38.875 17.6775 37.5V30C17.6775 27.95 19.3682 26.25 21.407 26.25H26.3797C28.4185 26.25 30.1092 27.95 30.1092 30Z" fill="#FE8596"/>
</svg>
