<svg width="50" height="50" viewBox="0 0 50 50" fill="none" xmlns="http://www.w3.org/2000/svg">
<path d="M45 45C46.375 45 47.5517 44.5108 48.53 43.5325C49.5083 42.5542 49.9983 41.3767 50 40V22.0625C50 21.3958 49.875 20.7608 49.625 20.1575C49.375 19.5542 49.0208 19.0225 48.5625 18.5625L38.5625 8.5625C38.0625 8.0625 37.5 7.6875 36.875 7.4375C36.25 7.1875 35.625 7.0625 35 7.0625C34.375 7.0625 33.75 7.1875 33.125 7.4375C32.5 7.6875 31.9375 8.0625 31.4375 8.5625L21.4375 18.5625C20.9792 19.0208 20.625 19.5525 20.375 20.1575C20.125 20.7625 20 21.3975 20 22.0625V40C20 41.375 20.4892 42.5525 21.4675 43.5325C22.4458 44.5125 23.6233 45.0017 25 45H31.25C31.5833 45 31.875 44.875 32.125 44.625C32.375 44.375 32.5 44.0833 32.5 43.75V35C32.5 34.2917 32.74 33.6983 33.22 33.22C33.7 32.7417 34.2933 32.5017 35 32.5C35.7083 32.5 36.3017 32.74 36.78 33.22C37.2583 33.7 37.4983 34.2933 37.5 35V43.75C37.5 44.0833 37.625 44.375 37.875 44.625C38.125 44.875 38.4167 45 38.75 45H45ZM15 42.5V17.9375L23.6875 9.25C24.4792 8.45834 24.6667 7.55167 24.25 6.53C23.8333 5.50834 23.0625 4.99834 21.9375 5C21.6042 5 21.2708 5.07334 20.9375 5.22C20.6042 5.36667 20.3333 5.54334 20.125 5.75L11.4375 14.4375C10.9792 14.8958 10.625 15.4275 10.375 16.0325C10.125 16.6375 10 17.2725 10 17.9375V42.5C10 43.2083 10.24 43.8025 10.72 44.2825C11.2 44.7625 11.7933 45.0017 12.5 45C13.2083 45 13.8017 44.76 14.28 44.28C14.7583 43.8 14.9983 43.2067 15 42.5ZM5 42.5V13.8125L9.5625 9.25C10.3542 8.45834 10.5417 7.55167 10.125 6.53C9.70833 5.50834 8.9375 4.99834 7.8125 5C7.47917 5 7.14584 5.07334 6.8125 5.22C6.47917 5.36667 6.20833 5.54334 6 5.75L1.4375 10.3125C0.979168 10.7708 0.625 11.3025 0.375 11.9075C0.125 12.5125 0 13.1475 0 13.8125V42.5C0 43.2083 0.240002 43.8025 0.720001 44.2825C1.2 44.7625 1.79333 45.0017 2.5 45C3.20833 45 3.80167 44.76 4.28 44.28C4.75833 43.8 4.99833 43.2067 5 42.5ZM35 27.5C34.2917 27.5 33.6975 27.26 33.2175 26.78C32.7375 26.3 32.4983 25.7067 32.5 25C32.5 24.2917 32.74 23.6983 33.22 23.22C33.7 22.7417 34.2933 22.5017 35 22.5C35.7083 22.5 36.3017 22.74 36.78 23.22C37.2583 23.7 37.4983 24.2933 37.5 25C37.5 25.7083 37.26 26.3025 36.78 26.7825C36.3 27.2625 35.7067 27.5017 35 27.5Z" fill="white"/>
<path d="M45 45C46.375 45 47.5517 44.5108 48.53 43.5325C49.5083 42.5542 49.9983 41.3767 50 40V22.0625C50 21.3958 49.875 20.7608 49.625 20.1575C49.375 19.5542 49.0208 19.0225 48.5625 18.5625L38.5625 8.5625C38.0625 8.0625 37.5 7.6875 36.875 7.4375C36.25 7.1875 35.625 7.0625 35 7.0625C34.375 7.0625 33.75 7.1875 33.125 7.4375C32.5 7.6875 31.9375 8.0625 31.4375 8.5625L21.4375 18.5625C20.9792 19.0208 20.625 19.5525 20.375 20.1575C20.125 20.7625 20 21.3975 20 22.0625V40C20 41.375 20.4892 42.5525 21.4675 43.5325C22.4458 44.5125 23.6233 45.0017 25 45H31.25C31.5833 45 31.875 44.875 32.125 44.625C32.375 44.375 32.5 44.0833 32.5 43.75V35C32.5 34.2917 32.74 33.6983 33.22 33.22C33.7 32.7417 34.2933 32.5017 35 32.5C35.7083 32.5 36.3017 32.74 36.78 33.22C37.2583 33.7 37.4983 34.2933 37.5 35V43.75C37.5 44.0833 37.625 44.375 37.875 44.625C38.125 44.875 38.4167 45 38.75 45H45ZM15 42.5V17.9375L23.6875 9.25C24.4792 8.45834 24.6667 7.55167 24.25 6.53C23.8333 5.50834 23.0625 4.99834 21.9375 5C21.6042 5 21.2708 5.07334 20.9375 5.22C20.6042 5.36667 20.3333 5.54334 20.125 5.75L11.4375 14.4375C10.9792 14.8958 10.625 15.4275 10.375 16.0325C10.125 16.6375 10 17.2725 10 17.9375V42.5C10 43.2083 10.24 43.8025 10.72 44.2825C11.2 44.7625 11.7933 45.0017 12.5 45C13.2083 45 13.8017 44.76 14.28 44.28C14.7583 43.8 14.9983 43.2067 15 42.5ZM5 42.5V13.8125L9.5625 9.25C10.3542 8.45834 10.5417 7.55167 10.125 6.53C9.70833 5.50834 8.9375 4.99834 7.8125 5C7.47917 5 7.14584 5.07334 6.8125 5.22C6.47917 5.36667 6.20833 5.54334 6 5.75L1.4375 10.3125C0.979168 10.7708 0.625 11.3025 0.375 11.9075C0.125 12.5125 0 13.1475 0 13.8125V42.5C0 43.2083 0.240002 43.8025 0.720001 44.2825C1.2 44.7625 1.79333 45.0017 2.5 45C3.20833 45 3.80167 44.76 4.28 44.28C4.75833 43.8 4.99833 43.2067 5 42.5ZM35 27.5C34.2917 27.5 33.6975 27.26 33.2175 26.78C32.7375 26.3 32.4983 25.7067 32.5 25C32.5 24.2917 32.74 23.6983 33.22 23.22C33.7 22.7417 34.2933 22.5017 35 22.5C35.7083 22.5 36.3017 22.74 36.78 23.22C37.2583 23.7 37.4983 24.2933 37.5 25C37.5 25.7083 37.26 26.3025 36.78 26.7825C36.3 27.2625 35.7067 27.5017 35 27.5Z" fill="#1F1F1F" fill-opacity="0.1"/>
</svg>
