<svg width="36" height="50" viewBox="0 0 36 50" fill="none" xmlns="http://www.w3.org/2000/svg">
<path d="M18 0C14.9262 0 12.4615 2.47222 12.4615 5.55556C12.4615 8.63889 14.9262 11.1111 18 11.1111C21.0738 11.1111 23.5385 8.63889 23.5385 5.55556C23.5385 2.47222 21.0738 0 18 0ZM26.3077 17.3889V50H20.7692V36.1111H15.2308V50H9.69231V17.3889C3.96 14.3611 0 8.33333 0 1.38889V0H5.53846V1.38889C5.53846 8.33333 11.0769 13.8889 18 13.8889C24.9231 13.8889 30.4615 8.33333 30.4615 1.38889V0H36V1.38889C36 8.33333 32.04 14.3611 26.3077 17.3889Z" fill="#F36C00"/>
</svg>
