<svg width="33" height="50" viewBox="0 0 33 50" fill="none" xmlns="http://www.w3.org/2000/svg">
<path d="M27.5711 34.2707C27.9001 34.9353 27.4165 35.7143 26.6749 35.7143H24.5714C24.0191 35.7143 23.5714 36.162 23.5714 36.7143V49C23.5714 49.5523 23.1237 50 22.5714 50H19.8571C19.3049 50 18.8571 49.5523 18.8571 49V36.7143C18.8571 36.162 18.4094 35.7143 17.8571 35.7143H14.3444C14.0385 35.7143 13.7494 35.8543 13.5597 36.0944L10.7798 39.6136C10.4661 40.0107 10.4985 40.5796 10.8553 40.9385L15.117 45.225C15.5042 45.6145 15.5048 46.2433 15.1184 46.6336L13.1814 48.5902C12.7895 48.986 12.1497 48.9854 11.7587 48.5887L6.90643 43.6667C6.08143 42.8571 5.61 41.7381 5.53929 40.5714C5.46857 39.4048 5.82214 38.2381 6.55286 37.3333L6.74697 37.0864C7.18438 36.5301 6.78803 35.7143 6.08029 35.7143C5.45137 35.7143 5.04128 35.0537 5.32028 34.4901L9.32478 26.4001C9.39305 26.2622 9.42857 26.1104 9.42857 25.9565V21.0728C9.42857 20.2442 8.49555 19.8009 7.93069 20.4072C7.14596 21.2495 6.48433 22.2011 5.96357 23.2381C5.28725 24.6044 4.88023 26.0667 4.75549 27.5725C4.7099 28.1229 4.26657 28.5714 3.71429 28.5714H1.00014C0.447802 28.5714 -0.00303281 28.1231 0.0298185 27.5717C0.271448 23.5163 1.9733 19.676 4.83343 16.787C7.92764 13.6615 12.1241 11.9054 16.5 11.9048C19.635 11.9048 22.6286 10.6429 24.8443 8.42857C26.8046 6.42712 28.011 3.79734 28.2442 0.998949C28.29 0.448571 28.7334 0 29.2857 0H32C32.5523 0 33.0031 0.448152 32.9698 0.999432C32.8009 3.79532 31.9265 6.51883 30.4307 8.88095C28.8784 11.3643 26.7045 13.3847 24.1338 14.7408C23.7935 14.9203 23.5714 15.2686 23.5714 15.6534V25.9565C23.5714 26.1104 23.6069 26.2622 23.6752 26.4001L27.5711 34.2707ZM21.2143 4.7619C21.2143 5.71429 20.9314 6.61905 20.4129 7.40476C19.8943 8.19048 19.1636 8.80952 18.315 9.16667C17.4518 9.52412 16.5031 9.61538 15.5886 9.42894C14.6742 9.2425 13.8348 8.78671 13.1764 8.11905C12.5164 7.45238 12.0686 6.61905 11.88 5.69048C11.6914 4.7619 11.7857 3.80952 12.1393 2.95238C12.4929 2.07143 13.1057 1.33333 13.8836 0.809524C14.6614 0.285714 15.5571 0 16.5 0C17.7493 0 18.9514 0.5 19.8236 1.40476C20.7193 2.28571 21.2143 3.5 21.2143 4.7619Z" fill="#F36C00"/>
</svg>
