<svg width="46" height="50" viewBox="0 0 46 50" fill="none" xmlns="http://www.w3.org/2000/svg">
<path d="M23 9.09091C20.447 9.09091 18.4 11.1136 18.4 13.6364C18.4 16.1591 20.447 18.1818 23 18.1818C25.553 18.1818 27.6 16.1591 27.6 13.6364C27.6 11.1136 25.553 9.09091 23 9.09091ZM46 0V11.3636H41.4V6.81818H4.6V11.3636H0V0H4.6V4.54545H41.4V0H46ZM29.9 23.3182V50H25.3V38.6364H20.7V50H16.1V23.3182C11.339 20.8409 8.05 15.9091 8.05 10.2273V9.09091H12.65V10.2273C12.65 15.9091 17.25 20.4545 23 20.4545C28.75 20.4545 33.35 15.9091 33.35 10.2273V9.09091H37.95V10.2273C37.95 15.9091 34.661 20.8409 29.9 23.3182Z" fill="#F36C00"/>
</svg>
