<svg width="50" height="41" viewBox="0 0 50 41" fill="none" xmlns="http://www.w3.org/2000/svg">
<path d="M2 39C6.6 39 8.9 36.6875 13.5 36.6875C18.1 36.6875 20.4 39 25 39C29.6 39 31.9 36.6875 36.5 36.6875C41.1 36.6875 43.4 39 48 39M2 29.75C6.6 29.75 8.9 27.4375 13.5 27.4375C18.1 27.4375 20.4 29.75 25 29.75C29.6 29.75 31.9 27.4375 36.5 27.4375C41.1 27.4375 43.4 29.75 48 29.75M37.65 2L25.5106 8.9375L33.05 17.0312L25 20.5M22.7 22.8125C23.85 23.9688 27.599 22.5535 30.2026 21.6562C33.5606 20.5 37.65 21.6562 36.5 20.5L31.9 15.875C31.9 15.875 21.55 21.6562 22.7 22.8125ZM41.6106 15.875C42.2206 15.875 42.8056 15.6314 43.2369 15.1977C43.6683 14.764 43.9106 14.1758 43.9106 13.5625C43.9106 12.9492 43.6683 12.361 43.2369 11.9273C42.8056 11.4936 42.2206 11.25 41.6106 11.25C41.0006 11.25 40.4156 11.4936 39.9843 11.9273C39.5529 12.361 39.3106 12.9492 39.3106 13.5625C39.3106 14.1758 39.5529 14.764 39.9843 15.1977C40.4156 15.6314 41.0006 15.875 41.6106 15.875Z" stroke="#F36C00" stroke-width="4" stroke-linecap="round" stroke-linejoin="round"/>
</svg>
