<svg width="50" height="50" viewBox="0 0 50 50" fill="none" xmlns="http://www.w3.org/2000/svg">
<path d="M47.4343 17.6044L32.2904 2.46979L33.3542 1.40661C34.3137 0.44767 35.5027 -0.0209615 36.9212 0.000718995C38.3396 0.0223994 39.5286 0.511877 40.4881 1.46915L48.5607 9.53678C49.5202 10.4957 50 11.674 50 13.0715C50 14.4691 49.5202 15.6465 48.5607 16.6038L47.4343 17.6044ZM16.5832 48.5616C15.6237 49.5205 14.4456 50 13.0488 50C11.6521 50 10.4731 49.5205 9.51189 48.5616L1.4393 40.494C0.479766 39.535 0 38.3576 0 36.9617C0 35.5658 0.479766 34.3876 1.4393 33.427L2.44055 32.4263L17.5845 47.561L16.5832 48.5616ZM25.6571 46.8105C25.1564 47.3108 24.5724 47.561 23.9049 47.561C23.2374 47.561 22.6533 47.3108 22.1527 46.8105L3.19149 27.8609C2.69086 27.3606 2.44055 26.7769 2.44055 26.1098C2.44055 25.4427 2.69086 24.859 3.19149 24.3587L6.75845 20.7314C7.25907 20.2311 7.85398 19.9809 8.54318 19.9809C9.23237 19.9809 9.82645 20.2311 10.3254 20.7314L14.2678 24.6714L24.6558 14.2898L20.7134 10.3498C20.2128 9.84948 19.9625 9.26578 19.9625 8.59868C19.9625 7.93159 20.2128 7.34789 20.7134 6.84757L24.2804 3.22027C24.781 2.71995 25.3759 2.46979 26.0651 2.46979C26.7543 2.46979 27.3484 2.71995 27.8473 3.22027L46.8085 22.1698C47.3091 22.6701 47.5594 23.2647 47.5594 23.9534C47.5594 24.6422 47.3091 25.2359 46.8085 25.7346L43.179 29.2993C42.6783 29.7997 42.0943 30.0498 41.4268 30.0498C40.7593 30.0498 40.1752 29.7997 39.6746 29.2993L35.7322 25.3593L25.3442 35.7409L29.2866 39.6809C29.7872 40.1813 30.0375 40.775 30.0375 41.4621C30.0375 42.1492 29.7872 42.7437 29.2866 43.2457L25.6571 46.8105Z" fill="#F36C00"/>
</svg>
