<svg width="50" height="50" viewBox="0 0 50 50" fill="none" xmlns="http://www.w3.org/2000/svg">
<path d="M30.8849 47.624L25.1308 35.9976L20.5802 30.1844C19.9069 29.0446 19.5525 27.7448 19.5542 26.4211V13.3301H21.1401C22.222 13.3301 23.2597 13.7599 24.0247 14.5249C24.7898 15.29 25.2196 16.3276 25.2196 17.4095V35.9925" fill="#F36C00"/>
<path d="M30.8849 47.624L25.1308 35.9976L20.5802 30.1844C19.9069 29.0446 19.5525 27.7448 19.5542 26.4211V13.3301H21.1401C22.222 13.3301 23.2597 13.7599 24.0247 14.5249C24.7898 15.29 25.2196 16.3276 25.2196 17.4095V35.9925" stroke="#F36C00" stroke-width="3.83677" stroke-linecap="round" stroke-linejoin="round"/>
<path d="M12 28.4384V20.8842C12 20.8842 15.7735 13.3301 19.5541 13.3301" fill="#F36C00"/>
<path d="M12 28.4384V20.8842C12 20.8842 15.7735 13.3301 19.5541 13.3301" stroke="#F36C00" stroke-width="3.83677" stroke-linecap="round" stroke-linejoin="round"/>
<mask id="path-5-inside-1_599_24451" fill="white">
<path d="M36.5501 28.4405C36.1776 28.4404 35.8135 28.3301 35.5037 28.1233L29.3712 24.1795C29.0679 23.9838 28.8184 23.7153 28.6456 23.3983C28.4727 23.0814 28.3821 22.7262 28.382 22.3652V19.9481C28.3818 19.8447 28.4095 19.7432 28.4621 19.6542C28.5147 19.5652 28.5903 19.4919 28.6809 19.4422C28.7716 19.3924 28.8739 19.368 28.9772 19.3714C29.0806 19.3748 29.1811 19.406 29.2682 19.4616L37.5954 24.9801C37.9329 25.205 38.1889 25.5326 38.3258 25.9144C38.4626 26.2961 38.473 26.7118 38.3553 27.0999C38.2376 27.488 37.9981 27.8279 37.6723 28.0693C37.3464 28.3107 36.9515 28.4409 36.546 28.4405H36.5501ZM16.5424 49.0101C16.2488 49.0105 15.9593 48.9424 15.6967 48.8112C15.4342 48.68 15.2058 48.4894 15.0299 48.2544C14.4037 47.4202 14.6219 46.5023 15.4072 45.6109L21.5213 37.9966C21.6055 37.9336 21.7019 37.8888 21.8044 37.8652C21.9069 37.8415 22.0131 37.8395 22.1164 37.8593C22.2197 37.8791 22.3177 37.9202 22.4042 37.98C22.4907 38.0398 22.5638 38.1171 22.6187 38.2067C22.7778 38.4658 22.9634 38.7829 23.148 39.1338C23.6824 40.1485 23.7599 40.7768 22.9767 41.7548C22.1608 42.7747 17.6734 48.6328 17.6734 48.6328C17.4062 48.9367 16.936 49.0101 16.5424 49.0101Z"/>
</mask>
<path d="M36.5501 28.4405C36.1776 28.4404 35.8135 28.3301 35.5037 28.1233L29.3712 24.1795C29.0679 23.9838 28.8184 23.7153 28.6456 23.3983C28.4727 23.0814 28.3821 22.7262 28.382 22.3652V19.9481C28.3818 19.8447 28.4095 19.7432 28.4621 19.6542C28.5147 19.5652 28.5903 19.4919 28.6809 19.4422C28.7716 19.3924 28.8739 19.368 28.9772 19.3714C29.0806 19.3748 29.1811 19.406 29.2682 19.4616L37.5954 24.9801C37.9329 25.205 38.1889 25.5326 38.3258 25.9144C38.4626 26.2961 38.473 26.7118 38.3553 27.0999C38.2376 27.488 37.9981 27.8279 37.6723 28.0693C37.3464 28.3107 36.9515 28.4409 36.546 28.4405H36.5501ZM16.5424 49.0101C16.2488 49.0105 15.9593 48.9424 15.6967 48.8112C15.4342 48.68 15.2058 48.4894 15.0299 48.2544C14.4037 47.4202 14.6219 46.5023 15.4072 45.6109L21.5213 37.9966C21.6055 37.9336 21.7019 37.8888 21.8044 37.8652C21.9069 37.8415 22.0131 37.8395 22.1164 37.8593C22.2197 37.8791 22.3177 37.9202 22.4042 37.98C22.4907 38.0398 22.5638 38.1171 22.6187 38.2067C22.7778 38.4658 22.9634 38.7829 23.148 39.1338C23.6824 40.1485 23.7599 40.7768 22.9767 41.7548C22.1608 42.7747 17.6734 48.6328 17.6734 48.6328C17.4062 48.9367 16.936 49.0101 16.5424 49.0101Z" fill="#F36C00"/>
<path d="M36.5501 28.4405V32.2773L36.5507 24.6037L36.5501 28.4405ZM35.5037 28.1233L37.6334 24.9319L37.6063 24.9139L37.579 24.8963L35.5037 28.1233ZM29.3712 24.1795L27.2916 27.4038L27.2959 27.4065L29.3712 24.1795ZM28.382 22.3652H24.5452L24.5452 22.3668L28.382 22.3652ZM28.382 19.9481H32.2187L32.2187 19.943L28.382 19.9481ZM29.2682 19.4616L31.3877 16.2634L31.3603 16.2452L31.3326 16.2276L29.2682 19.4616ZM37.5954 24.9801L39.7235 21.7876L39.7149 21.7819L37.5954 24.9801ZM36.546 28.4405V24.6037L36.5423 32.2773L36.546 28.4405ZM16.5424 49.0101V45.1734L16.5377 45.1734L16.5424 49.0101ZM15.0299 48.2544L18.1009 45.9544L18.0984 45.9512L15.0299 48.2544ZM15.4072 45.6109L18.2861 48.1472L18.344 48.0815L18.3989 48.0132L15.4072 45.6109ZM21.5213 37.9966L19.2215 34.9255L18.8333 35.2162L18.5297 35.5944L21.5213 37.9966ZM22.6187 38.2067L19.3472 40.2112L19.3493 40.2147L22.6187 38.2067ZM23.148 39.1338L19.7526 40.9203L19.7532 40.9216L23.148 39.1338ZM22.9767 41.7548L19.9819 39.3565L19.9807 39.358L22.9767 41.7548ZM17.6734 48.6328L20.5549 51.1662L20.6404 51.0688L20.7192 50.966L17.6734 48.6328ZM36.5507 24.6037C36.9361 24.6038 37.3128 24.718 37.6334 24.9319L33.374 31.3148C34.3142 31.9422 35.4191 32.2771 36.5494 32.2773L36.5507 24.6037ZM37.579 24.8963L31.4466 20.9525L27.2959 27.4065L33.4283 31.3504L37.579 24.8963ZM31.4508 20.9552C31.6863 21.1071 31.88 21.3156 32.0141 21.5616L25.277 25.235C25.7568 26.1149 26.4494 26.8606 27.2916 27.4038L31.4508 20.9552ZM32.0141 21.5616C32.1483 21.8076 32.2186 22.0833 32.2187 22.3635L24.5452 22.3668C24.5456 23.369 24.7972 24.3551 25.277 25.235L32.0141 21.5616ZM32.2187 22.3652V19.9481H24.5452V22.3652H32.2187ZM32.2187 19.943C32.2195 20.528 32.0629 21.1025 31.7652 21.6061L25.159 17.7022C24.7562 18.3839 24.5441 19.1614 24.5452 19.9532L32.2187 19.943ZM31.7652 21.6061C31.4676 22.1098 31.04 22.5241 30.5271 22.8056L26.8347 16.0788C26.1406 16.4598 25.5618 17.0206 25.159 17.7022L31.7652 21.6061ZM30.5271 22.8056C30.0143 23.0871 29.4351 23.2254 28.8504 23.2061L29.1041 15.5367C28.3127 15.5106 27.5288 15.6978 26.8347 16.0788L30.5271 22.8056ZM28.8504 23.2061C28.2657 23.1867 27.6969 23.0104 27.2038 22.6957L31.3326 16.2276C30.6652 15.8015 29.8955 15.5629 29.1041 15.5367L28.8504 23.2061ZM27.1487 22.6598L35.4759 28.1783L39.7149 21.7819L31.3877 16.2634L27.1487 22.6598ZM35.4673 28.1726C35.1193 27.9406 34.8552 27.6028 34.714 27.209L41.9375 24.6197C41.5227 23.4625 40.7464 22.4695 39.7235 21.7876L35.4673 28.1726ZM34.714 27.209C34.5729 26.8153 34.5623 26.3866 34.6836 25.9864L42.0269 28.2134C42.3837 27.037 42.3523 25.7769 41.9375 24.6197L34.714 27.209ZM34.6836 25.9864C34.805 25.5861 35.052 25.2356 35.3881 24.9866L39.9565 31.152C40.9442 30.4202 41.6701 29.3898 42.0269 28.2134L34.6836 25.9864ZM35.3881 24.9866C35.7241 24.7376 36.1314 24.6033 36.5496 24.6037L36.5423 32.2773C37.7717 32.2784 38.9687 31.8839 39.9565 31.152L35.3881 24.9866ZM36.546 32.2773H36.5501V24.6037H36.546V32.2773ZM16.5377 45.1734C16.8411 45.173 17.1403 45.2434 17.4117 45.379L13.9818 52.2434C14.7783 52.6413 15.6566 52.848 16.547 52.8469L16.5377 45.1734ZM17.4117 45.379C17.683 45.5146 17.919 45.7116 18.1009 45.9544L11.9589 50.5544C12.4927 51.2671 13.1853 51.8454 13.9818 52.2434L17.4117 45.379ZM18.0984 45.9512C18.2131 46.104 18.35 46.3446 18.4324 46.6681C18.5157 46.9953 18.5192 47.3138 18.4735 47.587C18.3891 48.0914 18.1723 48.2765 18.2861 48.1472L12.5284 43.0746C11.8569 43.8367 11.1383 44.9264 10.905 46.3212C10.6482 47.8573 11.0527 49.3471 11.9614 50.5577L18.0984 45.9512ZM18.3989 48.0132L24.513 40.3989L18.5297 35.5944L12.4156 43.2087L18.3989 48.0132ZM23.8211 41.0677C23.4779 41.3247 23.0849 41.5073 22.6671 41.6037L20.9416 34.1267C20.3189 34.2704 19.7331 34.5424 19.2215 34.9255L23.8211 41.0677ZM22.6671 41.6037C22.2494 41.7001 21.8161 41.7083 21.395 41.6276L22.8379 34.091C22.2101 33.9708 21.5643 33.983 20.9416 34.1267L22.6671 41.6037ZM21.395 41.6276C20.9739 41.547 20.5742 41.3794 20.2216 41.1355L24.5868 34.8245C24.0613 34.461 23.4656 34.2111 22.8379 34.091L21.395 41.6276ZM20.2216 41.1355C19.869 40.8916 19.5712 40.5768 19.3472 40.2112L25.8902 36.2023C25.5564 35.6573 25.1124 35.1881 24.5868 34.8245L20.2216 41.1355ZM19.3493 40.2147C19.4752 40.4196 19.6164 40.6615 19.7526 40.9203L26.5435 37.3472C26.3104 36.9044 26.0804 36.5119 25.8881 36.1988L19.3493 40.2147ZM19.7532 40.9216C19.8379 41.0823 19.8319 41.0938 19.8064 41.0151C19.7745 40.9164 19.7118 40.6774 19.7213 40.3473C19.743 39.5956 20.1 39.209 19.9819 39.3565L25.9715 44.1532C26.6366 43.3226 27.3465 42.1329 27.3916 40.5688C27.4333 39.1262 26.8746 37.976 26.5428 37.346L19.7532 40.9216ZM19.9807 39.358C19.543 39.9051 18.1866 41.6647 16.9772 43.2379C16.3642 44.0354 15.7768 44.8007 15.3429 45.3665C15.1258 45.6495 14.9471 45.8827 14.8226 46.0451C14.7603 46.1264 14.7116 46.1899 14.6784 46.2332C14.6618 46.2549 14.6491 46.2714 14.6406 46.2826C14.6363 46.2882 14.6331 46.2924 14.6309 46.2953C14.6298 46.2967 14.629 46.2978 14.6284 46.2985C14.6281 46.2989 14.6279 46.2992 14.6278 46.2993C14.6277 46.2994 14.6276 46.2995 14.6276 46.2996C14.6276 46.2996 14.6275 46.2996 17.6734 48.6328C20.7192 50.966 20.7192 50.9659 20.7193 50.9659C20.7193 50.9659 20.7193 50.9658 20.7194 50.9657C20.7195 50.9655 20.7197 50.9653 20.72 50.9649C20.7205 50.9642 20.7213 50.9632 20.7224 50.9618C20.7245 50.959 20.7277 50.9548 20.732 50.9493C20.7404 50.9383 20.753 50.9218 20.7695 50.9003C20.8025 50.8573 20.851 50.794 20.913 50.7131C21.0371 50.5512 21.2153 50.3187 21.4317 50.0365C21.8646 49.4721 22.4501 48.7092 23.0609 47.9146C24.2992 46.3038 25.5945 44.6244 25.9727 44.1516L19.9807 39.358ZM14.7919 46.0994C15.3015 45.5198 15.8667 45.3123 16.1155 45.2422C16.3684 45.171 16.5309 45.1734 16.5424 45.1734V52.8469C17.0581 52.8469 19.0963 52.8251 20.5549 51.1662L14.7919 46.0994Z" fill="#F36C00" mask="url(#path-5-inside-1_599_24451)"/>
<path d="M25.2191 9.55444C27.3052 9.55444 28.9963 7.86332 28.9963 5.77722C28.9963 3.69112 27.3052 2 25.2191 2C23.133 2 21.4419 3.69112 21.4419 5.77722C21.4419 7.86332 23.133 9.55444 25.2191 9.55444Z" fill="#F36C00" stroke="#F36C00" stroke-width="3.83677" stroke-linecap="round" stroke-linejoin="round"/>
</svg>
