<svg width="50" height="50" viewBox="0 0 50 50" fill="none" xmlns="http://www.w3.org/2000/svg">
<path d="M48.3357 11.7249C47.5957 10.0466 46.6244 8.48022 45.45 7.0713L39.225 13.2963C40.6823 14.1588 42.399 14.4743 44.0677 14.1863C45.7364 13.8984 47.2481 13.0258 48.3321 11.7249M36.6964 10.7713L42.9214 4.5463C41.5137 3.37212 39.9485 2.40079 38.2714 1.66057C36.9696 2.74475 36.0965 4.25714 35.8085 5.92666C35.5205 7.59617 35.8366 9.31367 36.7 10.7713M32.1429 7.14273C32.1429 9.45703 32.8786 11.5999 34.125 13.3499L31.25 16.2249L18.7929 3.76415C21.0316 2.13831 23.5873 1.00172 26.2941 0.428258C29.0008 -0.145207 31.7979 -0.142715 34.5036 0.435571C32.9728 2.33554 32.1396 4.70283 32.1429 7.14273ZM33.775 18.7499L36.65 15.8749C38.4 17.1249 40.5429 17.857 42.8571 17.857C45.2965 17.8605 47.6634 17.0286 49.5643 15.4999C49.85 16.8356 50 18.2213 50 19.6428C50 23.9642 48.6036 27.9642 46.2357 31.2107L33.775 18.7499ZM43.8714 33.8964L31.25 21.2749L29.0893 23.4356C32.8037 27.6694 35.0828 32.9701 35.6 38.5785C38.7429 37.7107 41.5714 36.075 43.8714 33.8964ZM11.4179 14.3999C12.2857 11.257 13.9179 8.42845 16.0964 6.12844L28.725 18.7499L26.5643 20.9106C22.3306 17.1962 17.0262 14.9171 11.4179 14.3999ZM5.35714 17.857C3.93634 17.857 2.57373 18.4215 1.56907 19.4261C0.564412 20.4308 0 21.7934 0 23.2142V26.7856C0 32.9425 2.44578 38.8471 6.79931 43.2007C11.1528 47.5542 17.0575 50 23.2143 50H26.7857C28.2065 50 29.5691 49.4356 30.5738 48.4309C31.5784 47.4263 32.1429 46.0636 32.1429 44.6428V41.0714C32.1429 34.9146 29.6971 29.0099 25.3436 24.6564C20.99 20.3028 15.0854 17.857 8.92857 17.857H5.35714ZM12.1286 29.9857C12.2944 29.8194 12.4915 29.6874 12.7085 29.5974C12.9254 29.5074 13.158 29.461 13.3929 29.461C13.6277 29.461 13.8603 29.5074 14.0773 29.5974C14.2942 29.6874 14.4913 29.8194 14.6571 29.9857L20.0143 35.3428C20.1803 35.5088 20.312 35.7059 20.4019 35.9229C20.4917 36.1398 20.538 36.3723 20.538 36.6071C20.538 36.8419 20.4917 37.0744 20.4019 37.2913C20.312 37.5083 20.1803 37.7054 20.0143 37.8714C19.8483 38.0374 19.6512 38.1691 19.4342 38.259C19.2173 38.3488 18.9848 38.3951 18.75 38.3951C18.5152 38.3951 18.2827 38.3488 18.0658 38.259C17.8488 38.1691 17.6517 38.0374 17.4857 37.8714L12.1286 32.5142C11.9623 32.3484 11.8303 32.1513 11.7403 31.9344C11.6503 31.7174 11.604 31.4848 11.604 31.2499C11.604 31.0151 11.6503 30.7825 11.7403 30.5655C11.8303 30.3486 11.9623 30.1515 12.1286 29.9857Z" fill="#F36C00"/>
</svg>
