<svg width="50" height="45" viewBox="0 0 50 45" fill="none" xmlns="http://www.w3.org/2000/svg">
<g filter="url(#filter0_d_755_3705)">
<path d="M39.5962 23.8789C37.934 23.8789 36.3092 24.3718 34.9272 25.2952C33.5452 26.2186 32.4681 27.5311 31.832 29.0667C31.1959 30.6023 31.0295 32.2921 31.3538 33.9223C31.6781 35.5524 32.4784 37.0499 33.6537 38.2252C34.829 39.4005 36.3265 40.2009 37.9566 40.5251C39.5868 40.8494 41.2766 40.683 42.8122 40.0469C44.3478 39.4108 45.6603 38.3337 46.5837 36.9517C47.5071 35.5697 48 33.9449 48 32.2828C47.993 30.0561 47.1054 27.9226 45.5308 26.3481C43.9563 24.7736 41.8228 23.8859 39.5962 23.8789ZM10.4038 23.8789C8.74173 23.8789 7.11693 24.3718 5.73492 25.2952C4.35292 26.2186 3.27578 27.5311 2.63971 29.0667C2.00364 30.6023 1.83722 32.2921 2.16148 33.9223C2.48575 35.5524 3.28613 37.0499 4.46143 38.2252C5.63673 39.4005 7.13415 40.2009 8.76434 40.5251C10.3945 40.8494 12.0843 40.683 13.6199 40.0469C15.1555 39.4108 16.468 38.3337 17.3914 36.9517C18.3148 35.5697 18.8077 33.9449 18.8077 32.2828C18.8007 30.0561 17.913 27.9226 16.3385 26.3481C14.764 24.7736 12.6305 23.8859 10.4038 23.8789Z" stroke="#F36C00" stroke-width="4" stroke-miterlimit="10"/>
<path d="M24.9998 31.8397V22.3301L17.9229 17.6858L26.769 7.95508L31.1921 15.9166H37.3844" stroke="#F36C00" stroke-width="4" stroke-linecap="round" stroke-linejoin="round"/>
<path d="M32.0842 5.07509L32.0835 5.07509C31.6754 5.07382 31.2846 4.91051 30.997 4.62108C30.7094 4.33166 30.5485 3.93984 30.5498 3.53181C30.5511 3.12378 30.7144 2.73297 31.0038 2.44536C31.1471 2.30294 31.3171 2.19015 31.504 2.11342C31.6909 2.03669 31.8911 1.99752 32.0931 1.99815L32.1042 1.99818L32.1153 1.99809C32.3132 1.99651 32.5094 2.0344 32.6925 2.10955C32.8756 2.18469 33.0418 2.29558 33.1815 2.43573C33.3212 2.57588 33.4316 2.74248 33.5062 2.92579C33.5807 3.1091 33.618 3.30543 33.6158 3.50331L33.6156 3.52103L33.6157 3.53874C33.6171 3.74047 33.5784 3.94046 33.5019 4.12714C33.4255 4.31382 33.3128 4.4835 33.1704 4.62637C33.028 4.76924 32.8587 4.88246 32.6722 4.95948C32.4858 5.0365 32.2859 5.07579 32.0842 5.07509Z" stroke="#F36C00" stroke-width="4"/>
</g>
<defs>
<filter id="filter0_d_755_3705" x="-4" y="-0.00195312" width="58" height="50.6895" filterUnits="userSpaceOnUse" color-interpolation-filters="sRGB">
<feFlood flood-opacity="0" result="BackgroundImageFix"/>
<feColorMatrix in="SourceAlpha" type="matrix" values="0 0 0 0 0 0 0 0 0 0 0 0 0 0 0 0 0 0 127 0" result="hardAlpha"/>
<feOffset dy="4"/>
<feGaussianBlur stdDeviation="2"/>
<feComposite in2="hardAlpha" operator="out"/>
<feColorMatrix type="matrix" values="0 0 0 0 0 0 0 0 0 0 0 0 0 0 0 0 0 0 0.25 0"/>
<feBlend mode="normal" in2="BackgroundImageFix" result="effect1_dropShadow_755_3705"/>
<feBlend mode="normal" in="SourceGraphic" in2="effect1_dropShadow_755_3705" result="shape"/>
</filter>
</defs>
</svg>
