<svg width="16" height="16" viewBox="0 0 16 16" fill="none" xmlns="http://www.w3.org/2000/svg">
<path fill-rule="evenodd" clip-rule="evenodd" d="M4 1H12C12.3689 1 12.7223 1.06659 13.0487 1.1884L4.83746 9.40161C4.80616 9.43302 4.78381 9.47222 4.77273 9.51516L4.27473 11.4215C4.26377 11.4635 4.26399 11.5077 4.27537 11.5496C4.28675 11.5915 4.30889 11.6297 4.3396 11.6604C4.3703 11.6911 4.40851 11.7133 4.45042 11.7246C4.49233 11.736 4.53648 11.7362 4.57851 11.7253L6.48484 11.2273C6.52773 11.2161 6.56689 11.1937 6.59839 11.1625L14.8105 2.94842C14.933 3.27566 15 3.63001 15 4V12C15 13.6569 13.6569 15 12 15H4C2.34315 15 1 13.6569 1 12V4C1 2.34315 2.34315 1 4 1ZM0 4C0 1.79086 1.79086 0 4 0H12C14.2091 0 16 1.79086 16 4V12C16 14.2091 14.2091 16 12 16H4C1.79086 16 0 14.2091 0 12V4Z" fill="#F9EFE3"/>
</svg>
