<svg width="13" height="14" viewBox="0 0 13 14" fill="none" xmlns="http://www.w3.org/2000/svg">
<path d="M3.77 1.42H3.64C3.7115 1.42 3.77 1.3615 3.77 1.29V1.42ZM3.77 1.42H8.71V1.29C8.71 1.3615 8.7685 1.42 8.84 1.42H8.71V2.59H9.88V1.29C9.88 0.716375 9.41362 0.25 8.84 0.25H3.64C3.06638 0.25 2.6 0.716375 2.6 1.29V2.59H3.77V1.42ZM11.96 2.59H0.52C0.232375 2.59 0 2.82237 0 3.11V3.63C0 3.7015 0.0585 3.76 0.13 3.76H1.1115L1.51288 12.2587C1.53887 12.8129 1.99712 13.25 2.55125 13.25H9.92875C10.4845 13.25 10.9411 12.8145 10.9671 12.2587L11.3685 3.76H12.35C12.4215 3.76 12.48 3.7015 12.48 3.63V3.11C12.48 2.82237 12.2476 2.59 11.96 2.59ZM9.80362 12.08H2.67638L2.28312 3.76H10.1969L9.80362 12.08Z" fill="white"/>
</svg>
