<svg width="12" height="14" viewBox="0 0 12 14" fill="none" xmlns="http://www.w3.org/2000/svg">
<path d="M5.67089 10.5266C5.87173 10.5266 6.0402 10.4585 6.1763 10.3224C6.31241 10.1863 6.38022 10.0181 6.37975 9.81772V6.98228C6.37975 6.78144 6.3117 6.6132 6.17559 6.47757C6.03949 6.34194 5.87126 6.27389 5.67089 6.27342C5.47004 6.27342 5.30181 6.34147 5.16618 6.47757C5.03055 6.61367 4.9625 6.78191 4.96203 6.98228V9.81772C4.96203 10.0186 5.03008 10.187 5.16618 10.3231C5.30228 10.4592 5.47051 10.5271 5.67089 10.5266ZM5.67089 4.8557C5.87173 4.8557 6.0402 4.78765 6.1763 4.65154C6.31241 4.51544 6.38022 4.34721 6.37975 4.14684C6.37975 3.94599 6.3117 3.77776 6.17559 3.64213C6.03949 3.5065 5.87126 3.43845 5.67089 3.43797C5.47004 3.43797 5.30181 3.50603 5.16618 3.64213C5.03055 3.77823 4.9625 3.94646 4.96203 4.14684C4.96203 4.34768 5.03008 4.51615 5.16618 4.65225C5.30228 4.78835 5.47051 4.85617 5.67089 4.8557ZM5.67089 14C5.58819 14 5.51139 13.9941 5.44051 13.9823C5.36962 13.9705 5.29873 13.9527 5.22785 13.9291C3.63291 13.3975 2.36287 12.4138 1.41772 10.9781C0.472574 9.54245 0 7.99784 0 6.3443V2.99494C0 2.69958 0.0857721 2.43376 0.257316 2.19747C0.428861 1.96118 0.650262 1.78987 0.921519 1.68354L5.17468 0.0886076C5.34008 0.0295359 5.50549 0 5.67089 0C5.83629 0 6.00169 0.0295359 6.16709 0.0886076L10.4203 1.68354C10.692 1.78987 10.9136 1.96118 11.0852 2.19747C11.2567 2.43376 11.3422 2.69958 11.3418 2.99494V6.3443C11.3418 7.99831 10.8692 9.54316 9.92405 10.9788C8.9789 12.4145 7.70886 13.3979 6.11392 13.9291C6.04304 13.9527 5.97215 13.9705 5.90127 13.9823C5.83038 13.9941 5.75359 14 5.67089 14ZM5.67089 12.5823C6.89958 12.1924 7.91561 11.4127 8.71899 10.243C9.52236 9.07342 9.92405 7.77384 9.92405 6.3443V2.99494L5.67089 1.4L1.41772 2.99494V6.3443C1.41772 7.77384 1.81941 9.07342 2.62278 10.243C3.42616 11.4127 4.44219 12.1924 5.67089 12.5823Z" fill="white"/>
</svg>
