<svg width="16" height="16" viewBox="0 0 16 16" fill="none" xmlns="http://www.w3.org/2000/svg">
<path d="M2.77723 5.50886C2.43155 5.50814 2.10123 5.61812 1.82744 5.85138L2.3102 6.418L1.82744 5.85138C1.61249 6.03452 1.44018 6.26444 1.3392 6.54213C1.23163 6.83796 1.22754 7.14169 1.29398 7.42959C1.37819 7.79447 1.59338 8.08323 1.88714 8.28249L4.23169 9.94792L3.29682 12.9821C3.18271 13.3158 3.1785 13.6801 3.33746 14.0282L4.01969 13.7167L3.33746 14.0282C3.45866 14.2936 3.64077 14.5241 3.88723 14.6968C4.14183 14.8757 4.43159 14.9661 4.73356 14.9772C5.09543 14.9906 5.4209 14.8673 5.68737 14.6532L8.07582 12.8296L10.4637 14.6528C10.7305 14.8678 11.057 14.9917 11.4204 14.9771C11.7208 14.9651 12.0093 14.8752 12.2632 14.6976C12.5105 14.5251 12.6934 14.2944 12.8149 14.0282C12.9741 13.6796 12.9694 13.3149 12.8546 12.9813L11.9199 9.94793L14.2645 8.28248C14.5583 8.08322 14.7735 7.79446 14.8577 7.42959L14.1269 7.26094L14.8577 7.42958C14.9241 7.14169 14.92 6.83796 14.8124 6.54213L14.8121 6.54131C14.711 6.26411 14.5386 6.03483 14.3242 5.85216L13.8378 6.42305L14.3242 5.85216C14.0507 5.61913 13.7208 5.50886 13.3753 5.50886H10.4827L9.52607 2.34198L9.52086 2.32473L9.51483 2.30776C9.40749 2.00565 9.22345 1.73314 8.94595 1.53478L8.5098 2.14492L8.94595 1.53478C8.69429 1.35489 8.39949 1.25027 8.07704 1.25M2.77723 5.50886C2.77765 5.50886 2.77806 5.50886 2.77848 5.50886L2.77634 6.25886V5.50886H2.77723ZM2.77723 5.50886H5.66891L6.62557 2.34198L6.63096 2.32415L6.63722 2.30661C6.74495 2.00495 6.92893 1.73239 7.20646 1.53401C7.45826 1.35402 7.75366 1.2492 8.07704 1.25M8.07704 1.25C8.07663 1.25 8.07623 1.25 8.07582 1.25V2L8.07833 1.25001C8.0779 1.25001 8.07747 1.25001 8.07704 1.25Z" stroke="white" stroke-width="1.5"/>
</svg>
