<svg width="25" height="24" viewBox="0 0 25 24" fill="none" xmlns="http://www.w3.org/2000/svg">
<mask id="path-1-inside-1_1180_5103" fill="white">
<path d="M20.6139 14.0089L20.595 13.9936L19.3269 12.9992C19.2466 12.9357 19.1826 12.854 19.1399 12.7609C19.0973 12.6678 19.0774 12.5659 19.0819 12.4636V11.9992C19.0778 11.8975 19.098 11.7964 19.1407 11.704C19.1833 11.6117 19.2473 11.5308 19.3273 11.468L20.595 10.4732L20.6139 10.4579C20.8094 10.2951 20.9405 10.068 20.984 9.81727C21.0274 9.56656 20.9802 9.30857 20.8509 9.08945L19.1349 6.12026C19.1329 6.11746 19.1312 6.1145 19.1297 6.11142C18.9996 5.89533 18.798 5.73159 18.5599 5.64866C18.3217 5.56572 18.062 5.56881 17.8259 5.6574L17.8118 5.66263L16.3212 6.26249C16.2271 6.30053 16.1253 6.31567 16.0243 6.30666C15.9232 6.29765 15.8257 6.26474 15.7398 6.21066C15.608 6.12763 15.4741 6.04914 15.338 5.97522C15.2498 5.92737 15.1741 5.85947 15.1169 5.77698C15.0597 5.69448 15.0228 5.59971 15.009 5.50031L14.7844 3.90964L14.7795 3.88071C14.7306 3.63434 14.5984 3.4123 14.4051 3.25192C14.2118 3.09153 13.9692 3.00258 13.718 3H10.282C10.0273 3.00082 9.78101 3.09149 9.5866 3.25606C9.3922 3.42062 9.2621 3.64852 9.21924 3.8996L9.21563 3.9221L8.99183 5.51598C8.97811 5.6151 8.94143 5.70964 8.88472 5.79209C8.82801 5.87454 8.75284 5.94261 8.66518 5.99089C8.52872 6.06439 8.39472 6.14238 8.2634 6.22472C8.17768 6.27848 8.08044 6.31113 7.97965 6.32C7.87886 6.32887 7.77741 6.3137 7.68362 6.27575L6.1918 5.67307L6.17773 5.66745C5.94127 5.57876 5.68119 5.57578 5.44276 5.65903C5.20432 5.74228 5.00262 5.90648 4.87274 6.12307L4.86751 6.13191L3.14908 9.10311C3.01956 9.32246 2.97228 9.58073 3.01571 9.83173C3.05914 10.0827 3.19044 10.3101 3.38613 10.4732L3.40502 10.4885L4.67305 11.4829C4.75335 11.5464 4.81744 11.6281 4.86004 11.7212C4.90265 11.8143 4.92256 11.9162 4.91814 12.0185V12.4829C4.92216 12.5846 4.90201 12.6857 4.85933 12.7781C4.81666 12.8704 4.75267 12.9513 4.67265 13.0141L3.40502 14.0089L3.38613 14.0242C3.19064 14.187 3.05944 14.4141 3.01601 14.6648C2.97259 14.9155 3.01975 15.1735 3.14908 15.3926L4.8651 18.3618C4.86708 18.3646 4.86883 18.3676 4.87033 18.3707C5.00035 18.5868 5.20196 18.7505 5.44013 18.8334C5.6783 18.9164 5.93799 18.9133 6.17412 18.8247L6.18818 18.8195L7.6776 18.2196C7.77168 18.1816 7.87346 18.1664 7.97454 18.1754C8.07562 18.1844 8.17311 18.2174 8.25898 18.2714C8.39076 18.3547 8.52469 18.4332 8.66076 18.5069C8.74899 18.5547 8.82473 18.6226 8.88189 18.7051C8.93905 18.7876 8.97602 18.8824 8.98983 18.9818L9.21322 20.5725L9.21804 20.6014C9.26702 20.8482 9.39958 21.0705 9.59339 21.2309C9.78719 21.3914 10.0304 21.4801 10.282 21.4821H13.718C13.9727 21.4813 14.219 21.3906 14.4134 21.226C14.6078 21.0615 14.7379 20.8336 14.7807 20.5825L14.7844 20.56L15.0082 18.9661C15.0221 18.8668 15.0591 18.7721 15.1162 18.6897C15.1732 18.6072 15.2488 18.5392 15.3368 18.4912C15.4742 18.4173 15.6084 18.3389 15.7386 18.2574C15.8243 18.2036 15.9216 18.171 16.0224 18.1621C16.1231 18.1532 16.2246 18.1684 16.3184 18.2063L17.8102 18.807L17.8243 18.8126C18.0607 18.9015 18.3208 18.9045 18.5593 18.8213C18.7978 18.738 18.9995 18.5737 19.1293 18.357C19.1309 18.354 19.1326 18.351 19.1345 18.3482L20.8505 15.3794C20.9803 15.1601 21.0277 14.9017 20.9844 14.6506C20.941 14.3995 20.8097 14.172 20.6139 14.0089ZM15.2107 12.3921C15.1814 13.0143 14.972 13.6146 14.6079 14.12C14.2438 14.6254 13.7407 15.0141 13.1598 15.2389C12.5789 15.4636 11.9452 15.5147 11.3357 15.386C10.7263 15.2573 10.1674 14.9543 9.72696 14.5138C9.28654 14.0734 8.98359 13.5144 8.85495 12.905C8.72631 12.2955 8.77752 11.6618 9.00235 11.0809C9.22718 10.5 9.61595 9.99698 10.1214 9.63294C10.6268 9.26891 11.2271 9.05957 11.8493 9.03039C12.296 9.01072 12.7419 9.08422 13.1587 9.24621C13.5754 9.4082 13.9539 9.65513 14.27 9.97131C14.5862 10.2875 14.8331 10.666 14.995 11.0828C15.1569 11.4995 15.2304 11.9454 15.2107 12.3921Z"/>
</mask>
<path d="M20.6139 14.0089L20.595 13.9936L19.3269 12.9992C19.2466 12.9357 19.1826 12.854 19.1399 12.7609C19.0973 12.6678 19.0774 12.5659 19.0819 12.4636V11.9992C19.0778 11.8975 19.098 11.7964 19.1407 11.704C19.1833 11.6117 19.2473 11.5308 19.3273 11.468L20.595 10.4732L20.6139 10.4579C20.8094 10.2951 20.9405 10.068 20.984 9.81727C21.0274 9.56656 20.9802 9.30857 20.8509 9.08945L19.1349 6.12026C19.1329 6.11746 19.1312 6.1145 19.1297 6.11142C18.9996 5.89533 18.798 5.73159 18.5599 5.64866C18.3217 5.56572 18.062 5.56881 17.8259 5.6574L17.8118 5.66263L16.3212 6.26249C16.2271 6.30053 16.1253 6.31567 16.0243 6.30666C15.9232 6.29765 15.8257 6.26474 15.7398 6.21066C15.608 6.12763 15.4741 6.04914 15.338 5.97522C15.2498 5.92737 15.1741 5.85947 15.1169 5.77698C15.0597 5.69448 15.0228 5.59971 15.009 5.50031L14.7844 3.90964L14.7795 3.88071C14.7306 3.63434 14.5984 3.4123 14.4051 3.25192C14.2118 3.09153 13.9692 3.00258 13.718 3H10.282C10.0273 3.00082 9.78101 3.09149 9.5866 3.25606C9.3922 3.42062 9.2621 3.64852 9.21924 3.8996L9.21563 3.9221L8.99183 5.51598C8.97811 5.6151 8.94143 5.70964 8.88472 5.79209C8.82801 5.87454 8.75284 5.94261 8.66518 5.99089C8.52872 6.06439 8.39472 6.14238 8.2634 6.22472C8.17768 6.27848 8.08044 6.31113 7.97965 6.32C7.87886 6.32887 7.77741 6.3137 7.68362 6.27575L6.1918 5.67307L6.17773 5.66745C5.94127 5.57876 5.68119 5.57578 5.44276 5.65903C5.20432 5.74228 5.00262 5.90648 4.87274 6.12307L4.86751 6.13191L3.14908 9.10311C3.01956 9.32246 2.97228 9.58073 3.01571 9.83173C3.05914 10.0827 3.19044 10.3101 3.38613 10.4732L3.40502 10.4885L4.67305 11.4829C4.75335 11.5464 4.81744 11.6281 4.86004 11.7212C4.90265 11.8143 4.92256 11.9162 4.91814 12.0185V12.4829C4.92216 12.5846 4.90201 12.6857 4.85933 12.7781C4.81666 12.8704 4.75267 12.9513 4.67265 13.0141L3.40502 14.0089L3.38613 14.0242C3.19064 14.187 3.05944 14.4141 3.01601 14.6648C2.97259 14.9155 3.01975 15.1735 3.14908 15.3926L4.8651 18.3618C4.86708 18.3646 4.86883 18.3676 4.87033 18.3707C5.00035 18.5868 5.20196 18.7505 5.44013 18.8334C5.6783 18.9164 5.93799 18.9133 6.17412 18.8247L6.18818 18.8195L7.6776 18.2196C7.77168 18.1816 7.87346 18.1664 7.97454 18.1754C8.07562 18.1844 8.17311 18.2174 8.25898 18.2714C8.39076 18.3547 8.52469 18.4332 8.66076 18.5069C8.74899 18.5547 8.82473 18.6226 8.88189 18.7051C8.93905 18.7876 8.97602 18.8824 8.98983 18.9818L9.21322 20.5725L9.21804 20.6014C9.26702 20.8482 9.39958 21.0705 9.59339 21.2309C9.78719 21.3914 10.0304 21.4801 10.282 21.4821H13.718C13.9727 21.4813 14.219 21.3906 14.4134 21.226C14.6078 21.0615 14.7379 20.8336 14.7807 20.5825L14.7844 20.56L15.0082 18.9661C15.0221 18.8668 15.0591 18.7721 15.1162 18.6897C15.1732 18.6072 15.2488 18.5392 15.3368 18.4912C15.4742 18.4173 15.6084 18.3389 15.7386 18.2574C15.8243 18.2036 15.9216 18.171 16.0224 18.1621C16.1231 18.1532 16.2246 18.1684 16.3184 18.2063L17.8102 18.807L17.8243 18.8126C18.0607 18.9015 18.3208 18.9045 18.5593 18.8213C18.7978 18.738 18.9995 18.5737 19.1293 18.357C19.1309 18.354 19.1326 18.351 19.1345 18.3482L20.8505 15.3794C20.9803 15.1601 21.0277 14.9017 20.9844 14.6506C20.941 14.3995 20.8097 14.172 20.6139 14.0089ZM15.2107 12.3921C15.1814 13.0143 14.972 13.6146 14.6079 14.12C14.2438 14.6254 13.7407 15.0141 13.1598 15.2389C12.5789 15.4636 11.9452 15.5147 11.3357 15.386C10.7263 15.2573 10.1674 14.9543 9.72696 14.5138C9.28654 14.0734 8.98359 13.5144 8.85495 12.905C8.72631 12.2955 8.77752 11.6618 9.00235 11.0809C9.22718 10.5 9.61595 9.99698 10.1214 9.63294C10.6268 9.26891 11.2271 9.05957 11.8493 9.03039C12.296 9.01072 12.7419 9.08422 13.1587 9.24621C13.5754 9.4082 13.9539 9.65513 14.27 9.97131C14.5862 10.2875 14.8331 10.666 14.995 11.0828C15.1569 11.4995 15.2304 11.9454 15.2107 12.3921Z" stroke="white" stroke-width="1.7619" mask="url(#path-1-inside-1_1180_5103)"/>
</svg>
