<svg width="12" height="13" viewBox="0 0 12 13" fill="none" xmlns="http://www.w3.org/2000/svg">
<path d="M9.78916 9.18876C9.29317 9.18876 8.8494 9.38454 8.51004 9.69127L3.85693 6.98293C3.88956 6.83283 3.91566 6.68273 3.91566 6.5261C3.91566 6.36948 3.88956 6.21938 3.85693 6.06928L8.45783 3.38705C8.81024 3.71335 9.27359 3.91566 9.78916 3.91566C10.8725 3.91566 11.747 3.04116 11.747 1.95783C11.747 0.874498 10.8725 0 9.78916 0C8.70582 0 7.83133 0.874498 7.83133 1.95783C7.83133 2.11446 7.85743 2.26456 7.89006 2.41466L3.28916 5.09689C2.93675 4.77058 2.47339 4.56827 1.95783 4.56827C0.874498 4.56827 0 5.44277 0 6.5261C0 7.60944 0.874498 8.48394 1.95783 8.48394C2.47339 8.48394 2.93675 8.28163 3.28916 7.95532L7.93574 10.6702C7.90311 10.8072 7.88353 10.9508 7.88353 11.0944C7.88353 12.1451 8.73845 13 9.78916 13C10.8399 13 11.6948 12.1451 11.6948 11.0944C11.6948 10.0437 10.8399 9.18876 9.78916 9.18876Z" fill="white"/>
</svg>
