<svg width="16" height="12" viewBox="0 0 16 12" fill="none" xmlns="http://www.w3.org/2000/svg">
<path d="M0.541016 1.87498C0.541016 1.4661 0.703441 1.07398 0.992559 0.784857C1.28168 0.495738 1.67381 0.333313 2.08268 0.333313H14.416C14.8249 0.333313 15.217 0.495738 15.5061 0.784857C15.7953 1.07398 15.9577 1.4661 15.9577 1.87498V10.3541C15.9577 10.763 15.7953 11.1551 15.5061 11.4443C15.217 11.7334 14.8249 11.8958 14.416 11.8958H10.881H5.61772H2.08268C1.67381 11.8958 1.28168 11.7334 0.992559 11.4443C0.703441 11.1551 0.541016 10.763 0.541016 10.3541V1.87498ZM14.416 1.87498H2.08268V10.3541H5.93685C6.14127 10.3542 6.52372 10.3541 6.52372 10.3541H10.5618L10.0169 10.58C10.1614 10.4354 10.3574 10.3542 10.5618 10.3541H14.416V1.87498ZM3.62435 4.5729C3.62435 4.36846 3.70556 4.17239 3.85012 4.02783C3.99468 3.88328 4.19074 3.80206 4.39518 3.80206H12.1035C12.308 3.80206 12.504 3.88328 12.6486 4.02783C12.7931 4.17239 12.8743 4.36846 12.8743 4.5729C12.8743 4.77733 12.7931 4.9734 12.6486 5.11796C12.504 5.26252 12.308 5.34373 12.1035 5.34373H4.39518C4.19074 5.34373 3.99468 5.26252 3.85012 5.11796C3.70556 4.9734 3.62435 4.77733 3.62435 4.5729ZM3.62435 7.65623C3.62435 7.45179 3.70556 7.25573 3.85012 7.11117C3.99468 6.96661 4.19074 6.8854 4.39518 6.8854H9.02018C9.22462 6.8854 9.42068 6.96661 9.56524 7.11117C9.7098 7.25573 9.79101 7.45179 9.79101 7.65623C9.79101 7.86067 9.7098 8.05673 9.56524 8.20129C9.42068 8.34585 9.22462 8.42706 9.02018 8.42706H4.39518C4.19074 8.42706 3.99468 8.34585 3.85012 8.20129C3.70556 8.05673 3.62435 7.86067 3.62435 7.65623Z" fill="white"/>
</svg>
