<svg width="50" height="50" viewBox="0 0 50 50" fill="none" xmlns="http://www.w3.org/2000/svg">
<g clip-path="url(#clip0_599_24592)">
<path fill-rule="evenodd" clip-rule="evenodd" d="M25.3848 0C14.6784 0 6 8.67841 6 19.3848C6 30.0911 14.6784 38.7695 25.3848 38.7695C36.0911 38.7695 44.7695 30.0911 44.7695 19.3848C44.7695 8.67841 36.0911 0 25.3848 0ZM19.4202 10.4379C19.0247 10.4379 18.6455 10.5951 18.3658 10.8747C18.0862 11.1543 17.9291 11.5336 17.9291 11.9291C17.9291 12.3246 18.0862 12.7038 18.3658 12.9835C18.6455 13.2631 19.0247 13.4202 19.4202 13.4202H22.4025C24.3509 13.4202 26.0071 14.6648 26.6214 16.4025H19.4202C19.0247 16.4025 18.6455 16.5596 18.3658 16.8392C18.0862 17.1189 17.9291 17.4982 17.9291 17.8936C17.9291 18.2891 18.0862 18.6684 18.3658 18.948C18.6455 19.2277 19.0247 19.3848 19.4202 19.3848H26.6214C26.3127 20.257 25.7413 21.0121 24.9858 21.5462C24.2302 22.0802 23.3277 22.367 22.4025 22.367H19.4202C19.1255 22.3673 18.8375 22.4549 18.5925 22.6188C18.3475 22.7826 18.1566 23.0154 18.0438 23.2877C17.9311 23.56 17.9015 23.8596 17.959 24.1487C18.0164 24.4378 18.1582 24.7034 18.3665 24.9119L24.331 30.8764C24.4675 31.023 24.6322 31.1405 24.8151 31.222C24.998 31.3035 25.1954 31.3473 25.3957 31.3508C25.5959 31.3543 25.7947 31.3175 25.9804 31.2425C26.1661 31.1675 26.3348 31.0559 26.4764 30.9143C26.6179 30.7727 26.7296 30.604 26.8046 30.4184C26.8796 30.2327 26.9164 30.0338 26.9129 29.8336C26.9093 29.6334 26.8655 29.4359 26.784 29.253C26.7025 29.0701 26.585 28.9055 26.4385 28.769L22.9989 25.3254C24.61 25.1958 26.1354 24.5465 27.3456 23.4751C28.5557 22.4037 29.3851 20.9682 29.7091 19.3848H31.3493C31.7448 19.3848 32.1241 19.2277 32.4037 18.948C32.6833 18.6684 32.8404 18.2891 32.8404 17.8936C32.8404 17.4982 32.6833 17.1189 32.4037 16.8392C32.1241 16.5596 31.7448 16.4025 31.3493 16.4025H29.7091C29.489 15.321 29.0306 14.3022 28.367 13.4202H31.3493C31.7448 13.4202 32.1241 13.2631 32.4037 12.9835C32.6833 12.7038 32.8404 12.3246 32.8404 11.9291C32.8404 11.5336 32.6833 11.1543 32.4037 10.8747C32.1241 10.5951 31.7448 10.4379 31.3493 10.4379H19.4202Z" fill="#A9E32C"/>
<path d="M46.875 34H43.7012C41.7871 36.5391 39.3457 38.6582 36.5723 40.25H42.8027C43.3203 40.25 43.7402 40.6016 43.7402 41.0312V42.5937C43.7402 43.0234 43.3203 43.375 42.8027 43.375H7.1875C6.66992 43.375 6.25 43.0234 6.25 42.5937V41.0312C6.25 40.6016 6.66992 40.25 7.1875 40.25H13.418C10.6445 38.6582 8.21289 36.5391 6.28906 34H3.125C1.39648 34 0 35.3965 0 37.125V46.5C0 48.2285 1.39648 49.625 3.125 49.625H46.875C48.6035 49.625 50 48.2285 50 46.5V37.125C50 35.3965 48.6035 34 46.875 34Z" fill="#A9E32C"/>
</g>
<defs>
<clipPath id="clip0_599_24592">
<rect width="50" height="50" fill="white"/>
</clipPath>
</defs>
</svg>
