<svg width="50" height="50" viewBox="0 0 50 50" fill="none" xmlns="http://www.w3.org/2000/svg">
<path fill-rule="evenodd" clip-rule="evenodd" d="M14.0442 10.7143V12.5H9.37483C7.11886 12.5 5.22949 14.2238 4.99215 16.4976L2.02414 45.069C1.95959 45.6913 2.02485 46.3203 2.2157 46.9154C2.40655 47.5104 2.71872 48.0582 3.13196 48.5231C3.5452 48.9881 4.05029 49.3598 4.61446 49.6142C5.17863 49.8687 5.78929 50.0001 6.40682 50H42.8313C43.4488 50.0001 44.0595 49.8687 44.6236 49.6142C45.1878 49.3598 45.6929 48.9881 46.1061 48.5231C46.5194 48.0582 46.8316 47.5104 47.0224 46.9154C47.2132 46.3203 47.2785 45.6913 47.214 45.069L44.2459 16.4976C44.1321 15.4003 43.6213 14.3847 42.812 13.6465C42.0027 12.9082 40.9522 12.4998 39.8633 12.5H35.1939V10.7143C35.1939 7.87268 34.0798 5.14746 32.0966 3.13814C30.1134 1.12882 27.4237 0 24.619 0C21.8144 0 19.1247 1.12882 17.1415 3.13814C15.1583 5.14746 14.0442 7.87268 14.0442 10.7143ZM24.619 3.57143C22.7493 3.57143 20.9561 4.32398 19.634 5.66352C18.3119 7.00307 17.5692 8.81988 17.5692 10.7143V12.5H31.6689V10.7143C31.6689 8.81988 30.9262 7.00307 29.6041 5.66352C28.282 4.32398 26.4888 3.57143 24.619 3.57143ZM17.5692 23.2143C17.5692 25.1087 18.3119 26.9255 19.634 28.265C20.9561 29.6046 22.7493 30.3571 24.619 30.3571C26.4888 30.3571 28.282 29.6046 29.6041 28.265C30.9262 26.9255 31.6689 25.1087 31.6689 23.2143V21.4286C31.6689 20.955 31.8546 20.5008 32.1852 20.1659C32.5157 19.831 32.964 19.6429 33.4314 19.6429C33.8989 19.6429 34.3471 19.831 34.6777 20.1659C35.0082 20.5008 35.1939 20.955 35.1939 21.4286V23.2143C35.1939 26.0559 34.0798 28.7811 32.0966 30.7904C30.1134 32.7997 27.4237 33.9286 24.619 33.9286C21.8144 33.9286 19.1247 32.7997 17.1415 30.7904C15.1583 28.7811 14.0442 26.0559 14.0442 23.2143V21.4286C14.0442 20.955 14.2299 20.5008 14.5604 20.1659C14.891 19.831 15.3392 19.6429 15.8067 19.6429C16.2741 19.6429 16.7224 19.831 17.0529 20.1659C17.3835 20.5008 17.5692 20.955 17.5692 21.4286V23.2143Z" fill="#A9E32C"/>
</svg>
