<svg width="50" height="50" viewBox="0 0 50 50" fill="none" xmlns="http://www.w3.org/2000/svg">
<path fill-rule="evenodd" clip-rule="evenodd" d="M20 5H30C39.4275 5 44.1425 5 47.07 7.99659C49.18 10.152 49.77 13.256 49.935 18.4233H0.0650001C0.23 13.256 0.82 10.152 2.93 7.99659C5.8575 5 10.5725 5 20 5ZM30 45.9091H20C10.5725 45.9091 5.8575 45.9091 2.93 42.9125C-2.98023e-07 39.9185 0 35.0963 0 25.4545C0 24.3244 2.33413e-07 23.2608 0.00500023 22.2585H49.995C50 23.2608 50 24.3244 50 25.4545C50 35.0963 50 39.9185 47.07 42.9125C44.1425 45.9091 39.4275 45.9091 30 45.9091ZM10 33.7642C9.50272 33.7642 9.02581 33.9662 8.67417 34.3259C8.32254 34.6855 8.125 35.1732 8.125 35.6818C8.125 36.1904 8.32254 36.6782 8.67417 37.0378C9.02581 37.3974 9.50272 37.5994 10 37.5994H20C20.4973 37.5994 20.9742 37.3974 21.3258 37.0378C21.6775 36.6782 21.875 36.1904 21.875 35.6818C21.875 35.1732 21.6775 34.6855 21.3258 34.3259C20.9742 33.9662 20.4973 33.7642 20 33.7642H10ZM26.25 33.7642C25.7527 33.7642 25.2758 33.9662 24.9242 34.3259C24.5725 34.6855 24.375 35.1732 24.375 35.6818C24.375 36.1904 24.5725 36.6782 24.9242 37.0378C25.2758 37.3974 25.7527 37.5994 26.25 37.5994H30C30.4973 37.5994 30.9742 37.3974 31.3258 37.0378C31.6775 36.6782 31.875 36.1904 31.875 35.6818C31.875 35.1732 31.6775 34.6855 31.3258 34.3259C30.9742 33.9662 30.4973 33.7642 30 33.7642H26.25Z" fill="#A9E32C"/>
</svg>
