<svg width="50" height="50" viewBox="0 0 50 50" fill="none" xmlns="http://www.w3.org/2000/svg">
<g clip-path="url(#clip0_599_24586)">
<path d="M33.9444 2.63863e-07C35.262 -0.000419945 36.5309 0.50107 37.497 1.40394C38.4631 2.30681 39.0548 3.54433 39.1536 4.86842L39.1667 5.26316V18.4211H43.0833C44.057 18.4211 44.9957 18.7866 45.7164 19.4464C46.4372 20.1061 46.8883 21.0127 46.9817 21.9895L47 22.3684V42.1053C47.0001 44.119 46.2367 46.0566 44.866 47.5217C43.4953 48.9869 41.6208 49.8687 39.6262 49.9868L39.1667 50H5.22222C3.90472 50.0004 2.63574 49.4989 1.66968 48.5961C0.703618 47.6932 0.111869 46.4557 0.0130561 45.1316L2.61811e-07 44.7368V5.26316C-0.000416679 3.93533 0.497172 2.6564 1.39302 1.68277C2.28887 0.709133 3.51676 0.112746 4.83056 0.0131585L5.22222 2.63863e-07H33.9444ZM41.7778 23.6842H39.1667V44.7368C39.8592 44.7368 40.5233 44.4596 41.013 43.9661C41.5027 43.4726 41.7778 42.8032 41.7778 42.1053V23.6842ZM20.8889 26.3158H13.0556C12.39 26.3165 11.7499 26.5734 11.266 27.0338C10.782 27.4943 10.4908 28.1236 10.4518 28.7931C10.4128 29.4627 10.629 30.1221 11.0561 30.6364C11.4833 31.1508 12.0892 31.4813 12.7501 31.5605L13.0556 31.5789H20.8889C21.5544 31.5782 22.1945 31.3214 22.6785 30.8609C23.1624 30.4005 23.4536 29.7712 23.4926 29.1016C23.5316 28.432 23.3155 27.7727 22.8883 27.2583C22.4612 26.744 21.8552 26.4134 21.1944 26.3342L20.8889 26.3158ZM26.1111 13.1579H13.0556C12.363 13.1579 11.6989 13.4352 11.2092 13.9287C10.7195 14.4222 10.4444 15.0915 10.4444 15.7895C10.4444 16.4874 10.7195 17.1568 11.2092 17.6503C11.6989 18.1438 12.363 18.4211 13.0556 18.4211H26.1111C26.8036 18.4211 27.4678 18.1438 27.9574 17.6503C28.4471 17.1568 28.7222 16.4874 28.7222 15.7895C28.7222 15.0915 28.4471 14.4222 27.9574 13.9287C27.4678 13.4352 26.8036 13.1579 26.1111 13.1579Z" fill="#A9E32C"/>
</g>
<defs>
<clipPath id="clip0_599_24586">
<rect width="50" height="50" fill="white"/>
</clipPath>
</defs>
</svg>
