<svg width="49" height="50" viewBox="0 0 49 50" fill="none" xmlns="http://www.w3.org/2000/svg">
<path d="M48.7903 24.7451C48.6135 24.1587 48.2986 23.6233 47.8719 23.1839C47.5463 22.8326 47.1283 22.5801 46.6658 22.4554C46.8924 22.8135 47.0975 23.2268 47.2505 23.6676C47.4219 24.1176 47.5321 24.5982 47.5658 25.0971C47.6174 25.5282 47.6174 25.964 47.5658 26.3951C47.4703 26.0755 47.3235 25.7736 47.1311 25.5012C46.752 24.9889 46.2455 24.5847 45.6618 24.3288C45.0153 24.0377 44.2839 23.996 43.6085 24.2119C42.9331 24.4278 42.3615 24.886 42.0037 25.4981C41.8507 25.7492 41.7282 26.0216 41.6364 26.3124C38.0181 20.2881 31.5071 16.2994 24.0624 16.2994C23.6828 16.2994 23.3063 16.3086 22.9329 16.33C20.6232 16.3344 18.3251 16.6568 16.1035 17.2882C15.9137 15.9597 14.1688 13.2659 6.14865 13.2659L8.59756 20.9493C7.05764 22.1941 5.76314 23.7149 4.78033 25.4339L0.0263837 25.5104C0.0263837 25.5104 -0.494009 37.7549 3.08752 37.7549H4.74053C5.86587 39.6625 7.37151 41.3181 9.16387 42.6191L9.20979 49.9995H12.5158C16.5259 49.9995 18.3932 49.9995 18.3932 47.7036V46.5098C21.4809 47.0819 24.6481 47.0736 27.7327 46.4853L27.5766 47.7036C27.5766 49.9995 29.4745 49.9995 33.5152 49.9995H36.76V42.6834C39.6304 40.6933 41.6961 37.744 42.5854 34.3663C42.7598 34.2836 42.9343 34.2928 43.1119 34.2928C43.2894 34.2928 43.4639 34.2836 43.6384 34.2622C44.4067 34.1214 45.1077 33.8214 45.7169 33.3959C46.5402 32.8134 47.1703 31.9978 47.526 31.0541C47.6117 30.7694 47.676 30.4694 47.7189 30.1603L47.7219 30.1297C48.3984 29.3276 48.8607 28.3236 49.0046 27.2185C49.1297 26.3741 49.0541 25.5121 48.7841 24.7023L48.7903 24.7451ZM10.771 24.7451C11.3799 24.7451 11.9638 24.987 12.3944 25.4176C12.8249 25.8481 13.0668 26.4321 13.0668 27.041C13.0668 27.6499 12.8249 28.2338 12.3944 28.6644C11.9638 29.0949 11.3799 29.3368 10.771 29.3368C10.1621 29.3368 9.57811 29.0949 9.14756 28.6644C8.717 28.2338 8.47512 27.6499 8.47512 27.041C8.47512 26.4321 8.717 25.8481 9.14756 25.4176C9.57811 24.987 10.1621 24.7451 10.771 24.7451ZM18.0259 22.4493C17.6802 22.5601 17.3064 22.545 16.9707 22.4066C16.6351 22.2682 16.3593 22.0155 16.1922 21.6932C16.1402 21.5325 16.1228 21.3627 16.1412 21.1949C16.1596 21.027 16.2133 20.865 16.299 20.7195C16.3846 20.574 16.5001 20.4483 16.6379 20.3507C16.7757 20.2531 16.9326 20.1859 17.0983 20.1534C19.1117 19.6706 21.178 19.4444 23.2482 19.48L23.5573 19.4769C25.6144 19.4769 27.6103 19.7218 29.5235 20.1871C29.9092 20.2605 30.3255 20.7442 30.3255 21.3258C30.3254 21.4495 30.3057 21.5725 30.2673 21.6901C30.1602 21.8886 30.009 22.0599 29.8254 22.1909C29.6418 22.322 29.4307 22.4093 29.2082 22.4462H28.7398C27.0297 22.0344 25.2765 21.8289 23.5175 21.834H23.2451C21.3931 21.834 19.5932 22.0574 17.8697 22.4799L18.0259 22.4493ZM44.6577 31.4184C44.2447 31.7188 43.7717 31.9266 43.271 32.0275L42.8823 32.0306V30.6837C43.3874 31.0664 44.0271 31.2959 44.719 31.2959H44.7832L44.6577 31.4184ZM44.9026 29.3368C44.6181 29.3767 44.3282 29.3245 44.0754 29.1879C43.8227 29.0514 43.6202 28.8375 43.4976 28.5777C43.3573 28.3103 43.2843 28.0129 43.2848 27.711C43.2853 27.4091 43.3594 27.1119 43.5006 26.8451C43.6462 26.6436 43.8605 26.5025 44.103 26.4483C44.3455 26.3942 44.5995 26.4308 44.8169 26.5512C45.0943 26.6576 45.3329 26.8457 45.5012 27.0905C45.6695 27.3354 45.7597 27.6255 45.7597 27.9226C45.8202 28.347 45.8192 28.781 45.7567 29.2052C45.4724 29.26 45.1828 29.2826 44.8934 29.2725L44.9026 29.3368ZM24.5155 10.2047H21.4543V9.68432H22.2196V6.34769H21.4543L23.138 4.66406H23.7502V9.68432H24.5155V10.2047Z" fill="#A9E32C"/>
<path d="M23.2137 2.29585C23.8169 2.29605 24.4142 2.41506 24.9714 2.64608C25.5286 2.87709 26.0348 3.2156 26.4612 3.64226C26.8876 4.06892 27.2257 4.57539 27.4564 5.13274C27.687 5.6901 27.8056 6.28742 27.8054 6.89062C27.8052 7.49381 27.6862 8.09105 27.4552 8.64825C27.2242 9.20545 26.8857 9.71169 26.459 10.1381C26.0324 10.5645 25.5259 10.9026 24.9685 11.1333C24.4112 11.3639 23.8139 11.4825 23.2107 11.4823C21.9925 11.4819 20.8243 10.9976 19.9632 10.1359C19.1021 9.27422 18.6186 8.10576 18.619 6.88755C18.6194 5.66935 19.1037 4.50121 19.9654 3.6401C20.8271 2.77898 21.9955 2.29545 23.2137 2.29585ZM23.2137 0C21.387 0 19.6352 0.725651 18.3435 2.01732C17.0518 3.30898 16.3262 5.06086 16.3262 6.88755C16.3262 8.71425 17.0518 10.4661 18.3435 11.7578C19.6352 13.0495 21.387 13.7751 23.2137 13.7751C25.0404 13.7751 26.7923 13.0495 28.084 11.7578C29.3756 10.4661 30.1013 8.71425 30.1013 6.88755C30.1013 5.06086 29.3756 3.30898 28.084 2.01732C26.7923 0.725651 25.0404 0 23.2137 0Z" fill="#A9E32C"/>
<path d="M23.2137 2.29585C23.8169 2.29605 24.4142 2.41506 24.9714 2.64608C25.5286 2.87709 26.0348 3.2156 26.4612 3.64226C26.8876 4.06892 27.2257 4.57539 27.4564 5.13274C27.687 5.6901 27.8056 6.28742 27.8054 6.89062C27.8052 7.49381 27.6862 8.09105 27.4552 8.64825C27.2242 9.20545 26.8857 9.71169 26.459 10.1381C26.0324 10.5645 25.5259 10.9026 24.9685 11.1333C24.4112 11.3639 23.8139 11.4825 23.2107 11.4823C21.9925 11.4819 20.8243 10.9976 19.9632 10.1359C19.1021 9.27422 18.6186 8.10576 18.619 6.88755C18.6194 5.66935 19.1037 4.50121 19.9654 3.6401C20.8271 2.77898 21.9955 2.29545 23.2137 2.29585ZM23.2137 0C21.387 0 19.6352 0.725651 18.3435 2.01732C17.0518 3.30898 16.3262 5.06086 16.3262 6.88755C16.3262 8.71425 17.0518 10.4661 18.3435 11.7578C19.6352 13.0495 21.387 13.7751 23.2137 13.7751C25.0404 13.7751 26.7923 13.0495 28.084 11.7578C29.3756 10.4661 30.1013 8.71425 30.1013 6.88755C30.1013 5.06086 29.3756 3.30898 28.084 2.01732C26.7923 0.725651 25.0404 0 23.2137 0Z" fill="#1F1F1F" fill-opacity="0.1"/>
</svg>
