<svg width="24" height="24" viewBox="0 0 24 24" fill="none" xmlns="http://www.w3.org/2000/svg">
<path d="M12 3C14.3869 3 16.6761 3.94821 18.364 5.63604C20.0518 7.32387 21 9.61305 21 12C21 14.3869 20.0518 16.6761 18.364 18.364C16.6761 20.0518 14.3869 21 12 21C9.61305 21 7.32387 20.0518 5.63604 18.364C3.94821 16.6761 3 14.3869 3 12C3 9.61305 3.94821 7.32387 5.63604 5.63604C7.32387 3.94821 9.61305 3 12 3ZM7.5 12C7.5 12.2046 7.58127 12.4008 7.72595 12.5455C7.87062 12.6902 8.06683 12.7714 8.27143 12.7714H15.7286C15.9332 12.7714 16.1294 12.6902 16.2741 12.5455C16.4187 12.4008 16.5 12.2046 16.5 12C16.5 11.7954 16.4187 11.5992 16.2741 11.4545C16.1294 11.3098 15.9332 11.2286 15.7286 11.2286H8.27143C8.17012 11.2286 8.06981 11.2485 7.97622 11.2873C7.88262 11.3261 7.79758 11.3829 7.72595 11.4545C7.65431 11.5262 7.59749 11.6112 7.55872 11.7048C7.51995 11.7984 7.5 11.8987 7.5 12Z" fill="white"/>
</svg>
